G04 #@! TF.FileFunction,Copper,L1,Top,Signal*
%FSLAX46Y46*%
G04 Gerber Fmt 4.6, Leading zero omitted, Abs format (unit mm)*
G04 Created by KiCad (PCBNEW 4.0.7) date Saturday, May 19, 2018 'PMt' 08:47:35 PM*
%MOMM*%
%LPD*%
G01*
G04 APERTURE LIST*
%ADD10C,0.100000*%
%ADD11C,6.400000*%
%ADD12C,1.000000*%
%ADD13R,1.300000X0.250000*%
%ADD14R,0.250000X1.300000*%
%ADD15R,0.750000X0.800000*%
%ADD16R,0.800000X0.750000*%
%ADD17R,0.900000X0.500000*%
%ADD18R,0.500000X0.900000*%
%ADD19R,1.060000X0.650000*%
%ADD20R,2.000000X4.500000*%
%ADD21R,1.000000X0.890000*%
%ADD22R,2.000000X0.330000*%
%ADD23R,0.500000X0.250000*%
%ADD24R,0.840000X2.400000*%
%ADD25C,0.400000*%
%ADD26R,1.000000X1.000000*%
%ADD27O,1.000000X1.000000*%
%ADD28R,1.700000X1.700000*%
%ADD29O,1.700000X1.700000*%
%ADD30R,1.600000X1.600000*%
%ADD31O,1.600000X1.600000*%
%ADD32C,0.500000*%
%ADD33C,0.300000*%
%ADD34C,0.200000*%
%ADD35C,1.000000*%
%ADD36C,0.500000*%
%ADD37C,0.150000*%
%ADD38C,0.026000*%
%ADD39C,0.254000*%
G04 APERTURE END LIST*
D10*
D11*
X227200000Y-117800000D03*
D12*
X225000000Y-91200000D03*
X231400000Y-95600000D03*
X230200000Y-78800000D03*
X230400000Y-87000000D03*
X240400000Y-91600000D03*
X237800000Y-58900000D03*
X236200000Y-62800000D03*
X235600000Y-81000000D03*
X234320000Y-113200000D03*
X248400000Y-92400000D03*
X245000000Y-88600000D03*
X240800000Y-88600000D03*
X241800000Y-77000000D03*
X242800000Y-69000000D03*
D13*
X238850000Y-85750000D03*
X238850000Y-85250000D03*
X238850000Y-84750000D03*
X238850000Y-84250000D03*
X238850000Y-83750000D03*
X238850000Y-83250000D03*
X238850000Y-82750000D03*
X238850000Y-82250000D03*
X238850000Y-81750000D03*
X238850000Y-81250000D03*
X238850000Y-80750000D03*
X238850000Y-80250000D03*
D14*
X237250000Y-78650000D03*
X236750000Y-78650000D03*
X236250000Y-78650000D03*
X235750000Y-78650000D03*
X235250000Y-78650000D03*
X234750000Y-78650000D03*
X234250000Y-78650000D03*
X233750000Y-78650000D03*
X233250000Y-78650000D03*
X232750000Y-78650000D03*
X232250000Y-78650000D03*
X231750000Y-78650000D03*
D13*
X230150000Y-80250000D03*
X230150000Y-80750000D03*
X230150000Y-81250000D03*
X230150000Y-81750000D03*
X230150000Y-82250000D03*
X230150000Y-82750000D03*
X230150000Y-83250000D03*
X230150000Y-83750000D03*
X230150000Y-84250000D03*
X230150000Y-84750000D03*
X230150000Y-85250000D03*
X230150000Y-85750000D03*
D14*
X231750000Y-87350000D03*
X232250000Y-87350000D03*
X232750000Y-87350000D03*
X233250000Y-87350000D03*
X233750000Y-87350000D03*
X234250000Y-87350000D03*
X234750000Y-87350000D03*
X235250000Y-87350000D03*
X235750000Y-87350000D03*
X236250000Y-87350000D03*
X236750000Y-87350000D03*
X237250000Y-87350000D03*
D15*
X246000000Y-79500000D03*
X246000000Y-81000000D03*
X244500000Y-79500000D03*
X244500000Y-81000000D03*
D16*
X238000000Y-91750000D03*
X236500000Y-91750000D03*
X238000000Y-90000000D03*
X236500000Y-90000000D03*
X237500000Y-75250000D03*
X236000000Y-75250000D03*
X231500000Y-75250000D03*
X233000000Y-75250000D03*
D15*
X243920000Y-66150000D03*
X243920000Y-64650000D03*
X236200000Y-59250000D03*
X236200000Y-60750000D03*
D16*
X238000000Y-57450000D03*
X239500000Y-57450000D03*
D15*
X239000000Y-97650000D03*
X239000000Y-96150000D03*
X245000000Y-97650000D03*
X245000000Y-96150000D03*
X246500000Y-83750000D03*
X246500000Y-85250000D03*
X244500000Y-82500000D03*
X244500000Y-84000000D03*
D17*
X242750000Y-88000000D03*
X242750000Y-89500000D03*
D18*
X235500000Y-72750000D03*
X234000000Y-72750000D03*
X231750000Y-92400000D03*
X230250000Y-92400000D03*
X236250000Y-70500000D03*
X234750000Y-70500000D03*
D17*
X226400000Y-95950000D03*
X226400000Y-94450000D03*
X224800000Y-94450000D03*
X224800000Y-95950000D03*
X228000000Y-94450000D03*
X228000000Y-95950000D03*
D18*
X231750000Y-90400000D03*
X230250000Y-90400000D03*
X239250000Y-66250000D03*
X237750000Y-66250000D03*
X237750000Y-64250000D03*
X239250000Y-64250000D03*
D19*
X240900000Y-95950000D03*
X240900000Y-96900000D03*
X240900000Y-97850000D03*
X243100000Y-97850000D03*
X243100000Y-95950000D03*
D20*
X251000000Y-87250000D03*
X251000000Y-78750000D03*
D10*
G36*
X244745000Y-56890000D02*
X240855000Y-56890000D01*
X241405000Y-56330000D01*
X244195000Y-56330000D01*
X244745000Y-56890000D01*
X244745000Y-56890000D01*
G37*
D21*
X241350000Y-57330000D03*
X244240000Y-57330000D03*
X244240000Y-59670000D03*
D10*
G36*
X240855000Y-60110000D02*
X244745000Y-60110000D01*
X244195000Y-60670000D01*
X241405000Y-60670000D01*
X240855000Y-60110000D01*
X240855000Y-60110000D01*
G37*
D21*
X241360000Y-59670000D03*
D22*
X242780000Y-57050000D03*
X242800000Y-59950000D03*
D23*
X237800000Y-60250000D03*
X237800000Y-60750000D03*
X237800000Y-61250000D03*
X237800000Y-61750000D03*
X237800000Y-62250000D03*
X239700000Y-62250000D03*
X239700000Y-61750000D03*
X239700000Y-61250000D03*
X239700000Y-60750000D03*
X239700000Y-60250000D03*
D24*
X238750000Y-61250000D03*
D25*
X238750000Y-61250000D03*
X238750000Y-62200000D03*
X238750000Y-60300000D03*
D26*
X230990000Y-108410000D03*
D27*
X229720000Y-108410000D03*
X230990000Y-107140000D03*
X229720000Y-107140000D03*
X230990000Y-105870000D03*
X229720000Y-105870000D03*
X230990000Y-104600000D03*
X229720000Y-104600000D03*
X230990000Y-103330000D03*
X229720000Y-103330000D03*
D28*
X226000000Y-66040000D03*
D29*
X226000000Y-63500000D03*
X226000000Y-60960000D03*
X226000000Y-58420000D03*
D30*
X248920000Y-66040000D03*
D31*
X256540000Y-58420000D03*
X251460000Y-66040000D03*
X254000000Y-58420000D03*
X254000000Y-66040000D03*
X251460000Y-58420000D03*
X256540000Y-66040000D03*
X248920000Y-58420000D03*
D28*
X256540000Y-71120000D03*
D29*
X256540000Y-73660000D03*
X256540000Y-76200000D03*
X256540000Y-78740000D03*
X256540000Y-81280000D03*
X256540000Y-83820000D03*
D28*
X256540000Y-88900000D03*
D29*
X256540000Y-91440000D03*
X256540000Y-93980000D03*
X256540000Y-96520000D03*
X256540000Y-99060000D03*
X256540000Y-101600000D03*
D28*
X256540000Y-106680000D03*
D29*
X256540000Y-109220000D03*
X256540000Y-111760000D03*
X256540000Y-114300000D03*
X256540000Y-116840000D03*
X256540000Y-119380000D03*
D11*
X227000000Y-72000000D03*
D32*
X238000000Y-97000000D03*
D12*
X236200000Y-96200000D03*
X228400000Y-76400000D03*
D32*
X240500000Y-98900000D03*
D12*
X250200000Y-90750000D03*
D32*
X229000000Y-100200000D03*
X232800000Y-90400000D03*
D12*
X252400000Y-75400000D03*
X238500000Y-74000000D03*
X247800000Y-77200000D03*
X235000000Y-90000000D03*
X242750000Y-90750000D03*
D32*
X233600000Y-70200000D03*
X232800000Y-71100000D03*
X228400000Y-104600000D03*
X230200000Y-88800000D03*
X240200000Y-67000000D03*
X237400000Y-85200000D03*
X238250000Y-78750000D03*
X236200000Y-80000000D03*
X237750000Y-81000000D03*
X243000000Y-81500010D03*
X241250000Y-80500000D03*
X240250000Y-80000000D03*
X232500000Y-80500000D03*
X231750000Y-80500000D03*
X231500000Y-81250000D03*
X231538916Y-81961084D03*
X231400000Y-83200000D03*
X231400000Y-84000000D03*
X231400000Y-84800000D03*
X231400000Y-85600000D03*
D33*
X233750000Y-87350000D02*
X233750000Y-91950000D01*
X233750000Y-91950000D02*
X234400000Y-92600000D01*
X234400000Y-92600000D02*
X237125000Y-92600000D01*
X237125000Y-92600000D02*
X237975000Y-91750000D01*
X237975000Y-91750000D02*
X238000000Y-91750000D01*
X234000000Y-81000000D02*
X235600000Y-81000000D01*
X232750000Y-79750000D02*
X234000000Y-81000000D01*
X232750000Y-78650000D02*
X232750000Y-79750000D01*
X233250000Y-79600000D02*
X234650000Y-81000000D01*
X233250000Y-78650000D02*
X233250000Y-79600000D01*
X234650000Y-81000000D02*
X235600000Y-81000000D01*
D34*
X236800000Y-62200000D02*
X236800000Y-67000000D01*
X236800000Y-67000000D02*
X237000000Y-67200000D01*
X238400000Y-67200000D02*
X238400000Y-64650000D01*
X237000000Y-67200000D02*
X238400000Y-67200000D01*
X238800000Y-64250000D02*
X239250000Y-64250000D01*
X238400000Y-64650000D02*
X238800000Y-64250000D01*
X236800000Y-62200000D02*
X237250000Y-61750000D01*
X237250000Y-61750000D02*
X237800000Y-61750000D01*
X238750000Y-62200000D02*
X239650000Y-62200000D01*
X239650000Y-62200000D02*
X239700000Y-62250000D01*
X238750000Y-61250000D02*
X238250000Y-61750000D01*
X238250000Y-61750000D02*
X237800000Y-61750000D01*
X238750000Y-60300000D02*
X237850000Y-60300000D01*
X237850000Y-60300000D02*
X237800000Y-60250000D01*
D33*
X233750000Y-87350000D02*
X233750000Y-86250000D01*
X233750000Y-86250000D02*
X236250000Y-83750000D01*
X236250000Y-83750000D02*
X238850000Y-83750000D01*
X231500000Y-75250000D02*
X231500000Y-75925000D01*
X231500000Y-75925000D02*
X232750000Y-77175000D01*
X232750000Y-77175000D02*
X232750000Y-78650000D01*
X231500000Y-75925000D02*
X233250000Y-77675000D01*
X233250000Y-77675000D02*
X233250000Y-78650000D01*
X238850000Y-83750000D02*
X244250000Y-83750000D01*
X244250000Y-83750000D02*
X244500000Y-84000000D01*
D35*
X236200000Y-96200000D02*
X238000000Y-96200000D01*
X238000000Y-96200000D02*
X238950000Y-96200000D01*
D34*
X238000000Y-97000000D02*
X238000000Y-96200000D01*
D33*
X239250000Y-66250000D02*
X239250000Y-67000000D01*
X239250000Y-67000000D02*
X240250000Y-68000000D01*
X240250000Y-68000000D02*
X241200000Y-68000000D01*
D35*
X231050000Y-73750000D02*
X231800000Y-73000000D01*
X231800000Y-73000000D02*
X231800000Y-70200000D01*
X240100000Y-69100000D02*
X241200000Y-68000000D01*
X231800000Y-70200000D02*
X232900000Y-69100000D01*
X232900000Y-69100000D02*
X240100000Y-69100000D01*
X241200000Y-68000000D02*
X241200000Y-63400000D01*
X232250000Y-73750000D02*
X231050000Y-73750000D01*
X231050000Y-73750000D02*
X228400000Y-76400000D01*
X238950000Y-96200000D02*
X239000000Y-96150000D01*
D34*
X240450000Y-61250000D02*
X241200000Y-62000000D01*
X241200000Y-62000000D02*
X241200000Y-63400000D01*
X239700000Y-61250000D02*
X240450000Y-61250000D01*
D35*
X242400000Y-62200000D02*
X241200000Y-63400000D01*
X245800000Y-56610000D02*
X245800000Y-61000000D01*
X245800000Y-61000000D02*
X244600000Y-62200000D01*
X244600000Y-62200000D02*
X242400000Y-62200000D01*
X242800000Y-56610000D02*
X245800000Y-56610000D01*
D33*
X241350000Y-57330000D02*
X242080000Y-57330000D01*
X242080000Y-57330000D02*
X242800000Y-56610000D01*
X244240000Y-57330000D02*
X243520000Y-57330000D01*
X243520000Y-57330000D02*
X242800000Y-56610000D01*
D34*
X240900000Y-98500000D02*
X240500000Y-98900000D01*
X240900000Y-97850000D02*
X240900000Y-98500000D01*
D35*
X232250000Y-73750000D02*
X233000000Y-74500000D01*
X233000000Y-74500000D02*
X233000000Y-75250000D01*
D33*
X233000000Y-75250000D02*
X233000000Y-75925000D01*
X233000000Y-75925000D02*
X233750000Y-76675000D01*
X233750000Y-76675000D02*
X233750000Y-78650000D01*
D36*
X240900000Y-95950000D02*
X239200000Y-95950000D01*
X239200000Y-95950000D02*
X239000000Y-96150000D01*
D37*
X242800000Y-56610000D02*
X242800000Y-57030000D01*
X242800000Y-57030000D02*
X242780000Y-57050000D01*
D33*
X239500000Y-57450000D02*
X241230000Y-57450000D01*
X241230000Y-57450000D02*
X241350000Y-57330000D01*
X239700000Y-60250000D02*
X239700000Y-57650000D01*
X239700000Y-57650000D02*
X239500000Y-57450000D01*
D36*
X243100000Y-95950000D02*
X244800000Y-95950000D01*
X244800000Y-95950000D02*
X245000000Y-96150000D01*
D35*
X252400000Y-75400000D02*
X253200000Y-76200000D01*
X253200000Y-76200000D02*
X253200000Y-89507096D01*
X251957096Y-90750000D02*
X250200000Y-90750000D01*
X253200000Y-89507096D02*
X251957096Y-90750000D01*
D33*
X229000000Y-100200000D02*
X229000000Y-96000000D01*
X231750000Y-93250000D02*
X231750000Y-92400000D01*
X229000000Y-96000000D02*
X231750000Y-93250000D01*
X231750000Y-90400000D02*
X231750000Y-92400000D01*
X232800000Y-90400000D02*
X231750000Y-90400000D01*
D35*
X247800000Y-77200000D02*
X247800000Y-80575000D01*
X247800000Y-80575000D02*
X247375000Y-81000000D01*
X245000000Y-96150000D02*
X245000000Y-93000000D01*
X245000000Y-93000000D02*
X242750000Y-90750000D01*
X236000000Y-74750000D02*
X236750000Y-74000000D01*
X236750000Y-74000000D02*
X238500000Y-74000000D01*
X236000000Y-75250000D02*
X236000000Y-74750000D01*
X236000000Y-75000000D02*
X236000000Y-75250000D01*
X247375000Y-81000000D02*
X246000000Y-81000000D01*
X235000000Y-90000000D02*
X236500000Y-90000000D01*
X242750000Y-90750000D02*
X242750000Y-89500000D01*
X236500000Y-90000000D02*
X236500000Y-90500000D01*
X236500000Y-90500000D02*
X236500000Y-91750000D01*
D33*
X235250000Y-87350000D02*
X235250000Y-88775000D01*
X235250000Y-88775000D02*
X236500000Y-90025000D01*
X236500000Y-90025000D02*
X236500000Y-90500000D01*
X236000000Y-75250000D02*
X236000000Y-75925000D01*
X236000000Y-75925000D02*
X235250000Y-76675000D01*
X235250000Y-76675000D02*
X235250000Y-78650000D01*
X238850000Y-82250000D02*
X243275000Y-82250000D01*
D35*
X244500000Y-81000000D02*
X246000000Y-81000000D01*
D33*
X243275000Y-82250000D02*
X244500000Y-81025000D01*
X244500000Y-81025000D02*
X244500000Y-81000000D01*
D36*
X244500000Y-81000000D02*
X244500000Y-80975000D01*
D33*
X232750000Y-87350000D02*
X232750000Y-88300000D01*
X232750000Y-88300000D02*
X232450000Y-88600000D01*
X232450000Y-88600000D02*
X231400000Y-88600000D01*
X231400000Y-88600000D02*
X230800000Y-88000000D01*
X230800000Y-88000000D02*
X230200000Y-88000000D01*
X230200000Y-88000000D02*
X227400000Y-90800000D01*
X227400000Y-90800000D02*
X227400000Y-93650000D01*
X227400000Y-93650000D02*
X226600000Y-94450000D01*
X226600000Y-94450000D02*
X226400000Y-94450000D01*
X226400000Y-93800000D02*
X225650000Y-93800000D01*
X225650000Y-93800000D02*
X225000000Y-94450000D01*
X225000000Y-94450000D02*
X224800000Y-94450000D01*
X226800000Y-93400000D02*
X226400000Y-93800000D01*
X226800000Y-90400000D02*
X226800000Y-93400000D01*
X228400000Y-88800000D02*
X226800000Y-90400000D01*
X230150000Y-82250000D02*
X228750000Y-82250000D01*
X228750000Y-82250000D02*
X228400000Y-82600000D01*
X228400000Y-82600000D02*
X228400000Y-88800000D01*
X246750000Y-83750000D02*
X248750000Y-83750000D01*
X248750000Y-83750000D02*
X251000000Y-86000000D01*
X251000000Y-86000000D02*
X251000000Y-87250000D01*
X238850000Y-83250000D02*
X245250000Y-83250000D01*
X245250000Y-83250000D02*
X245750000Y-83750000D01*
X245750000Y-83750000D02*
X246500000Y-83750000D01*
X245425000Y-82250000D02*
X248750000Y-82250000D01*
X245175000Y-82500000D02*
X245425000Y-82250000D01*
X244500000Y-82500000D02*
X245175000Y-82500000D01*
X238850000Y-82750000D02*
X243575000Y-82750000D01*
X243575000Y-82750000D02*
X243825000Y-82500000D01*
X243825000Y-82500000D02*
X244500000Y-82500000D01*
X248750000Y-82250000D02*
X251000000Y-80000000D01*
X251000000Y-80000000D02*
X251000000Y-78750000D01*
X234750000Y-70500000D02*
X233900000Y-70500000D01*
X233900000Y-70500000D02*
X233600000Y-70200000D01*
X234750000Y-70500000D02*
X234750000Y-78650000D01*
X232800000Y-71100000D02*
X232800000Y-71550000D01*
X232800000Y-71550000D02*
X234000000Y-72750000D01*
X234250000Y-78650000D02*
X234250000Y-73000000D01*
X234250000Y-73000000D02*
X234000000Y-72750000D01*
X243920000Y-64650000D02*
X244595000Y-64650000D01*
X244595000Y-64650000D02*
X248920000Y-60325000D01*
X248920000Y-60325000D02*
X248920000Y-58420000D01*
X248920000Y-58420000D02*
X251460000Y-58420000D01*
X227800000Y-104000000D02*
X228400000Y-104600000D01*
X226400000Y-95950000D02*
X226400000Y-96500000D01*
X226400000Y-96500000D02*
X227800000Y-97900000D01*
X227800000Y-97900000D02*
X227800000Y-104000000D01*
X227200000Y-104620000D02*
X229720000Y-107140000D01*
X227200000Y-98000000D02*
X227200000Y-104620000D01*
X226000000Y-96800000D02*
X227200000Y-98000000D01*
X225100000Y-96800000D02*
X226000000Y-96800000D01*
X224800000Y-95950000D02*
X224800000Y-96500000D01*
X224800000Y-96500000D02*
X225100000Y-96800000D01*
X225000001Y-95199999D02*
X228999999Y-95199999D01*
X224800000Y-95950000D02*
X224800000Y-95400000D01*
X224800000Y-95400000D02*
X225000001Y-95199999D01*
X228999999Y-95199999D02*
X230250000Y-93949998D01*
X230250000Y-93949998D02*
X230250000Y-92400000D01*
X228400000Y-102010000D02*
X229720000Y-103330000D01*
X228000000Y-96800000D02*
X228400000Y-97200000D01*
X228400000Y-97200000D02*
X228400000Y-102010000D01*
X228000000Y-95950000D02*
X228000000Y-96800000D01*
X238850000Y-84250000D02*
X242250000Y-84250000D01*
X242250000Y-84250000D02*
X242750000Y-84750000D01*
X242750000Y-84750000D02*
X242750000Y-88000000D01*
X237750000Y-64250000D02*
X237750000Y-66250000D01*
X237800000Y-62250000D02*
X237800000Y-64200000D01*
X237800000Y-64200000D02*
X237750000Y-64250000D01*
D35*
X226000000Y-60960000D02*
X235790000Y-60960000D01*
X235790000Y-60960000D02*
X236000000Y-60750000D01*
D33*
X237800000Y-60750000D02*
X237050000Y-60750000D01*
D36*
X236000000Y-60750000D02*
X237050000Y-60750000D01*
D34*
X237800000Y-61250000D02*
X237800000Y-60750000D01*
D37*
X242800000Y-59950000D02*
X243960000Y-59950000D01*
X243960000Y-59950000D02*
X244240000Y-59670000D01*
X239700000Y-60750000D02*
X240800000Y-60750000D01*
X240800000Y-60750000D02*
X241600000Y-59950000D01*
X241150000Y-59950000D02*
X242800000Y-59950000D01*
X241360000Y-60265000D02*
X241360000Y-59670000D01*
D34*
X237400000Y-85200000D02*
X237850000Y-84750000D01*
X237850000Y-84750000D02*
X238850000Y-84750000D01*
X240400000Y-62000000D02*
X240400000Y-62600000D01*
X240200000Y-67000000D02*
X240200000Y-62800000D01*
X240400000Y-62600000D02*
X240200000Y-62800000D01*
X240150000Y-61750000D02*
X240400000Y-62000000D01*
D33*
X230200000Y-88800000D02*
X230200000Y-90350000D01*
X230200000Y-90350000D02*
X230250000Y-90400000D01*
X230200000Y-88800000D02*
X228000000Y-91000000D01*
X228000000Y-91000000D02*
X228000000Y-94450000D01*
D34*
X239700000Y-61750000D02*
X240150000Y-61750000D01*
D33*
X247200000Y-67400000D02*
X250100000Y-67400000D01*
X250100000Y-67400000D02*
X251460000Y-66040000D01*
X238000000Y-70800000D02*
X243800000Y-70800000D01*
X243800000Y-70800000D02*
X247200000Y-67400000D01*
X236050000Y-72750000D02*
X238000000Y-70800000D01*
X235500000Y-72750000D02*
X236050000Y-72750000D01*
X235500000Y-72750000D02*
X235500000Y-72550000D01*
X247820000Y-66040000D02*
X248920000Y-66040000D01*
X243510009Y-70349991D02*
X247820000Y-66040000D01*
X236950009Y-70349991D02*
X243510009Y-70349991D01*
X236800000Y-70500000D02*
X236950009Y-70349991D01*
X236250000Y-70500000D02*
X236800000Y-70500000D01*
X236250000Y-70500000D02*
X236250000Y-70700000D01*
D34*
X238250000Y-78750000D02*
X237350000Y-78750000D01*
X237350000Y-78750000D02*
X237250000Y-78650000D01*
X236200000Y-80000000D02*
X236750000Y-79450000D01*
X236750000Y-79450000D02*
X236750000Y-78650000D01*
X237750000Y-81000000D02*
X237750000Y-81500000D01*
X237750000Y-81500000D02*
X238000000Y-81750000D01*
X238000000Y-81750000D02*
X238850000Y-81750000D01*
X242749990Y-81250000D02*
X243000000Y-81500010D01*
X238850000Y-81250000D02*
X242749990Y-81250000D01*
X238850000Y-80750000D02*
X241000001Y-80749999D01*
X241000001Y-80749999D02*
X241250000Y-80500000D01*
X238850000Y-80250000D02*
X240000000Y-80250000D01*
X240000000Y-80250000D02*
X240250000Y-80000000D01*
X232500000Y-80500000D02*
X232250000Y-80250000D01*
X232250000Y-80250000D02*
X232250000Y-78650000D01*
X231750000Y-80500000D02*
X231750000Y-78650000D01*
X231500000Y-81250000D02*
X230150000Y-81250000D01*
X231327832Y-81750000D02*
X231538916Y-81961084D01*
X230150000Y-81750000D02*
X231327832Y-81750000D01*
X230150000Y-83750000D02*
X230850000Y-83750000D01*
X230850000Y-83750000D02*
X231400000Y-83200000D01*
X230150000Y-84250000D02*
X231150000Y-84250000D01*
X231150000Y-84250000D02*
X231400000Y-84000000D01*
X230150000Y-84750000D02*
X231350000Y-84750000D01*
X231350000Y-84750000D02*
X231400000Y-84800000D01*
X230150000Y-85250000D02*
X231050000Y-85250000D01*
X231050000Y-85250000D02*
X231400000Y-85600000D01*
D38*
G36*
X241787000Y-59850000D02*
X241788024Y-59855058D01*
X241790935Y-59859319D01*
X241795275Y-59862111D01*
X241800000Y-59863000D01*
X244187000Y-59863000D01*
X244187000Y-60837000D01*
X239763000Y-60837000D01*
X239763000Y-60663000D01*
X240100000Y-60663000D01*
X240105058Y-60661976D01*
X240108460Y-60659870D01*
X240458460Y-60359870D01*
X240461634Y-60355801D01*
X240463000Y-60350000D01*
X240463000Y-59805790D01*
X240954989Y-59363000D01*
X241787000Y-59363000D01*
X241787000Y-59850000D01*
X241787000Y-59850000D01*
G37*
X241787000Y-59850000D02*
X241788024Y-59855058D01*
X241790935Y-59859319D01*
X241795275Y-59862111D01*
X241800000Y-59863000D01*
X244187000Y-59863000D01*
X244187000Y-60837000D01*
X239763000Y-60837000D01*
X239763000Y-60663000D01*
X240100000Y-60663000D01*
X240105058Y-60661976D01*
X240108460Y-60659870D01*
X240458460Y-60359870D01*
X240461634Y-60355801D01*
X240463000Y-60350000D01*
X240463000Y-59805790D01*
X240954989Y-59363000D01*
X241787000Y-59363000D01*
X241787000Y-59850000D01*
G36*
X241737000Y-57737000D02*
X239163000Y-57737000D01*
X239163000Y-56363000D01*
X241737000Y-56363000D01*
X241737000Y-57737000D01*
X241737000Y-57737000D01*
G37*
X241737000Y-57737000D02*
X239163000Y-57737000D01*
X239163000Y-56363000D01*
X241737000Y-56363000D01*
X241737000Y-57737000D01*
D39*
G36*
X258498000Y-121498000D02*
X223502000Y-121498000D01*
X223502000Y-94200000D01*
X223914635Y-94200000D01*
X223914635Y-94700000D01*
X223944409Y-94858237D01*
X224037927Y-95003567D01*
X224180619Y-95101064D01*
X224302617Y-95125770D01*
X224266922Y-95179192D01*
X224246034Y-95284197D01*
X224191763Y-95294409D01*
X224046433Y-95387927D01*
X223948936Y-95530619D01*
X223914635Y-95700000D01*
X223914635Y-96200000D01*
X223944409Y-96358237D01*
X224037927Y-96503567D01*
X224180619Y-96601064D01*
X224245725Y-96614249D01*
X224266922Y-96720808D01*
X224391999Y-96908001D01*
X224691999Y-97208001D01*
X224879192Y-97333078D01*
X225100000Y-97377000D01*
X225760998Y-97377000D01*
X226623000Y-98239001D01*
X226623000Y-104619995D01*
X226622999Y-104620000D01*
X226666922Y-104840808D01*
X226791999Y-105028001D01*
X228796268Y-107032269D01*
X228774839Y-107140000D01*
X228845403Y-107494748D01*
X229032661Y-107775000D01*
X228845403Y-108055252D01*
X228774839Y-108410000D01*
X228845403Y-108764748D01*
X229046351Y-109065488D01*
X229347091Y-109266436D01*
X229701839Y-109337000D01*
X229738161Y-109337000D01*
X230092909Y-109266436D01*
X230176155Y-109210813D01*
X230177927Y-109213567D01*
X230320619Y-109311064D01*
X230490000Y-109345365D01*
X231490000Y-109345365D01*
X231648237Y-109315591D01*
X231793567Y-109222073D01*
X231891064Y-109079381D01*
X231925365Y-108910000D01*
X231925365Y-107910000D01*
X231902207Y-107786926D01*
X231977127Y-107700209D01*
X232084119Y-107441874D01*
X231957954Y-107267000D01*
X231117000Y-107267000D01*
X231117000Y-107287000D01*
X230863000Y-107287000D01*
X230863000Y-107267000D01*
X230843000Y-107267000D01*
X230843000Y-107013000D01*
X230863000Y-107013000D01*
X230863000Y-105997000D01*
X231117000Y-105997000D01*
X231117000Y-107013000D01*
X231957954Y-107013000D01*
X231992043Y-106965750D01*
X255055000Y-106965750D01*
X255055000Y-107656310D01*
X255151673Y-107889699D01*
X255330302Y-108068327D01*
X255563691Y-108165000D01*
X255839528Y-108165000D01*
X255612007Y-108317025D01*
X255335188Y-108731313D01*
X255237982Y-109220000D01*
X255335188Y-109708687D01*
X255612007Y-110122975D01*
X256026295Y-110399794D01*
X256479791Y-110490000D01*
X256026295Y-110580206D01*
X255612007Y-110857025D01*
X255335188Y-111271313D01*
X255237982Y-111760000D01*
X255335188Y-112248687D01*
X255612007Y-112662975D01*
X256026295Y-112939794D01*
X256479791Y-113030000D01*
X256026295Y-113120206D01*
X255612007Y-113397025D01*
X255335188Y-113811313D01*
X255237982Y-114300000D01*
X255335188Y-114788687D01*
X255612007Y-115202975D01*
X256026295Y-115479794D01*
X256479791Y-115570000D01*
X256026295Y-115660206D01*
X255612007Y-115937025D01*
X255335188Y-116351313D01*
X255237982Y-116840000D01*
X255335188Y-117328687D01*
X255612007Y-117742975D01*
X256026295Y-118019794D01*
X256479791Y-118110000D01*
X256026295Y-118200206D01*
X255612007Y-118477025D01*
X255335188Y-118891313D01*
X255237982Y-119380000D01*
X255335188Y-119868687D01*
X255612007Y-120282975D01*
X256026295Y-120559794D01*
X256514982Y-120657000D01*
X256565018Y-120657000D01*
X257053705Y-120559794D01*
X257467993Y-120282975D01*
X257744812Y-119868687D01*
X257842018Y-119380000D01*
X257744812Y-118891313D01*
X257467993Y-118477025D01*
X257053705Y-118200206D01*
X256600209Y-118110000D01*
X257053705Y-118019794D01*
X257467993Y-117742975D01*
X257744812Y-117328687D01*
X257842018Y-116840000D01*
X257744812Y-116351313D01*
X257467993Y-115937025D01*
X257053705Y-115660206D01*
X256600209Y-115570000D01*
X257053705Y-115479794D01*
X257467993Y-115202975D01*
X257744812Y-114788687D01*
X257842018Y-114300000D01*
X257744812Y-113811313D01*
X257467993Y-113397025D01*
X257053705Y-113120206D01*
X256600209Y-113030000D01*
X257053705Y-112939794D01*
X257467993Y-112662975D01*
X257744812Y-112248687D01*
X257842018Y-111760000D01*
X257744812Y-111271313D01*
X257467993Y-110857025D01*
X257053705Y-110580206D01*
X256600209Y-110490000D01*
X257053705Y-110399794D01*
X257467993Y-110122975D01*
X257744812Y-109708687D01*
X257842018Y-109220000D01*
X257744812Y-108731313D01*
X257467993Y-108317025D01*
X257240472Y-108165000D01*
X257516309Y-108165000D01*
X257749698Y-108068327D01*
X257928327Y-107889699D01*
X258025000Y-107656310D01*
X258025000Y-106965750D01*
X257866250Y-106807000D01*
X256667000Y-106807000D01*
X256667000Y-106827000D01*
X256413000Y-106827000D01*
X256413000Y-106807000D01*
X255213750Y-106807000D01*
X255055000Y-106965750D01*
X231992043Y-106965750D01*
X232084119Y-106838126D01*
X231977127Y-106579791D01*
X231912511Y-106505000D01*
X231977127Y-106430209D01*
X232084119Y-106171874D01*
X231957954Y-105997000D01*
X231117000Y-105997000D01*
X230863000Y-105997000D01*
X230843000Y-105997000D01*
X230843000Y-105743000D01*
X230863000Y-105743000D01*
X230863000Y-105723000D01*
X231117000Y-105723000D01*
X231117000Y-105743000D01*
X231957954Y-105743000D01*
X231986314Y-105703690D01*
X255055000Y-105703690D01*
X255055000Y-106394250D01*
X255213750Y-106553000D01*
X256413000Y-106553000D01*
X256413000Y-105353750D01*
X256667000Y-105353750D01*
X256667000Y-106553000D01*
X257866250Y-106553000D01*
X258025000Y-106394250D01*
X258025000Y-105703690D01*
X257928327Y-105470301D01*
X257749698Y-105291673D01*
X257516309Y-105195000D01*
X256825750Y-105195000D01*
X256667000Y-105353750D01*
X256413000Y-105353750D01*
X256254250Y-105195000D01*
X255563691Y-105195000D01*
X255330302Y-105291673D01*
X255151673Y-105470301D01*
X255055000Y-105703690D01*
X231986314Y-105703690D01*
X232084119Y-105568126D01*
X231977127Y-105309791D01*
X231779900Y-105081506D01*
X231864597Y-104954748D01*
X231935161Y-104600000D01*
X231864597Y-104245252D01*
X231779900Y-104118494D01*
X231977127Y-103890209D01*
X232084119Y-103631874D01*
X231957954Y-103457000D01*
X231117000Y-103457000D01*
X231117000Y-103477000D01*
X230863000Y-103477000D01*
X230863000Y-103457000D01*
X230843000Y-103457000D01*
X230843000Y-103203000D01*
X230863000Y-103203000D01*
X230863000Y-102360865D01*
X231117000Y-102360865D01*
X231117000Y-103203000D01*
X231957954Y-103203000D01*
X232084119Y-103028126D01*
X231977127Y-102769791D01*
X231687604Y-102434677D01*
X231291877Y-102235868D01*
X231117000Y-102360865D01*
X230863000Y-102360865D01*
X230688123Y-102235868D01*
X230292396Y-102434677D01*
X230198084Y-102543840D01*
X230092909Y-102473564D01*
X229738161Y-102403000D01*
X229701839Y-102403000D01*
X229624405Y-102418403D01*
X228977000Y-101770998D01*
X228977000Y-100876980D01*
X229134073Y-100877117D01*
X229382989Y-100774267D01*
X229573598Y-100583990D01*
X229676882Y-100335254D01*
X229677117Y-100065927D01*
X229577000Y-99823625D01*
X229577000Y-99034073D01*
X239822883Y-99034073D01*
X239925733Y-99282989D01*
X240116010Y-99473598D01*
X240364746Y-99576882D01*
X240634073Y-99577117D01*
X240882989Y-99474267D01*
X241073598Y-99283990D01*
X241176882Y-99035254D01*
X241176940Y-98968350D01*
X241272645Y-98872646D01*
X241386884Y-98701675D01*
X241386885Y-98701674D01*
X241405047Y-98610365D01*
X241430000Y-98610365D01*
X241588237Y-98580591D01*
X241733567Y-98487073D01*
X241831064Y-98344381D01*
X241865365Y-98175000D01*
X241865365Y-97525000D01*
X241835591Y-97366763D01*
X241742073Y-97221433D01*
X241599381Y-97123936D01*
X241430000Y-97089635D01*
X240370000Y-97089635D01*
X240211763Y-97119409D01*
X240066433Y-97212927D01*
X239968936Y-97355619D01*
X239934635Y-97525000D01*
X239934635Y-98175000D01*
X239964409Y-98333237D01*
X240021155Y-98421422D01*
X239926402Y-98516010D01*
X239823118Y-98764746D01*
X239822883Y-99034073D01*
X229577000Y-99034073D01*
X229577000Y-96383583D01*
X235272839Y-96383583D01*
X235413669Y-96724417D01*
X235674211Y-96985414D01*
X236014799Y-97126839D01*
X236383583Y-97127161D01*
X236383973Y-97127000D01*
X237322889Y-97127000D01*
X237322883Y-97134073D01*
X237425733Y-97382989D01*
X237616010Y-97573598D01*
X237864746Y-97676882D01*
X238134073Y-97677117D01*
X238382989Y-97574267D01*
X238573598Y-97383990D01*
X238676882Y-97135254D01*
X238676889Y-97127000D01*
X238950000Y-97127000D01*
X239304748Y-97056436D01*
X239425269Y-96975906D01*
X239533237Y-96955591D01*
X239678567Y-96862073D01*
X239776064Y-96719381D01*
X239794772Y-96627000D01*
X240128811Y-96627000D01*
X240200619Y-96676064D01*
X240370000Y-96710365D01*
X241430000Y-96710365D01*
X241588237Y-96680591D01*
X241733567Y-96587073D01*
X241831064Y-96444381D01*
X241865365Y-96275000D01*
X241865365Y-95625000D01*
X241835591Y-95466763D01*
X241742073Y-95321433D01*
X241599381Y-95223936D01*
X241430000Y-95189635D01*
X240370000Y-95189635D01*
X240211763Y-95219409D01*
X240128481Y-95273000D01*
X239251369Y-95273000D01*
X239000000Y-95223000D01*
X238748631Y-95273000D01*
X236200809Y-95273000D01*
X236016417Y-95272839D01*
X235675583Y-95413669D01*
X235414586Y-95674211D01*
X235273161Y-96014799D01*
X235272839Y-96383583D01*
X229577000Y-96383583D01*
X229577000Y-96239002D01*
X232157998Y-93658003D01*
X232158001Y-93658001D01*
X232283078Y-93470808D01*
X232327000Y-93250000D01*
X232327000Y-93127778D01*
X232401064Y-93019381D01*
X232435365Y-92850000D01*
X232435365Y-91950000D01*
X232405591Y-91791763D01*
X232327000Y-91669630D01*
X232327000Y-91127778D01*
X232401064Y-91019381D01*
X232409646Y-90977000D01*
X232424203Y-90977000D01*
X232664746Y-91076882D01*
X232934073Y-91077117D01*
X233182989Y-90974267D01*
X233373598Y-90783990D01*
X233476882Y-90535254D01*
X233477117Y-90265927D01*
X233374267Y-90017011D01*
X233183990Y-89826402D01*
X232935254Y-89723118D01*
X232665927Y-89722883D01*
X232423625Y-89823000D01*
X232411469Y-89823000D01*
X232405591Y-89791763D01*
X232312073Y-89646433D01*
X232169381Y-89548936D01*
X232000000Y-89514635D01*
X231500000Y-89514635D01*
X231341763Y-89544409D01*
X231196433Y-89637927D01*
X231098936Y-89780619D01*
X231064635Y-89950000D01*
X231064635Y-90850000D01*
X231094409Y-91008237D01*
X231173000Y-91130370D01*
X231173000Y-91672222D01*
X231098936Y-91780619D01*
X231064635Y-91950000D01*
X231064635Y-92850000D01*
X231094409Y-93008237D01*
X231126262Y-93057737D01*
X230827000Y-93356999D01*
X230827000Y-93127778D01*
X230901064Y-93019381D01*
X230935365Y-92850000D01*
X230935365Y-91950000D01*
X230905591Y-91791763D01*
X230812073Y-91646433D01*
X230669381Y-91548936D01*
X230500000Y-91514635D01*
X230000000Y-91514635D01*
X229841763Y-91544409D01*
X229696433Y-91637927D01*
X229598936Y-91780619D01*
X229564635Y-91950000D01*
X229564635Y-92850000D01*
X229594409Y-93008237D01*
X229673000Y-93130370D01*
X229673000Y-93710997D01*
X228885365Y-94498631D01*
X228885365Y-94200000D01*
X228855591Y-94041763D01*
X228762073Y-93896433D01*
X228619381Y-93798936D01*
X228577000Y-93790354D01*
X228577000Y-91239002D01*
X229564635Y-90251366D01*
X229564635Y-90850000D01*
X229594409Y-91008237D01*
X229687927Y-91153567D01*
X229830619Y-91251064D01*
X230000000Y-91285365D01*
X230500000Y-91285365D01*
X230658237Y-91255591D01*
X230803567Y-91162073D01*
X230901064Y-91019381D01*
X230935365Y-90850000D01*
X230935365Y-89950000D01*
X230905591Y-89791763D01*
X230812073Y-89646433D01*
X230777000Y-89622469D01*
X230777000Y-89175797D01*
X230876882Y-88935254D01*
X230876919Y-88892921D01*
X230991999Y-89008001D01*
X231179192Y-89133078D01*
X231400000Y-89177000D01*
X232449995Y-89177000D01*
X232450000Y-89177001D01*
X232670808Y-89133078D01*
X232858001Y-89008001D01*
X233158001Y-88708001D01*
X233270056Y-88540297D01*
X233498690Y-88635000D01*
X233528750Y-88635000D01*
X233687500Y-88476250D01*
X233687500Y-88298999D01*
X233750580Y-88206678D01*
X233812500Y-88302903D01*
X233812500Y-88476250D01*
X233971250Y-88635000D01*
X234001310Y-88635000D01*
X234234699Y-88538327D01*
X234337660Y-88435365D01*
X234375000Y-88435365D01*
X234504591Y-88410981D01*
X234625000Y-88435365D01*
X234673000Y-88435365D01*
X234673000Y-88774995D01*
X234672999Y-88775000D01*
X234716922Y-88995808D01*
X234778782Y-89088389D01*
X234475583Y-89213669D01*
X234214586Y-89474211D01*
X234073161Y-89814799D01*
X234072839Y-90183583D01*
X234213669Y-90524417D01*
X234474211Y-90785414D01*
X234814799Y-90926839D01*
X235183583Y-90927161D01*
X235183973Y-90927000D01*
X235573000Y-90927000D01*
X235573000Y-91750000D01*
X235643564Y-92104748D01*
X235667590Y-92140706D01*
X235694409Y-92283237D01*
X235787927Y-92428567D01*
X235930619Y-92526064D01*
X236065996Y-92553479D01*
X236145252Y-92606436D01*
X236500000Y-92677000D01*
X236854748Y-92606436D01*
X236932988Y-92554158D01*
X237058237Y-92530591D01*
X237088251Y-92511277D01*
X237240302Y-92663327D01*
X237473691Y-92760000D01*
X237714250Y-92760000D01*
X237873000Y-92601250D01*
X237873000Y-91877000D01*
X238127000Y-91877000D01*
X238127000Y-92601250D01*
X238285750Y-92760000D01*
X238526309Y-92760000D01*
X238759698Y-92663327D01*
X238938327Y-92484699D01*
X239035000Y-92251310D01*
X239035000Y-92035750D01*
X238876250Y-91877000D01*
X238127000Y-91877000D01*
X237873000Y-91877000D01*
X237853000Y-91877000D01*
X237853000Y-91623000D01*
X237873000Y-91623000D01*
X237873000Y-90898750D01*
X237849250Y-90875000D01*
X237873000Y-90851250D01*
X237873000Y-90127000D01*
X238127000Y-90127000D01*
X238127000Y-90851250D01*
X238150750Y-90875000D01*
X238127000Y-90898750D01*
X238127000Y-91623000D01*
X238876250Y-91623000D01*
X239035000Y-91464250D01*
X239035000Y-91248690D01*
X238938327Y-91015301D01*
X238798025Y-90875000D01*
X238938327Y-90734699D01*
X239035000Y-90501310D01*
X239035000Y-90285750D01*
X238876250Y-90127000D01*
X238127000Y-90127000D01*
X237873000Y-90127000D01*
X237853000Y-90127000D01*
X237853000Y-89873000D01*
X237873000Y-89873000D01*
X237873000Y-89148750D01*
X238127000Y-89148750D01*
X238127000Y-89873000D01*
X238876250Y-89873000D01*
X239035000Y-89714250D01*
X239035000Y-89498690D01*
X238938327Y-89265301D01*
X238759698Y-89086673D01*
X238526309Y-88990000D01*
X238285750Y-88990000D01*
X238127000Y-89148750D01*
X237873000Y-89148750D01*
X237714250Y-88990000D01*
X237473691Y-88990000D01*
X237240302Y-89086673D01*
X237089376Y-89237598D01*
X237069381Y-89223936D01*
X236934004Y-89196521D01*
X236854748Y-89143564D01*
X236500000Y-89073000D01*
X236364002Y-89073000D01*
X235827000Y-88535998D01*
X235827000Y-88435365D01*
X235875000Y-88435365D01*
X236004591Y-88410981D01*
X236125000Y-88435365D01*
X236375000Y-88435365D01*
X236504591Y-88410981D01*
X236625000Y-88435365D01*
X236875000Y-88435365D01*
X237004591Y-88410981D01*
X237125000Y-88435365D01*
X237375000Y-88435365D01*
X237533237Y-88405591D01*
X237678567Y-88312073D01*
X237776064Y-88169381D01*
X237810365Y-88000000D01*
X237810365Y-86700000D01*
X237780591Y-86541763D01*
X237687073Y-86396433D01*
X237544381Y-86298936D01*
X237375000Y-86264635D01*
X237125000Y-86264635D01*
X236995409Y-86289019D01*
X236875000Y-86264635D01*
X236625000Y-86264635D01*
X236495409Y-86289019D01*
X236375000Y-86264635D01*
X236125000Y-86264635D01*
X235995409Y-86289019D01*
X235875000Y-86264635D01*
X235625000Y-86264635D01*
X235495409Y-86289019D01*
X235375000Y-86264635D01*
X235125000Y-86264635D01*
X234995409Y-86289019D01*
X234875000Y-86264635D01*
X234625000Y-86264635D01*
X234495409Y-86289019D01*
X234375000Y-86264635D01*
X234337660Y-86264635D01*
X234234699Y-86161673D01*
X234001310Y-86065000D01*
X233971250Y-86065000D01*
X233812500Y-86223750D01*
X233812500Y-86401001D01*
X233749420Y-86493322D01*
X233687500Y-86397097D01*
X233687500Y-86223750D01*
X233528750Y-86065000D01*
X233498690Y-86065000D01*
X233265301Y-86161673D01*
X233162340Y-86264635D01*
X233125000Y-86264635D01*
X232995409Y-86289019D01*
X232875000Y-86264635D01*
X232625000Y-86264635D01*
X232495409Y-86289019D01*
X232375000Y-86264635D01*
X232125000Y-86264635D01*
X231995409Y-86289019D01*
X231875000Y-86264635D01*
X231625000Y-86264635D01*
X231466763Y-86294409D01*
X231321433Y-86387927D01*
X231223936Y-86530619D01*
X231189635Y-86700000D01*
X231189635Y-87579727D01*
X231020808Y-87466922D01*
X230800000Y-87422999D01*
X230799995Y-87423000D01*
X230200005Y-87423000D01*
X230200000Y-87422999D01*
X229979192Y-87466922D01*
X229791999Y-87591999D01*
X228977000Y-88406998D01*
X228977000Y-82839002D01*
X228989001Y-82827000D01*
X229064635Y-82827000D01*
X229064635Y-82875000D01*
X229089019Y-83004591D01*
X229064635Y-83125000D01*
X229064635Y-83375000D01*
X229089019Y-83504591D01*
X229064635Y-83625000D01*
X229064635Y-83875000D01*
X229089019Y-84004591D01*
X229064635Y-84125000D01*
X229064635Y-84375000D01*
X229089019Y-84504591D01*
X229064635Y-84625000D01*
X229064635Y-84875000D01*
X229089019Y-85004591D01*
X229064635Y-85125000D01*
X229064635Y-85375000D01*
X229089019Y-85504591D01*
X229064635Y-85625000D01*
X229064635Y-85875000D01*
X229094409Y-86033237D01*
X229187927Y-86178567D01*
X229330619Y-86276064D01*
X229500000Y-86310365D01*
X230800000Y-86310365D01*
X230958237Y-86280591D01*
X231081954Y-86200980D01*
X231264746Y-86276882D01*
X231534073Y-86277117D01*
X231782989Y-86174267D01*
X231973598Y-85983990D01*
X232076882Y-85735254D01*
X232077117Y-85465927D01*
X232022637Y-85334073D01*
X236722883Y-85334073D01*
X236825733Y-85582989D01*
X237016010Y-85773598D01*
X237264746Y-85876882D01*
X237534073Y-85877117D01*
X237764635Y-85781851D01*
X237764635Y-85875000D01*
X237794409Y-86033237D01*
X237887927Y-86178567D01*
X238030619Y-86276064D01*
X238200000Y-86310365D01*
X239500000Y-86310365D01*
X239658237Y-86280591D01*
X239803567Y-86187073D01*
X239901064Y-86044381D01*
X239935365Y-85875000D01*
X239935365Y-85625000D01*
X239910981Y-85495409D01*
X239935365Y-85375000D01*
X239935365Y-85125000D01*
X239910981Y-84995409D01*
X239935365Y-84875000D01*
X239935365Y-84827000D01*
X242010998Y-84827000D01*
X242173000Y-84989001D01*
X242173000Y-87338531D01*
X242141763Y-87344409D01*
X241996433Y-87437927D01*
X241898936Y-87580619D01*
X241864635Y-87750000D01*
X241864635Y-88250000D01*
X241894409Y-88408237D01*
X241987927Y-88553567D01*
X242130619Y-88651064D01*
X242300000Y-88685365D01*
X242332692Y-88685365D01*
X242094512Y-88844512D01*
X242058992Y-88897671D01*
X241996433Y-88937927D01*
X241898936Y-89080619D01*
X241864635Y-89250000D01*
X241864635Y-89290687D01*
X241823000Y-89500000D01*
X241823000Y-90749191D01*
X241822839Y-90933583D01*
X241963669Y-91274417D01*
X242224211Y-91535414D01*
X242224599Y-91535575D01*
X244073000Y-93383976D01*
X244073000Y-95273000D01*
X243871189Y-95273000D01*
X243799381Y-95223936D01*
X243630000Y-95189635D01*
X242570000Y-95189635D01*
X242411763Y-95219409D01*
X242266433Y-95312927D01*
X242168936Y-95455619D01*
X242134635Y-95625000D01*
X242134635Y-96275000D01*
X242164409Y-96433237D01*
X242257927Y-96578567D01*
X242400619Y-96676064D01*
X242570000Y-96710365D01*
X243630000Y-96710365D01*
X243788237Y-96680591D01*
X243871519Y-96627000D01*
X244204123Y-96627000D01*
X244219409Y-96708237D01*
X244312927Y-96853567D01*
X244455619Y-96951064D01*
X244608810Y-96982086D01*
X244645252Y-97006436D01*
X245000000Y-97077000D01*
X245354748Y-97006436D01*
X245390706Y-96982410D01*
X245533237Y-96955591D01*
X245678567Y-96862073D01*
X245776064Y-96719381D01*
X245803479Y-96584004D01*
X245856436Y-96504748D01*
X245927000Y-96150000D01*
X245927000Y-93000000D01*
X245895572Y-92842000D01*
X245856437Y-92645253D01*
X245655488Y-92344512D01*
X243677000Y-90366024D01*
X243677000Y-89500000D01*
X243635365Y-89290687D01*
X243635365Y-89250000D01*
X243605591Y-89091763D01*
X243512073Y-88946433D01*
X243441260Y-88898049D01*
X243405488Y-88844512D01*
X243167308Y-88685365D01*
X243200000Y-88685365D01*
X243358237Y-88655591D01*
X243503567Y-88562073D01*
X243601064Y-88419381D01*
X243635365Y-88250000D01*
X243635365Y-87750000D01*
X243605591Y-87591763D01*
X243512073Y-87446433D01*
X243369381Y-87348936D01*
X243327000Y-87340354D01*
X243327000Y-85535750D01*
X245490000Y-85535750D01*
X245490000Y-85776309D01*
X245586673Y-86009698D01*
X245765301Y-86188327D01*
X245998690Y-86285000D01*
X246214250Y-86285000D01*
X246373000Y-86126250D01*
X246373000Y-85377000D01*
X246627000Y-85377000D01*
X246627000Y-86126250D01*
X246785750Y-86285000D01*
X247001310Y-86285000D01*
X247234699Y-86188327D01*
X247413327Y-86009698D01*
X247510000Y-85776309D01*
X247510000Y-85535750D01*
X247351250Y-85377000D01*
X246627000Y-85377000D01*
X246373000Y-85377000D01*
X245648750Y-85377000D01*
X245490000Y-85535750D01*
X243327000Y-85535750D01*
X243327000Y-84750005D01*
X243327001Y-84750000D01*
X243283078Y-84529192D01*
X243279020Y-84523118D01*
X243158001Y-84341999D01*
X243157998Y-84341997D01*
X243101752Y-84285750D01*
X243490000Y-84285750D01*
X243490000Y-84526309D01*
X243586673Y-84759698D01*
X243765301Y-84938327D01*
X243998690Y-85035000D01*
X244214250Y-85035000D01*
X244373000Y-84876250D01*
X244373000Y-84127000D01*
X243648750Y-84127000D01*
X243490000Y-84285750D01*
X243101752Y-84285750D01*
X242658001Y-83841999D01*
X242635553Y-83827000D01*
X243602750Y-83827000D01*
X243648750Y-83873000D01*
X244373000Y-83873000D01*
X244373000Y-83853000D01*
X244627000Y-83853000D01*
X244627000Y-83873000D01*
X244647000Y-83873000D01*
X244647000Y-84127000D01*
X244627000Y-84127000D01*
X244627000Y-84876250D01*
X244785750Y-85035000D01*
X245001310Y-85035000D01*
X245234699Y-84938327D01*
X245413327Y-84759698D01*
X245510000Y-84526309D01*
X245510000Y-84285750D01*
X245463302Y-84239052D01*
X245529192Y-84283078D01*
X245728765Y-84322777D01*
X245738723Y-84338251D01*
X245586673Y-84490302D01*
X245490000Y-84723691D01*
X245490000Y-84964250D01*
X245648750Y-85123000D01*
X246373000Y-85123000D01*
X246373000Y-85103000D01*
X246627000Y-85103000D01*
X246627000Y-85123000D01*
X247351250Y-85123000D01*
X247510000Y-84964250D01*
X247510000Y-84723691D01*
X247413327Y-84490302D01*
X247262402Y-84339376D01*
X247270858Y-84327000D01*
X248510998Y-84327000D01*
X249564635Y-85380636D01*
X249564635Y-89500000D01*
X249594409Y-89658237D01*
X249687927Y-89803567D01*
X249829292Y-89900157D01*
X249675583Y-89963669D01*
X249414586Y-90224211D01*
X249273161Y-90564799D01*
X249272839Y-90933583D01*
X249413669Y-91274417D01*
X249674211Y-91535414D01*
X250014799Y-91676839D01*
X250383583Y-91677161D01*
X250383973Y-91677000D01*
X251957096Y-91677000D01*
X252311844Y-91606436D01*
X252612584Y-91405488D01*
X253855488Y-90162584D01*
X254056437Y-89861843D01*
X254127000Y-89507096D01*
X254127000Y-89185750D01*
X255055000Y-89185750D01*
X255055000Y-89876310D01*
X255151673Y-90109699D01*
X255330302Y-90288327D01*
X255563691Y-90385000D01*
X255839528Y-90385000D01*
X255612007Y-90537025D01*
X255335188Y-90951313D01*
X255237982Y-91440000D01*
X255335188Y-91928687D01*
X255612007Y-92342975D01*
X256026295Y-92619794D01*
X256479791Y-92710000D01*
X256026295Y-92800206D01*
X255612007Y-93077025D01*
X255335188Y-93491313D01*
X255237982Y-93980000D01*
X255335188Y-94468687D01*
X255612007Y-94882975D01*
X256026295Y-95159794D01*
X256479791Y-95250000D01*
X256026295Y-95340206D01*
X255612007Y-95617025D01*
X255335188Y-96031313D01*
X255237982Y-96520000D01*
X255335188Y-97008687D01*
X255612007Y-97422975D01*
X256026295Y-97699794D01*
X256479791Y-97790000D01*
X256026295Y-97880206D01*
X255612007Y-98157025D01*
X255335188Y-98571313D01*
X255237982Y-99060000D01*
X255335188Y-99548687D01*
X255612007Y-99962975D01*
X256026295Y-100239794D01*
X256479791Y-100330000D01*
X256026295Y-100420206D01*
X255612007Y-100697025D01*
X255335188Y-101111313D01*
X255237982Y-101600000D01*
X255335188Y-102088687D01*
X255612007Y-102502975D01*
X256026295Y-102779794D01*
X256514982Y-102877000D01*
X256565018Y-102877000D01*
X257053705Y-102779794D01*
X257467993Y-102502975D01*
X257744812Y-102088687D01*
X257842018Y-101600000D01*
X257744812Y-101111313D01*
X257467993Y-100697025D01*
X257053705Y-100420206D01*
X256600209Y-100330000D01*
X257053705Y-100239794D01*
X257467993Y-99962975D01*
X257744812Y-99548687D01*
X257842018Y-99060000D01*
X257744812Y-98571313D01*
X257467993Y-98157025D01*
X257053705Y-97880206D01*
X256600209Y-97790000D01*
X257053705Y-97699794D01*
X257467993Y-97422975D01*
X257744812Y-97008687D01*
X257842018Y-96520000D01*
X257744812Y-96031313D01*
X257467993Y-95617025D01*
X257053705Y-95340206D01*
X256600209Y-95250000D01*
X257053705Y-95159794D01*
X257467993Y-94882975D01*
X257744812Y-94468687D01*
X257842018Y-93980000D01*
X257744812Y-93491313D01*
X257467993Y-93077025D01*
X257053705Y-92800206D01*
X256600209Y-92710000D01*
X257053705Y-92619794D01*
X257467993Y-92342975D01*
X257744812Y-91928687D01*
X257842018Y-91440000D01*
X257744812Y-90951313D01*
X257467993Y-90537025D01*
X257240472Y-90385000D01*
X257516309Y-90385000D01*
X257749698Y-90288327D01*
X257928327Y-90109699D01*
X258025000Y-89876310D01*
X258025000Y-89185750D01*
X257866250Y-89027000D01*
X256667000Y-89027000D01*
X256667000Y-89047000D01*
X256413000Y-89047000D01*
X256413000Y-89027000D01*
X255213750Y-89027000D01*
X255055000Y-89185750D01*
X254127000Y-89185750D01*
X254127000Y-87923690D01*
X255055000Y-87923690D01*
X255055000Y-88614250D01*
X255213750Y-88773000D01*
X256413000Y-88773000D01*
X256413000Y-87573750D01*
X256667000Y-87573750D01*
X256667000Y-88773000D01*
X257866250Y-88773000D01*
X258025000Y-88614250D01*
X258025000Y-87923690D01*
X257928327Y-87690301D01*
X257749698Y-87511673D01*
X257516309Y-87415000D01*
X256825750Y-87415000D01*
X256667000Y-87573750D01*
X256413000Y-87573750D01*
X256254250Y-87415000D01*
X255563691Y-87415000D01*
X255330302Y-87511673D01*
X255151673Y-87690301D01*
X255055000Y-87923690D01*
X254127000Y-87923690D01*
X254127000Y-76200000D01*
X254108389Y-76106436D01*
X254056437Y-75845253D01*
X253855488Y-75544512D01*
X253055488Y-74744512D01*
X252925789Y-74614586D01*
X252585201Y-74473161D01*
X252216417Y-74472839D01*
X251875583Y-74613669D01*
X251614586Y-74874211D01*
X251473161Y-75214799D01*
X251472839Y-75583583D01*
X251613669Y-75924417D01*
X251753643Y-76064635D01*
X250000000Y-76064635D01*
X249841763Y-76094409D01*
X249696433Y-76187927D01*
X249598936Y-76330619D01*
X249564635Y-76500000D01*
X249564635Y-80619364D01*
X248510998Y-81673000D01*
X248004279Y-81673000D01*
X248030488Y-81655488D01*
X248455488Y-81230488D01*
X248656437Y-80929747D01*
X248727000Y-80575000D01*
X248727000Y-77200809D01*
X248727161Y-77016417D01*
X248586331Y-76675583D01*
X248325789Y-76414586D01*
X247985201Y-76273161D01*
X247616417Y-76272839D01*
X247275583Y-76413669D01*
X247014586Y-76674211D01*
X246873161Y-77014799D01*
X246872839Y-77383583D01*
X246873000Y-77383973D01*
X246873000Y-78699975D01*
X246734699Y-78561673D01*
X246501310Y-78465000D01*
X246285750Y-78465000D01*
X246127000Y-78623750D01*
X246127000Y-79373000D01*
X246147000Y-79373000D01*
X246147000Y-79627000D01*
X246127000Y-79627000D01*
X246127000Y-79647000D01*
X245873000Y-79647000D01*
X245873000Y-79627000D01*
X244627000Y-79627000D01*
X244627000Y-79647000D01*
X244373000Y-79647000D01*
X244373000Y-79627000D01*
X243648750Y-79627000D01*
X243490000Y-79785750D01*
X243490000Y-80026309D01*
X243586673Y-80259698D01*
X243737598Y-80410624D01*
X243723936Y-80430619D01*
X243696521Y-80565996D01*
X243643564Y-80645252D01*
X243573000Y-81000000D01*
X243595564Y-81113435D01*
X243579445Y-81129553D01*
X243574267Y-81117021D01*
X243383990Y-80926412D01*
X243135254Y-80823128D01*
X243041357Y-80823046D01*
X242951665Y-80763115D01*
X242749990Y-80723000D01*
X241890447Y-80723000D01*
X241926882Y-80635254D01*
X241927117Y-80365927D01*
X241824267Y-80117011D01*
X241633990Y-79926402D01*
X241385254Y-79823118D01*
X241115927Y-79822883D01*
X240927086Y-79900910D01*
X240927117Y-79865927D01*
X240824267Y-79617011D01*
X240633990Y-79426402D01*
X240385254Y-79323118D01*
X240115927Y-79322883D01*
X239867011Y-79425733D01*
X239676402Y-79616010D01*
X239634519Y-79716876D01*
X239500000Y-79689635D01*
X238200000Y-79689635D01*
X238041763Y-79719409D01*
X237896433Y-79812927D01*
X237798936Y-79955619D01*
X237764635Y-80125000D01*
X237764635Y-80323013D01*
X237615927Y-80322883D01*
X237367011Y-80425733D01*
X237176402Y-80616010D01*
X237073118Y-80864746D01*
X237072883Y-81134073D01*
X237175733Y-81382989D01*
X237223000Y-81430338D01*
X237223000Y-81500000D01*
X237263115Y-81701675D01*
X237377355Y-81872645D01*
X237627354Y-82122645D01*
X237727612Y-82189635D01*
X237764635Y-82214373D01*
X237764635Y-82375000D01*
X237789019Y-82504591D01*
X237764635Y-82625000D01*
X237764635Y-82875000D01*
X237789019Y-83004591D01*
X237764635Y-83125000D01*
X237764635Y-83162340D01*
X237661673Y-83265301D01*
X237565000Y-83498690D01*
X237565000Y-83528750D01*
X237723750Y-83687500D01*
X237901001Y-83687500D01*
X237993322Y-83750580D01*
X237897097Y-83812500D01*
X237723750Y-83812500D01*
X237565000Y-83971250D01*
X237565000Y-84001310D01*
X237661673Y-84234699D01*
X237683160Y-84256186D01*
X237648325Y-84263115D01*
X237477355Y-84377355D01*
X237331770Y-84522940D01*
X237265927Y-84522883D01*
X237017011Y-84625733D01*
X236826402Y-84816010D01*
X236723118Y-85064746D01*
X236722883Y-85334073D01*
X232022637Y-85334073D01*
X231974267Y-85217011D01*
X231957423Y-85200137D01*
X231973598Y-85183990D01*
X232076882Y-84935254D01*
X232077117Y-84665927D01*
X231974267Y-84417011D01*
X231957423Y-84400137D01*
X231973598Y-84383990D01*
X232076882Y-84135254D01*
X232077117Y-83865927D01*
X231974267Y-83617011D01*
X231957423Y-83600137D01*
X231973598Y-83583990D01*
X232076882Y-83335254D01*
X232077117Y-83065927D01*
X231974267Y-82817011D01*
X231783990Y-82626402D01*
X231742869Y-82609327D01*
X231921905Y-82535351D01*
X232112514Y-82345074D01*
X232215798Y-82096338D01*
X232216033Y-81827011D01*
X232113183Y-81578095D01*
X232101618Y-81566510D01*
X232176882Y-81385254D01*
X232177117Y-81115927D01*
X232168660Y-81095460D01*
X232364746Y-81176882D01*
X232634073Y-81177117D01*
X232882989Y-81074267D01*
X233073598Y-80883990D01*
X233176882Y-80635254D01*
X233177117Y-80365927D01*
X233074267Y-80117011D01*
X232883990Y-79926402D01*
X232877002Y-79923500D01*
X232877002Y-79884595D01*
X232951847Y-79915597D01*
X232971250Y-79935000D01*
X233028750Y-79935000D01*
X233048153Y-79915597D01*
X233234699Y-79838327D01*
X233312500Y-79760526D01*
X233312500Y-79776250D01*
X233471250Y-79935000D01*
X233501310Y-79935000D01*
X233734699Y-79838327D01*
X233837660Y-79735365D01*
X233875000Y-79735365D01*
X234004591Y-79710981D01*
X234125000Y-79735365D01*
X234375000Y-79735365D01*
X234504591Y-79710981D01*
X234625000Y-79735365D01*
X234875000Y-79735365D01*
X235004591Y-79710981D01*
X235125000Y-79735365D01*
X235375000Y-79735365D01*
X235504591Y-79710981D01*
X235580577Y-79726369D01*
X235523118Y-79864746D01*
X235522883Y-80134073D01*
X235625733Y-80382989D01*
X235816010Y-80573598D01*
X236064746Y-80676882D01*
X236334073Y-80677117D01*
X236582989Y-80574267D01*
X236773598Y-80383990D01*
X236876882Y-80135254D01*
X236876940Y-80068350D01*
X237122645Y-79822646D01*
X237180964Y-79735365D01*
X237375000Y-79735365D01*
X237533237Y-79705591D01*
X237678567Y-79612073D01*
X237776064Y-79469381D01*
X237810365Y-79300000D01*
X237810365Y-79277000D01*
X237819493Y-79277000D01*
X237866010Y-79323598D01*
X238114746Y-79426882D01*
X238384073Y-79427117D01*
X238632989Y-79324267D01*
X238823598Y-79133990D01*
X238890159Y-78973691D01*
X243490000Y-78973691D01*
X243490000Y-79214250D01*
X243648750Y-79373000D01*
X244373000Y-79373000D01*
X244373000Y-78623750D01*
X244627000Y-78623750D01*
X244627000Y-79373000D01*
X245873000Y-79373000D01*
X245873000Y-78623750D01*
X245714250Y-78465000D01*
X245498690Y-78465000D01*
X245265301Y-78561673D01*
X245250000Y-78576974D01*
X245234699Y-78561673D01*
X245001310Y-78465000D01*
X244785750Y-78465000D01*
X244627000Y-78623750D01*
X244373000Y-78623750D01*
X244214250Y-78465000D01*
X243998690Y-78465000D01*
X243765301Y-78561673D01*
X243586673Y-78740302D01*
X243490000Y-78973691D01*
X238890159Y-78973691D01*
X238926882Y-78885254D01*
X238927117Y-78615927D01*
X238824267Y-78367011D01*
X238633990Y-78176402D01*
X238385254Y-78073118D01*
X238115927Y-78072883D01*
X237867011Y-78175733D01*
X237819662Y-78223000D01*
X237810365Y-78223000D01*
X237810365Y-78000000D01*
X237780591Y-77841763D01*
X237687073Y-77696433D01*
X237544381Y-77598936D01*
X237375000Y-77564635D01*
X237125000Y-77564635D01*
X236995409Y-77589019D01*
X236875000Y-77564635D01*
X236625000Y-77564635D01*
X236495409Y-77589019D01*
X236375000Y-77564635D01*
X236125000Y-77564635D01*
X235995409Y-77589019D01*
X235875000Y-77564635D01*
X235827000Y-77564635D01*
X235827000Y-76914002D01*
X236407998Y-76333003D01*
X236408001Y-76333001D01*
X236533078Y-76145808D01*
X236555909Y-76031029D01*
X236558237Y-76030591D01*
X236588251Y-76011277D01*
X236740302Y-76163327D01*
X236973691Y-76260000D01*
X237214250Y-76260000D01*
X237373000Y-76101250D01*
X237373000Y-75377000D01*
X237627000Y-75377000D01*
X237627000Y-76101250D01*
X237785750Y-76260000D01*
X238026309Y-76260000D01*
X238259698Y-76163327D01*
X238438327Y-75984699D01*
X238535000Y-75751310D01*
X238535000Y-75535750D01*
X238376250Y-75377000D01*
X237627000Y-75377000D01*
X237373000Y-75377000D01*
X237353000Y-75377000D01*
X237353000Y-75123000D01*
X237373000Y-75123000D01*
X237373000Y-75103000D01*
X237627000Y-75103000D01*
X237627000Y-75123000D01*
X238376250Y-75123000D01*
X238535000Y-74964250D01*
X238535000Y-74927031D01*
X238683583Y-74927161D01*
X239024417Y-74786331D01*
X239285414Y-74525789D01*
X239426839Y-74185201D01*
X239427161Y-73816417D01*
X239286331Y-73475583D01*
X239025789Y-73214586D01*
X238685201Y-73073161D01*
X238316417Y-73072839D01*
X238316027Y-73073000D01*
X236750000Y-73073000D01*
X236491604Y-73124398D01*
X238210251Y-71405750D01*
X255055000Y-71405750D01*
X255055000Y-72096310D01*
X255151673Y-72329699D01*
X255330302Y-72508327D01*
X255563691Y-72605000D01*
X255839528Y-72605000D01*
X255612007Y-72757025D01*
X255335188Y-73171313D01*
X255237982Y-73660000D01*
X255335188Y-74148687D01*
X255612007Y-74562975D01*
X256026295Y-74839794D01*
X256479791Y-74930000D01*
X256026295Y-75020206D01*
X255612007Y-75297025D01*
X255335188Y-75711313D01*
X255237982Y-76200000D01*
X255335188Y-76688687D01*
X255612007Y-77102975D01*
X256026295Y-77379794D01*
X256479791Y-77470000D01*
X256026295Y-77560206D01*
X255612007Y-77837025D01*
X255335188Y-78251313D01*
X255237982Y-78740000D01*
X255335188Y-79228687D01*
X255612007Y-79642975D01*
X256026295Y-79919794D01*
X256479791Y-80010000D01*
X256026295Y-80100206D01*
X255612007Y-80377025D01*
X255335188Y-80791313D01*
X255237982Y-81280000D01*
X255335188Y-81768687D01*
X255612007Y-82182975D01*
X256026295Y-82459794D01*
X256479791Y-82550000D01*
X256026295Y-82640206D01*
X255612007Y-82917025D01*
X255335188Y-83331313D01*
X255237982Y-83820000D01*
X255335188Y-84308687D01*
X255612007Y-84722975D01*
X256026295Y-84999794D01*
X256514982Y-85097000D01*
X256565018Y-85097000D01*
X257053705Y-84999794D01*
X257467993Y-84722975D01*
X257744812Y-84308687D01*
X257842018Y-83820000D01*
X257744812Y-83331313D01*
X257467993Y-82917025D01*
X257053705Y-82640206D01*
X256600209Y-82550000D01*
X257053705Y-82459794D01*
X257467993Y-82182975D01*
X257744812Y-81768687D01*
X257842018Y-81280000D01*
X257744812Y-80791313D01*
X257467993Y-80377025D01*
X257053705Y-80100206D01*
X256600209Y-80010000D01*
X257053705Y-79919794D01*
X257467993Y-79642975D01*
X257744812Y-79228687D01*
X257842018Y-78740000D01*
X257744812Y-78251313D01*
X257467993Y-77837025D01*
X257053705Y-77560206D01*
X256600209Y-77470000D01*
X257053705Y-77379794D01*
X257467993Y-77102975D01*
X257744812Y-76688687D01*
X257842018Y-76200000D01*
X257744812Y-75711313D01*
X257467993Y-75297025D01*
X257053705Y-75020206D01*
X256600209Y-74930000D01*
X257053705Y-74839794D01*
X257467993Y-74562975D01*
X257744812Y-74148687D01*
X257842018Y-73660000D01*
X257744812Y-73171313D01*
X257467993Y-72757025D01*
X257240472Y-72605000D01*
X257516309Y-72605000D01*
X257749698Y-72508327D01*
X257928327Y-72329699D01*
X258025000Y-72096310D01*
X258025000Y-71405750D01*
X257866250Y-71247000D01*
X256667000Y-71247000D01*
X256667000Y-71267000D01*
X256413000Y-71267000D01*
X256413000Y-71247000D01*
X255213750Y-71247000D01*
X255055000Y-71405750D01*
X238210251Y-71405750D01*
X238239001Y-71377000D01*
X243799995Y-71377000D01*
X243800000Y-71377001D01*
X244020808Y-71333078D01*
X244208001Y-71208001D01*
X245272312Y-70143690D01*
X255055000Y-70143690D01*
X255055000Y-70834250D01*
X255213750Y-70993000D01*
X256413000Y-70993000D01*
X256413000Y-69793750D01*
X256667000Y-69793750D01*
X256667000Y-70993000D01*
X257866250Y-70993000D01*
X258025000Y-70834250D01*
X258025000Y-70143690D01*
X257928327Y-69910301D01*
X257749698Y-69731673D01*
X257516309Y-69635000D01*
X256825750Y-69635000D01*
X256667000Y-69793750D01*
X256413000Y-69793750D01*
X256254250Y-69635000D01*
X255563691Y-69635000D01*
X255330302Y-69731673D01*
X255151673Y-69910301D01*
X255055000Y-70143690D01*
X245272312Y-70143690D01*
X247439002Y-67977000D01*
X250099995Y-67977000D01*
X250100000Y-67977001D01*
X250320808Y-67933078D01*
X250508001Y-67808001D01*
X251097141Y-67218861D01*
X251460000Y-67291038D01*
X251929553Y-67197638D01*
X252327620Y-66931658D01*
X252593600Y-66533591D01*
X252687000Y-66064038D01*
X252687000Y-66015962D01*
X252773000Y-66015962D01*
X252773000Y-66064038D01*
X252866400Y-66533591D01*
X253132380Y-66931658D01*
X253530447Y-67197638D01*
X254000000Y-67291038D01*
X254469553Y-67197638D01*
X254867620Y-66931658D01*
X255133600Y-66533591D01*
X255227000Y-66064038D01*
X255227000Y-66015962D01*
X255313000Y-66015962D01*
X255313000Y-66064038D01*
X255406400Y-66533591D01*
X255672380Y-66931658D01*
X256070447Y-67197638D01*
X256540000Y-67291038D01*
X257009553Y-67197638D01*
X257407620Y-66931658D01*
X257673600Y-66533591D01*
X257767000Y-66064038D01*
X257767000Y-66015962D01*
X257673600Y-65546409D01*
X257407620Y-65148342D01*
X257009553Y-64882362D01*
X256540000Y-64788962D01*
X256070447Y-64882362D01*
X255672380Y-65148342D01*
X255406400Y-65546409D01*
X255313000Y-66015962D01*
X255227000Y-66015962D01*
X255133600Y-65546409D01*
X254867620Y-65148342D01*
X254469553Y-64882362D01*
X254000000Y-64788962D01*
X253530447Y-64882362D01*
X253132380Y-65148342D01*
X252866400Y-65546409D01*
X252773000Y-66015962D01*
X252687000Y-66015962D01*
X252593600Y-65546409D01*
X252327620Y-65148342D01*
X251929553Y-64882362D01*
X251460000Y-64788962D01*
X250990447Y-64882362D01*
X250592380Y-65148342D01*
X250326400Y-65546409D01*
X250233000Y-66015962D01*
X250233000Y-66064038D01*
X250297201Y-66386798D01*
X250155365Y-66528633D01*
X250155365Y-65240000D01*
X250125591Y-65081763D01*
X250032073Y-64936433D01*
X249889381Y-64838936D01*
X249720000Y-64804635D01*
X248120000Y-64804635D01*
X247961763Y-64834409D01*
X247816433Y-64927927D01*
X247718936Y-65070619D01*
X247684635Y-65240000D01*
X247684635Y-65489926D01*
X247599192Y-65506922D01*
X247411999Y-65631999D01*
X247411997Y-65632002D01*
X243271007Y-69772991D01*
X240729293Y-69772991D01*
X240755488Y-69755488D01*
X241855488Y-68655488D01*
X241907932Y-68577000D01*
X242056436Y-68354748D01*
X242127000Y-68000000D01*
X242127000Y-66435750D01*
X242910000Y-66435750D01*
X242910000Y-66676309D01*
X243006673Y-66909698D01*
X243185301Y-67088327D01*
X243418690Y-67185000D01*
X243634250Y-67185000D01*
X243793000Y-67026250D01*
X243793000Y-66277000D01*
X244047000Y-66277000D01*
X244047000Y-67026250D01*
X244205750Y-67185000D01*
X244421310Y-67185000D01*
X244654699Y-67088327D01*
X244833327Y-66909698D01*
X244930000Y-66676309D01*
X244930000Y-66435750D01*
X244771250Y-66277000D01*
X244047000Y-66277000D01*
X243793000Y-66277000D01*
X243068750Y-66277000D01*
X242910000Y-66435750D01*
X242127000Y-66435750D01*
X242127000Y-65623691D01*
X242910000Y-65623691D01*
X242910000Y-65864250D01*
X243068750Y-66023000D01*
X243793000Y-66023000D01*
X243793000Y-66003000D01*
X244047000Y-66003000D01*
X244047000Y-66023000D01*
X244771250Y-66023000D01*
X244930000Y-65864250D01*
X244930000Y-65623691D01*
X244833327Y-65390302D01*
X244682402Y-65239376D01*
X244696064Y-65219381D01*
X244698698Y-65206373D01*
X244815808Y-65183078D01*
X245003001Y-65058001D01*
X249327998Y-60733003D01*
X249328001Y-60733001D01*
X249453078Y-60545808D01*
X249458995Y-60516064D01*
X249497001Y-60325000D01*
X249497000Y-60324995D01*
X249497000Y-59505844D01*
X249787620Y-59311658D01*
X249997868Y-58997000D01*
X250382132Y-58997000D01*
X250592380Y-59311658D01*
X250990447Y-59577638D01*
X251460000Y-59671038D01*
X251929553Y-59577638D01*
X252327620Y-59311658D01*
X252593600Y-58913591D01*
X252687000Y-58444038D01*
X252687000Y-58395962D01*
X252773000Y-58395962D01*
X252773000Y-58444038D01*
X252866400Y-58913591D01*
X253132380Y-59311658D01*
X253530447Y-59577638D01*
X254000000Y-59671038D01*
X254469553Y-59577638D01*
X254867620Y-59311658D01*
X255133600Y-58913591D01*
X255227000Y-58444038D01*
X255227000Y-58395962D01*
X255313000Y-58395962D01*
X255313000Y-58444038D01*
X255406400Y-58913591D01*
X255672380Y-59311658D01*
X256070447Y-59577638D01*
X256540000Y-59671038D01*
X257009553Y-59577638D01*
X257407620Y-59311658D01*
X257673600Y-58913591D01*
X257767000Y-58444038D01*
X257767000Y-58395962D01*
X257673600Y-57926409D01*
X257407620Y-57528342D01*
X257009553Y-57262362D01*
X256540000Y-57168962D01*
X256070447Y-57262362D01*
X255672380Y-57528342D01*
X255406400Y-57926409D01*
X255313000Y-58395962D01*
X255227000Y-58395962D01*
X255133600Y-57926409D01*
X254867620Y-57528342D01*
X254469553Y-57262362D01*
X254000000Y-57168962D01*
X253530447Y-57262362D01*
X253132380Y-57528342D01*
X252866400Y-57926409D01*
X252773000Y-58395962D01*
X252687000Y-58395962D01*
X252593600Y-57926409D01*
X252327620Y-57528342D01*
X251929553Y-57262362D01*
X251460000Y-57168962D01*
X250990447Y-57262362D01*
X250592380Y-57528342D01*
X250382132Y-57843000D01*
X249997868Y-57843000D01*
X249787620Y-57528342D01*
X249389553Y-57262362D01*
X248920000Y-57168962D01*
X248450447Y-57262362D01*
X248052380Y-57528342D01*
X247786400Y-57926409D01*
X247693000Y-58395962D01*
X247693000Y-58444038D01*
X247786400Y-58913591D01*
X248052380Y-59311658D01*
X248343000Y-59505844D01*
X248343000Y-60085999D01*
X244533105Y-63895893D01*
X244464381Y-63848936D01*
X244295000Y-63814635D01*
X243545000Y-63814635D01*
X243386763Y-63844409D01*
X243241433Y-63937927D01*
X243143936Y-64080619D01*
X243109635Y-64250000D01*
X243109635Y-65050000D01*
X243139409Y-65208237D01*
X243158723Y-65238251D01*
X243006673Y-65390302D01*
X242910000Y-65623691D01*
X242127000Y-65623691D01*
X242127000Y-63783976D01*
X242783976Y-63127000D01*
X244600000Y-63127000D01*
X244954748Y-63056436D01*
X245255488Y-62855488D01*
X246455488Y-61655488D01*
X246474286Y-61627355D01*
X246656436Y-61354748D01*
X246727000Y-61000000D01*
X246727000Y-56610000D01*
X246656436Y-56255252D01*
X246455488Y-55954512D01*
X246154748Y-55753564D01*
X245800000Y-55683000D01*
X242800000Y-55683000D01*
X242445252Y-55753564D01*
X242234124Y-55894635D01*
X241405000Y-55894635D01*
X241263178Y-55923000D01*
X239150000Y-55923000D01*
X238994804Y-55952202D01*
X238852265Y-56043923D01*
X238756642Y-56183873D01*
X238723000Y-56350000D01*
X238723000Y-56870400D01*
X238698936Y-56905619D01*
X238664635Y-57075000D01*
X238664635Y-57825000D01*
X238694409Y-57983237D01*
X238787927Y-58128567D01*
X238930619Y-58226064D01*
X239100000Y-58260365D01*
X239123000Y-58260365D01*
X239123000Y-59847222D01*
X239048936Y-59955619D01*
X239014635Y-60125000D01*
X239014635Y-60375000D01*
X239039019Y-60504591D01*
X239014635Y-60625000D01*
X239014635Y-60875000D01*
X239039019Y-61004591D01*
X239014635Y-61125000D01*
X239014635Y-61375000D01*
X239039019Y-61504591D01*
X239014635Y-61625000D01*
X239014635Y-61875000D01*
X239044409Y-62033237D01*
X239137927Y-62178567D01*
X239280619Y-62276064D01*
X239450000Y-62310365D01*
X239873000Y-62310365D01*
X239873000Y-62381710D01*
X239827355Y-62427355D01*
X239713115Y-62598325D01*
X239713115Y-62598326D01*
X239673000Y-62800000D01*
X239673000Y-65401409D01*
X239669381Y-65398936D01*
X239500000Y-65364635D01*
X239000000Y-65364635D01*
X238841763Y-65394409D01*
X238696433Y-65487927D01*
X238598936Y-65630619D01*
X238564635Y-65800000D01*
X238564635Y-66700000D01*
X238594409Y-66858237D01*
X238673000Y-66980370D01*
X238673000Y-66999995D01*
X238672999Y-67000000D01*
X238716922Y-67220808D01*
X238841999Y-67408001D01*
X239606999Y-68173000D01*
X232900000Y-68173000D01*
X232545252Y-68243564D01*
X232299155Y-68408001D01*
X232244512Y-68444512D01*
X231144512Y-69544512D01*
X230943564Y-69845252D01*
X230873000Y-70200000D01*
X230873000Y-72616024D01*
X227744798Y-75744226D01*
X227614586Y-75874211D01*
X227473161Y-76214799D01*
X227472839Y-76583583D01*
X227613669Y-76924417D01*
X227874211Y-77185414D01*
X228214799Y-77326839D01*
X228583583Y-77327161D01*
X228924417Y-77186331D01*
X229185414Y-76925789D01*
X229185575Y-76925401D01*
X230465000Y-75645976D01*
X230465000Y-75751310D01*
X230561673Y-75984699D01*
X230740302Y-76163327D01*
X230973691Y-76260000D01*
X231214250Y-76260000D01*
X231373000Y-76101250D01*
X231373000Y-75377000D01*
X231353000Y-75377000D01*
X231353000Y-75123000D01*
X231373000Y-75123000D01*
X231373000Y-75103000D01*
X231627000Y-75103000D01*
X231627000Y-75123000D01*
X231647000Y-75123000D01*
X231647000Y-75377000D01*
X231627000Y-75377000D01*
X231627000Y-76101250D01*
X231785750Y-76260000D01*
X232026309Y-76260000D01*
X232259698Y-76163327D01*
X232410624Y-76012402D01*
X232430619Y-76026064D01*
X232443627Y-76028698D01*
X232466922Y-76145808D01*
X232591999Y-76333001D01*
X233173000Y-76914001D01*
X233173000Y-77365000D01*
X233122998Y-77365000D01*
X233122998Y-77415405D01*
X233048153Y-77384403D01*
X233028750Y-77365000D01*
X232971250Y-77365000D01*
X232951847Y-77384403D01*
X232765301Y-77461673D01*
X232687500Y-77539474D01*
X232687500Y-77523750D01*
X232528750Y-77365000D01*
X232498690Y-77365000D01*
X232265301Y-77461673D01*
X232162340Y-77564635D01*
X232125000Y-77564635D01*
X231995409Y-77589019D01*
X231875000Y-77564635D01*
X231625000Y-77564635D01*
X231466763Y-77594409D01*
X231321433Y-77687927D01*
X231223936Y-77830619D01*
X231189635Y-78000000D01*
X231189635Y-79300000D01*
X231219409Y-79458237D01*
X231223000Y-79463818D01*
X231223000Y-80059285D01*
X231205591Y-79966763D01*
X231112073Y-79821433D01*
X230969381Y-79723936D01*
X230800000Y-79689635D01*
X229500000Y-79689635D01*
X229341763Y-79719409D01*
X229196433Y-79812927D01*
X229098936Y-79955619D01*
X229064635Y-80125000D01*
X229064635Y-80375000D01*
X229089019Y-80504591D01*
X229064635Y-80625000D01*
X229064635Y-80875000D01*
X229089019Y-81004591D01*
X229064635Y-81125000D01*
X229064635Y-81375000D01*
X229089019Y-81504591D01*
X229064635Y-81625000D01*
X229064635Y-81673000D01*
X228750005Y-81673000D01*
X228750000Y-81672999D01*
X228553569Y-81712073D01*
X228529192Y-81716922D01*
X228341999Y-81841999D01*
X228341997Y-81842002D01*
X227991999Y-82191999D01*
X227866922Y-82379192D01*
X227822999Y-82600000D01*
X227823000Y-82600005D01*
X227823000Y-88560999D01*
X226391999Y-89991999D01*
X226266922Y-90179192D01*
X226222999Y-90400000D01*
X226223000Y-90400005D01*
X226223000Y-93160999D01*
X226160998Y-93223000D01*
X225650005Y-93223000D01*
X225650000Y-93222999D01*
X225429192Y-93266922D01*
X225241999Y-93391999D01*
X225241997Y-93392002D01*
X224869363Y-93764635D01*
X224350000Y-93764635D01*
X224191763Y-93794409D01*
X224046433Y-93887927D01*
X223948936Y-94030619D01*
X223914635Y-94200000D01*
X223502000Y-94200000D01*
X223502000Y-58776890D01*
X224558524Y-58776890D01*
X224728355Y-59186924D01*
X225118642Y-59615183D01*
X225479583Y-59784691D01*
X225072007Y-60057025D01*
X224795188Y-60471313D01*
X224697982Y-60960000D01*
X224795188Y-61448687D01*
X225072007Y-61862975D01*
X225486295Y-62139794D01*
X225939791Y-62230000D01*
X225486295Y-62320206D01*
X225072007Y-62597025D01*
X224795188Y-63011313D01*
X224697982Y-63500000D01*
X224795188Y-63988687D01*
X225072007Y-64402975D01*
X225486295Y-64679794D01*
X225862546Y-64754635D01*
X225150000Y-64754635D01*
X224991763Y-64784409D01*
X224846433Y-64877927D01*
X224748936Y-65020619D01*
X224714635Y-65190000D01*
X224714635Y-66890000D01*
X224744409Y-67048237D01*
X224837927Y-67193567D01*
X224980619Y-67291064D01*
X225150000Y-67325365D01*
X226850000Y-67325365D01*
X227008237Y-67295591D01*
X227153567Y-67202073D01*
X227251064Y-67059381D01*
X227285365Y-66890000D01*
X227285365Y-65190000D01*
X227255591Y-65031763D01*
X227162073Y-64886433D01*
X227019381Y-64788936D01*
X226850000Y-64754635D01*
X226137454Y-64754635D01*
X226513705Y-64679794D01*
X226927993Y-64402975D01*
X227204812Y-63988687D01*
X227302018Y-63500000D01*
X227204812Y-63011313D01*
X226927993Y-62597025D01*
X226513705Y-62320206D01*
X226060209Y-62230000D01*
X226513705Y-62139794D01*
X226892037Y-61887000D01*
X235790000Y-61887000D01*
X236144748Y-61816436D01*
X236445488Y-61615488D01*
X236475611Y-61585365D01*
X236575000Y-61585365D01*
X236733237Y-61555591D01*
X236878567Y-61462073D01*
X236902531Y-61427000D01*
X237050000Y-61427000D01*
X237121734Y-61412731D01*
X237144409Y-61533237D01*
X237237927Y-61678567D01*
X237343322Y-61750580D01*
X237246433Y-61812927D01*
X237148936Y-61955619D01*
X237114635Y-62125000D01*
X237114635Y-62375000D01*
X237144409Y-62533237D01*
X237223000Y-62655370D01*
X237223000Y-63470831D01*
X237196433Y-63487927D01*
X237098936Y-63630619D01*
X237064635Y-63800000D01*
X237064635Y-64700000D01*
X237094409Y-64858237D01*
X237173000Y-64980370D01*
X237173000Y-65522222D01*
X237098936Y-65630619D01*
X237064635Y-65800000D01*
X237064635Y-66700000D01*
X237094409Y-66858237D01*
X237187927Y-67003567D01*
X237330619Y-67101064D01*
X237500000Y-67135365D01*
X238000000Y-67135365D01*
X238158237Y-67105591D01*
X238303567Y-67012073D01*
X238401064Y-66869381D01*
X238435365Y-66700000D01*
X238435365Y-65800000D01*
X238405591Y-65641763D01*
X238327000Y-65519630D01*
X238327000Y-64977778D01*
X238401064Y-64869381D01*
X238435365Y-64700000D01*
X238435365Y-63800000D01*
X238405591Y-63641763D01*
X238377000Y-63597332D01*
X238377000Y-62652778D01*
X238451064Y-62544381D01*
X238485365Y-62375000D01*
X238485365Y-62125000D01*
X238455591Y-61966763D01*
X238362073Y-61821433D01*
X238256678Y-61749420D01*
X238353567Y-61687073D01*
X238451064Y-61544381D01*
X238485365Y-61375000D01*
X238485365Y-61125000D01*
X238460981Y-60995409D01*
X238485365Y-60875000D01*
X238485365Y-60625000D01*
X238455591Y-60466763D01*
X238362073Y-60321433D01*
X238219381Y-60223936D01*
X238050000Y-60189635D01*
X237883629Y-60189635D01*
X237800000Y-60173000D01*
X237381611Y-60173000D01*
X237309077Y-60124534D01*
X237050000Y-60073000D01*
X236904169Y-60073000D01*
X236887073Y-60046433D01*
X236744381Y-59948936D01*
X236575000Y-59914635D01*
X236386283Y-59914635D01*
X236354747Y-59893563D01*
X236000000Y-59823000D01*
X235645253Y-59893563D01*
X235436571Y-60033000D01*
X226892037Y-60033000D01*
X226520417Y-59784691D01*
X226881358Y-59615183D01*
X227271645Y-59186924D01*
X227441476Y-58776890D01*
X227320155Y-58547000D01*
X226127000Y-58547000D01*
X226127000Y-58567000D01*
X225873000Y-58567000D01*
X225873000Y-58547000D01*
X224679845Y-58547000D01*
X224558524Y-58776890D01*
X223502000Y-58776890D01*
X223502000Y-58063110D01*
X224558524Y-58063110D01*
X224679845Y-58293000D01*
X225873000Y-58293000D01*
X225873000Y-57099181D01*
X226127000Y-57099181D01*
X226127000Y-58293000D01*
X227320155Y-58293000D01*
X227441476Y-58063110D01*
X227271645Y-57653076D01*
X226881358Y-57224817D01*
X226356892Y-56978514D01*
X226127000Y-57099181D01*
X225873000Y-57099181D01*
X225643108Y-56978514D01*
X225118642Y-57224817D01*
X224728355Y-57653076D01*
X224558524Y-58063110D01*
X223502000Y-58063110D01*
X223502000Y-55502000D01*
X258498000Y-55502000D01*
X258498000Y-121498000D01*
X258498000Y-121498000D01*
G37*
X258498000Y-121498000D02*
X223502000Y-121498000D01*
X223502000Y-94200000D01*
X223914635Y-94200000D01*
X223914635Y-94700000D01*
X223944409Y-94858237D01*
X224037927Y-95003567D01*
X224180619Y-95101064D01*
X224302617Y-95125770D01*
X224266922Y-95179192D01*
X224246034Y-95284197D01*
X224191763Y-95294409D01*
X224046433Y-95387927D01*
X223948936Y-95530619D01*
X223914635Y-95700000D01*
X223914635Y-96200000D01*
X223944409Y-96358237D01*
X224037927Y-96503567D01*
X224180619Y-96601064D01*
X224245725Y-96614249D01*
X224266922Y-96720808D01*
X224391999Y-96908001D01*
X224691999Y-97208001D01*
X224879192Y-97333078D01*
X225100000Y-97377000D01*
X225760998Y-97377000D01*
X226623000Y-98239001D01*
X226623000Y-104619995D01*
X226622999Y-104620000D01*
X226666922Y-104840808D01*
X226791999Y-105028001D01*
X228796268Y-107032269D01*
X228774839Y-107140000D01*
X228845403Y-107494748D01*
X229032661Y-107775000D01*
X228845403Y-108055252D01*
X228774839Y-108410000D01*
X228845403Y-108764748D01*
X229046351Y-109065488D01*
X229347091Y-109266436D01*
X229701839Y-109337000D01*
X229738161Y-109337000D01*
X230092909Y-109266436D01*
X230176155Y-109210813D01*
X230177927Y-109213567D01*
X230320619Y-109311064D01*
X230490000Y-109345365D01*
X231490000Y-109345365D01*
X231648237Y-109315591D01*
X231793567Y-109222073D01*
X231891064Y-109079381D01*
X231925365Y-108910000D01*
X231925365Y-107910000D01*
X231902207Y-107786926D01*
X231977127Y-107700209D01*
X232084119Y-107441874D01*
X231957954Y-107267000D01*
X231117000Y-107267000D01*
X231117000Y-107287000D01*
X230863000Y-107287000D01*
X230863000Y-107267000D01*
X230843000Y-107267000D01*
X230843000Y-107013000D01*
X230863000Y-107013000D01*
X230863000Y-105997000D01*
X231117000Y-105997000D01*
X231117000Y-107013000D01*
X231957954Y-107013000D01*
X231992043Y-106965750D01*
X255055000Y-106965750D01*
X255055000Y-107656310D01*
X255151673Y-107889699D01*
X255330302Y-108068327D01*
X255563691Y-108165000D01*
X255839528Y-108165000D01*
X255612007Y-108317025D01*
X255335188Y-108731313D01*
X255237982Y-109220000D01*
X255335188Y-109708687D01*
X255612007Y-110122975D01*
X256026295Y-110399794D01*
X256479791Y-110490000D01*
X256026295Y-110580206D01*
X255612007Y-110857025D01*
X255335188Y-111271313D01*
X255237982Y-111760000D01*
X255335188Y-112248687D01*
X255612007Y-112662975D01*
X256026295Y-112939794D01*
X256479791Y-113030000D01*
X256026295Y-113120206D01*
X255612007Y-113397025D01*
X255335188Y-113811313D01*
X255237982Y-114300000D01*
X255335188Y-114788687D01*
X255612007Y-115202975D01*
X256026295Y-115479794D01*
X256479791Y-115570000D01*
X256026295Y-115660206D01*
X255612007Y-115937025D01*
X255335188Y-116351313D01*
X255237982Y-116840000D01*
X255335188Y-117328687D01*
X255612007Y-117742975D01*
X256026295Y-118019794D01*
X256479791Y-118110000D01*
X256026295Y-118200206D01*
X255612007Y-118477025D01*
X255335188Y-118891313D01*
X255237982Y-119380000D01*
X255335188Y-119868687D01*
X255612007Y-120282975D01*
X256026295Y-120559794D01*
X256514982Y-120657000D01*
X256565018Y-120657000D01*
X257053705Y-120559794D01*
X257467993Y-120282975D01*
X257744812Y-119868687D01*
X257842018Y-119380000D01*
X257744812Y-118891313D01*
X257467993Y-118477025D01*
X257053705Y-118200206D01*
X256600209Y-118110000D01*
X257053705Y-118019794D01*
X257467993Y-117742975D01*
X257744812Y-117328687D01*
X257842018Y-116840000D01*
X257744812Y-116351313D01*
X257467993Y-115937025D01*
X257053705Y-115660206D01*
X256600209Y-115570000D01*
X257053705Y-115479794D01*
X257467993Y-115202975D01*
X257744812Y-114788687D01*
X257842018Y-114300000D01*
X257744812Y-113811313D01*
X257467993Y-113397025D01*
X257053705Y-113120206D01*
X256600209Y-113030000D01*
X257053705Y-112939794D01*
X257467993Y-112662975D01*
X257744812Y-112248687D01*
X257842018Y-111760000D01*
X257744812Y-111271313D01*
X257467993Y-110857025D01*
X257053705Y-110580206D01*
X256600209Y-110490000D01*
X257053705Y-110399794D01*
X257467993Y-110122975D01*
X257744812Y-109708687D01*
X257842018Y-109220000D01*
X257744812Y-108731313D01*
X257467993Y-108317025D01*
X257240472Y-108165000D01*
X257516309Y-108165000D01*
X257749698Y-108068327D01*
X257928327Y-107889699D01*
X258025000Y-107656310D01*
X258025000Y-106965750D01*
X257866250Y-106807000D01*
X256667000Y-106807000D01*
X256667000Y-106827000D01*
X256413000Y-106827000D01*
X256413000Y-106807000D01*
X255213750Y-106807000D01*
X255055000Y-106965750D01*
X231992043Y-106965750D01*
X232084119Y-106838126D01*
X231977127Y-106579791D01*
X231912511Y-106505000D01*
X231977127Y-106430209D01*
X232084119Y-106171874D01*
X231957954Y-105997000D01*
X231117000Y-105997000D01*
X230863000Y-105997000D01*
X230843000Y-105997000D01*
X230843000Y-105743000D01*
X230863000Y-105743000D01*
X230863000Y-105723000D01*
X231117000Y-105723000D01*
X231117000Y-105743000D01*
X231957954Y-105743000D01*
X231986314Y-105703690D01*
X255055000Y-105703690D01*
X255055000Y-106394250D01*
X255213750Y-106553000D01*
X256413000Y-106553000D01*
X256413000Y-105353750D01*
X256667000Y-105353750D01*
X256667000Y-106553000D01*
X257866250Y-106553000D01*
X258025000Y-106394250D01*
X258025000Y-105703690D01*
X257928327Y-105470301D01*
X257749698Y-105291673D01*
X257516309Y-105195000D01*
X256825750Y-105195000D01*
X256667000Y-105353750D01*
X256413000Y-105353750D01*
X256254250Y-105195000D01*
X255563691Y-105195000D01*
X255330302Y-105291673D01*
X255151673Y-105470301D01*
X255055000Y-105703690D01*
X231986314Y-105703690D01*
X232084119Y-105568126D01*
X231977127Y-105309791D01*
X231779900Y-105081506D01*
X231864597Y-104954748D01*
X231935161Y-104600000D01*
X231864597Y-104245252D01*
X231779900Y-104118494D01*
X231977127Y-103890209D01*
X232084119Y-103631874D01*
X231957954Y-103457000D01*
X231117000Y-103457000D01*
X231117000Y-103477000D01*
X230863000Y-103477000D01*
X230863000Y-103457000D01*
X230843000Y-103457000D01*
X230843000Y-103203000D01*
X230863000Y-103203000D01*
X230863000Y-102360865D01*
X231117000Y-102360865D01*
X231117000Y-103203000D01*
X231957954Y-103203000D01*
X232084119Y-103028126D01*
X231977127Y-102769791D01*
X231687604Y-102434677D01*
X231291877Y-102235868D01*
X231117000Y-102360865D01*
X230863000Y-102360865D01*
X230688123Y-102235868D01*
X230292396Y-102434677D01*
X230198084Y-102543840D01*
X230092909Y-102473564D01*
X229738161Y-102403000D01*
X229701839Y-102403000D01*
X229624405Y-102418403D01*
X228977000Y-101770998D01*
X228977000Y-100876980D01*
X229134073Y-100877117D01*
X229382989Y-100774267D01*
X229573598Y-100583990D01*
X229676882Y-100335254D01*
X229677117Y-100065927D01*
X229577000Y-99823625D01*
X229577000Y-99034073D01*
X239822883Y-99034073D01*
X239925733Y-99282989D01*
X240116010Y-99473598D01*
X240364746Y-99576882D01*
X240634073Y-99577117D01*
X240882989Y-99474267D01*
X241073598Y-99283990D01*
X241176882Y-99035254D01*
X241176940Y-98968350D01*
X241272645Y-98872646D01*
X241386884Y-98701675D01*
X241386885Y-98701674D01*
X241405047Y-98610365D01*
X241430000Y-98610365D01*
X241588237Y-98580591D01*
X241733567Y-98487073D01*
X241831064Y-98344381D01*
X241865365Y-98175000D01*
X241865365Y-97525000D01*
X241835591Y-97366763D01*
X241742073Y-97221433D01*
X241599381Y-97123936D01*
X241430000Y-97089635D01*
X240370000Y-97089635D01*
X240211763Y-97119409D01*
X240066433Y-97212927D01*
X239968936Y-97355619D01*
X239934635Y-97525000D01*
X239934635Y-98175000D01*
X239964409Y-98333237D01*
X240021155Y-98421422D01*
X239926402Y-98516010D01*
X239823118Y-98764746D01*
X239822883Y-99034073D01*
X229577000Y-99034073D01*
X229577000Y-96383583D01*
X235272839Y-96383583D01*
X235413669Y-96724417D01*
X235674211Y-96985414D01*
X236014799Y-97126839D01*
X236383583Y-97127161D01*
X236383973Y-97127000D01*
X237322889Y-97127000D01*
X237322883Y-97134073D01*
X237425733Y-97382989D01*
X237616010Y-97573598D01*
X237864746Y-97676882D01*
X238134073Y-97677117D01*
X238382989Y-97574267D01*
X238573598Y-97383990D01*
X238676882Y-97135254D01*
X238676889Y-97127000D01*
X238950000Y-97127000D01*
X239304748Y-97056436D01*
X239425269Y-96975906D01*
X239533237Y-96955591D01*
X239678567Y-96862073D01*
X239776064Y-96719381D01*
X239794772Y-96627000D01*
X240128811Y-96627000D01*
X240200619Y-96676064D01*
X240370000Y-96710365D01*
X241430000Y-96710365D01*
X241588237Y-96680591D01*
X241733567Y-96587073D01*
X241831064Y-96444381D01*
X241865365Y-96275000D01*
X241865365Y-95625000D01*
X241835591Y-95466763D01*
X241742073Y-95321433D01*
X241599381Y-95223936D01*
X241430000Y-95189635D01*
X240370000Y-95189635D01*
X240211763Y-95219409D01*
X240128481Y-95273000D01*
X239251369Y-95273000D01*
X239000000Y-95223000D01*
X238748631Y-95273000D01*
X236200809Y-95273000D01*
X236016417Y-95272839D01*
X235675583Y-95413669D01*
X235414586Y-95674211D01*
X235273161Y-96014799D01*
X235272839Y-96383583D01*
X229577000Y-96383583D01*
X229577000Y-96239002D01*
X232157998Y-93658003D01*
X232158001Y-93658001D01*
X232283078Y-93470808D01*
X232327000Y-93250000D01*
X232327000Y-93127778D01*
X232401064Y-93019381D01*
X232435365Y-92850000D01*
X232435365Y-91950000D01*
X232405591Y-91791763D01*
X232327000Y-91669630D01*
X232327000Y-91127778D01*
X232401064Y-91019381D01*
X232409646Y-90977000D01*
X232424203Y-90977000D01*
X232664746Y-91076882D01*
X232934073Y-91077117D01*
X233182989Y-90974267D01*
X233373598Y-90783990D01*
X233476882Y-90535254D01*
X233477117Y-90265927D01*
X233374267Y-90017011D01*
X233183990Y-89826402D01*
X232935254Y-89723118D01*
X232665927Y-89722883D01*
X232423625Y-89823000D01*
X232411469Y-89823000D01*
X232405591Y-89791763D01*
X232312073Y-89646433D01*
X232169381Y-89548936D01*
X232000000Y-89514635D01*
X231500000Y-89514635D01*
X231341763Y-89544409D01*
X231196433Y-89637927D01*
X231098936Y-89780619D01*
X231064635Y-89950000D01*
X231064635Y-90850000D01*
X231094409Y-91008237D01*
X231173000Y-91130370D01*
X231173000Y-91672222D01*
X231098936Y-91780619D01*
X231064635Y-91950000D01*
X231064635Y-92850000D01*
X231094409Y-93008237D01*
X231126262Y-93057737D01*
X230827000Y-93356999D01*
X230827000Y-93127778D01*
X230901064Y-93019381D01*
X230935365Y-92850000D01*
X230935365Y-91950000D01*
X230905591Y-91791763D01*
X230812073Y-91646433D01*
X230669381Y-91548936D01*
X230500000Y-91514635D01*
X230000000Y-91514635D01*
X229841763Y-91544409D01*
X229696433Y-91637927D01*
X229598936Y-91780619D01*
X229564635Y-91950000D01*
X229564635Y-92850000D01*
X229594409Y-93008237D01*
X229673000Y-93130370D01*
X229673000Y-93710997D01*
X228885365Y-94498631D01*
X228885365Y-94200000D01*
X228855591Y-94041763D01*
X228762073Y-93896433D01*
X228619381Y-93798936D01*
X228577000Y-93790354D01*
X228577000Y-91239002D01*
X229564635Y-90251366D01*
X229564635Y-90850000D01*
X229594409Y-91008237D01*
X229687927Y-91153567D01*
X229830619Y-91251064D01*
X230000000Y-91285365D01*
X230500000Y-91285365D01*
X230658237Y-91255591D01*
X230803567Y-91162073D01*
X230901064Y-91019381D01*
X230935365Y-90850000D01*
X230935365Y-89950000D01*
X230905591Y-89791763D01*
X230812073Y-89646433D01*
X230777000Y-89622469D01*
X230777000Y-89175797D01*
X230876882Y-88935254D01*
X230876919Y-88892921D01*
X230991999Y-89008001D01*
X231179192Y-89133078D01*
X231400000Y-89177000D01*
X232449995Y-89177000D01*
X232450000Y-89177001D01*
X232670808Y-89133078D01*
X232858001Y-89008001D01*
X233158001Y-88708001D01*
X233270056Y-88540297D01*
X233498690Y-88635000D01*
X233528750Y-88635000D01*
X233687500Y-88476250D01*
X233687500Y-88298999D01*
X233750580Y-88206678D01*
X233812500Y-88302903D01*
X233812500Y-88476250D01*
X233971250Y-88635000D01*
X234001310Y-88635000D01*
X234234699Y-88538327D01*
X234337660Y-88435365D01*
X234375000Y-88435365D01*
X234504591Y-88410981D01*
X234625000Y-88435365D01*
X234673000Y-88435365D01*
X234673000Y-88774995D01*
X234672999Y-88775000D01*
X234716922Y-88995808D01*
X234778782Y-89088389D01*
X234475583Y-89213669D01*
X234214586Y-89474211D01*
X234073161Y-89814799D01*
X234072839Y-90183583D01*
X234213669Y-90524417D01*
X234474211Y-90785414D01*
X234814799Y-90926839D01*
X235183583Y-90927161D01*
X235183973Y-90927000D01*
X235573000Y-90927000D01*
X235573000Y-91750000D01*
X235643564Y-92104748D01*
X235667590Y-92140706D01*
X235694409Y-92283237D01*
X235787927Y-92428567D01*
X235930619Y-92526064D01*
X236065996Y-92553479D01*
X236145252Y-92606436D01*
X236500000Y-92677000D01*
X236854748Y-92606436D01*
X236932988Y-92554158D01*
X237058237Y-92530591D01*
X237088251Y-92511277D01*
X237240302Y-92663327D01*
X237473691Y-92760000D01*
X237714250Y-92760000D01*
X237873000Y-92601250D01*
X237873000Y-91877000D01*
X238127000Y-91877000D01*
X238127000Y-92601250D01*
X238285750Y-92760000D01*
X238526309Y-92760000D01*
X238759698Y-92663327D01*
X238938327Y-92484699D01*
X239035000Y-92251310D01*
X239035000Y-92035750D01*
X238876250Y-91877000D01*
X238127000Y-91877000D01*
X237873000Y-91877000D01*
X237853000Y-91877000D01*
X237853000Y-91623000D01*
X237873000Y-91623000D01*
X237873000Y-90898750D01*
X237849250Y-90875000D01*
X237873000Y-90851250D01*
X237873000Y-90127000D01*
X238127000Y-90127000D01*
X238127000Y-90851250D01*
X238150750Y-90875000D01*
X238127000Y-90898750D01*
X238127000Y-91623000D01*
X238876250Y-91623000D01*
X239035000Y-91464250D01*
X239035000Y-91248690D01*
X238938327Y-91015301D01*
X238798025Y-90875000D01*
X238938327Y-90734699D01*
X239035000Y-90501310D01*
X239035000Y-90285750D01*
X238876250Y-90127000D01*
X238127000Y-90127000D01*
X237873000Y-90127000D01*
X237853000Y-90127000D01*
X237853000Y-89873000D01*
X237873000Y-89873000D01*
X237873000Y-89148750D01*
X238127000Y-89148750D01*
X238127000Y-89873000D01*
X238876250Y-89873000D01*
X239035000Y-89714250D01*
X239035000Y-89498690D01*
X238938327Y-89265301D01*
X238759698Y-89086673D01*
X238526309Y-88990000D01*
X238285750Y-88990000D01*
X238127000Y-89148750D01*
X237873000Y-89148750D01*
X237714250Y-88990000D01*
X237473691Y-88990000D01*
X237240302Y-89086673D01*
X237089376Y-89237598D01*
X237069381Y-89223936D01*
X236934004Y-89196521D01*
X236854748Y-89143564D01*
X236500000Y-89073000D01*
X236364002Y-89073000D01*
X235827000Y-88535998D01*
X235827000Y-88435365D01*
X235875000Y-88435365D01*
X236004591Y-88410981D01*
X236125000Y-88435365D01*
X236375000Y-88435365D01*
X236504591Y-88410981D01*
X236625000Y-88435365D01*
X236875000Y-88435365D01*
X237004591Y-88410981D01*
X237125000Y-88435365D01*
X237375000Y-88435365D01*
X237533237Y-88405591D01*
X237678567Y-88312073D01*
X237776064Y-88169381D01*
X237810365Y-88000000D01*
X237810365Y-86700000D01*
X237780591Y-86541763D01*
X237687073Y-86396433D01*
X237544381Y-86298936D01*
X237375000Y-86264635D01*
X237125000Y-86264635D01*
X236995409Y-86289019D01*
X236875000Y-86264635D01*
X236625000Y-86264635D01*
X236495409Y-86289019D01*
X236375000Y-86264635D01*
X236125000Y-86264635D01*
X235995409Y-86289019D01*
X235875000Y-86264635D01*
X235625000Y-86264635D01*
X235495409Y-86289019D01*
X235375000Y-86264635D01*
X235125000Y-86264635D01*
X234995409Y-86289019D01*
X234875000Y-86264635D01*
X234625000Y-86264635D01*
X234495409Y-86289019D01*
X234375000Y-86264635D01*
X234337660Y-86264635D01*
X234234699Y-86161673D01*
X234001310Y-86065000D01*
X233971250Y-86065000D01*
X233812500Y-86223750D01*
X233812500Y-86401001D01*
X233749420Y-86493322D01*
X233687500Y-86397097D01*
X233687500Y-86223750D01*
X233528750Y-86065000D01*
X233498690Y-86065000D01*
X233265301Y-86161673D01*
X233162340Y-86264635D01*
X233125000Y-86264635D01*
X232995409Y-86289019D01*
X232875000Y-86264635D01*
X232625000Y-86264635D01*
X232495409Y-86289019D01*
X232375000Y-86264635D01*
X232125000Y-86264635D01*
X231995409Y-86289019D01*
X231875000Y-86264635D01*
X231625000Y-86264635D01*
X231466763Y-86294409D01*
X231321433Y-86387927D01*
X231223936Y-86530619D01*
X231189635Y-86700000D01*
X231189635Y-87579727D01*
X231020808Y-87466922D01*
X230800000Y-87422999D01*
X230799995Y-87423000D01*
X230200005Y-87423000D01*
X230200000Y-87422999D01*
X229979192Y-87466922D01*
X229791999Y-87591999D01*
X228977000Y-88406998D01*
X228977000Y-82839002D01*
X228989001Y-82827000D01*
X229064635Y-82827000D01*
X229064635Y-82875000D01*
X229089019Y-83004591D01*
X229064635Y-83125000D01*
X229064635Y-83375000D01*
X229089019Y-83504591D01*
X229064635Y-83625000D01*
X229064635Y-83875000D01*
X229089019Y-84004591D01*
X229064635Y-84125000D01*
X229064635Y-84375000D01*
X229089019Y-84504591D01*
X229064635Y-84625000D01*
X229064635Y-84875000D01*
X229089019Y-85004591D01*
X229064635Y-85125000D01*
X229064635Y-85375000D01*
X229089019Y-85504591D01*
X229064635Y-85625000D01*
X229064635Y-85875000D01*
X229094409Y-86033237D01*
X229187927Y-86178567D01*
X229330619Y-86276064D01*
X229500000Y-86310365D01*
X230800000Y-86310365D01*
X230958237Y-86280591D01*
X231081954Y-86200980D01*
X231264746Y-86276882D01*
X231534073Y-86277117D01*
X231782989Y-86174267D01*
X231973598Y-85983990D01*
X232076882Y-85735254D01*
X232077117Y-85465927D01*
X232022637Y-85334073D01*
X236722883Y-85334073D01*
X236825733Y-85582989D01*
X237016010Y-85773598D01*
X237264746Y-85876882D01*
X237534073Y-85877117D01*
X237764635Y-85781851D01*
X237764635Y-85875000D01*
X237794409Y-86033237D01*
X237887927Y-86178567D01*
X238030619Y-86276064D01*
X238200000Y-86310365D01*
X239500000Y-86310365D01*
X239658237Y-86280591D01*
X239803567Y-86187073D01*
X239901064Y-86044381D01*
X239935365Y-85875000D01*
X239935365Y-85625000D01*
X239910981Y-85495409D01*
X239935365Y-85375000D01*
X239935365Y-85125000D01*
X239910981Y-84995409D01*
X239935365Y-84875000D01*
X239935365Y-84827000D01*
X242010998Y-84827000D01*
X242173000Y-84989001D01*
X242173000Y-87338531D01*
X242141763Y-87344409D01*
X241996433Y-87437927D01*
X241898936Y-87580619D01*
X241864635Y-87750000D01*
X241864635Y-88250000D01*
X241894409Y-88408237D01*
X241987927Y-88553567D01*
X242130619Y-88651064D01*
X242300000Y-88685365D01*
X242332692Y-88685365D01*
X242094512Y-88844512D01*
X242058992Y-88897671D01*
X241996433Y-88937927D01*
X241898936Y-89080619D01*
X241864635Y-89250000D01*
X241864635Y-89290687D01*
X241823000Y-89500000D01*
X241823000Y-90749191D01*
X241822839Y-90933583D01*
X241963669Y-91274417D01*
X242224211Y-91535414D01*
X242224599Y-91535575D01*
X244073000Y-93383976D01*
X244073000Y-95273000D01*
X243871189Y-95273000D01*
X243799381Y-95223936D01*
X243630000Y-95189635D01*
X242570000Y-95189635D01*
X242411763Y-95219409D01*
X242266433Y-95312927D01*
X242168936Y-95455619D01*
X242134635Y-95625000D01*
X242134635Y-96275000D01*
X242164409Y-96433237D01*
X242257927Y-96578567D01*
X242400619Y-96676064D01*
X242570000Y-96710365D01*
X243630000Y-96710365D01*
X243788237Y-96680591D01*
X243871519Y-96627000D01*
X244204123Y-96627000D01*
X244219409Y-96708237D01*
X244312927Y-96853567D01*
X244455619Y-96951064D01*
X244608810Y-96982086D01*
X244645252Y-97006436D01*
X245000000Y-97077000D01*
X245354748Y-97006436D01*
X245390706Y-96982410D01*
X245533237Y-96955591D01*
X245678567Y-96862073D01*
X245776064Y-96719381D01*
X245803479Y-96584004D01*
X245856436Y-96504748D01*
X245927000Y-96150000D01*
X245927000Y-93000000D01*
X245895572Y-92842000D01*
X245856437Y-92645253D01*
X245655488Y-92344512D01*
X243677000Y-90366024D01*
X243677000Y-89500000D01*
X243635365Y-89290687D01*
X243635365Y-89250000D01*
X243605591Y-89091763D01*
X243512073Y-88946433D01*
X243441260Y-88898049D01*
X243405488Y-88844512D01*
X243167308Y-88685365D01*
X243200000Y-88685365D01*
X243358237Y-88655591D01*
X243503567Y-88562073D01*
X243601064Y-88419381D01*
X243635365Y-88250000D01*
X243635365Y-87750000D01*
X243605591Y-87591763D01*
X243512073Y-87446433D01*
X243369381Y-87348936D01*
X243327000Y-87340354D01*
X243327000Y-85535750D01*
X245490000Y-85535750D01*
X245490000Y-85776309D01*
X245586673Y-86009698D01*
X245765301Y-86188327D01*
X245998690Y-86285000D01*
X246214250Y-86285000D01*
X246373000Y-86126250D01*
X246373000Y-85377000D01*
X246627000Y-85377000D01*
X246627000Y-86126250D01*
X246785750Y-86285000D01*
X247001310Y-86285000D01*
X247234699Y-86188327D01*
X247413327Y-86009698D01*
X247510000Y-85776309D01*
X247510000Y-85535750D01*
X247351250Y-85377000D01*
X246627000Y-85377000D01*
X246373000Y-85377000D01*
X245648750Y-85377000D01*
X245490000Y-85535750D01*
X243327000Y-85535750D01*
X243327000Y-84750005D01*
X243327001Y-84750000D01*
X243283078Y-84529192D01*
X243279020Y-84523118D01*
X243158001Y-84341999D01*
X243157998Y-84341997D01*
X243101752Y-84285750D01*
X243490000Y-84285750D01*
X243490000Y-84526309D01*
X243586673Y-84759698D01*
X243765301Y-84938327D01*
X243998690Y-85035000D01*
X244214250Y-85035000D01*
X244373000Y-84876250D01*
X244373000Y-84127000D01*
X243648750Y-84127000D01*
X243490000Y-84285750D01*
X243101752Y-84285750D01*
X242658001Y-83841999D01*
X242635553Y-83827000D01*
X243602750Y-83827000D01*
X243648750Y-83873000D01*
X244373000Y-83873000D01*
X244373000Y-83853000D01*
X244627000Y-83853000D01*
X244627000Y-83873000D01*
X244647000Y-83873000D01*
X244647000Y-84127000D01*
X244627000Y-84127000D01*
X244627000Y-84876250D01*
X244785750Y-85035000D01*
X245001310Y-85035000D01*
X245234699Y-84938327D01*
X245413327Y-84759698D01*
X245510000Y-84526309D01*
X245510000Y-84285750D01*
X245463302Y-84239052D01*
X245529192Y-84283078D01*
X245728765Y-84322777D01*
X245738723Y-84338251D01*
X245586673Y-84490302D01*
X245490000Y-84723691D01*
X245490000Y-84964250D01*
X245648750Y-85123000D01*
X246373000Y-85123000D01*
X246373000Y-85103000D01*
X246627000Y-85103000D01*
X246627000Y-85123000D01*
X247351250Y-85123000D01*
X247510000Y-84964250D01*
X247510000Y-84723691D01*
X247413327Y-84490302D01*
X247262402Y-84339376D01*
X247270858Y-84327000D01*
X248510998Y-84327000D01*
X249564635Y-85380636D01*
X249564635Y-89500000D01*
X249594409Y-89658237D01*
X249687927Y-89803567D01*
X249829292Y-89900157D01*
X249675583Y-89963669D01*
X249414586Y-90224211D01*
X249273161Y-90564799D01*
X249272839Y-90933583D01*
X249413669Y-91274417D01*
X249674211Y-91535414D01*
X250014799Y-91676839D01*
X250383583Y-91677161D01*
X250383973Y-91677000D01*
X251957096Y-91677000D01*
X252311844Y-91606436D01*
X252612584Y-91405488D01*
X253855488Y-90162584D01*
X254056437Y-89861843D01*
X254127000Y-89507096D01*
X254127000Y-89185750D01*
X255055000Y-89185750D01*
X255055000Y-89876310D01*
X255151673Y-90109699D01*
X255330302Y-90288327D01*
X255563691Y-90385000D01*
X255839528Y-90385000D01*
X255612007Y-90537025D01*
X255335188Y-90951313D01*
X255237982Y-91440000D01*
X255335188Y-91928687D01*
X255612007Y-92342975D01*
X256026295Y-92619794D01*
X256479791Y-92710000D01*
X256026295Y-92800206D01*
X255612007Y-93077025D01*
X255335188Y-93491313D01*
X255237982Y-93980000D01*
X255335188Y-94468687D01*
X255612007Y-94882975D01*
X256026295Y-95159794D01*
X256479791Y-95250000D01*
X256026295Y-95340206D01*
X255612007Y-95617025D01*
X255335188Y-96031313D01*
X255237982Y-96520000D01*
X255335188Y-97008687D01*
X255612007Y-97422975D01*
X256026295Y-97699794D01*
X256479791Y-97790000D01*
X256026295Y-97880206D01*
X255612007Y-98157025D01*
X255335188Y-98571313D01*
X255237982Y-99060000D01*
X255335188Y-99548687D01*
X255612007Y-99962975D01*
X256026295Y-100239794D01*
X256479791Y-100330000D01*
X256026295Y-100420206D01*
X255612007Y-100697025D01*
X255335188Y-101111313D01*
X255237982Y-101600000D01*
X255335188Y-102088687D01*
X255612007Y-102502975D01*
X256026295Y-102779794D01*
X256514982Y-102877000D01*
X256565018Y-102877000D01*
X257053705Y-102779794D01*
X257467993Y-102502975D01*
X257744812Y-102088687D01*
X257842018Y-101600000D01*
X257744812Y-101111313D01*
X257467993Y-100697025D01*
X257053705Y-100420206D01*
X256600209Y-100330000D01*
X257053705Y-100239794D01*
X257467993Y-99962975D01*
X257744812Y-99548687D01*
X257842018Y-99060000D01*
X257744812Y-98571313D01*
X257467993Y-98157025D01*
X257053705Y-97880206D01*
X256600209Y-97790000D01*
X257053705Y-97699794D01*
X257467993Y-97422975D01*
X257744812Y-97008687D01*
X257842018Y-96520000D01*
X257744812Y-96031313D01*
X257467993Y-95617025D01*
X257053705Y-95340206D01*
X256600209Y-95250000D01*
X257053705Y-95159794D01*
X257467993Y-94882975D01*
X257744812Y-94468687D01*
X257842018Y-93980000D01*
X257744812Y-93491313D01*
X257467993Y-93077025D01*
X257053705Y-92800206D01*
X256600209Y-92710000D01*
X257053705Y-92619794D01*
X257467993Y-92342975D01*
X257744812Y-91928687D01*
X257842018Y-91440000D01*
X257744812Y-90951313D01*
X257467993Y-90537025D01*
X257240472Y-90385000D01*
X257516309Y-90385000D01*
X257749698Y-90288327D01*
X257928327Y-90109699D01*
X258025000Y-89876310D01*
X258025000Y-89185750D01*
X257866250Y-89027000D01*
X256667000Y-89027000D01*
X256667000Y-89047000D01*
X256413000Y-89047000D01*
X256413000Y-89027000D01*
X255213750Y-89027000D01*
X255055000Y-89185750D01*
X254127000Y-89185750D01*
X254127000Y-87923690D01*
X255055000Y-87923690D01*
X255055000Y-88614250D01*
X255213750Y-88773000D01*
X256413000Y-88773000D01*
X256413000Y-87573750D01*
X256667000Y-87573750D01*
X256667000Y-88773000D01*
X257866250Y-88773000D01*
X258025000Y-88614250D01*
X258025000Y-87923690D01*
X257928327Y-87690301D01*
X257749698Y-87511673D01*
X257516309Y-87415000D01*
X256825750Y-87415000D01*
X256667000Y-87573750D01*
X256413000Y-87573750D01*
X256254250Y-87415000D01*
X255563691Y-87415000D01*
X255330302Y-87511673D01*
X255151673Y-87690301D01*
X255055000Y-87923690D01*
X254127000Y-87923690D01*
X254127000Y-76200000D01*
X254108389Y-76106436D01*
X254056437Y-75845253D01*
X253855488Y-75544512D01*
X253055488Y-74744512D01*
X252925789Y-74614586D01*
X252585201Y-74473161D01*
X252216417Y-74472839D01*
X251875583Y-74613669D01*
X251614586Y-74874211D01*
X251473161Y-75214799D01*
X251472839Y-75583583D01*
X251613669Y-75924417D01*
X251753643Y-76064635D01*
X250000000Y-76064635D01*
X249841763Y-76094409D01*
X249696433Y-76187927D01*
X249598936Y-76330619D01*
X249564635Y-76500000D01*
X249564635Y-80619364D01*
X248510998Y-81673000D01*
X248004279Y-81673000D01*
X248030488Y-81655488D01*
X248455488Y-81230488D01*
X248656437Y-80929747D01*
X248727000Y-80575000D01*
X248727000Y-77200809D01*
X248727161Y-77016417D01*
X248586331Y-76675583D01*
X248325789Y-76414586D01*
X247985201Y-76273161D01*
X247616417Y-76272839D01*
X247275583Y-76413669D01*
X247014586Y-76674211D01*
X246873161Y-77014799D01*
X246872839Y-77383583D01*
X246873000Y-77383973D01*
X246873000Y-78699975D01*
X246734699Y-78561673D01*
X246501310Y-78465000D01*
X246285750Y-78465000D01*
X246127000Y-78623750D01*
X246127000Y-79373000D01*
X246147000Y-79373000D01*
X246147000Y-79627000D01*
X246127000Y-79627000D01*
X246127000Y-79647000D01*
X245873000Y-79647000D01*
X245873000Y-79627000D01*
X244627000Y-79627000D01*
X244627000Y-79647000D01*
X244373000Y-79647000D01*
X244373000Y-79627000D01*
X243648750Y-79627000D01*
X243490000Y-79785750D01*
X243490000Y-80026309D01*
X243586673Y-80259698D01*
X243737598Y-80410624D01*
X243723936Y-80430619D01*
X243696521Y-80565996D01*
X243643564Y-80645252D01*
X243573000Y-81000000D01*
X243595564Y-81113435D01*
X243579445Y-81129553D01*
X243574267Y-81117021D01*
X243383990Y-80926412D01*
X243135254Y-80823128D01*
X243041357Y-80823046D01*
X242951665Y-80763115D01*
X242749990Y-80723000D01*
X241890447Y-80723000D01*
X241926882Y-80635254D01*
X241927117Y-80365927D01*
X241824267Y-80117011D01*
X241633990Y-79926402D01*
X241385254Y-79823118D01*
X241115927Y-79822883D01*
X240927086Y-79900910D01*
X240927117Y-79865927D01*
X240824267Y-79617011D01*
X240633990Y-79426402D01*
X240385254Y-79323118D01*
X240115927Y-79322883D01*
X239867011Y-79425733D01*
X239676402Y-79616010D01*
X239634519Y-79716876D01*
X239500000Y-79689635D01*
X238200000Y-79689635D01*
X238041763Y-79719409D01*
X237896433Y-79812927D01*
X237798936Y-79955619D01*
X237764635Y-80125000D01*
X237764635Y-80323013D01*
X237615927Y-80322883D01*
X237367011Y-80425733D01*
X237176402Y-80616010D01*
X237073118Y-80864746D01*
X237072883Y-81134073D01*
X237175733Y-81382989D01*
X237223000Y-81430338D01*
X237223000Y-81500000D01*
X237263115Y-81701675D01*
X237377355Y-81872645D01*
X237627354Y-82122645D01*
X237727612Y-82189635D01*
X237764635Y-82214373D01*
X237764635Y-82375000D01*
X237789019Y-82504591D01*
X237764635Y-82625000D01*
X237764635Y-82875000D01*
X237789019Y-83004591D01*
X237764635Y-83125000D01*
X237764635Y-83162340D01*
X237661673Y-83265301D01*
X237565000Y-83498690D01*
X237565000Y-83528750D01*
X237723750Y-83687500D01*
X237901001Y-83687500D01*
X237993322Y-83750580D01*
X237897097Y-83812500D01*
X237723750Y-83812500D01*
X237565000Y-83971250D01*
X237565000Y-84001310D01*
X237661673Y-84234699D01*
X237683160Y-84256186D01*
X237648325Y-84263115D01*
X237477355Y-84377355D01*
X237331770Y-84522940D01*
X237265927Y-84522883D01*
X237017011Y-84625733D01*
X236826402Y-84816010D01*
X236723118Y-85064746D01*
X236722883Y-85334073D01*
X232022637Y-85334073D01*
X231974267Y-85217011D01*
X231957423Y-85200137D01*
X231973598Y-85183990D01*
X232076882Y-84935254D01*
X232077117Y-84665927D01*
X231974267Y-84417011D01*
X231957423Y-84400137D01*
X231973598Y-84383990D01*
X232076882Y-84135254D01*
X232077117Y-83865927D01*
X231974267Y-83617011D01*
X231957423Y-83600137D01*
X231973598Y-83583990D01*
X232076882Y-83335254D01*
X232077117Y-83065927D01*
X231974267Y-82817011D01*
X231783990Y-82626402D01*
X231742869Y-82609327D01*
X231921905Y-82535351D01*
X232112514Y-82345074D01*
X232215798Y-82096338D01*
X232216033Y-81827011D01*
X232113183Y-81578095D01*
X232101618Y-81566510D01*
X232176882Y-81385254D01*
X232177117Y-81115927D01*
X232168660Y-81095460D01*
X232364746Y-81176882D01*
X232634073Y-81177117D01*
X232882989Y-81074267D01*
X233073598Y-80883990D01*
X233176882Y-80635254D01*
X233177117Y-80365927D01*
X233074267Y-80117011D01*
X232883990Y-79926402D01*
X232877002Y-79923500D01*
X232877002Y-79884595D01*
X232951847Y-79915597D01*
X232971250Y-79935000D01*
X233028750Y-79935000D01*
X233048153Y-79915597D01*
X233234699Y-79838327D01*
X233312500Y-79760526D01*
X233312500Y-79776250D01*
X233471250Y-79935000D01*
X233501310Y-79935000D01*
X233734699Y-79838327D01*
X233837660Y-79735365D01*
X233875000Y-79735365D01*
X234004591Y-79710981D01*
X234125000Y-79735365D01*
X234375000Y-79735365D01*
X234504591Y-79710981D01*
X234625000Y-79735365D01*
X234875000Y-79735365D01*
X235004591Y-79710981D01*
X235125000Y-79735365D01*
X235375000Y-79735365D01*
X235504591Y-79710981D01*
X235580577Y-79726369D01*
X235523118Y-79864746D01*
X235522883Y-80134073D01*
X235625733Y-80382989D01*
X235816010Y-80573598D01*
X236064746Y-80676882D01*
X236334073Y-80677117D01*
X236582989Y-80574267D01*
X236773598Y-80383990D01*
X236876882Y-80135254D01*
X236876940Y-80068350D01*
X237122645Y-79822646D01*
X237180964Y-79735365D01*
X237375000Y-79735365D01*
X237533237Y-79705591D01*
X237678567Y-79612073D01*
X237776064Y-79469381D01*
X237810365Y-79300000D01*
X237810365Y-79277000D01*
X237819493Y-79277000D01*
X237866010Y-79323598D01*
X238114746Y-79426882D01*
X238384073Y-79427117D01*
X238632989Y-79324267D01*
X238823598Y-79133990D01*
X238890159Y-78973691D01*
X243490000Y-78973691D01*
X243490000Y-79214250D01*
X243648750Y-79373000D01*
X244373000Y-79373000D01*
X244373000Y-78623750D01*
X244627000Y-78623750D01*
X244627000Y-79373000D01*
X245873000Y-79373000D01*
X245873000Y-78623750D01*
X245714250Y-78465000D01*
X245498690Y-78465000D01*
X245265301Y-78561673D01*
X245250000Y-78576974D01*
X245234699Y-78561673D01*
X245001310Y-78465000D01*
X244785750Y-78465000D01*
X244627000Y-78623750D01*
X244373000Y-78623750D01*
X244214250Y-78465000D01*
X243998690Y-78465000D01*
X243765301Y-78561673D01*
X243586673Y-78740302D01*
X243490000Y-78973691D01*
X238890159Y-78973691D01*
X238926882Y-78885254D01*
X238927117Y-78615927D01*
X238824267Y-78367011D01*
X238633990Y-78176402D01*
X238385254Y-78073118D01*
X238115927Y-78072883D01*
X237867011Y-78175733D01*
X237819662Y-78223000D01*
X237810365Y-78223000D01*
X237810365Y-78000000D01*
X237780591Y-77841763D01*
X237687073Y-77696433D01*
X237544381Y-77598936D01*
X237375000Y-77564635D01*
X237125000Y-77564635D01*
X236995409Y-77589019D01*
X236875000Y-77564635D01*
X236625000Y-77564635D01*
X236495409Y-77589019D01*
X236375000Y-77564635D01*
X236125000Y-77564635D01*
X235995409Y-77589019D01*
X235875000Y-77564635D01*
X235827000Y-77564635D01*
X235827000Y-76914002D01*
X236407998Y-76333003D01*
X236408001Y-76333001D01*
X236533078Y-76145808D01*
X236555909Y-76031029D01*
X236558237Y-76030591D01*
X236588251Y-76011277D01*
X236740302Y-76163327D01*
X236973691Y-76260000D01*
X237214250Y-76260000D01*
X237373000Y-76101250D01*
X237373000Y-75377000D01*
X237627000Y-75377000D01*
X237627000Y-76101250D01*
X237785750Y-76260000D01*
X238026309Y-76260000D01*
X238259698Y-76163327D01*
X238438327Y-75984699D01*
X238535000Y-75751310D01*
X238535000Y-75535750D01*
X238376250Y-75377000D01*
X237627000Y-75377000D01*
X237373000Y-75377000D01*
X237353000Y-75377000D01*
X237353000Y-75123000D01*
X237373000Y-75123000D01*
X237373000Y-75103000D01*
X237627000Y-75103000D01*
X237627000Y-75123000D01*
X238376250Y-75123000D01*
X238535000Y-74964250D01*
X238535000Y-74927031D01*
X238683583Y-74927161D01*
X239024417Y-74786331D01*
X239285414Y-74525789D01*
X239426839Y-74185201D01*
X239427161Y-73816417D01*
X239286331Y-73475583D01*
X239025789Y-73214586D01*
X238685201Y-73073161D01*
X238316417Y-73072839D01*
X238316027Y-73073000D01*
X236750000Y-73073000D01*
X236491604Y-73124398D01*
X238210251Y-71405750D01*
X255055000Y-71405750D01*
X255055000Y-72096310D01*
X255151673Y-72329699D01*
X255330302Y-72508327D01*
X255563691Y-72605000D01*
X255839528Y-72605000D01*
X255612007Y-72757025D01*
X255335188Y-73171313D01*
X255237982Y-73660000D01*
X255335188Y-74148687D01*
X255612007Y-74562975D01*
X256026295Y-74839794D01*
X256479791Y-74930000D01*
X256026295Y-75020206D01*
X255612007Y-75297025D01*
X255335188Y-75711313D01*
X255237982Y-76200000D01*
X255335188Y-76688687D01*
X255612007Y-77102975D01*
X256026295Y-77379794D01*
X256479791Y-77470000D01*
X256026295Y-77560206D01*
X255612007Y-77837025D01*
X255335188Y-78251313D01*
X255237982Y-78740000D01*
X255335188Y-79228687D01*
X255612007Y-79642975D01*
X256026295Y-79919794D01*
X256479791Y-80010000D01*
X256026295Y-80100206D01*
X255612007Y-80377025D01*
X255335188Y-80791313D01*
X255237982Y-81280000D01*
X255335188Y-81768687D01*
X255612007Y-82182975D01*
X256026295Y-82459794D01*
X256479791Y-82550000D01*
X256026295Y-82640206D01*
X255612007Y-82917025D01*
X255335188Y-83331313D01*
X255237982Y-83820000D01*
X255335188Y-84308687D01*
X255612007Y-84722975D01*
X256026295Y-84999794D01*
X256514982Y-85097000D01*
X256565018Y-85097000D01*
X257053705Y-84999794D01*
X257467993Y-84722975D01*
X257744812Y-84308687D01*
X257842018Y-83820000D01*
X257744812Y-83331313D01*
X257467993Y-82917025D01*
X257053705Y-82640206D01*
X256600209Y-82550000D01*
X257053705Y-82459794D01*
X257467993Y-82182975D01*
X257744812Y-81768687D01*
X257842018Y-81280000D01*
X257744812Y-80791313D01*
X257467993Y-80377025D01*
X257053705Y-80100206D01*
X256600209Y-80010000D01*
X257053705Y-79919794D01*
X257467993Y-79642975D01*
X257744812Y-79228687D01*
X257842018Y-78740000D01*
X257744812Y-78251313D01*
X257467993Y-77837025D01*
X257053705Y-77560206D01*
X256600209Y-77470000D01*
X257053705Y-77379794D01*
X257467993Y-77102975D01*
X257744812Y-76688687D01*
X257842018Y-76200000D01*
X257744812Y-75711313D01*
X257467993Y-75297025D01*
X257053705Y-75020206D01*
X256600209Y-74930000D01*
X257053705Y-74839794D01*
X257467993Y-74562975D01*
X257744812Y-74148687D01*
X257842018Y-73660000D01*
X257744812Y-73171313D01*
X257467993Y-72757025D01*
X257240472Y-72605000D01*
X257516309Y-72605000D01*
X257749698Y-72508327D01*
X257928327Y-72329699D01*
X258025000Y-72096310D01*
X258025000Y-71405750D01*
X257866250Y-71247000D01*
X256667000Y-71247000D01*
X256667000Y-71267000D01*
X256413000Y-71267000D01*
X256413000Y-71247000D01*
X255213750Y-71247000D01*
X255055000Y-71405750D01*
X238210251Y-71405750D01*
X238239001Y-71377000D01*
X243799995Y-71377000D01*
X243800000Y-71377001D01*
X244020808Y-71333078D01*
X244208001Y-71208001D01*
X245272312Y-70143690D01*
X255055000Y-70143690D01*
X255055000Y-70834250D01*
X255213750Y-70993000D01*
X256413000Y-70993000D01*
X256413000Y-69793750D01*
X256667000Y-69793750D01*
X256667000Y-70993000D01*
X257866250Y-70993000D01*
X258025000Y-70834250D01*
X258025000Y-70143690D01*
X257928327Y-69910301D01*
X257749698Y-69731673D01*
X257516309Y-69635000D01*
X256825750Y-69635000D01*
X256667000Y-69793750D01*
X256413000Y-69793750D01*
X256254250Y-69635000D01*
X255563691Y-69635000D01*
X255330302Y-69731673D01*
X255151673Y-69910301D01*
X255055000Y-70143690D01*
X245272312Y-70143690D01*
X247439002Y-67977000D01*
X250099995Y-67977000D01*
X250100000Y-67977001D01*
X250320808Y-67933078D01*
X250508001Y-67808001D01*
X251097141Y-67218861D01*
X251460000Y-67291038D01*
X251929553Y-67197638D01*
X252327620Y-66931658D01*
X252593600Y-66533591D01*
X252687000Y-66064038D01*
X252687000Y-66015962D01*
X252773000Y-66015962D01*
X252773000Y-66064038D01*
X252866400Y-66533591D01*
X253132380Y-66931658D01*
X253530447Y-67197638D01*
X254000000Y-67291038D01*
X254469553Y-67197638D01*
X254867620Y-66931658D01*
X255133600Y-66533591D01*
X255227000Y-66064038D01*
X255227000Y-66015962D01*
X255313000Y-66015962D01*
X255313000Y-66064038D01*
X255406400Y-66533591D01*
X255672380Y-66931658D01*
X256070447Y-67197638D01*
X256540000Y-67291038D01*
X257009553Y-67197638D01*
X257407620Y-66931658D01*
X257673600Y-66533591D01*
X257767000Y-66064038D01*
X257767000Y-66015962D01*
X257673600Y-65546409D01*
X257407620Y-65148342D01*
X257009553Y-64882362D01*
X256540000Y-64788962D01*
X256070447Y-64882362D01*
X255672380Y-65148342D01*
X255406400Y-65546409D01*
X255313000Y-66015962D01*
X255227000Y-66015962D01*
X255133600Y-65546409D01*
X254867620Y-65148342D01*
X254469553Y-64882362D01*
X254000000Y-64788962D01*
X253530447Y-64882362D01*
X253132380Y-65148342D01*
X252866400Y-65546409D01*
X252773000Y-66015962D01*
X252687000Y-66015962D01*
X252593600Y-65546409D01*
X252327620Y-65148342D01*
X251929553Y-64882362D01*
X251460000Y-64788962D01*
X250990447Y-64882362D01*
X250592380Y-65148342D01*
X250326400Y-65546409D01*
X250233000Y-66015962D01*
X250233000Y-66064038D01*
X250297201Y-66386798D01*
X250155365Y-66528633D01*
X250155365Y-65240000D01*
X250125591Y-65081763D01*
X250032073Y-64936433D01*
X249889381Y-64838936D01*
X249720000Y-64804635D01*
X248120000Y-64804635D01*
X247961763Y-64834409D01*
X247816433Y-64927927D01*
X247718936Y-65070619D01*
X247684635Y-65240000D01*
X247684635Y-65489926D01*
X247599192Y-65506922D01*
X247411999Y-65631999D01*
X247411997Y-65632002D01*
X243271007Y-69772991D01*
X240729293Y-69772991D01*
X240755488Y-69755488D01*
X241855488Y-68655488D01*
X241907932Y-68577000D01*
X242056436Y-68354748D01*
X242127000Y-68000000D01*
X242127000Y-66435750D01*
X242910000Y-66435750D01*
X242910000Y-66676309D01*
X243006673Y-66909698D01*
X243185301Y-67088327D01*
X243418690Y-67185000D01*
X243634250Y-67185000D01*
X243793000Y-67026250D01*
X243793000Y-66277000D01*
X244047000Y-66277000D01*
X244047000Y-67026250D01*
X244205750Y-67185000D01*
X244421310Y-67185000D01*
X244654699Y-67088327D01*
X244833327Y-66909698D01*
X244930000Y-66676309D01*
X244930000Y-66435750D01*
X244771250Y-66277000D01*
X244047000Y-66277000D01*
X243793000Y-66277000D01*
X243068750Y-66277000D01*
X242910000Y-66435750D01*
X242127000Y-66435750D01*
X242127000Y-65623691D01*
X242910000Y-65623691D01*
X242910000Y-65864250D01*
X243068750Y-66023000D01*
X243793000Y-66023000D01*
X243793000Y-66003000D01*
X244047000Y-66003000D01*
X244047000Y-66023000D01*
X244771250Y-66023000D01*
X244930000Y-65864250D01*
X244930000Y-65623691D01*
X244833327Y-65390302D01*
X244682402Y-65239376D01*
X244696064Y-65219381D01*
X244698698Y-65206373D01*
X244815808Y-65183078D01*
X245003001Y-65058001D01*
X249327998Y-60733003D01*
X249328001Y-60733001D01*
X249453078Y-60545808D01*
X249458995Y-60516064D01*
X249497001Y-60325000D01*
X249497000Y-60324995D01*
X249497000Y-59505844D01*
X249787620Y-59311658D01*
X249997868Y-58997000D01*
X250382132Y-58997000D01*
X250592380Y-59311658D01*
X250990447Y-59577638D01*
X251460000Y-59671038D01*
X251929553Y-59577638D01*
X252327620Y-59311658D01*
X252593600Y-58913591D01*
X252687000Y-58444038D01*
X252687000Y-58395962D01*
X252773000Y-58395962D01*
X252773000Y-58444038D01*
X252866400Y-58913591D01*
X253132380Y-59311658D01*
X253530447Y-59577638D01*
X254000000Y-59671038D01*
X254469553Y-59577638D01*
X254867620Y-59311658D01*
X255133600Y-58913591D01*
X255227000Y-58444038D01*
X255227000Y-58395962D01*
X255313000Y-58395962D01*
X255313000Y-58444038D01*
X255406400Y-58913591D01*
X255672380Y-59311658D01*
X256070447Y-59577638D01*
X256540000Y-59671038D01*
X257009553Y-59577638D01*
X257407620Y-59311658D01*
X257673600Y-58913591D01*
X257767000Y-58444038D01*
X257767000Y-58395962D01*
X257673600Y-57926409D01*
X257407620Y-57528342D01*
X257009553Y-57262362D01*
X256540000Y-57168962D01*
X256070447Y-57262362D01*
X255672380Y-57528342D01*
X255406400Y-57926409D01*
X255313000Y-58395962D01*
X255227000Y-58395962D01*
X255133600Y-57926409D01*
X254867620Y-57528342D01*
X254469553Y-57262362D01*
X254000000Y-57168962D01*
X253530447Y-57262362D01*
X253132380Y-57528342D01*
X252866400Y-57926409D01*
X252773000Y-58395962D01*
X252687000Y-58395962D01*
X252593600Y-57926409D01*
X252327620Y-57528342D01*
X251929553Y-57262362D01*
X251460000Y-57168962D01*
X250990447Y-57262362D01*
X250592380Y-57528342D01*
X250382132Y-57843000D01*
X249997868Y-57843000D01*
X249787620Y-57528342D01*
X249389553Y-57262362D01*
X248920000Y-57168962D01*
X248450447Y-57262362D01*
X248052380Y-57528342D01*
X247786400Y-57926409D01*
X247693000Y-58395962D01*
X247693000Y-58444038D01*
X247786400Y-58913591D01*
X248052380Y-59311658D01*
X248343000Y-59505844D01*
X248343000Y-60085999D01*
X244533105Y-63895893D01*
X244464381Y-63848936D01*
X244295000Y-63814635D01*
X243545000Y-63814635D01*
X243386763Y-63844409D01*
X243241433Y-63937927D01*
X243143936Y-64080619D01*
X243109635Y-64250000D01*
X243109635Y-65050000D01*
X243139409Y-65208237D01*
X243158723Y-65238251D01*
X243006673Y-65390302D01*
X242910000Y-65623691D01*
X242127000Y-65623691D01*
X242127000Y-63783976D01*
X242783976Y-63127000D01*
X244600000Y-63127000D01*
X244954748Y-63056436D01*
X245255488Y-62855488D01*
X246455488Y-61655488D01*
X246474286Y-61627355D01*
X246656436Y-61354748D01*
X246727000Y-61000000D01*
X246727000Y-56610000D01*
X246656436Y-56255252D01*
X246455488Y-55954512D01*
X246154748Y-55753564D01*
X245800000Y-55683000D01*
X242800000Y-55683000D01*
X242445252Y-55753564D01*
X242234124Y-55894635D01*
X241405000Y-55894635D01*
X241263178Y-55923000D01*
X239150000Y-55923000D01*
X238994804Y-55952202D01*
X238852265Y-56043923D01*
X238756642Y-56183873D01*
X238723000Y-56350000D01*
X238723000Y-56870400D01*
X238698936Y-56905619D01*
X238664635Y-57075000D01*
X238664635Y-57825000D01*
X238694409Y-57983237D01*
X238787927Y-58128567D01*
X238930619Y-58226064D01*
X239100000Y-58260365D01*
X239123000Y-58260365D01*
X239123000Y-59847222D01*
X239048936Y-59955619D01*
X239014635Y-60125000D01*
X239014635Y-60375000D01*
X239039019Y-60504591D01*
X239014635Y-60625000D01*
X239014635Y-60875000D01*
X239039019Y-61004591D01*
X239014635Y-61125000D01*
X239014635Y-61375000D01*
X239039019Y-61504591D01*
X239014635Y-61625000D01*
X239014635Y-61875000D01*
X239044409Y-62033237D01*
X239137927Y-62178567D01*
X239280619Y-62276064D01*
X239450000Y-62310365D01*
X239873000Y-62310365D01*
X239873000Y-62381710D01*
X239827355Y-62427355D01*
X239713115Y-62598325D01*
X239713115Y-62598326D01*
X239673000Y-62800000D01*
X239673000Y-65401409D01*
X239669381Y-65398936D01*
X239500000Y-65364635D01*
X239000000Y-65364635D01*
X238841763Y-65394409D01*
X238696433Y-65487927D01*
X238598936Y-65630619D01*
X238564635Y-65800000D01*
X238564635Y-66700000D01*
X238594409Y-66858237D01*
X238673000Y-66980370D01*
X238673000Y-66999995D01*
X238672999Y-67000000D01*
X238716922Y-67220808D01*
X238841999Y-67408001D01*
X239606999Y-68173000D01*
X232900000Y-68173000D01*
X232545252Y-68243564D01*
X232299155Y-68408001D01*
X232244512Y-68444512D01*
X231144512Y-69544512D01*
X230943564Y-69845252D01*
X230873000Y-70200000D01*
X230873000Y-72616024D01*
X227744798Y-75744226D01*
X227614586Y-75874211D01*
X227473161Y-76214799D01*
X227472839Y-76583583D01*
X227613669Y-76924417D01*
X227874211Y-77185414D01*
X228214799Y-77326839D01*
X228583583Y-77327161D01*
X228924417Y-77186331D01*
X229185414Y-76925789D01*
X229185575Y-76925401D01*
X230465000Y-75645976D01*
X230465000Y-75751310D01*
X230561673Y-75984699D01*
X230740302Y-76163327D01*
X230973691Y-76260000D01*
X231214250Y-76260000D01*
X231373000Y-76101250D01*
X231373000Y-75377000D01*
X231353000Y-75377000D01*
X231353000Y-75123000D01*
X231373000Y-75123000D01*
X231373000Y-75103000D01*
X231627000Y-75103000D01*
X231627000Y-75123000D01*
X231647000Y-75123000D01*
X231647000Y-75377000D01*
X231627000Y-75377000D01*
X231627000Y-76101250D01*
X231785750Y-76260000D01*
X232026309Y-76260000D01*
X232259698Y-76163327D01*
X232410624Y-76012402D01*
X232430619Y-76026064D01*
X232443627Y-76028698D01*
X232466922Y-76145808D01*
X232591999Y-76333001D01*
X233173000Y-76914001D01*
X233173000Y-77365000D01*
X233122998Y-77365000D01*
X233122998Y-77415405D01*
X233048153Y-77384403D01*
X233028750Y-77365000D01*
X232971250Y-77365000D01*
X232951847Y-77384403D01*
X232765301Y-77461673D01*
X232687500Y-77539474D01*
X232687500Y-77523750D01*
X232528750Y-77365000D01*
X232498690Y-77365000D01*
X232265301Y-77461673D01*
X232162340Y-77564635D01*
X232125000Y-77564635D01*
X231995409Y-77589019D01*
X231875000Y-77564635D01*
X231625000Y-77564635D01*
X231466763Y-77594409D01*
X231321433Y-77687927D01*
X231223936Y-77830619D01*
X231189635Y-78000000D01*
X231189635Y-79300000D01*
X231219409Y-79458237D01*
X231223000Y-79463818D01*
X231223000Y-80059285D01*
X231205591Y-79966763D01*
X231112073Y-79821433D01*
X230969381Y-79723936D01*
X230800000Y-79689635D01*
X229500000Y-79689635D01*
X229341763Y-79719409D01*
X229196433Y-79812927D01*
X229098936Y-79955619D01*
X229064635Y-80125000D01*
X229064635Y-80375000D01*
X229089019Y-80504591D01*
X229064635Y-80625000D01*
X229064635Y-80875000D01*
X229089019Y-81004591D01*
X229064635Y-81125000D01*
X229064635Y-81375000D01*
X229089019Y-81504591D01*
X229064635Y-81625000D01*
X229064635Y-81673000D01*
X228750005Y-81673000D01*
X228750000Y-81672999D01*
X228553569Y-81712073D01*
X228529192Y-81716922D01*
X228341999Y-81841999D01*
X228341997Y-81842002D01*
X227991999Y-82191999D01*
X227866922Y-82379192D01*
X227822999Y-82600000D01*
X227823000Y-82600005D01*
X227823000Y-88560999D01*
X226391999Y-89991999D01*
X226266922Y-90179192D01*
X226222999Y-90400000D01*
X226223000Y-90400005D01*
X226223000Y-93160999D01*
X226160998Y-93223000D01*
X225650005Y-93223000D01*
X225650000Y-93222999D01*
X225429192Y-93266922D01*
X225241999Y-93391999D01*
X225241997Y-93392002D01*
X224869363Y-93764635D01*
X224350000Y-93764635D01*
X224191763Y-93794409D01*
X224046433Y-93887927D01*
X223948936Y-94030619D01*
X223914635Y-94200000D01*
X223502000Y-94200000D01*
X223502000Y-58776890D01*
X224558524Y-58776890D01*
X224728355Y-59186924D01*
X225118642Y-59615183D01*
X225479583Y-59784691D01*
X225072007Y-60057025D01*
X224795188Y-60471313D01*
X224697982Y-60960000D01*
X224795188Y-61448687D01*
X225072007Y-61862975D01*
X225486295Y-62139794D01*
X225939791Y-62230000D01*
X225486295Y-62320206D01*
X225072007Y-62597025D01*
X224795188Y-63011313D01*
X224697982Y-63500000D01*
X224795188Y-63988687D01*
X225072007Y-64402975D01*
X225486295Y-64679794D01*
X225862546Y-64754635D01*
X225150000Y-64754635D01*
X224991763Y-64784409D01*
X224846433Y-64877927D01*
X224748936Y-65020619D01*
X224714635Y-65190000D01*
X224714635Y-66890000D01*
X224744409Y-67048237D01*
X224837927Y-67193567D01*
X224980619Y-67291064D01*
X225150000Y-67325365D01*
X226850000Y-67325365D01*
X227008237Y-67295591D01*
X227153567Y-67202073D01*
X227251064Y-67059381D01*
X227285365Y-66890000D01*
X227285365Y-65190000D01*
X227255591Y-65031763D01*
X227162073Y-64886433D01*
X227019381Y-64788936D01*
X226850000Y-64754635D01*
X226137454Y-64754635D01*
X226513705Y-64679794D01*
X226927993Y-64402975D01*
X227204812Y-63988687D01*
X227302018Y-63500000D01*
X227204812Y-63011313D01*
X226927993Y-62597025D01*
X226513705Y-62320206D01*
X226060209Y-62230000D01*
X226513705Y-62139794D01*
X226892037Y-61887000D01*
X235790000Y-61887000D01*
X236144748Y-61816436D01*
X236445488Y-61615488D01*
X236475611Y-61585365D01*
X236575000Y-61585365D01*
X236733237Y-61555591D01*
X236878567Y-61462073D01*
X236902531Y-61427000D01*
X237050000Y-61427000D01*
X237121734Y-61412731D01*
X237144409Y-61533237D01*
X237237927Y-61678567D01*
X237343322Y-61750580D01*
X237246433Y-61812927D01*
X237148936Y-61955619D01*
X237114635Y-62125000D01*
X237114635Y-62375000D01*
X237144409Y-62533237D01*
X237223000Y-62655370D01*
X237223000Y-63470831D01*
X237196433Y-63487927D01*
X237098936Y-63630619D01*
X237064635Y-63800000D01*
X237064635Y-64700000D01*
X237094409Y-64858237D01*
X237173000Y-64980370D01*
X237173000Y-65522222D01*
X237098936Y-65630619D01*
X237064635Y-65800000D01*
X237064635Y-66700000D01*
X237094409Y-66858237D01*
X237187927Y-67003567D01*
X237330619Y-67101064D01*
X237500000Y-67135365D01*
X238000000Y-67135365D01*
X238158237Y-67105591D01*
X238303567Y-67012073D01*
X238401064Y-66869381D01*
X238435365Y-66700000D01*
X238435365Y-65800000D01*
X238405591Y-65641763D01*
X238327000Y-65519630D01*
X238327000Y-64977778D01*
X238401064Y-64869381D01*
X238435365Y-64700000D01*
X238435365Y-63800000D01*
X238405591Y-63641763D01*
X238377000Y-63597332D01*
X238377000Y-62652778D01*
X238451064Y-62544381D01*
X238485365Y-62375000D01*
X238485365Y-62125000D01*
X238455591Y-61966763D01*
X238362073Y-61821433D01*
X238256678Y-61749420D01*
X238353567Y-61687073D01*
X238451064Y-61544381D01*
X238485365Y-61375000D01*
X238485365Y-61125000D01*
X238460981Y-60995409D01*
X238485365Y-60875000D01*
X238485365Y-60625000D01*
X238455591Y-60466763D01*
X238362073Y-60321433D01*
X238219381Y-60223936D01*
X238050000Y-60189635D01*
X237883629Y-60189635D01*
X237800000Y-60173000D01*
X237381611Y-60173000D01*
X237309077Y-60124534D01*
X237050000Y-60073000D01*
X236904169Y-60073000D01*
X236887073Y-60046433D01*
X236744381Y-59948936D01*
X236575000Y-59914635D01*
X236386283Y-59914635D01*
X236354747Y-59893563D01*
X236000000Y-59823000D01*
X235645253Y-59893563D01*
X235436571Y-60033000D01*
X226892037Y-60033000D01*
X226520417Y-59784691D01*
X226881358Y-59615183D01*
X227271645Y-59186924D01*
X227441476Y-58776890D01*
X227320155Y-58547000D01*
X226127000Y-58547000D01*
X226127000Y-58567000D01*
X225873000Y-58567000D01*
X225873000Y-58547000D01*
X224679845Y-58547000D01*
X224558524Y-58776890D01*
X223502000Y-58776890D01*
X223502000Y-58063110D01*
X224558524Y-58063110D01*
X224679845Y-58293000D01*
X225873000Y-58293000D01*
X225873000Y-57099181D01*
X226127000Y-57099181D01*
X226127000Y-58293000D01*
X227320155Y-58293000D01*
X227441476Y-58063110D01*
X227271645Y-57653076D01*
X226881358Y-57224817D01*
X226356892Y-56978514D01*
X226127000Y-57099181D01*
X225873000Y-57099181D01*
X225643108Y-56978514D01*
X225118642Y-57224817D01*
X224728355Y-57653076D01*
X224558524Y-58063110D01*
X223502000Y-58063110D01*
X223502000Y-55502000D01*
X258498000Y-55502000D01*
X258498000Y-121498000D01*
M02*
