M48
;DRILL file {KiCad 4.0.7} date Saturday, May 19, 2018 'PMt' 08:43:44 PM
;FORMAT={-:-/ absolute / metric / decimal}
FMAT,2
METRIC,TZ
T1C0.200
T2C0.250
T3C0.500
T4C0.650
T5C0.800
T6C1.000
T7C3.200
%
G90
G05
M71
T1
X238.75Y-60.3
X238.75Y-61.25
X238.75Y-62.2
T2
X228.4Y-104.6
X229.Y-100.2
X230.2Y-88.8
X231.4Y-83.2
X231.4Y-84.
X231.4Y-84.8
X231.4Y-85.6
X231.5Y-81.25
X231.539Y-81.961
X231.75Y-80.5
X232.5Y-80.5
X232.8Y-71.1
X232.8Y-90.4
X233.6Y-70.2
X236.2Y-80.
X237.4Y-85.2
X237.75Y-81.
X238.Y-97.
X238.25Y-78.75
X240.2Y-67.
X240.25Y-80.
X240.5Y-98.9
X241.25Y-80.5
X243.Y-81.5
T3
X225.Y-91.2
X228.4Y-76.4
X230.2Y-78.8
X230.4Y-87.
X231.4Y-95.6
X234.32Y-113.2
X235.Y-90.
X235.6Y-81.
X236.2Y-62.8
X236.2Y-96.2
X237.8Y-58.9
X238.5Y-74.
X240.4Y-91.6
X240.8Y-88.6
X241.8Y-77.
X242.75Y-90.75
X242.8Y-69.
X245.Y-88.6
X247.8Y-77.2
X248.4Y-92.4
X250.2Y-90.75
X252.4Y-75.4
T4
X229.72Y-103.33
X229.72Y-104.6
X229.72Y-105.87
X229.72Y-107.14
X229.72Y-108.41
X230.99Y-103.33
X230.99Y-104.6
X230.99Y-105.87
X230.99Y-107.14
X230.99Y-108.41
T5
X248.92Y-58.42
X248.92Y-66.04
X251.46Y-58.42
X251.46Y-66.04
X254.Y-58.42
X254.Y-66.04
X256.54Y-58.42
X256.54Y-66.04
T6
X226.Y-58.42
X226.Y-60.96
X226.Y-63.5
X226.Y-66.04
X256.54Y-71.12
X256.54Y-73.66
X256.54Y-76.2
X256.54Y-78.74
X256.54Y-81.28
X256.54Y-83.82
X256.54Y-88.9
X256.54Y-91.44
X256.54Y-93.98
X256.54Y-96.52
X256.54Y-99.06
X256.54Y-101.6
X256.54Y-106.68
X256.54Y-109.22
X256.54Y-111.76
X256.54Y-114.3
X256.54Y-116.84
X256.54Y-119.38
T7
X227.Y-72.
X227.2Y-117.8
T0
M30
