G04 #@! TF.FileFunction,Soldermask,Top*
%FSLAX46Y46*%
G04 Gerber Fmt 4.6, Leading zero omitted, Abs format (unit mm)*
G04 Created by KiCad (PCBNEW 4.0.7) date Saturday, June 23, 2018 'PMt' 03:12:16 PM*
%MOMM*%
%LPD*%
G01*
G04 APERTURE LIST*
%ADD10C,0.100000*%
%ADD11O,12.400000X7.900000*%
%ADD12R,1.700000X0.650000*%
%ADD13R,0.650000X1.700000*%
%ADD14R,2.100000X2.100000*%
%ADD15O,2.100000X2.100000*%
%ADD16R,1.150000X1.200000*%
%ADD17R,1.200000X1.150000*%
%ADD18R,1.300000X0.900000*%
%ADD19R,0.900000X1.300000*%
%ADD20R,1.460000X1.050000*%
%ADD21R,2.400000X4.900000*%
%ADD22R,2.100000X1.300000*%
%ADD23C,1.400000*%
%ADD24R,1.400000X1.290000*%
%ADD25R,2.400000X0.730000*%
%ADD26R,0.640000X0.390000*%
%ADD27R,0.980000X2.540000*%
%ADD28C,0.480000*%
%ADD29R,1.400000X1.400000*%
%ADD30O,1.400000X1.400000*%
%ADD31R,3.900000X2.200000*%
%ADD32R,2.900000X3.700000*%
%ADD33R,1.300000X1.200000*%
%ADD34R,2.000000X2.000000*%
%ADD35O,2.000000X2.000000*%
G04 APERTURE END LIST*
D10*
D11*
X265000000Y-114500000D03*
D12*
X238850000Y-85750000D03*
X238850000Y-85250000D03*
X238850000Y-84750000D03*
X238850000Y-84250000D03*
X238850000Y-83750000D03*
X238850000Y-83250000D03*
X238850000Y-82750000D03*
X238850000Y-82250000D03*
X238850000Y-81750000D03*
X238850000Y-81250000D03*
X238850000Y-80750000D03*
X238850000Y-80250000D03*
D13*
X237250000Y-78650000D03*
X236750000Y-78650000D03*
X236250000Y-78650000D03*
X235750000Y-78650000D03*
X235250000Y-78650000D03*
X234750000Y-78650000D03*
X234250000Y-78650000D03*
X233750000Y-78650000D03*
X233250000Y-78650000D03*
X232750000Y-78650000D03*
X232250000Y-78650000D03*
X231750000Y-78650000D03*
D12*
X230150000Y-80250000D03*
X230150000Y-80750000D03*
X230150000Y-81250000D03*
X230150000Y-81750000D03*
X230150000Y-82250000D03*
X230150000Y-82750000D03*
X230150000Y-83250000D03*
X230150000Y-83750000D03*
X230150000Y-84250000D03*
X230150000Y-84750000D03*
X230150000Y-85250000D03*
X230150000Y-85750000D03*
D13*
X231750000Y-87350000D03*
X232250000Y-87350000D03*
X232750000Y-87350000D03*
X233250000Y-87350000D03*
X233750000Y-87350000D03*
X234250000Y-87350000D03*
X234750000Y-87350000D03*
X235250000Y-87350000D03*
X235750000Y-87350000D03*
X236250000Y-87350000D03*
X236750000Y-87350000D03*
X237250000Y-87350000D03*
D14*
X261000000Y-68000000D03*
D15*
X258460000Y-68000000D03*
X261000000Y-70540000D03*
X258460000Y-70540000D03*
X261000000Y-73080000D03*
X258460000Y-73080000D03*
X261000000Y-75620000D03*
X258460000Y-75620000D03*
X261000000Y-78160000D03*
X258460000Y-78160000D03*
X261000000Y-80700000D03*
X258460000Y-80700000D03*
X261000000Y-83240000D03*
X258460000Y-83240000D03*
X261000000Y-85780000D03*
X258460000Y-85780000D03*
X261000000Y-88320000D03*
X258460000Y-88320000D03*
X261000000Y-90860000D03*
X258460000Y-90860000D03*
D16*
X246000000Y-79500000D03*
X246000000Y-81000000D03*
X244500000Y-79500000D03*
X244500000Y-81000000D03*
D17*
X238000000Y-91750000D03*
X236500000Y-91750000D03*
X238000000Y-90000000D03*
X236500000Y-90000000D03*
X237500000Y-75250000D03*
X236000000Y-75250000D03*
X231500000Y-75250000D03*
X233000000Y-75250000D03*
X251550000Y-61200000D03*
X250050000Y-61200000D03*
D16*
X237400000Y-62150000D03*
X237400000Y-60650000D03*
D17*
X240850000Y-57200000D03*
X242350000Y-57200000D03*
D16*
X237200000Y-97550000D03*
X237200000Y-96050000D03*
X246400000Y-97550000D03*
X246400000Y-96050000D03*
X246500000Y-83750000D03*
X246500000Y-85250000D03*
X244500000Y-82500000D03*
X244500000Y-84000000D03*
D18*
X242750000Y-88000000D03*
X242750000Y-89500000D03*
D19*
X235500000Y-72750000D03*
X234000000Y-72750000D03*
X251450000Y-101200000D03*
X252950000Y-101200000D03*
X236250000Y-70500000D03*
X234750000Y-70500000D03*
X252950000Y-97200000D03*
X251450000Y-97200000D03*
X251450000Y-99200000D03*
X252950000Y-99200000D03*
X251450000Y-106000000D03*
X252950000Y-106000000D03*
X251450000Y-103800000D03*
X252950000Y-103800000D03*
X242050000Y-66250000D03*
X240550000Y-66250000D03*
X240550000Y-64250000D03*
X242050000Y-64250000D03*
D20*
X240900000Y-95950000D03*
X240900000Y-96900000D03*
X240900000Y-97850000D03*
X243100000Y-97850000D03*
X243100000Y-95950000D03*
D21*
X251000000Y-87250000D03*
X251000000Y-78750000D03*
D22*
X225400000Y-68250000D03*
X225400000Y-65350000D03*
D14*
X233680000Y-62230000D03*
D15*
X233680000Y-59690000D03*
X233680000Y-57150000D03*
D22*
X232400000Y-68250000D03*
X232400000Y-65350000D03*
D23*
X254000000Y-56134000D03*
X251460000Y-58674000D03*
X256540000Y-58674000D03*
D10*
G36*
X247745000Y-57090000D02*
X243455000Y-57090000D01*
X244005000Y-56130000D01*
X247195000Y-56130000D01*
X247745000Y-57090000D01*
X247745000Y-57090000D01*
G37*
D24*
X244150000Y-57330000D03*
X247040000Y-57330000D03*
X247040000Y-59670000D03*
D10*
G36*
X243455000Y-59910000D02*
X247745000Y-59910000D01*
X247195000Y-60870000D01*
X244005000Y-60870000D01*
X243455000Y-59910000D01*
X243455000Y-59910000D01*
G37*
D24*
X244160000Y-59670000D03*
D25*
X245580000Y-57050000D03*
X245600000Y-59950000D03*
D26*
X240600000Y-60250000D03*
X240600000Y-60750000D03*
X240600000Y-61250000D03*
X240600000Y-61750000D03*
X240600000Y-62250000D03*
X242500000Y-62250000D03*
X242500000Y-61750000D03*
X242500000Y-61250000D03*
X242500000Y-60750000D03*
X242500000Y-60250000D03*
D27*
X241550000Y-61250000D03*
D28*
X241550000Y-61250000D03*
X241550000Y-62200000D03*
X241550000Y-60300000D03*
D29*
X256930000Y-99060000D03*
D30*
X258200000Y-99060000D03*
X256930000Y-100330000D03*
X258200000Y-100330000D03*
X256930000Y-101600000D03*
X258200000Y-101600000D03*
X256930000Y-102870000D03*
X258200000Y-102870000D03*
X256930000Y-104140000D03*
X258200000Y-104140000D03*
D14*
X233680000Y-114300000D03*
D15*
X233680000Y-111760000D03*
X233680000Y-109220000D03*
X233680000Y-106680000D03*
D11*
X265000000Y-60500000D03*
D16*
X239200000Y-97550000D03*
X239200000Y-96050000D03*
X239000000Y-62150000D03*
X239000000Y-60650000D03*
X244800000Y-97550000D03*
X244800000Y-96050000D03*
D17*
X240850000Y-58800000D03*
X242350000Y-58800000D03*
D31*
X244100000Y-109600000D03*
X239100000Y-109600000D03*
D32*
X244600000Y-104200000D03*
X237800000Y-104200000D03*
D33*
X237000000Y-113250000D03*
X237000000Y-115150000D03*
X239000000Y-114200000D03*
D34*
X247260000Y-71600000D03*
D35*
X249800000Y-63980000D03*
X249800000Y-71600000D03*
X247260000Y-63980000D03*
M02*
