G04 #@! TF.FileFunction,Copper,L2,Bot,Signal*
%FSLAX46Y46*%
G04 Gerber Fmt 4.6, Leading zero omitted, Abs format (unit mm)*
G04 Created by KiCad (PCBNEW 4.0.7) date Saturday, June 23, 2018 'PMt' 03:12:16 PM*
%MOMM*%
%LPD*%
G01*
G04 APERTURE LIST*
%ADD10C,0.100000*%
%ADD11C,1.000000*%
%ADD12O,12.000000X7.500000*%
%ADD13R,1.700000X1.700000*%
%ADD14O,1.700000X1.700000*%
%ADD15C,0.400000*%
%ADD16R,1.000000X1.000000*%
%ADD17O,1.000000X1.000000*%
%ADD18R,1.600000X1.600000*%
%ADD19O,1.600000X1.600000*%
%ADD20C,0.500000*%
%ADD21C,0.300000*%
%ADD22C,1.000000*%
%ADD23C,0.200000*%
%ADD24C,0.500000*%
%ADD25C,0.254000*%
G04 APERTURE END LIST*
D10*
D11*
X259000000Y-57400000D03*
X259000000Y-63600000D03*
X264200000Y-65200000D03*
X264200000Y-55800000D03*
X264200000Y-119200000D03*
X258800000Y-117800000D03*
X258800000Y-111800000D03*
X264200000Y-109600000D03*
X224400000Y-115200000D03*
X251200000Y-114400000D03*
X230200000Y-98200000D03*
X239000000Y-112000000D03*
X224400000Y-63800000D03*
X225000000Y-70000000D03*
X234600000Y-65200000D03*
X228600000Y-72400000D03*
X226800000Y-81400000D03*
X244200000Y-100800000D03*
X240400000Y-91600000D03*
X239000000Y-58800000D03*
X238200000Y-64400000D03*
X233800000Y-94400000D03*
X230000000Y-89200000D03*
X235600000Y-81000000D03*
X263800000Y-90600000D03*
X256400000Y-90200000D03*
X253600000Y-94400000D03*
X248400000Y-92400000D03*
X233000000Y-85400000D03*
X245000000Y-88600000D03*
X240800000Y-88600000D03*
X241800000Y-77000000D03*
X255200000Y-73800000D03*
X245600000Y-69000000D03*
D12*
X265000000Y-114500000D03*
D13*
X261000000Y-68000000D03*
D14*
X258460000Y-68000000D03*
X261000000Y-70540000D03*
X258460000Y-70540000D03*
X261000000Y-73080000D03*
X258460000Y-73080000D03*
X261000000Y-75620000D03*
X258460000Y-75620000D03*
X261000000Y-78160000D03*
X258460000Y-78160000D03*
X261000000Y-80700000D03*
X258460000Y-80700000D03*
X261000000Y-83240000D03*
X258460000Y-83240000D03*
X261000000Y-85780000D03*
X258460000Y-85780000D03*
X261000000Y-88320000D03*
X258460000Y-88320000D03*
X261000000Y-90860000D03*
X258460000Y-90860000D03*
D13*
X233680000Y-62230000D03*
D14*
X233680000Y-59690000D03*
X233680000Y-57150000D03*
D11*
X254000000Y-56134000D03*
X251460000Y-58674000D03*
X256540000Y-58674000D03*
D15*
X241550000Y-61250000D03*
X241550000Y-62200000D03*
X241550000Y-60300000D03*
D16*
X256930000Y-99060000D03*
D17*
X258200000Y-99060000D03*
X256930000Y-100330000D03*
X258200000Y-100330000D03*
X256930000Y-101600000D03*
X258200000Y-101600000D03*
X256930000Y-102870000D03*
X258200000Y-102870000D03*
X256930000Y-104140000D03*
X258200000Y-104140000D03*
D13*
X233680000Y-114300000D03*
D14*
X233680000Y-111760000D03*
X233680000Y-109220000D03*
X233680000Y-106680000D03*
D12*
X265000000Y-60500000D03*
D18*
X247260000Y-71600000D03*
D19*
X249800000Y-63980000D03*
X249800000Y-71600000D03*
X247260000Y-63980000D03*
D11*
X235200000Y-96000000D03*
D20*
X238200000Y-96050000D03*
D11*
X228400000Y-76400000D03*
D20*
X240500000Y-98900000D03*
X242000000Y-86000000D03*
X256250000Y-88000000D03*
X241250000Y-85250000D03*
X255500000Y-87250000D03*
X237750000Y-81000000D03*
X243000000Y-81500010D03*
X257000000Y-77500000D03*
X236750000Y-80000000D03*
X241250000Y-80500000D03*
X240250000Y-80000000D03*
X232500000Y-80500000D03*
X231750000Y-80500000D03*
X231500000Y-81250000D03*
X231538916Y-81961084D03*
D11*
X254400000Y-90100000D03*
X254500000Y-75800000D03*
X238500000Y-74000000D03*
X247800000Y-77200000D03*
X235000000Y-90000000D03*
X242750000Y-90750000D03*
D20*
X250400000Y-96400000D03*
X232750000Y-88750000D03*
X250311902Y-98200000D03*
X232000000Y-84600000D03*
X225600000Y-73200000D03*
X233600000Y-70200000D03*
X226800000Y-71200000D03*
X232800000Y-71100000D03*
X238250000Y-78750000D03*
X243000000Y-66800000D03*
X250400000Y-105000000D03*
X237400000Y-85200000D03*
X240400000Y-102400000D03*
X226200000Y-101200000D03*
D21*
X265000000Y-114500000D02*
X262750000Y-114500000D01*
X262750000Y-114500000D02*
X256930000Y-108680000D01*
X256930000Y-108680000D02*
X256930000Y-104140000D01*
X265000000Y-60500000D02*
X262750000Y-60500000D01*
X262750000Y-60500000D02*
X261000000Y-62250000D01*
X261000000Y-62250000D02*
X261000000Y-68000000D01*
D22*
X228400000Y-92200000D02*
X232200000Y-96000000D01*
X232200000Y-96000000D02*
X235200000Y-96000000D01*
D23*
X238200000Y-96050000D02*
X238200000Y-96600000D01*
X238200000Y-96600000D02*
X240500000Y-98900000D01*
D22*
X228400000Y-76400000D02*
X228400000Y-92200000D01*
D21*
X254000000Y-66080000D02*
X258460000Y-70540000D01*
X254000000Y-56134000D02*
X254000000Y-66080000D01*
D23*
X242000000Y-86000000D02*
X242500000Y-85500000D01*
X255250000Y-88000000D02*
X256250000Y-88000000D01*
X242500000Y-85500000D02*
X252750000Y-85500000D01*
X252750000Y-85500000D02*
X255250000Y-88000000D01*
X253250000Y-85000000D02*
X255500000Y-87250000D01*
X242250000Y-85000000D02*
X253250000Y-85000000D01*
X241250000Y-85250000D02*
X242000000Y-85250000D01*
X242000000Y-85250000D02*
X242250000Y-85000000D01*
X237750000Y-81000000D02*
X239500000Y-79250000D01*
X239500000Y-79250000D02*
X241000000Y-79250000D01*
X241000000Y-79250000D02*
X242750000Y-81000000D01*
X242750000Y-81000000D02*
X254250000Y-81000000D01*
X254250000Y-81000000D02*
X257090000Y-78160000D01*
X257090000Y-78160000D02*
X258460000Y-78160000D01*
X243000000Y-81500010D02*
X254499990Y-81500010D01*
X256500000Y-79500000D02*
X254499990Y-81500010D01*
X259800000Y-79500000D02*
X256500000Y-79500000D01*
X261000000Y-80700000D02*
X259800000Y-79500000D01*
X243000000Y-80500000D02*
X254000000Y-80500000D01*
X236750000Y-80000000D02*
X238000000Y-80000000D01*
X238000000Y-80000000D02*
X239250000Y-78750000D01*
X239250000Y-78750000D02*
X241250000Y-78750000D01*
X241250000Y-78750000D02*
X243000000Y-80500000D01*
X254000000Y-80500000D02*
X257000000Y-77500000D01*
X242750011Y-82000011D02*
X259759989Y-82000011D01*
X259759989Y-82000011D02*
X259760000Y-82000000D01*
X241250000Y-80500000D02*
X242750011Y-82000011D01*
X261000000Y-83240000D02*
X259760000Y-82000000D01*
X240250000Y-80000000D02*
X240500000Y-80250000D01*
X240500000Y-80250000D02*
X240500000Y-80603553D01*
X240500000Y-80603553D02*
X242396447Y-82500000D01*
X242396447Y-82500000D02*
X256517919Y-82500000D01*
X257257919Y-83240000D02*
X258460000Y-83240000D01*
X256517919Y-82500000D02*
X257257919Y-83240000D01*
X232500000Y-80500000D02*
X235000000Y-83000000D01*
X235000000Y-83000000D02*
X255750000Y-83000000D01*
X255750000Y-83000000D02*
X257250000Y-84500000D01*
X257250000Y-84500000D02*
X259720000Y-84500000D01*
X259720000Y-84500000D02*
X261000000Y-85780000D01*
X231750000Y-80500000D02*
X234750000Y-83500000D01*
X234750000Y-83500000D02*
X255500000Y-83500000D01*
X255500000Y-83500000D02*
X256930001Y-84930001D01*
X256930001Y-84930001D02*
X257610001Y-84930001D01*
X257610001Y-84930001D02*
X258460000Y-85780000D01*
X231500000Y-81250000D02*
X231750000Y-81250000D01*
X231750000Y-81250000D02*
X234500000Y-84000000D01*
X234500000Y-84000000D02*
X254250000Y-84000000D01*
X254250000Y-84000000D02*
X257250000Y-87000000D01*
X257250000Y-87000000D02*
X259680000Y-87000000D01*
X259680000Y-87000000D02*
X261000000Y-88320000D01*
X257610001Y-87470001D02*
X256720001Y-87470001D01*
X234077832Y-84500000D02*
X231538916Y-81961084D01*
X253750000Y-84500000D02*
X234077832Y-84500000D01*
X256720001Y-87470001D02*
X253750000Y-84500000D01*
X258460000Y-88320000D02*
X257610001Y-87470001D01*
D21*
X259750000Y-66250000D02*
X256540000Y-63040000D01*
X256540000Y-63040000D02*
X256540000Y-58674000D01*
X259750000Y-66250000D02*
X259750000Y-76910000D01*
X259750000Y-76910000D02*
X261000000Y-78160000D01*
D22*
X247800000Y-77200000D02*
X249750000Y-75250000D01*
X249750000Y-75250000D02*
X250000000Y-75250000D01*
X235000000Y-90000000D02*
X242000000Y-90000000D01*
X242000000Y-90000000D02*
X242750000Y-90750000D01*
X262800000Y-72340000D02*
X261000000Y-70540000D01*
X261000000Y-90860000D02*
X262800000Y-89060000D01*
X262800000Y-72340000D02*
X262800000Y-89060000D01*
X253200000Y-90750000D02*
X253650000Y-90750000D01*
X253650000Y-90750000D02*
X255900000Y-93000000D01*
X255900000Y-93000000D02*
X258860000Y-93000000D01*
X258860000Y-93000000D02*
X261000000Y-90860000D01*
X253200000Y-90750000D02*
X253750000Y-90750000D01*
X242750000Y-90750000D02*
X253200000Y-90750000D01*
X253750000Y-90750000D02*
X254400000Y-90100000D01*
X250000000Y-75250000D02*
X253950000Y-75250000D01*
X253950000Y-75250000D02*
X254500000Y-75800000D01*
X250000000Y-75250000D02*
X239750000Y-75250000D01*
X239750000Y-75250000D02*
X238500000Y-74000000D01*
D21*
X246800000Y-92800000D02*
X250400000Y-96400000D01*
X236446447Y-92800000D02*
X246800000Y-92800000D01*
X232750000Y-89103553D02*
X236446447Y-92800000D01*
X232750000Y-88750000D02*
X232750000Y-89103553D01*
X232000000Y-84600000D02*
X232000000Y-89100000D01*
X232000000Y-89100000D02*
X236200000Y-93300000D01*
X236200000Y-93300000D02*
X246300000Y-93300000D01*
X246300000Y-93300000D02*
X250000000Y-97000000D01*
X250000000Y-97000000D02*
X250000000Y-97888098D01*
X250000000Y-97888098D02*
X250311902Y-98200000D01*
X225600000Y-73200000D02*
X225600000Y-71000000D01*
X225600000Y-71000000D02*
X226400000Y-70200000D01*
X233600000Y-70200000D02*
X226400000Y-70200000D01*
X232800000Y-71100000D02*
X226900000Y-71100000D01*
X226900000Y-71100000D02*
X226800000Y-71200000D01*
D23*
X243250000Y-80000000D02*
X253750000Y-80000000D01*
X238250000Y-78750000D02*
X238750000Y-78250000D01*
X238750000Y-78250000D02*
X241500000Y-78250000D01*
X241500000Y-78250000D02*
X243250000Y-80000000D01*
X253750000Y-80000000D02*
X256750000Y-77000000D01*
X256750000Y-77000000D02*
X256750000Y-76127919D01*
X256750000Y-76127919D02*
X257257919Y-75620000D01*
X257257919Y-75620000D02*
X258460000Y-75620000D01*
D21*
X236400000Y-70600000D02*
X239000000Y-68000000D01*
X239000000Y-68000000D02*
X241800000Y-68000000D01*
X241800000Y-68000000D02*
X243000000Y-66800000D01*
X237400000Y-85200000D02*
X236600000Y-85200000D01*
X236600000Y-85200000D02*
X236400000Y-85000000D01*
X236400000Y-85000000D02*
X233800000Y-85000000D01*
X232599999Y-83800000D02*
X231199999Y-82400000D01*
X233800000Y-85000000D02*
X232599999Y-83800000D01*
X231199999Y-82400000D02*
X230599999Y-81800000D01*
X231400000Y-89200000D02*
X231400000Y-82600001D01*
X231400000Y-82600001D02*
X231199999Y-82400000D01*
X230599999Y-81800000D02*
X230599999Y-78600001D01*
X230599999Y-78600001D02*
X236400000Y-72800000D01*
X236400000Y-72800000D02*
X236400000Y-70600000D01*
X250400000Y-99400000D02*
X250400000Y-105000000D01*
X249400000Y-97200000D02*
X249400000Y-98400000D01*
X249400000Y-98400000D02*
X250400000Y-99400000D01*
X236000000Y-93800000D02*
X246000000Y-93800000D01*
X231400000Y-89200000D02*
X236000000Y-93800000D01*
X246000000Y-93800000D02*
X249400000Y-97200000D01*
D24*
X240400000Y-102400000D02*
X227400000Y-102400000D01*
X227400000Y-102400000D02*
X226200000Y-101200000D01*
D25*
G36*
X253214586Y-55608211D02*
X253073161Y-55948799D01*
X253072839Y-56317583D01*
X253213669Y-56658417D01*
X253423000Y-56868114D01*
X253423000Y-66079995D01*
X253422999Y-66080000D01*
X253466922Y-66300808D01*
X253591999Y-66488001D01*
X257238617Y-70134619D01*
X257157982Y-70540000D01*
X257255188Y-71028687D01*
X257532007Y-71442975D01*
X257946295Y-71719794D01*
X258399791Y-71810000D01*
X257946295Y-71900206D01*
X257532007Y-72177025D01*
X257255188Y-72591313D01*
X257157982Y-73080000D01*
X257255188Y-73568687D01*
X257532007Y-73982975D01*
X257946295Y-74259794D01*
X258399791Y-74350000D01*
X257946295Y-74440206D01*
X257532007Y-74717025D01*
X257280788Y-75093000D01*
X257257919Y-75093000D01*
X257056244Y-75133115D01*
X256885274Y-75247355D01*
X256377355Y-75755274D01*
X256263115Y-75926244D01*
X256263115Y-75926245D01*
X256223000Y-76127919D01*
X256223000Y-76781710D01*
X253531710Y-79473000D01*
X243468290Y-79473000D01*
X241872645Y-77877355D01*
X241701675Y-77763115D01*
X241500000Y-77723000D01*
X238750000Y-77723000D01*
X238548326Y-77763115D01*
X238377355Y-77877355D01*
X238181770Y-78072940D01*
X238115927Y-78072883D01*
X237867011Y-78175733D01*
X237676402Y-78366010D01*
X237573118Y-78614746D01*
X237572883Y-78884073D01*
X237675733Y-79132989D01*
X237866010Y-79323598D01*
X237912011Y-79342699D01*
X237781710Y-79473000D01*
X237180507Y-79473000D01*
X237133990Y-79426402D01*
X236885254Y-79323118D01*
X236615927Y-79322883D01*
X236367011Y-79425733D01*
X236176402Y-79616010D01*
X236073118Y-79864746D01*
X236072883Y-80134073D01*
X236175733Y-80382989D01*
X236366010Y-80573598D01*
X236614746Y-80676882D01*
X236884073Y-80677117D01*
X237132989Y-80574267D01*
X237180338Y-80527000D01*
X237265567Y-80527000D01*
X237176402Y-80616010D01*
X237073118Y-80864746D01*
X237072883Y-81134073D01*
X237175733Y-81382989D01*
X237366010Y-81573598D01*
X237614746Y-81676882D01*
X237884073Y-81677117D01*
X238132989Y-81574267D01*
X238323598Y-81383990D01*
X238426882Y-81135254D01*
X238426940Y-81068350D01*
X239573068Y-79922222D01*
X239572883Y-80134073D01*
X239675733Y-80382989D01*
X239866010Y-80573598D01*
X239976138Y-80619327D01*
X240013115Y-80805228D01*
X240127355Y-80976198D01*
X241624157Y-82473000D01*
X235218290Y-82473000D01*
X233177060Y-80431770D01*
X233177117Y-80365927D01*
X233074267Y-80117011D01*
X232883990Y-79926402D01*
X232635254Y-79823118D01*
X232365927Y-79822883D01*
X232124714Y-79922550D01*
X231885254Y-79823118D01*
X231615927Y-79822883D01*
X231367011Y-79925733D01*
X231176999Y-80115414D01*
X231176999Y-78839003D01*
X235832419Y-74183583D01*
X237572839Y-74183583D01*
X237713669Y-74524417D01*
X237974211Y-74785414D01*
X237974599Y-74785575D01*
X239094512Y-75905488D01*
X239395252Y-76106436D01*
X239750000Y-76177000D01*
X247512024Y-76177000D01*
X247144798Y-76544226D01*
X247014586Y-76674211D01*
X246873161Y-77014799D01*
X246872839Y-77383583D01*
X247013669Y-77724417D01*
X247274211Y-77985414D01*
X247614799Y-78126839D01*
X247983583Y-78127161D01*
X248324417Y-77986331D01*
X248585414Y-77725789D01*
X248585575Y-77725401D01*
X250133976Y-76177000D01*
X253566024Y-76177000D01*
X253844226Y-76455202D01*
X253974211Y-76585414D01*
X254314799Y-76726839D01*
X254683583Y-76727161D01*
X255024417Y-76586331D01*
X255285414Y-76325789D01*
X255426839Y-75985201D01*
X255427161Y-75616417D01*
X255286331Y-75275583D01*
X255025789Y-75014586D01*
X255025401Y-75014425D01*
X254605488Y-74594512D01*
X254304748Y-74393564D01*
X253950000Y-74323000D01*
X240133976Y-74323000D01*
X239155488Y-73344512D01*
X239025789Y-73214586D01*
X238685201Y-73073161D01*
X238316417Y-73072839D01*
X237975583Y-73213669D01*
X237714586Y-73474211D01*
X237573161Y-73814799D01*
X237572839Y-74183583D01*
X235832419Y-74183583D01*
X236808001Y-73208001D01*
X236933078Y-73020808D01*
X236977000Y-72800000D01*
X236977000Y-70839002D01*
X237016001Y-70800000D01*
X246024635Y-70800000D01*
X246024635Y-72400000D01*
X246054409Y-72558237D01*
X246147927Y-72703567D01*
X246290619Y-72801064D01*
X246460000Y-72835365D01*
X248060000Y-72835365D01*
X248218237Y-72805591D01*
X248363567Y-72712073D01*
X248461064Y-72569381D01*
X248495365Y-72400000D01*
X248495365Y-71575962D01*
X248573000Y-71575962D01*
X248573000Y-71624038D01*
X248666400Y-72093591D01*
X248932380Y-72491658D01*
X249330447Y-72757638D01*
X249800000Y-72851038D01*
X250269553Y-72757638D01*
X250667620Y-72491658D01*
X250933600Y-72093591D01*
X251027000Y-71624038D01*
X251027000Y-71575962D01*
X250933600Y-71106409D01*
X250667620Y-70708342D01*
X250269553Y-70442362D01*
X249800000Y-70348962D01*
X249330447Y-70442362D01*
X248932380Y-70708342D01*
X248666400Y-71106409D01*
X248573000Y-71575962D01*
X248495365Y-71575962D01*
X248495365Y-70800000D01*
X248465591Y-70641763D01*
X248372073Y-70496433D01*
X248229381Y-70398936D01*
X248060000Y-70364635D01*
X246460000Y-70364635D01*
X246301763Y-70394409D01*
X246156433Y-70487927D01*
X246058936Y-70630619D01*
X246024635Y-70800000D01*
X237016001Y-70800000D01*
X239239001Y-68577000D01*
X241799995Y-68577000D01*
X241800000Y-68577001D01*
X242020808Y-68533078D01*
X242208001Y-68408001D01*
X243142272Y-67473729D01*
X243382989Y-67374267D01*
X243573598Y-67183990D01*
X243676882Y-66935254D01*
X243677117Y-66665927D01*
X243574267Y-66417011D01*
X243383990Y-66226402D01*
X243135254Y-66123118D01*
X242865927Y-66122883D01*
X242617011Y-66225733D01*
X242426402Y-66416010D01*
X242325863Y-66658136D01*
X241560998Y-67423000D01*
X239000000Y-67423000D01*
X238779192Y-67466922D01*
X238591999Y-67591999D01*
X238591997Y-67592002D01*
X235991999Y-70191999D01*
X235866922Y-70379192D01*
X235822999Y-70600000D01*
X235823000Y-70600005D01*
X235823000Y-72560998D01*
X230191998Y-78192000D01*
X230066921Y-78379193D01*
X230022998Y-78600001D01*
X230022999Y-78600006D01*
X230022999Y-81799995D01*
X230022998Y-81800000D01*
X230066921Y-82020808D01*
X230191998Y-82208001D01*
X230823000Y-82839003D01*
X230823000Y-89199995D01*
X230822999Y-89200000D01*
X230866922Y-89420808D01*
X230991999Y-89608001D01*
X235591997Y-94207998D01*
X235591999Y-94208001D01*
X235704213Y-94282979D01*
X235779191Y-94333078D01*
X236000000Y-94377000D01*
X245760998Y-94377000D01*
X248823000Y-97439002D01*
X248823000Y-98399995D01*
X248822999Y-98400000D01*
X248866922Y-98620808D01*
X248991999Y-98808001D01*
X249823000Y-99639001D01*
X249823000Y-104624203D01*
X249723118Y-104864746D01*
X249722883Y-105134073D01*
X249825733Y-105382989D01*
X250016010Y-105573598D01*
X250264746Y-105676882D01*
X250534073Y-105677117D01*
X250782989Y-105574267D01*
X250973598Y-105383990D01*
X251076882Y-105135254D01*
X251077117Y-104865927D01*
X250977000Y-104623625D01*
X250977000Y-104441874D01*
X255835881Y-104441874D01*
X255942873Y-104700209D01*
X256232396Y-105035323D01*
X256628123Y-105234132D01*
X256803000Y-105109135D01*
X256803000Y-104267000D01*
X255962046Y-104267000D01*
X255835881Y-104441874D01*
X250977000Y-104441874D01*
X250977000Y-100631874D01*
X255835881Y-100631874D01*
X255942873Y-100890209D01*
X256007489Y-100965000D01*
X255942873Y-101039791D01*
X255835881Y-101298126D01*
X255962046Y-101473000D01*
X256803000Y-101473000D01*
X256803000Y-100457000D01*
X255962046Y-100457000D01*
X255835881Y-100631874D01*
X250977000Y-100631874D01*
X250977000Y-100028126D01*
X255835881Y-100028126D01*
X255962046Y-100203000D01*
X256803000Y-100203000D01*
X256803000Y-100183000D01*
X257057000Y-100183000D01*
X257057000Y-100203000D01*
X257077000Y-100203000D01*
X257077000Y-100457000D01*
X257057000Y-100457000D01*
X257057000Y-101473000D01*
X257077000Y-101473000D01*
X257077000Y-101727000D01*
X257057000Y-101727000D01*
X257057000Y-101747000D01*
X256803000Y-101747000D01*
X256803000Y-101727000D01*
X255962046Y-101727000D01*
X255835881Y-101901874D01*
X255942873Y-102160209D01*
X256140100Y-102388494D01*
X256055403Y-102515252D01*
X255984839Y-102870000D01*
X256055403Y-103224748D01*
X256140100Y-103351506D01*
X255942873Y-103579791D01*
X255835881Y-103838126D01*
X255962046Y-104013000D01*
X256803000Y-104013000D01*
X256803000Y-103993000D01*
X257057000Y-103993000D01*
X257057000Y-104013000D01*
X257077000Y-104013000D01*
X257077000Y-104267000D01*
X257057000Y-104267000D01*
X257057000Y-105109135D01*
X257231877Y-105234132D01*
X257627604Y-105035323D01*
X257721916Y-104926160D01*
X257827091Y-104996436D01*
X258181839Y-105067000D01*
X258218161Y-105067000D01*
X258572909Y-104996436D01*
X258873649Y-104795488D01*
X259074597Y-104494748D01*
X259145161Y-104140000D01*
X259074597Y-103785252D01*
X258887339Y-103505000D01*
X259074597Y-103224748D01*
X259145161Y-102870000D01*
X259074597Y-102515252D01*
X258887339Y-102235000D01*
X259074597Y-101954748D01*
X259145161Y-101600000D01*
X259074597Y-101245252D01*
X258887339Y-100965000D01*
X259074597Y-100684748D01*
X259145161Y-100330000D01*
X259074597Y-99975252D01*
X258887339Y-99695000D01*
X259074597Y-99414748D01*
X259145161Y-99060000D01*
X259074597Y-98705252D01*
X258873649Y-98404512D01*
X258572909Y-98203564D01*
X258218161Y-98133000D01*
X258181839Y-98133000D01*
X257827091Y-98203564D01*
X257743845Y-98259187D01*
X257742073Y-98256433D01*
X257599381Y-98158936D01*
X257430000Y-98124635D01*
X256430000Y-98124635D01*
X256271763Y-98154409D01*
X256126433Y-98247927D01*
X256028936Y-98390619D01*
X255994635Y-98560000D01*
X255994635Y-99560000D01*
X256017793Y-99683074D01*
X255942873Y-99769791D01*
X255835881Y-100028126D01*
X250977000Y-100028126D01*
X250977000Y-99400005D01*
X250977001Y-99400000D01*
X250933078Y-99179192D01*
X250808001Y-98991999D01*
X250807998Y-98991997D01*
X250620858Y-98804857D01*
X250694891Y-98774267D01*
X250885500Y-98583990D01*
X250988784Y-98335254D01*
X250989019Y-98065927D01*
X250886169Y-97817011D01*
X250695892Y-97626402D01*
X250577000Y-97577034D01*
X250577000Y-97059380D01*
X250782989Y-96974267D01*
X250973598Y-96783990D01*
X251076882Y-96535254D01*
X251077117Y-96265927D01*
X250974267Y-96017011D01*
X250783990Y-95826402D01*
X250541864Y-95725863D01*
X247208001Y-92391999D01*
X247020808Y-92266922D01*
X246800000Y-92222999D01*
X246799995Y-92223000D01*
X236685448Y-92223000D01*
X235389448Y-90927000D01*
X241616024Y-90927000D01*
X242094226Y-91405202D01*
X242224211Y-91535414D01*
X242564799Y-91676839D01*
X242933583Y-91677161D01*
X242933973Y-91677000D01*
X253266024Y-91677000D01*
X255244512Y-93655488D01*
X255545253Y-93856437D01*
X255900000Y-93927000D01*
X258860000Y-93927000D01*
X259214748Y-93856436D01*
X259515488Y-93655488D01*
X261036200Y-92134776D01*
X261513705Y-92039794D01*
X261927993Y-91762975D01*
X262204812Y-91348687D01*
X262299794Y-90871182D01*
X263455488Y-89715488D01*
X263481205Y-89677000D01*
X263656436Y-89414748D01*
X263727000Y-89060000D01*
X263727000Y-72340000D01*
X263656436Y-71985252D01*
X263455488Y-71684512D01*
X262299794Y-70528818D01*
X262204812Y-70051313D01*
X261927993Y-69637025D01*
X261700472Y-69485000D01*
X261976309Y-69485000D01*
X262209698Y-69388327D01*
X262388327Y-69209699D01*
X262485000Y-68976310D01*
X262485000Y-68285750D01*
X262326250Y-68127000D01*
X261127000Y-68127000D01*
X261127000Y-68147000D01*
X260873000Y-68147000D01*
X260873000Y-68127000D01*
X260853000Y-68127000D01*
X260853000Y-67873000D01*
X260873000Y-67873000D01*
X260873000Y-66673750D01*
X261127000Y-66673750D01*
X261127000Y-67873000D01*
X262326250Y-67873000D01*
X262485000Y-67714250D01*
X262485000Y-67023690D01*
X262388327Y-66790301D01*
X262209698Y-66611673D01*
X261976309Y-66515000D01*
X261285750Y-66515000D01*
X261127000Y-66673750D01*
X260873000Y-66673750D01*
X260714250Y-66515000D01*
X260327000Y-66515000D01*
X260327000Y-66250005D01*
X260327001Y-66250000D01*
X260283078Y-66029192D01*
X260158001Y-65841999D01*
X260157998Y-65841997D01*
X257117000Y-62800998D01*
X257117000Y-59407840D01*
X257325414Y-59199789D01*
X257466839Y-58859201D01*
X257467161Y-58490417D01*
X257326331Y-58149583D01*
X257065789Y-57888586D01*
X256725201Y-57747161D01*
X256356417Y-57746839D01*
X256015583Y-57887669D01*
X255754586Y-58148211D01*
X255613161Y-58488799D01*
X255612839Y-58857583D01*
X255753669Y-59198417D01*
X255963000Y-59408114D01*
X255963000Y-63039995D01*
X255962999Y-63040000D01*
X256006922Y-63260808D01*
X256131999Y-63448001D01*
X259173000Y-66489001D01*
X259173000Y-66725752D01*
X258816892Y-66558514D01*
X258587000Y-66679181D01*
X258587000Y-67873000D01*
X258607000Y-67873000D01*
X258607000Y-68127000D01*
X258587000Y-68127000D01*
X258587000Y-68147000D01*
X258333000Y-68147000D01*
X258333000Y-68127000D01*
X257139845Y-68127000D01*
X257044213Y-68308212D01*
X256379112Y-67643110D01*
X257018524Y-67643110D01*
X257139845Y-67873000D01*
X258333000Y-67873000D01*
X258333000Y-66679181D01*
X258103108Y-66558514D01*
X257578642Y-66804817D01*
X257188355Y-67233076D01*
X257018524Y-67643110D01*
X256379112Y-67643110D01*
X254577000Y-65840998D01*
X254577000Y-56867840D01*
X254785414Y-56659789D01*
X254926839Y-56319201D01*
X254927161Y-55950417D01*
X254786331Y-55609583D01*
X254678936Y-55502000D01*
X264498000Y-55502000D01*
X264498000Y-119498000D01*
X223502000Y-119498000D01*
X223502000Y-109220000D01*
X232377982Y-109220000D01*
X232475188Y-109708687D01*
X232752007Y-110122975D01*
X233166295Y-110399794D01*
X233619791Y-110490000D01*
X233166295Y-110580206D01*
X232752007Y-110857025D01*
X232475188Y-111271313D01*
X232377982Y-111760000D01*
X232475188Y-112248687D01*
X232752007Y-112662975D01*
X233166295Y-112939794D01*
X233542546Y-113014635D01*
X232830000Y-113014635D01*
X232671763Y-113044409D01*
X232526433Y-113137927D01*
X232428936Y-113280619D01*
X232394635Y-113450000D01*
X232394635Y-115150000D01*
X232424409Y-115308237D01*
X232517927Y-115453567D01*
X232660619Y-115551064D01*
X232830000Y-115585365D01*
X234530000Y-115585365D01*
X234688237Y-115555591D01*
X234833567Y-115462073D01*
X234931064Y-115319381D01*
X234965365Y-115150000D01*
X234965365Y-113450000D01*
X234935591Y-113291763D01*
X234842073Y-113146433D01*
X234699381Y-113048936D01*
X234530000Y-113014635D01*
X233817454Y-113014635D01*
X234193705Y-112939794D01*
X234607993Y-112662975D01*
X234884812Y-112248687D01*
X234982018Y-111760000D01*
X234884812Y-111271313D01*
X234607993Y-110857025D01*
X234193705Y-110580206D01*
X233740209Y-110490000D01*
X234193705Y-110399794D01*
X234607993Y-110122975D01*
X234884812Y-109708687D01*
X234982018Y-109220000D01*
X234884812Y-108731313D01*
X234607993Y-108317025D01*
X234193705Y-108040206D01*
X233705018Y-107943000D01*
X233654982Y-107943000D01*
X233166295Y-108040206D01*
X232752007Y-108317025D01*
X232475188Y-108731313D01*
X232377982Y-109220000D01*
X223502000Y-109220000D01*
X223502000Y-101334073D01*
X225522883Y-101334073D01*
X225625733Y-101582989D01*
X225816010Y-101773598D01*
X225816294Y-101773716D01*
X226921289Y-102878711D01*
X227140923Y-103025466D01*
X227400000Y-103077000D01*
X240399983Y-103077000D01*
X240534073Y-103077117D01*
X240782989Y-102974267D01*
X240973598Y-102783990D01*
X241076882Y-102535254D01*
X241077117Y-102265927D01*
X240974267Y-102017011D01*
X240783990Y-101826402D01*
X240535254Y-101723118D01*
X240265927Y-101722883D01*
X240265644Y-101723000D01*
X227680422Y-101723000D01*
X226679129Y-100721707D01*
X226583990Y-100626402D01*
X226335254Y-100523118D01*
X226065927Y-100522883D01*
X225817011Y-100625733D01*
X225626402Y-100816010D01*
X225523118Y-101064746D01*
X225522883Y-101334073D01*
X223502000Y-101334073D01*
X223502000Y-76583583D01*
X227472839Y-76583583D01*
X227473000Y-76583973D01*
X227473000Y-92200000D01*
X227543564Y-92554748D01*
X227685334Y-92766922D01*
X227744512Y-92855488D01*
X231544512Y-96655488D01*
X231845253Y-96856437D01*
X232200000Y-96927000D01*
X235199191Y-96927000D01*
X235383583Y-96927161D01*
X235724417Y-96786331D01*
X235985414Y-96525789D01*
X236126839Y-96185201D01*
X236126839Y-96184073D01*
X237522883Y-96184073D01*
X237625733Y-96432989D01*
X237673000Y-96480338D01*
X237673000Y-96600000D01*
X237713115Y-96801675D01*
X237827355Y-96972645D01*
X239822940Y-98968230D01*
X239822883Y-99034073D01*
X239925733Y-99282989D01*
X240116010Y-99473598D01*
X240364746Y-99576882D01*
X240634073Y-99577117D01*
X240882989Y-99474267D01*
X241073598Y-99283990D01*
X241176882Y-99035254D01*
X241177117Y-98765927D01*
X241074267Y-98517011D01*
X240883990Y-98326402D01*
X240635254Y-98223118D01*
X240568350Y-98223060D01*
X238775265Y-96429975D01*
X238876882Y-96185254D01*
X238877117Y-95915927D01*
X238774267Y-95667011D01*
X238583990Y-95476402D01*
X238335254Y-95373118D01*
X238065927Y-95372883D01*
X237817011Y-95475733D01*
X237626402Y-95666010D01*
X237523118Y-95914746D01*
X237522883Y-96184073D01*
X236126839Y-96184073D01*
X236127161Y-95816417D01*
X235986331Y-95475583D01*
X235725789Y-95214586D01*
X235385201Y-95073161D01*
X235016417Y-95072839D01*
X235016027Y-95073000D01*
X232583976Y-95073000D01*
X229327000Y-91816024D01*
X229327000Y-76400809D01*
X229327161Y-76216417D01*
X229186331Y-75875583D01*
X228925789Y-75614586D01*
X228585201Y-75473161D01*
X228216417Y-75472839D01*
X227875583Y-75613669D01*
X227614586Y-75874211D01*
X227473161Y-76214799D01*
X227472839Y-76583583D01*
X223502000Y-76583583D01*
X223502000Y-73334073D01*
X224922883Y-73334073D01*
X225025733Y-73582989D01*
X225216010Y-73773598D01*
X225464746Y-73876882D01*
X225734073Y-73877117D01*
X225982989Y-73774267D01*
X226173598Y-73583990D01*
X226276882Y-73335254D01*
X226277117Y-73065927D01*
X226177000Y-72823625D01*
X226177000Y-71465046D01*
X226225733Y-71582989D01*
X226416010Y-71773598D01*
X226664746Y-71876882D01*
X226934073Y-71877117D01*
X227182989Y-71774267D01*
X227280426Y-71677000D01*
X232424203Y-71677000D01*
X232664746Y-71776882D01*
X232934073Y-71777117D01*
X233182989Y-71674267D01*
X233373598Y-71483990D01*
X233476882Y-71235254D01*
X233477117Y-70965927D01*
X233435267Y-70864641D01*
X233464746Y-70876882D01*
X233734073Y-70877117D01*
X233982989Y-70774267D01*
X234173598Y-70583990D01*
X234276882Y-70335254D01*
X234277117Y-70065927D01*
X234174267Y-69817011D01*
X233983990Y-69626402D01*
X233735254Y-69523118D01*
X233465927Y-69522883D01*
X233223625Y-69623000D01*
X226400005Y-69623000D01*
X226400000Y-69622999D01*
X226179192Y-69666922D01*
X225991999Y-69791999D01*
X225191999Y-70591999D01*
X225066922Y-70779192D01*
X225022999Y-71000000D01*
X225023000Y-71000005D01*
X225023000Y-72824203D01*
X224923118Y-73064746D01*
X224922883Y-73334073D01*
X223502000Y-73334073D01*
X223502000Y-63955962D01*
X246033000Y-63955962D01*
X246033000Y-64004038D01*
X246126400Y-64473591D01*
X246392380Y-64871658D01*
X246790447Y-65137638D01*
X247260000Y-65231038D01*
X247729553Y-65137638D01*
X248127620Y-64871658D01*
X248393600Y-64473591D01*
X248487000Y-64004038D01*
X248487000Y-63955962D01*
X248573000Y-63955962D01*
X248573000Y-64004038D01*
X248666400Y-64473591D01*
X248932380Y-64871658D01*
X249330447Y-65137638D01*
X249800000Y-65231038D01*
X250269553Y-65137638D01*
X250667620Y-64871658D01*
X250933600Y-64473591D01*
X251027000Y-64004038D01*
X251027000Y-63955962D01*
X250933600Y-63486409D01*
X250667620Y-63088342D01*
X250269553Y-62822362D01*
X249800000Y-62728962D01*
X249330447Y-62822362D01*
X248932380Y-63088342D01*
X248666400Y-63486409D01*
X248573000Y-63955962D01*
X248487000Y-63955962D01*
X248393600Y-63486409D01*
X248127620Y-63088342D01*
X247729553Y-62822362D01*
X247260000Y-62728962D01*
X246790447Y-62822362D01*
X246392380Y-63088342D01*
X246126400Y-63486409D01*
X246033000Y-63955962D01*
X223502000Y-63955962D01*
X223502000Y-59690000D01*
X232377982Y-59690000D01*
X232475188Y-60178687D01*
X232752007Y-60592975D01*
X233166295Y-60869794D01*
X233542546Y-60944635D01*
X232830000Y-60944635D01*
X232671763Y-60974409D01*
X232526433Y-61067927D01*
X232428936Y-61210619D01*
X232394635Y-61380000D01*
X232394635Y-63080000D01*
X232424409Y-63238237D01*
X232517927Y-63383567D01*
X232660619Y-63481064D01*
X232830000Y-63515365D01*
X234530000Y-63515365D01*
X234688237Y-63485591D01*
X234833567Y-63392073D01*
X234931064Y-63249381D01*
X234965365Y-63080000D01*
X234965365Y-61380000D01*
X234935591Y-61221763D01*
X234842073Y-61076433D01*
X234699381Y-60978936D01*
X234530000Y-60944635D01*
X233817454Y-60944635D01*
X234193705Y-60869794D01*
X234607993Y-60592975D01*
X234884812Y-60178687D01*
X234982018Y-59690000D01*
X234937085Y-59464104D01*
X250849501Y-59464104D01*
X250886648Y-59679217D01*
X251314972Y-59822112D01*
X251765375Y-59790217D01*
X252033352Y-59679217D01*
X252070499Y-59464104D01*
X251460000Y-58853605D01*
X250849501Y-59464104D01*
X234937085Y-59464104D01*
X234884812Y-59201313D01*
X234607993Y-58787025D01*
X234221791Y-58528972D01*
X250311888Y-58528972D01*
X250343783Y-58979375D01*
X250454783Y-59247352D01*
X250669896Y-59284499D01*
X251280395Y-58674000D01*
X251639605Y-58674000D01*
X252250104Y-59284499D01*
X252465217Y-59247352D01*
X252608112Y-58819028D01*
X252576217Y-58368625D01*
X252465217Y-58100648D01*
X252250104Y-58063501D01*
X251639605Y-58674000D01*
X251280395Y-58674000D01*
X250669896Y-58063501D01*
X250454783Y-58100648D01*
X250311888Y-58528972D01*
X234221791Y-58528972D01*
X234193705Y-58510206D01*
X233705018Y-58413000D01*
X233654982Y-58413000D01*
X233166295Y-58510206D01*
X232752007Y-58787025D01*
X232475188Y-59201313D01*
X232377982Y-59690000D01*
X223502000Y-59690000D01*
X223502000Y-57883896D01*
X250849501Y-57883896D01*
X251460000Y-58494395D01*
X252070499Y-57883896D01*
X252033352Y-57668783D01*
X251605028Y-57525888D01*
X251154625Y-57557783D01*
X250886648Y-57668783D01*
X250849501Y-57883896D01*
X223502000Y-57883896D01*
X223502000Y-55502000D01*
X253320982Y-55502000D01*
X253214586Y-55608211D01*
X253214586Y-55608211D01*
G37*
X253214586Y-55608211D02*
X253073161Y-55948799D01*
X253072839Y-56317583D01*
X253213669Y-56658417D01*
X253423000Y-56868114D01*
X253423000Y-66079995D01*
X253422999Y-66080000D01*
X253466922Y-66300808D01*
X253591999Y-66488001D01*
X257238617Y-70134619D01*
X257157982Y-70540000D01*
X257255188Y-71028687D01*
X257532007Y-71442975D01*
X257946295Y-71719794D01*
X258399791Y-71810000D01*
X257946295Y-71900206D01*
X257532007Y-72177025D01*
X257255188Y-72591313D01*
X257157982Y-73080000D01*
X257255188Y-73568687D01*
X257532007Y-73982975D01*
X257946295Y-74259794D01*
X258399791Y-74350000D01*
X257946295Y-74440206D01*
X257532007Y-74717025D01*
X257280788Y-75093000D01*
X257257919Y-75093000D01*
X257056244Y-75133115D01*
X256885274Y-75247355D01*
X256377355Y-75755274D01*
X256263115Y-75926244D01*
X256263115Y-75926245D01*
X256223000Y-76127919D01*
X256223000Y-76781710D01*
X253531710Y-79473000D01*
X243468290Y-79473000D01*
X241872645Y-77877355D01*
X241701675Y-77763115D01*
X241500000Y-77723000D01*
X238750000Y-77723000D01*
X238548326Y-77763115D01*
X238377355Y-77877355D01*
X238181770Y-78072940D01*
X238115927Y-78072883D01*
X237867011Y-78175733D01*
X237676402Y-78366010D01*
X237573118Y-78614746D01*
X237572883Y-78884073D01*
X237675733Y-79132989D01*
X237866010Y-79323598D01*
X237912011Y-79342699D01*
X237781710Y-79473000D01*
X237180507Y-79473000D01*
X237133990Y-79426402D01*
X236885254Y-79323118D01*
X236615927Y-79322883D01*
X236367011Y-79425733D01*
X236176402Y-79616010D01*
X236073118Y-79864746D01*
X236072883Y-80134073D01*
X236175733Y-80382989D01*
X236366010Y-80573598D01*
X236614746Y-80676882D01*
X236884073Y-80677117D01*
X237132989Y-80574267D01*
X237180338Y-80527000D01*
X237265567Y-80527000D01*
X237176402Y-80616010D01*
X237073118Y-80864746D01*
X237072883Y-81134073D01*
X237175733Y-81382989D01*
X237366010Y-81573598D01*
X237614746Y-81676882D01*
X237884073Y-81677117D01*
X238132989Y-81574267D01*
X238323598Y-81383990D01*
X238426882Y-81135254D01*
X238426940Y-81068350D01*
X239573068Y-79922222D01*
X239572883Y-80134073D01*
X239675733Y-80382989D01*
X239866010Y-80573598D01*
X239976138Y-80619327D01*
X240013115Y-80805228D01*
X240127355Y-80976198D01*
X241624157Y-82473000D01*
X235218290Y-82473000D01*
X233177060Y-80431770D01*
X233177117Y-80365927D01*
X233074267Y-80117011D01*
X232883990Y-79926402D01*
X232635254Y-79823118D01*
X232365927Y-79822883D01*
X232124714Y-79922550D01*
X231885254Y-79823118D01*
X231615927Y-79822883D01*
X231367011Y-79925733D01*
X231176999Y-80115414D01*
X231176999Y-78839003D01*
X235832419Y-74183583D01*
X237572839Y-74183583D01*
X237713669Y-74524417D01*
X237974211Y-74785414D01*
X237974599Y-74785575D01*
X239094512Y-75905488D01*
X239395252Y-76106436D01*
X239750000Y-76177000D01*
X247512024Y-76177000D01*
X247144798Y-76544226D01*
X247014586Y-76674211D01*
X246873161Y-77014799D01*
X246872839Y-77383583D01*
X247013669Y-77724417D01*
X247274211Y-77985414D01*
X247614799Y-78126839D01*
X247983583Y-78127161D01*
X248324417Y-77986331D01*
X248585414Y-77725789D01*
X248585575Y-77725401D01*
X250133976Y-76177000D01*
X253566024Y-76177000D01*
X253844226Y-76455202D01*
X253974211Y-76585414D01*
X254314799Y-76726839D01*
X254683583Y-76727161D01*
X255024417Y-76586331D01*
X255285414Y-76325789D01*
X255426839Y-75985201D01*
X255427161Y-75616417D01*
X255286331Y-75275583D01*
X255025789Y-75014586D01*
X255025401Y-75014425D01*
X254605488Y-74594512D01*
X254304748Y-74393564D01*
X253950000Y-74323000D01*
X240133976Y-74323000D01*
X239155488Y-73344512D01*
X239025789Y-73214586D01*
X238685201Y-73073161D01*
X238316417Y-73072839D01*
X237975583Y-73213669D01*
X237714586Y-73474211D01*
X237573161Y-73814799D01*
X237572839Y-74183583D01*
X235832419Y-74183583D01*
X236808001Y-73208001D01*
X236933078Y-73020808D01*
X236977000Y-72800000D01*
X236977000Y-70839002D01*
X237016001Y-70800000D01*
X246024635Y-70800000D01*
X246024635Y-72400000D01*
X246054409Y-72558237D01*
X246147927Y-72703567D01*
X246290619Y-72801064D01*
X246460000Y-72835365D01*
X248060000Y-72835365D01*
X248218237Y-72805591D01*
X248363567Y-72712073D01*
X248461064Y-72569381D01*
X248495365Y-72400000D01*
X248495365Y-71575962D01*
X248573000Y-71575962D01*
X248573000Y-71624038D01*
X248666400Y-72093591D01*
X248932380Y-72491658D01*
X249330447Y-72757638D01*
X249800000Y-72851038D01*
X250269553Y-72757638D01*
X250667620Y-72491658D01*
X250933600Y-72093591D01*
X251027000Y-71624038D01*
X251027000Y-71575962D01*
X250933600Y-71106409D01*
X250667620Y-70708342D01*
X250269553Y-70442362D01*
X249800000Y-70348962D01*
X249330447Y-70442362D01*
X248932380Y-70708342D01*
X248666400Y-71106409D01*
X248573000Y-71575962D01*
X248495365Y-71575962D01*
X248495365Y-70800000D01*
X248465591Y-70641763D01*
X248372073Y-70496433D01*
X248229381Y-70398936D01*
X248060000Y-70364635D01*
X246460000Y-70364635D01*
X246301763Y-70394409D01*
X246156433Y-70487927D01*
X246058936Y-70630619D01*
X246024635Y-70800000D01*
X237016001Y-70800000D01*
X239239001Y-68577000D01*
X241799995Y-68577000D01*
X241800000Y-68577001D01*
X242020808Y-68533078D01*
X242208001Y-68408001D01*
X243142272Y-67473729D01*
X243382989Y-67374267D01*
X243573598Y-67183990D01*
X243676882Y-66935254D01*
X243677117Y-66665927D01*
X243574267Y-66417011D01*
X243383990Y-66226402D01*
X243135254Y-66123118D01*
X242865927Y-66122883D01*
X242617011Y-66225733D01*
X242426402Y-66416010D01*
X242325863Y-66658136D01*
X241560998Y-67423000D01*
X239000000Y-67423000D01*
X238779192Y-67466922D01*
X238591999Y-67591999D01*
X238591997Y-67592002D01*
X235991999Y-70191999D01*
X235866922Y-70379192D01*
X235822999Y-70600000D01*
X235823000Y-70600005D01*
X235823000Y-72560998D01*
X230191998Y-78192000D01*
X230066921Y-78379193D01*
X230022998Y-78600001D01*
X230022999Y-78600006D01*
X230022999Y-81799995D01*
X230022998Y-81800000D01*
X230066921Y-82020808D01*
X230191998Y-82208001D01*
X230823000Y-82839003D01*
X230823000Y-89199995D01*
X230822999Y-89200000D01*
X230866922Y-89420808D01*
X230991999Y-89608001D01*
X235591997Y-94207998D01*
X235591999Y-94208001D01*
X235704213Y-94282979D01*
X235779191Y-94333078D01*
X236000000Y-94377000D01*
X245760998Y-94377000D01*
X248823000Y-97439002D01*
X248823000Y-98399995D01*
X248822999Y-98400000D01*
X248866922Y-98620808D01*
X248991999Y-98808001D01*
X249823000Y-99639001D01*
X249823000Y-104624203D01*
X249723118Y-104864746D01*
X249722883Y-105134073D01*
X249825733Y-105382989D01*
X250016010Y-105573598D01*
X250264746Y-105676882D01*
X250534073Y-105677117D01*
X250782989Y-105574267D01*
X250973598Y-105383990D01*
X251076882Y-105135254D01*
X251077117Y-104865927D01*
X250977000Y-104623625D01*
X250977000Y-104441874D01*
X255835881Y-104441874D01*
X255942873Y-104700209D01*
X256232396Y-105035323D01*
X256628123Y-105234132D01*
X256803000Y-105109135D01*
X256803000Y-104267000D01*
X255962046Y-104267000D01*
X255835881Y-104441874D01*
X250977000Y-104441874D01*
X250977000Y-100631874D01*
X255835881Y-100631874D01*
X255942873Y-100890209D01*
X256007489Y-100965000D01*
X255942873Y-101039791D01*
X255835881Y-101298126D01*
X255962046Y-101473000D01*
X256803000Y-101473000D01*
X256803000Y-100457000D01*
X255962046Y-100457000D01*
X255835881Y-100631874D01*
X250977000Y-100631874D01*
X250977000Y-100028126D01*
X255835881Y-100028126D01*
X255962046Y-100203000D01*
X256803000Y-100203000D01*
X256803000Y-100183000D01*
X257057000Y-100183000D01*
X257057000Y-100203000D01*
X257077000Y-100203000D01*
X257077000Y-100457000D01*
X257057000Y-100457000D01*
X257057000Y-101473000D01*
X257077000Y-101473000D01*
X257077000Y-101727000D01*
X257057000Y-101727000D01*
X257057000Y-101747000D01*
X256803000Y-101747000D01*
X256803000Y-101727000D01*
X255962046Y-101727000D01*
X255835881Y-101901874D01*
X255942873Y-102160209D01*
X256140100Y-102388494D01*
X256055403Y-102515252D01*
X255984839Y-102870000D01*
X256055403Y-103224748D01*
X256140100Y-103351506D01*
X255942873Y-103579791D01*
X255835881Y-103838126D01*
X255962046Y-104013000D01*
X256803000Y-104013000D01*
X256803000Y-103993000D01*
X257057000Y-103993000D01*
X257057000Y-104013000D01*
X257077000Y-104013000D01*
X257077000Y-104267000D01*
X257057000Y-104267000D01*
X257057000Y-105109135D01*
X257231877Y-105234132D01*
X257627604Y-105035323D01*
X257721916Y-104926160D01*
X257827091Y-104996436D01*
X258181839Y-105067000D01*
X258218161Y-105067000D01*
X258572909Y-104996436D01*
X258873649Y-104795488D01*
X259074597Y-104494748D01*
X259145161Y-104140000D01*
X259074597Y-103785252D01*
X258887339Y-103505000D01*
X259074597Y-103224748D01*
X259145161Y-102870000D01*
X259074597Y-102515252D01*
X258887339Y-102235000D01*
X259074597Y-101954748D01*
X259145161Y-101600000D01*
X259074597Y-101245252D01*
X258887339Y-100965000D01*
X259074597Y-100684748D01*
X259145161Y-100330000D01*
X259074597Y-99975252D01*
X258887339Y-99695000D01*
X259074597Y-99414748D01*
X259145161Y-99060000D01*
X259074597Y-98705252D01*
X258873649Y-98404512D01*
X258572909Y-98203564D01*
X258218161Y-98133000D01*
X258181839Y-98133000D01*
X257827091Y-98203564D01*
X257743845Y-98259187D01*
X257742073Y-98256433D01*
X257599381Y-98158936D01*
X257430000Y-98124635D01*
X256430000Y-98124635D01*
X256271763Y-98154409D01*
X256126433Y-98247927D01*
X256028936Y-98390619D01*
X255994635Y-98560000D01*
X255994635Y-99560000D01*
X256017793Y-99683074D01*
X255942873Y-99769791D01*
X255835881Y-100028126D01*
X250977000Y-100028126D01*
X250977000Y-99400005D01*
X250977001Y-99400000D01*
X250933078Y-99179192D01*
X250808001Y-98991999D01*
X250807998Y-98991997D01*
X250620858Y-98804857D01*
X250694891Y-98774267D01*
X250885500Y-98583990D01*
X250988784Y-98335254D01*
X250989019Y-98065927D01*
X250886169Y-97817011D01*
X250695892Y-97626402D01*
X250577000Y-97577034D01*
X250577000Y-97059380D01*
X250782989Y-96974267D01*
X250973598Y-96783990D01*
X251076882Y-96535254D01*
X251077117Y-96265927D01*
X250974267Y-96017011D01*
X250783990Y-95826402D01*
X250541864Y-95725863D01*
X247208001Y-92391999D01*
X247020808Y-92266922D01*
X246800000Y-92222999D01*
X246799995Y-92223000D01*
X236685448Y-92223000D01*
X235389448Y-90927000D01*
X241616024Y-90927000D01*
X242094226Y-91405202D01*
X242224211Y-91535414D01*
X242564799Y-91676839D01*
X242933583Y-91677161D01*
X242933973Y-91677000D01*
X253266024Y-91677000D01*
X255244512Y-93655488D01*
X255545253Y-93856437D01*
X255900000Y-93927000D01*
X258860000Y-93927000D01*
X259214748Y-93856436D01*
X259515488Y-93655488D01*
X261036200Y-92134776D01*
X261513705Y-92039794D01*
X261927993Y-91762975D01*
X262204812Y-91348687D01*
X262299794Y-90871182D01*
X263455488Y-89715488D01*
X263481205Y-89677000D01*
X263656436Y-89414748D01*
X263727000Y-89060000D01*
X263727000Y-72340000D01*
X263656436Y-71985252D01*
X263455488Y-71684512D01*
X262299794Y-70528818D01*
X262204812Y-70051313D01*
X261927993Y-69637025D01*
X261700472Y-69485000D01*
X261976309Y-69485000D01*
X262209698Y-69388327D01*
X262388327Y-69209699D01*
X262485000Y-68976310D01*
X262485000Y-68285750D01*
X262326250Y-68127000D01*
X261127000Y-68127000D01*
X261127000Y-68147000D01*
X260873000Y-68147000D01*
X260873000Y-68127000D01*
X260853000Y-68127000D01*
X260853000Y-67873000D01*
X260873000Y-67873000D01*
X260873000Y-66673750D01*
X261127000Y-66673750D01*
X261127000Y-67873000D01*
X262326250Y-67873000D01*
X262485000Y-67714250D01*
X262485000Y-67023690D01*
X262388327Y-66790301D01*
X262209698Y-66611673D01*
X261976309Y-66515000D01*
X261285750Y-66515000D01*
X261127000Y-66673750D01*
X260873000Y-66673750D01*
X260714250Y-66515000D01*
X260327000Y-66515000D01*
X260327000Y-66250005D01*
X260327001Y-66250000D01*
X260283078Y-66029192D01*
X260158001Y-65841999D01*
X260157998Y-65841997D01*
X257117000Y-62800998D01*
X257117000Y-59407840D01*
X257325414Y-59199789D01*
X257466839Y-58859201D01*
X257467161Y-58490417D01*
X257326331Y-58149583D01*
X257065789Y-57888586D01*
X256725201Y-57747161D01*
X256356417Y-57746839D01*
X256015583Y-57887669D01*
X255754586Y-58148211D01*
X255613161Y-58488799D01*
X255612839Y-58857583D01*
X255753669Y-59198417D01*
X255963000Y-59408114D01*
X255963000Y-63039995D01*
X255962999Y-63040000D01*
X256006922Y-63260808D01*
X256131999Y-63448001D01*
X259173000Y-66489001D01*
X259173000Y-66725752D01*
X258816892Y-66558514D01*
X258587000Y-66679181D01*
X258587000Y-67873000D01*
X258607000Y-67873000D01*
X258607000Y-68127000D01*
X258587000Y-68127000D01*
X258587000Y-68147000D01*
X258333000Y-68147000D01*
X258333000Y-68127000D01*
X257139845Y-68127000D01*
X257044213Y-68308212D01*
X256379112Y-67643110D01*
X257018524Y-67643110D01*
X257139845Y-67873000D01*
X258333000Y-67873000D01*
X258333000Y-66679181D01*
X258103108Y-66558514D01*
X257578642Y-66804817D01*
X257188355Y-67233076D01*
X257018524Y-67643110D01*
X256379112Y-67643110D01*
X254577000Y-65840998D01*
X254577000Y-56867840D01*
X254785414Y-56659789D01*
X254926839Y-56319201D01*
X254927161Y-55950417D01*
X254786331Y-55609583D01*
X254678936Y-55502000D01*
X264498000Y-55502000D01*
X264498000Y-119498000D01*
X223502000Y-119498000D01*
X223502000Y-109220000D01*
X232377982Y-109220000D01*
X232475188Y-109708687D01*
X232752007Y-110122975D01*
X233166295Y-110399794D01*
X233619791Y-110490000D01*
X233166295Y-110580206D01*
X232752007Y-110857025D01*
X232475188Y-111271313D01*
X232377982Y-111760000D01*
X232475188Y-112248687D01*
X232752007Y-112662975D01*
X233166295Y-112939794D01*
X233542546Y-113014635D01*
X232830000Y-113014635D01*
X232671763Y-113044409D01*
X232526433Y-113137927D01*
X232428936Y-113280619D01*
X232394635Y-113450000D01*
X232394635Y-115150000D01*
X232424409Y-115308237D01*
X232517927Y-115453567D01*
X232660619Y-115551064D01*
X232830000Y-115585365D01*
X234530000Y-115585365D01*
X234688237Y-115555591D01*
X234833567Y-115462073D01*
X234931064Y-115319381D01*
X234965365Y-115150000D01*
X234965365Y-113450000D01*
X234935591Y-113291763D01*
X234842073Y-113146433D01*
X234699381Y-113048936D01*
X234530000Y-113014635D01*
X233817454Y-113014635D01*
X234193705Y-112939794D01*
X234607993Y-112662975D01*
X234884812Y-112248687D01*
X234982018Y-111760000D01*
X234884812Y-111271313D01*
X234607993Y-110857025D01*
X234193705Y-110580206D01*
X233740209Y-110490000D01*
X234193705Y-110399794D01*
X234607993Y-110122975D01*
X234884812Y-109708687D01*
X234982018Y-109220000D01*
X234884812Y-108731313D01*
X234607993Y-108317025D01*
X234193705Y-108040206D01*
X233705018Y-107943000D01*
X233654982Y-107943000D01*
X233166295Y-108040206D01*
X232752007Y-108317025D01*
X232475188Y-108731313D01*
X232377982Y-109220000D01*
X223502000Y-109220000D01*
X223502000Y-101334073D01*
X225522883Y-101334073D01*
X225625733Y-101582989D01*
X225816010Y-101773598D01*
X225816294Y-101773716D01*
X226921289Y-102878711D01*
X227140923Y-103025466D01*
X227400000Y-103077000D01*
X240399983Y-103077000D01*
X240534073Y-103077117D01*
X240782989Y-102974267D01*
X240973598Y-102783990D01*
X241076882Y-102535254D01*
X241077117Y-102265927D01*
X240974267Y-102017011D01*
X240783990Y-101826402D01*
X240535254Y-101723118D01*
X240265927Y-101722883D01*
X240265644Y-101723000D01*
X227680422Y-101723000D01*
X226679129Y-100721707D01*
X226583990Y-100626402D01*
X226335254Y-100523118D01*
X226065927Y-100522883D01*
X225817011Y-100625733D01*
X225626402Y-100816010D01*
X225523118Y-101064746D01*
X225522883Y-101334073D01*
X223502000Y-101334073D01*
X223502000Y-76583583D01*
X227472839Y-76583583D01*
X227473000Y-76583973D01*
X227473000Y-92200000D01*
X227543564Y-92554748D01*
X227685334Y-92766922D01*
X227744512Y-92855488D01*
X231544512Y-96655488D01*
X231845253Y-96856437D01*
X232200000Y-96927000D01*
X235199191Y-96927000D01*
X235383583Y-96927161D01*
X235724417Y-96786331D01*
X235985414Y-96525789D01*
X236126839Y-96185201D01*
X236126839Y-96184073D01*
X237522883Y-96184073D01*
X237625733Y-96432989D01*
X237673000Y-96480338D01*
X237673000Y-96600000D01*
X237713115Y-96801675D01*
X237827355Y-96972645D01*
X239822940Y-98968230D01*
X239822883Y-99034073D01*
X239925733Y-99282989D01*
X240116010Y-99473598D01*
X240364746Y-99576882D01*
X240634073Y-99577117D01*
X240882989Y-99474267D01*
X241073598Y-99283990D01*
X241176882Y-99035254D01*
X241177117Y-98765927D01*
X241074267Y-98517011D01*
X240883990Y-98326402D01*
X240635254Y-98223118D01*
X240568350Y-98223060D01*
X238775265Y-96429975D01*
X238876882Y-96185254D01*
X238877117Y-95915927D01*
X238774267Y-95667011D01*
X238583990Y-95476402D01*
X238335254Y-95373118D01*
X238065927Y-95372883D01*
X237817011Y-95475733D01*
X237626402Y-95666010D01*
X237523118Y-95914746D01*
X237522883Y-96184073D01*
X236126839Y-96184073D01*
X236127161Y-95816417D01*
X235986331Y-95475583D01*
X235725789Y-95214586D01*
X235385201Y-95073161D01*
X235016417Y-95072839D01*
X235016027Y-95073000D01*
X232583976Y-95073000D01*
X229327000Y-91816024D01*
X229327000Y-76400809D01*
X229327161Y-76216417D01*
X229186331Y-75875583D01*
X228925789Y-75614586D01*
X228585201Y-75473161D01*
X228216417Y-75472839D01*
X227875583Y-75613669D01*
X227614586Y-75874211D01*
X227473161Y-76214799D01*
X227472839Y-76583583D01*
X223502000Y-76583583D01*
X223502000Y-73334073D01*
X224922883Y-73334073D01*
X225025733Y-73582989D01*
X225216010Y-73773598D01*
X225464746Y-73876882D01*
X225734073Y-73877117D01*
X225982989Y-73774267D01*
X226173598Y-73583990D01*
X226276882Y-73335254D01*
X226277117Y-73065927D01*
X226177000Y-72823625D01*
X226177000Y-71465046D01*
X226225733Y-71582989D01*
X226416010Y-71773598D01*
X226664746Y-71876882D01*
X226934073Y-71877117D01*
X227182989Y-71774267D01*
X227280426Y-71677000D01*
X232424203Y-71677000D01*
X232664746Y-71776882D01*
X232934073Y-71777117D01*
X233182989Y-71674267D01*
X233373598Y-71483990D01*
X233476882Y-71235254D01*
X233477117Y-70965927D01*
X233435267Y-70864641D01*
X233464746Y-70876882D01*
X233734073Y-70877117D01*
X233982989Y-70774267D01*
X234173598Y-70583990D01*
X234276882Y-70335254D01*
X234277117Y-70065927D01*
X234174267Y-69817011D01*
X233983990Y-69626402D01*
X233735254Y-69523118D01*
X233465927Y-69522883D01*
X233223625Y-69623000D01*
X226400005Y-69623000D01*
X226400000Y-69622999D01*
X226179192Y-69666922D01*
X225991999Y-69791999D01*
X225191999Y-70591999D01*
X225066922Y-70779192D01*
X225022999Y-71000000D01*
X225023000Y-71000005D01*
X225023000Y-72824203D01*
X224923118Y-73064746D01*
X224922883Y-73334073D01*
X223502000Y-73334073D01*
X223502000Y-63955962D01*
X246033000Y-63955962D01*
X246033000Y-64004038D01*
X246126400Y-64473591D01*
X246392380Y-64871658D01*
X246790447Y-65137638D01*
X247260000Y-65231038D01*
X247729553Y-65137638D01*
X248127620Y-64871658D01*
X248393600Y-64473591D01*
X248487000Y-64004038D01*
X248487000Y-63955962D01*
X248573000Y-63955962D01*
X248573000Y-64004038D01*
X248666400Y-64473591D01*
X248932380Y-64871658D01*
X249330447Y-65137638D01*
X249800000Y-65231038D01*
X250269553Y-65137638D01*
X250667620Y-64871658D01*
X250933600Y-64473591D01*
X251027000Y-64004038D01*
X251027000Y-63955962D01*
X250933600Y-63486409D01*
X250667620Y-63088342D01*
X250269553Y-62822362D01*
X249800000Y-62728962D01*
X249330447Y-62822362D01*
X248932380Y-63088342D01*
X248666400Y-63486409D01*
X248573000Y-63955962D01*
X248487000Y-63955962D01*
X248393600Y-63486409D01*
X248127620Y-63088342D01*
X247729553Y-62822362D01*
X247260000Y-62728962D01*
X246790447Y-62822362D01*
X246392380Y-63088342D01*
X246126400Y-63486409D01*
X246033000Y-63955962D01*
X223502000Y-63955962D01*
X223502000Y-59690000D01*
X232377982Y-59690000D01*
X232475188Y-60178687D01*
X232752007Y-60592975D01*
X233166295Y-60869794D01*
X233542546Y-60944635D01*
X232830000Y-60944635D01*
X232671763Y-60974409D01*
X232526433Y-61067927D01*
X232428936Y-61210619D01*
X232394635Y-61380000D01*
X232394635Y-63080000D01*
X232424409Y-63238237D01*
X232517927Y-63383567D01*
X232660619Y-63481064D01*
X232830000Y-63515365D01*
X234530000Y-63515365D01*
X234688237Y-63485591D01*
X234833567Y-63392073D01*
X234931064Y-63249381D01*
X234965365Y-63080000D01*
X234965365Y-61380000D01*
X234935591Y-61221763D01*
X234842073Y-61076433D01*
X234699381Y-60978936D01*
X234530000Y-60944635D01*
X233817454Y-60944635D01*
X234193705Y-60869794D01*
X234607993Y-60592975D01*
X234884812Y-60178687D01*
X234982018Y-59690000D01*
X234937085Y-59464104D01*
X250849501Y-59464104D01*
X250886648Y-59679217D01*
X251314972Y-59822112D01*
X251765375Y-59790217D01*
X252033352Y-59679217D01*
X252070499Y-59464104D01*
X251460000Y-58853605D01*
X250849501Y-59464104D01*
X234937085Y-59464104D01*
X234884812Y-59201313D01*
X234607993Y-58787025D01*
X234221791Y-58528972D01*
X250311888Y-58528972D01*
X250343783Y-58979375D01*
X250454783Y-59247352D01*
X250669896Y-59284499D01*
X251280395Y-58674000D01*
X251639605Y-58674000D01*
X252250104Y-59284499D01*
X252465217Y-59247352D01*
X252608112Y-58819028D01*
X252576217Y-58368625D01*
X252465217Y-58100648D01*
X252250104Y-58063501D01*
X251639605Y-58674000D01*
X251280395Y-58674000D01*
X250669896Y-58063501D01*
X250454783Y-58100648D01*
X250311888Y-58528972D01*
X234221791Y-58528972D01*
X234193705Y-58510206D01*
X233705018Y-58413000D01*
X233654982Y-58413000D01*
X233166295Y-58510206D01*
X232752007Y-58787025D01*
X232475188Y-59201313D01*
X232377982Y-59690000D01*
X223502000Y-59690000D01*
X223502000Y-57883896D01*
X250849501Y-57883896D01*
X251460000Y-58494395D01*
X252070499Y-57883896D01*
X252033352Y-57668783D01*
X251605028Y-57525888D01*
X251154625Y-57557783D01*
X250886648Y-57668783D01*
X250849501Y-57883896D01*
X223502000Y-57883896D01*
X223502000Y-55502000D01*
X253320982Y-55502000D01*
X253214586Y-55608211D01*
G36*
X233391997Y-85407998D02*
X233391999Y-85408001D01*
X233510059Y-85486885D01*
X233579192Y-85533078D01*
X233800000Y-85577001D01*
X233800005Y-85577000D01*
X236160999Y-85577000D01*
X236191997Y-85607998D01*
X236191999Y-85608001D01*
X236332192Y-85701674D01*
X236379192Y-85733078D01*
X236600000Y-85777001D01*
X236600005Y-85777000D01*
X237024203Y-85777000D01*
X237264746Y-85876882D01*
X237534073Y-85877117D01*
X237782989Y-85774267D01*
X237973598Y-85583990D01*
X238076882Y-85335254D01*
X238077117Y-85065927D01*
X238061033Y-85027000D01*
X240609553Y-85027000D01*
X240573118Y-85114746D01*
X240572883Y-85384073D01*
X240675733Y-85632989D01*
X240866010Y-85823598D01*
X241114746Y-85926882D01*
X241323064Y-85927064D01*
X241322883Y-86134073D01*
X241425733Y-86382989D01*
X241616010Y-86573598D01*
X241864746Y-86676882D01*
X242134073Y-86677117D01*
X242382989Y-86574267D01*
X242573598Y-86383990D01*
X242676882Y-86135254D01*
X242676940Y-86068350D01*
X242718290Y-86027000D01*
X252531710Y-86027000D01*
X254877355Y-88372645D01*
X255048325Y-88486885D01*
X255250000Y-88527000D01*
X255819493Y-88527000D01*
X255866010Y-88573598D01*
X256114746Y-88676882D01*
X256384073Y-88677117D01*
X256632989Y-88574267D01*
X256823598Y-88383990D01*
X256926882Y-88135254D01*
X256927003Y-87997001D01*
X257222231Y-87997001D01*
X257157982Y-88320000D01*
X257255188Y-88808687D01*
X257532007Y-89222975D01*
X257946295Y-89499794D01*
X258399791Y-89590000D01*
X257946295Y-89680206D01*
X257532007Y-89957025D01*
X257255188Y-90371313D01*
X257157982Y-90860000D01*
X257255188Y-91348687D01*
X257532007Y-91762975D01*
X257946295Y-92039794D01*
X258113233Y-92073000D01*
X256283976Y-92073000D01*
X255010976Y-90800000D01*
X255055488Y-90755488D01*
X255185414Y-90625789D01*
X255326839Y-90285201D01*
X255327161Y-89916417D01*
X255186331Y-89575583D01*
X254925789Y-89314586D01*
X254585201Y-89173161D01*
X254216417Y-89172839D01*
X253875583Y-89313669D01*
X253614586Y-89574211D01*
X253614425Y-89574599D01*
X253366024Y-89823000D01*
X243133976Y-89823000D01*
X242655488Y-89344512D01*
X242620012Y-89320808D01*
X242354748Y-89143564D01*
X242000000Y-89073000D01*
X235000809Y-89073000D01*
X234816417Y-89072839D01*
X234475583Y-89213669D01*
X234214586Y-89474211D01*
X234133041Y-89670592D01*
X233403651Y-88941202D01*
X233426882Y-88885254D01*
X233427117Y-88615927D01*
X233324267Y-88367011D01*
X233133990Y-88176402D01*
X232885254Y-88073118D01*
X232615927Y-88072883D01*
X232577000Y-88088967D01*
X232577000Y-84975797D01*
X232676882Y-84735254D01*
X232676919Y-84692921D01*
X233391997Y-85407998D01*
X233391997Y-85407998D01*
G37*
X233391997Y-85407998D02*
X233391999Y-85408001D01*
X233510059Y-85486885D01*
X233579192Y-85533078D01*
X233800000Y-85577001D01*
X233800005Y-85577000D01*
X236160999Y-85577000D01*
X236191997Y-85607998D01*
X236191999Y-85608001D01*
X236332192Y-85701674D01*
X236379192Y-85733078D01*
X236600000Y-85777001D01*
X236600005Y-85777000D01*
X237024203Y-85777000D01*
X237264746Y-85876882D01*
X237534073Y-85877117D01*
X237782989Y-85774267D01*
X237973598Y-85583990D01*
X238076882Y-85335254D01*
X238077117Y-85065927D01*
X238061033Y-85027000D01*
X240609553Y-85027000D01*
X240573118Y-85114746D01*
X240572883Y-85384073D01*
X240675733Y-85632989D01*
X240866010Y-85823598D01*
X241114746Y-85926882D01*
X241323064Y-85927064D01*
X241322883Y-86134073D01*
X241425733Y-86382989D01*
X241616010Y-86573598D01*
X241864746Y-86676882D01*
X242134073Y-86677117D01*
X242382989Y-86574267D01*
X242573598Y-86383990D01*
X242676882Y-86135254D01*
X242676940Y-86068350D01*
X242718290Y-86027000D01*
X252531710Y-86027000D01*
X254877355Y-88372645D01*
X255048325Y-88486885D01*
X255250000Y-88527000D01*
X255819493Y-88527000D01*
X255866010Y-88573598D01*
X256114746Y-88676882D01*
X256384073Y-88677117D01*
X256632989Y-88574267D01*
X256823598Y-88383990D01*
X256926882Y-88135254D01*
X256927003Y-87997001D01*
X257222231Y-87997001D01*
X257157982Y-88320000D01*
X257255188Y-88808687D01*
X257532007Y-89222975D01*
X257946295Y-89499794D01*
X258399791Y-89590000D01*
X257946295Y-89680206D01*
X257532007Y-89957025D01*
X257255188Y-90371313D01*
X257157982Y-90860000D01*
X257255188Y-91348687D01*
X257532007Y-91762975D01*
X257946295Y-92039794D01*
X258113233Y-92073000D01*
X256283976Y-92073000D01*
X255010976Y-90800000D01*
X255055488Y-90755488D01*
X255185414Y-90625789D01*
X255326839Y-90285201D01*
X255327161Y-89916417D01*
X255186331Y-89575583D01*
X254925789Y-89314586D01*
X254585201Y-89173161D01*
X254216417Y-89172839D01*
X253875583Y-89313669D01*
X253614586Y-89574211D01*
X253614425Y-89574599D01*
X253366024Y-89823000D01*
X243133976Y-89823000D01*
X242655488Y-89344512D01*
X242620012Y-89320808D01*
X242354748Y-89143564D01*
X242000000Y-89073000D01*
X235000809Y-89073000D01*
X234816417Y-89072839D01*
X234475583Y-89213669D01*
X234214586Y-89474211D01*
X234133041Y-89670592D01*
X233403651Y-88941202D01*
X233426882Y-88885254D01*
X233427117Y-88615927D01*
X233324267Y-88367011D01*
X233133990Y-88176402D01*
X232885254Y-88073118D01*
X232615927Y-88072883D01*
X232577000Y-88088967D01*
X232577000Y-84975797D01*
X232676882Y-84735254D01*
X232676919Y-84692921D01*
X233391997Y-85407998D01*
G36*
X261127000Y-75493000D02*
X261147000Y-75493000D01*
X261147000Y-75747000D01*
X261127000Y-75747000D01*
X261127000Y-75767000D01*
X260873000Y-75767000D01*
X260873000Y-75747000D01*
X260853000Y-75747000D01*
X260853000Y-75493000D01*
X260873000Y-75493000D01*
X260873000Y-75473000D01*
X261127000Y-75473000D01*
X261127000Y-75493000D01*
X261127000Y-75493000D01*
G37*
X261127000Y-75493000D02*
X261147000Y-75493000D01*
X261147000Y-75747000D01*
X261127000Y-75747000D01*
X261127000Y-75767000D01*
X260873000Y-75767000D01*
X260873000Y-75747000D01*
X260853000Y-75747000D01*
X260853000Y-75493000D01*
X260873000Y-75493000D01*
X260873000Y-75473000D01*
X261127000Y-75473000D01*
X261127000Y-75493000D01*
M02*
