G04 #@! TF.FileFunction,Copper,L1,Top,Signal*
%FSLAX46Y46*%
G04 Gerber Fmt 4.6, Leading zero omitted, Abs format (unit mm)*
G04 Created by KiCad (PCBNEW 4.0.7) date Saturday, June 23, 2018 'PMt' 03:12:16 PM*
%MOMM*%
%LPD*%
G01*
G04 APERTURE LIST*
%ADD10C,0.100000*%
%ADD11C,1.000000*%
%ADD12O,12.000000X7.500000*%
%ADD13R,1.300000X0.250000*%
%ADD14R,0.250000X1.300000*%
%ADD15R,1.700000X1.700000*%
%ADD16O,1.700000X1.700000*%
%ADD17R,0.750000X0.800000*%
%ADD18R,0.800000X0.750000*%
%ADD19R,0.900000X0.500000*%
%ADD20R,0.500000X0.900000*%
%ADD21R,1.060000X0.650000*%
%ADD22R,2.000000X4.500000*%
%ADD23R,1.700000X0.900000*%
%ADD24R,1.000000X0.890000*%
%ADD25R,2.000000X0.330000*%
%ADD26R,0.500000X0.250000*%
%ADD27R,0.840000X2.400000*%
%ADD28C,0.400000*%
%ADD29R,1.000000X1.000000*%
%ADD30O,1.000000X1.000000*%
%ADD31R,3.500000X1.800000*%
%ADD32R,2.500000X3.300000*%
%ADD33R,0.900000X0.800000*%
%ADD34R,1.600000X1.600000*%
%ADD35O,1.600000X1.600000*%
%ADD36C,0.500000*%
%ADD37C,0.300000*%
%ADD38C,0.200000*%
%ADD39C,1.000000*%
%ADD40C,0.500000*%
%ADD41C,0.150000*%
%ADD42C,0.026000*%
%ADD43C,0.254000*%
G04 APERTURE END LIST*
D10*
D11*
X259000000Y-57400000D03*
X259000000Y-63600000D03*
X264200000Y-65200000D03*
X264200000Y-55800000D03*
X264200000Y-119200000D03*
X258800000Y-117800000D03*
X258800000Y-111800000D03*
X264200000Y-109600000D03*
X224400000Y-115200000D03*
X251200000Y-114400000D03*
X230200000Y-98200000D03*
X239000000Y-112000000D03*
X224400000Y-63800000D03*
X225000000Y-70000000D03*
X234600000Y-65200000D03*
X228600000Y-72400000D03*
X226800000Y-81400000D03*
X244200000Y-100800000D03*
X240400000Y-91600000D03*
X239000000Y-58800000D03*
X238200000Y-64400000D03*
X233800000Y-94400000D03*
X230000000Y-89200000D03*
X235600000Y-81000000D03*
X263800000Y-90600000D03*
X256400000Y-90200000D03*
X253600000Y-94400000D03*
X248400000Y-92400000D03*
X233000000Y-85400000D03*
X245000000Y-88600000D03*
X240800000Y-88600000D03*
X241800000Y-77000000D03*
X255200000Y-73800000D03*
X245600000Y-69000000D03*
D12*
X265000000Y-114500000D03*
D13*
X238850000Y-85750000D03*
X238850000Y-85250000D03*
X238850000Y-84750000D03*
X238850000Y-84250000D03*
X238850000Y-83750000D03*
X238850000Y-83250000D03*
X238850000Y-82750000D03*
X238850000Y-82250000D03*
X238850000Y-81750000D03*
X238850000Y-81250000D03*
X238850000Y-80750000D03*
X238850000Y-80250000D03*
D14*
X237250000Y-78650000D03*
X236750000Y-78650000D03*
X236250000Y-78650000D03*
X235750000Y-78650000D03*
X235250000Y-78650000D03*
X234750000Y-78650000D03*
X234250000Y-78650000D03*
X233750000Y-78650000D03*
X233250000Y-78650000D03*
X232750000Y-78650000D03*
X232250000Y-78650000D03*
X231750000Y-78650000D03*
D13*
X230150000Y-80250000D03*
X230150000Y-80750000D03*
X230150000Y-81250000D03*
X230150000Y-81750000D03*
X230150000Y-82250000D03*
X230150000Y-82750000D03*
X230150000Y-83250000D03*
X230150000Y-83750000D03*
X230150000Y-84250000D03*
X230150000Y-84750000D03*
X230150000Y-85250000D03*
X230150000Y-85750000D03*
D14*
X231750000Y-87350000D03*
X232250000Y-87350000D03*
X232750000Y-87350000D03*
X233250000Y-87350000D03*
X233750000Y-87350000D03*
X234250000Y-87350000D03*
X234750000Y-87350000D03*
X235250000Y-87350000D03*
X235750000Y-87350000D03*
X236250000Y-87350000D03*
X236750000Y-87350000D03*
X237250000Y-87350000D03*
D15*
X261000000Y-68000000D03*
D16*
X258460000Y-68000000D03*
X261000000Y-70540000D03*
X258460000Y-70540000D03*
X261000000Y-73080000D03*
X258460000Y-73080000D03*
X261000000Y-75620000D03*
X258460000Y-75620000D03*
X261000000Y-78160000D03*
X258460000Y-78160000D03*
X261000000Y-80700000D03*
X258460000Y-80700000D03*
X261000000Y-83240000D03*
X258460000Y-83240000D03*
X261000000Y-85780000D03*
X258460000Y-85780000D03*
X261000000Y-88320000D03*
X258460000Y-88320000D03*
X261000000Y-90860000D03*
X258460000Y-90860000D03*
D17*
X246000000Y-79500000D03*
X246000000Y-81000000D03*
X244500000Y-79500000D03*
X244500000Y-81000000D03*
D18*
X238000000Y-91750000D03*
X236500000Y-91750000D03*
X238000000Y-90000000D03*
X236500000Y-90000000D03*
X237500000Y-75250000D03*
X236000000Y-75250000D03*
X231500000Y-75250000D03*
X233000000Y-75250000D03*
X251550000Y-61200000D03*
X250050000Y-61200000D03*
D17*
X237400000Y-62150000D03*
X237400000Y-60650000D03*
D18*
X240850000Y-57200000D03*
X242350000Y-57200000D03*
D17*
X237200000Y-97550000D03*
X237200000Y-96050000D03*
X246400000Y-97550000D03*
X246400000Y-96050000D03*
X246500000Y-83750000D03*
X246500000Y-85250000D03*
X244500000Y-82500000D03*
X244500000Y-84000000D03*
D19*
X242750000Y-88000000D03*
X242750000Y-89500000D03*
D20*
X235500000Y-72750000D03*
X234000000Y-72750000D03*
X251450000Y-101200000D03*
X252950000Y-101200000D03*
X236250000Y-70500000D03*
X234750000Y-70500000D03*
X252950000Y-97200000D03*
X251450000Y-97200000D03*
X251450000Y-99200000D03*
X252950000Y-99200000D03*
X251450000Y-106000000D03*
X252950000Y-106000000D03*
X251450000Y-103800000D03*
X252950000Y-103800000D03*
X242050000Y-66250000D03*
X240550000Y-66250000D03*
X240550000Y-64250000D03*
X242050000Y-64250000D03*
D21*
X240900000Y-95950000D03*
X240900000Y-96900000D03*
X240900000Y-97850000D03*
X243100000Y-97850000D03*
X243100000Y-95950000D03*
D22*
X251000000Y-87250000D03*
X251000000Y-78750000D03*
D23*
X225400000Y-68250000D03*
X225400000Y-65350000D03*
D15*
X233680000Y-62230000D03*
D16*
X233680000Y-59690000D03*
X233680000Y-57150000D03*
D23*
X232400000Y-68250000D03*
X232400000Y-65350000D03*
D11*
X254000000Y-56134000D03*
X251460000Y-58674000D03*
X256540000Y-58674000D03*
D10*
G36*
X247545000Y-56890000D02*
X243655000Y-56890000D01*
X244205000Y-56330000D01*
X246995000Y-56330000D01*
X247545000Y-56890000D01*
X247545000Y-56890000D01*
G37*
D24*
X244150000Y-57330000D03*
X247040000Y-57330000D03*
X247040000Y-59670000D03*
D10*
G36*
X243655000Y-60110000D02*
X247545000Y-60110000D01*
X246995000Y-60670000D01*
X244205000Y-60670000D01*
X243655000Y-60110000D01*
X243655000Y-60110000D01*
G37*
D24*
X244160000Y-59670000D03*
D25*
X245580000Y-57050000D03*
X245600000Y-59950000D03*
D26*
X240600000Y-60250000D03*
X240600000Y-60750000D03*
X240600000Y-61250000D03*
X240600000Y-61750000D03*
X240600000Y-62250000D03*
X242500000Y-62250000D03*
X242500000Y-61750000D03*
X242500000Y-61250000D03*
X242500000Y-60750000D03*
X242500000Y-60250000D03*
D27*
X241550000Y-61250000D03*
D28*
X241550000Y-61250000D03*
X241550000Y-62200000D03*
X241550000Y-60300000D03*
D29*
X256930000Y-99060000D03*
D30*
X258200000Y-99060000D03*
X256930000Y-100330000D03*
X258200000Y-100330000D03*
X256930000Y-101600000D03*
X258200000Y-101600000D03*
X256930000Y-102870000D03*
X258200000Y-102870000D03*
X256930000Y-104140000D03*
X258200000Y-104140000D03*
D15*
X233680000Y-114300000D03*
D16*
X233680000Y-111760000D03*
X233680000Y-109220000D03*
X233680000Y-106680000D03*
D12*
X265000000Y-60500000D03*
D17*
X239200000Y-97550000D03*
X239200000Y-96050000D03*
X239000000Y-62150000D03*
X239000000Y-60650000D03*
X244800000Y-97550000D03*
X244800000Y-96050000D03*
D18*
X240850000Y-58800000D03*
X242350000Y-58800000D03*
D31*
X244100000Y-109600000D03*
X239100000Y-109600000D03*
D32*
X244600000Y-104200000D03*
X237800000Y-104200000D03*
D33*
X237000000Y-113250000D03*
X237000000Y-115150000D03*
X239000000Y-114200000D03*
D34*
X247260000Y-71600000D03*
D35*
X249800000Y-63980000D03*
X249800000Y-71600000D03*
X247260000Y-63980000D03*
D11*
X235200000Y-96000000D03*
D36*
X238200000Y-96050000D03*
D11*
X228400000Y-76400000D03*
D36*
X240500000Y-98900000D03*
X242000000Y-86000000D03*
X256250000Y-88000000D03*
X241250000Y-85250000D03*
X255500000Y-87250000D03*
X237750000Y-81000000D03*
X243000000Y-81500010D03*
X257000000Y-77500000D03*
X236750000Y-80000000D03*
X241250000Y-80500000D03*
X240250000Y-80000000D03*
X232500000Y-80500000D03*
X231750000Y-80500000D03*
X231500000Y-81250000D03*
X231538916Y-81961084D03*
D11*
X254400000Y-90100000D03*
X254500000Y-75800000D03*
X238500000Y-74000000D03*
X247800000Y-77200000D03*
X235000000Y-90000000D03*
X242750000Y-90750000D03*
D36*
X250400000Y-96400000D03*
X232750000Y-88750000D03*
X250311902Y-98200000D03*
X232000000Y-84600000D03*
X225600000Y-73200000D03*
X233600000Y-70200000D03*
X226800000Y-71200000D03*
X232800000Y-71100000D03*
X238250000Y-78750000D03*
X243000000Y-66800000D03*
X250400000Y-105000000D03*
X237400000Y-85200000D03*
X240400000Y-102400000D03*
X226200000Y-101200000D03*
D37*
X233750000Y-87350000D02*
X233750000Y-91950000D01*
X233750000Y-91950000D02*
X234400000Y-92600000D01*
X234400000Y-92600000D02*
X237125000Y-92600000D01*
X237125000Y-92600000D02*
X237975000Y-91750000D01*
X237975000Y-91750000D02*
X238000000Y-91750000D01*
X234000000Y-81000000D02*
X235600000Y-81000000D01*
X232750000Y-79750000D02*
X234000000Y-81000000D01*
X232750000Y-78650000D02*
X232750000Y-79750000D01*
X233250000Y-79600000D02*
X234650000Y-81000000D01*
X233250000Y-78650000D02*
X233250000Y-79600000D01*
X234650000Y-81000000D02*
X235600000Y-81000000D01*
D38*
X239600000Y-62200000D02*
X239600000Y-67000000D01*
X239600000Y-67000000D02*
X239800000Y-67200000D01*
X241200000Y-67200000D02*
X241200000Y-64650000D01*
X239800000Y-67200000D02*
X241200000Y-67200000D01*
X241600000Y-64250000D02*
X242050000Y-64250000D01*
X241200000Y-64650000D02*
X241600000Y-64250000D01*
X239600000Y-62200000D02*
X240050000Y-61750000D01*
X240050000Y-61750000D02*
X240600000Y-61750000D01*
X241550000Y-62200000D02*
X242450000Y-62200000D01*
X242450000Y-62200000D02*
X242500000Y-62250000D01*
X241550000Y-61250000D02*
X241050000Y-61750000D01*
X241050000Y-61750000D02*
X240600000Y-61750000D01*
X241550000Y-60300000D02*
X240650000Y-60300000D01*
X240650000Y-60300000D02*
X240600000Y-60250000D01*
D37*
X233750000Y-87350000D02*
X233750000Y-86250000D01*
X233750000Y-86250000D02*
X236250000Y-83750000D01*
X236250000Y-83750000D02*
X238850000Y-83750000D01*
X231500000Y-75250000D02*
X231500000Y-75925000D01*
X231500000Y-75925000D02*
X232750000Y-77175000D01*
X232750000Y-77175000D02*
X232750000Y-78650000D01*
X231500000Y-75925000D02*
X233250000Y-77675000D01*
X233250000Y-77675000D02*
X233250000Y-78650000D01*
X238850000Y-83750000D02*
X244250000Y-83750000D01*
X244250000Y-83750000D02*
X244500000Y-84000000D01*
D39*
X231800000Y-73000000D02*
X231800000Y-70300000D01*
X231800000Y-70300000D02*
X233850000Y-68250000D01*
X243750000Y-68250000D02*
X235600000Y-68250000D01*
X235600000Y-68250000D02*
X232400000Y-68250000D01*
X233850000Y-68250000D02*
X235600000Y-68250000D01*
X232400000Y-68250000D02*
X225400000Y-68250000D01*
X244000000Y-68000000D02*
X243750000Y-68250000D01*
X231050000Y-73750000D02*
X231800000Y-73000000D01*
X235200000Y-96000000D02*
X237150000Y-96000000D01*
X237150000Y-96000000D02*
X237200000Y-96050000D01*
X237200000Y-96050000D02*
X238200000Y-96050000D01*
X238200000Y-96050000D02*
X239200000Y-96050000D01*
D40*
X239200000Y-96050000D02*
X240800000Y-96050000D01*
X240800000Y-96050000D02*
X240900000Y-95950000D01*
X242350000Y-58800000D02*
X242350000Y-57200000D01*
D37*
X242500000Y-60250000D02*
X242500000Y-58950000D01*
X242500000Y-58950000D02*
X242350000Y-58800000D01*
D40*
X242350000Y-57200000D02*
X244020000Y-57200000D01*
X244020000Y-57200000D02*
X244150000Y-57330000D01*
D37*
X242050000Y-66250000D02*
X242050000Y-67000000D01*
X242050000Y-67000000D02*
X243050000Y-68000000D01*
X243050000Y-68000000D02*
X244000000Y-68000000D01*
D39*
X244000000Y-68000000D02*
X244000000Y-63400000D01*
X232250000Y-73750000D02*
X231050000Y-73750000D01*
X231050000Y-73750000D02*
X228400000Y-76400000D01*
D38*
X243250000Y-61250000D02*
X244000000Y-62000000D01*
X244000000Y-62000000D02*
X244000000Y-63400000D01*
X242500000Y-61250000D02*
X243250000Y-61250000D01*
D39*
X245200000Y-62200000D02*
X244000000Y-63400000D01*
X248600000Y-56610000D02*
X248600000Y-61000000D01*
X248600000Y-61000000D02*
X247400000Y-62200000D01*
X247400000Y-62200000D02*
X245200000Y-62200000D01*
X245600000Y-56610000D02*
X248600000Y-56610000D01*
D37*
X244150000Y-57330000D02*
X244880000Y-57330000D01*
X244880000Y-57330000D02*
X245600000Y-56610000D01*
X247040000Y-57330000D02*
X246320000Y-57330000D01*
X246320000Y-57330000D02*
X245600000Y-56610000D01*
D38*
X240900000Y-98500000D02*
X240500000Y-98900000D01*
X240900000Y-97850000D02*
X240900000Y-98500000D01*
D39*
X232250000Y-73750000D02*
X233000000Y-74500000D01*
X233000000Y-74500000D02*
X233000000Y-75250000D01*
D37*
X233000000Y-75250000D02*
X233000000Y-75925000D01*
X233000000Y-75925000D02*
X233750000Y-76675000D01*
X233750000Y-76675000D02*
X233750000Y-78650000D01*
D41*
X245600000Y-56610000D02*
X245600000Y-57030000D01*
X245600000Y-57030000D02*
X245580000Y-57050000D01*
D37*
X244030000Y-57450000D02*
X244150000Y-57330000D01*
D38*
X261000000Y-73080000D02*
X259680000Y-74400000D01*
X259680000Y-74400000D02*
X257850000Y-74400000D01*
X257850000Y-74400000D02*
X256250000Y-76000000D01*
X256250000Y-76000000D02*
X256250000Y-88000000D01*
X240000000Y-86000000D02*
X242000000Y-86000000D01*
X239750000Y-85750000D02*
X240000000Y-86000000D01*
X238850000Y-85750000D02*
X239750000Y-85750000D01*
X238850000Y-85250000D02*
X241250000Y-85250000D01*
X255790000Y-75750000D02*
X255790000Y-86960000D01*
X255790000Y-86960000D02*
X255500000Y-87250000D01*
X258460000Y-73080000D02*
X255790000Y-75750000D01*
X237750000Y-81000000D02*
X237750000Y-81500000D01*
X237750000Y-81500000D02*
X238000000Y-81750000D01*
X238000000Y-81750000D02*
X238850000Y-81750000D01*
X242749990Y-81250000D02*
X243000000Y-81500010D01*
X238850000Y-81250000D02*
X242749990Y-81250000D01*
X257000000Y-77500000D02*
X257000000Y-79240000D01*
X257000000Y-79240000D02*
X258460000Y-80700000D01*
X236750000Y-80000000D02*
X236750000Y-78650000D01*
X238850000Y-80750000D02*
X241000001Y-80749999D01*
X241000001Y-80749999D02*
X241250000Y-80500000D01*
X238850000Y-80250000D02*
X240000000Y-80250000D01*
X240000000Y-80250000D02*
X240250000Y-80000000D01*
X232500000Y-80500000D02*
X232250000Y-80250000D01*
X232250000Y-80250000D02*
X232250000Y-78650000D01*
X231750000Y-80500000D02*
X231750000Y-78650000D01*
X231500000Y-81250000D02*
X230150000Y-81250000D01*
X231327832Y-81750000D02*
X231538916Y-81961084D01*
X230150000Y-81750000D02*
X231327832Y-81750000D01*
D39*
X228920000Y-62230000D02*
X225800000Y-65350000D01*
X228920000Y-62230000D02*
X233680000Y-62230000D01*
X225800000Y-65350000D02*
X225400000Y-65350000D01*
X225400000Y-65350000D02*
X232400000Y-65350000D01*
D37*
X242750000Y-90750000D02*
X242750000Y-89500000D01*
D40*
X244800000Y-96050000D02*
X246400000Y-96050000D01*
X243100000Y-95950000D02*
X244700000Y-95950000D01*
X244700000Y-95950000D02*
X244800000Y-96050000D01*
D39*
X242750000Y-90750000D02*
X246400000Y-94400000D01*
X246400000Y-94400000D02*
X246400000Y-96050000D01*
X247800000Y-77200000D02*
X247800000Y-80575000D01*
X247800000Y-80575000D02*
X247375000Y-81000000D01*
D37*
X249600000Y-96000000D02*
X249600000Y-99150000D01*
X249600000Y-99150000D02*
X251450000Y-101000000D01*
X254400000Y-91200000D02*
X249600000Y-96000000D01*
X254400000Y-90100000D02*
X254400000Y-91200000D01*
X251450000Y-101000000D02*
X251450000Y-101200000D01*
X251450000Y-101200000D02*
X251450000Y-103800000D01*
X256930000Y-99060000D02*
X256130000Y-99060000D01*
X256130000Y-99060000D02*
X254200000Y-100990000D01*
X254200000Y-100990000D02*
X254200000Y-101800000D01*
X254200000Y-101800000D02*
X253600000Y-102400000D01*
X253600000Y-102400000D02*
X251800000Y-102400000D01*
X251800000Y-102400000D02*
X251450000Y-102050000D01*
X251450000Y-102050000D02*
X251450000Y-101200000D01*
D39*
X254500000Y-75800000D02*
X254500000Y-90000000D01*
X254500000Y-90000000D02*
X254400000Y-90100000D01*
X236000000Y-74750000D02*
X236750000Y-74000000D01*
X236750000Y-74000000D02*
X238500000Y-74000000D01*
X236000000Y-75250000D02*
X236000000Y-74750000D01*
X236000000Y-75000000D02*
X236000000Y-75250000D01*
X247375000Y-81000000D02*
X246000000Y-81000000D01*
X235000000Y-90000000D02*
X236500000Y-90000000D01*
X236500000Y-90000000D02*
X236500000Y-90500000D01*
X236500000Y-90500000D02*
X236500000Y-91750000D01*
D37*
X235250000Y-87350000D02*
X235250000Y-88775000D01*
X235250000Y-88775000D02*
X236500000Y-90025000D01*
X236500000Y-90025000D02*
X236500000Y-90500000D01*
X236000000Y-75250000D02*
X236000000Y-75925000D01*
X236000000Y-75925000D02*
X235250000Y-76675000D01*
X235250000Y-76675000D02*
X235250000Y-78650000D01*
X238850000Y-82250000D02*
X243275000Y-82250000D01*
D39*
X244500000Y-81000000D02*
X246000000Y-81000000D01*
D37*
X243275000Y-82250000D02*
X244500000Y-81025000D01*
X244500000Y-81025000D02*
X244500000Y-81000000D01*
D40*
X244500000Y-81000000D02*
X244500000Y-80975000D01*
D37*
X251000000Y-97000000D02*
X251250000Y-97000000D01*
X250400000Y-96400000D02*
X251000000Y-97000000D01*
X251250000Y-97000000D02*
X251450000Y-97200000D01*
X232750000Y-87350000D02*
X232750000Y-88750000D01*
X232000000Y-84600000D02*
X232000000Y-83284998D01*
X232000000Y-83284998D02*
X230965002Y-82250000D01*
X230965002Y-82250000D02*
X230150000Y-82250000D01*
X251450000Y-99200000D02*
X251000000Y-99200000D01*
X250311902Y-98200000D02*
X251000000Y-98888098D01*
X251000000Y-98888098D02*
X251000000Y-99200000D01*
D38*
X246500000Y-83750000D02*
X248750000Y-83750000D01*
X248750000Y-83750000D02*
X251000000Y-86000000D01*
X251000000Y-86000000D02*
X251000000Y-87250000D01*
X238850000Y-83250000D02*
X246000000Y-83250000D01*
X246000000Y-83250000D02*
X246500000Y-83750000D01*
X244500000Y-82500000D02*
X248500000Y-82500000D01*
X248500000Y-82500000D02*
X251000000Y-80000000D01*
X251000000Y-80000000D02*
X251000000Y-78750000D01*
X238850000Y-82750000D02*
X244250000Y-82750000D01*
X244250000Y-82750000D02*
X244500000Y-82500000D01*
D37*
X228000000Y-100600000D02*
X225200000Y-97800000D01*
X228000000Y-100600000D02*
X228000000Y-106080000D01*
X228000000Y-106080000D02*
X233680000Y-111760000D01*
X233680000Y-111760000D02*
X236210000Y-111760000D01*
X236210000Y-111760000D02*
X237000000Y-112550000D01*
X237000000Y-112550000D02*
X237000000Y-113250000D01*
X225200000Y-73600000D02*
X225600000Y-73200000D01*
X225200000Y-97800000D02*
X225200000Y-73600000D01*
X234750000Y-70500000D02*
X233900000Y-70500000D01*
X233900000Y-70500000D02*
X233600000Y-70200000D01*
X234750000Y-70500000D02*
X234750000Y-78650000D01*
X232000000Y-111400000D02*
X232000000Y-113770000D01*
X232000000Y-113770000D02*
X232530000Y-114300000D01*
X232530000Y-114300000D02*
X233680000Y-114300000D01*
X227200000Y-100600000D02*
X227200000Y-106600000D01*
X227200000Y-106600000D02*
X232000000Y-111400000D01*
X227200000Y-100600000D02*
X224600000Y-98000000D01*
X233680000Y-114300000D02*
X234830000Y-114300000D01*
X234830000Y-114300000D02*
X235680000Y-115150000D01*
X235680000Y-115150000D02*
X237000000Y-115150000D01*
X224600000Y-98000000D02*
X224600000Y-73400000D01*
X226800000Y-71200000D02*
X224600000Y-73400000D01*
X232800000Y-71100000D02*
X232800000Y-71550000D01*
X232800000Y-71550000D02*
X234000000Y-72750000D01*
X234250000Y-78650000D02*
X234250000Y-73000000D01*
X234250000Y-73000000D02*
X234000000Y-72750000D01*
D38*
X238250000Y-78750000D02*
X237350000Y-78750000D01*
X237350000Y-78750000D02*
X237250000Y-78650000D01*
D37*
X249800000Y-63980000D02*
X247260000Y-63980000D01*
X249800000Y-63980000D02*
X249800000Y-61450000D01*
X249800000Y-61450000D02*
X250050000Y-61200000D01*
X252950000Y-97200000D02*
X257047106Y-97200000D01*
X257047106Y-97200000D02*
X258200000Y-98352894D01*
X258200000Y-98352894D02*
X258200000Y-99060000D01*
X252950000Y-99200000D02*
X252400000Y-99200000D01*
X252400000Y-99200000D02*
X252200000Y-99000000D01*
X252200000Y-99000000D02*
X252200000Y-96200000D01*
X252200000Y-96200000D02*
X252600000Y-95800000D01*
X252600000Y-95800000D02*
X257600000Y-95800000D01*
X257600000Y-95800000D02*
X259200000Y-97400000D01*
X259200000Y-97400000D02*
X259200000Y-100000000D01*
X259200000Y-100000000D02*
X259000000Y-100200000D01*
X259000000Y-100200000D02*
X259000000Y-100237106D01*
X259000000Y-100237106D02*
X258907106Y-100330000D01*
X258907106Y-100330000D02*
X258200000Y-100330000D01*
X252950000Y-99200000D02*
X252950000Y-101200000D01*
X252950000Y-106000000D02*
X256340000Y-106000000D01*
X256340000Y-106000000D02*
X258200000Y-104140000D01*
X238850000Y-84250000D02*
X242250000Y-84250000D01*
X242250000Y-84250000D02*
X242750000Y-84750000D01*
X242750000Y-84750000D02*
X242750000Y-88000000D01*
X240550000Y-64250000D02*
X240550000Y-66250000D01*
X240600000Y-62250000D02*
X240600000Y-64200000D01*
X240600000Y-64200000D02*
X240550000Y-64250000D01*
D40*
X233680000Y-109220000D02*
X238720000Y-109220000D01*
X238720000Y-109220000D02*
X239100000Y-109600000D01*
D41*
X245600000Y-59950000D02*
X246760000Y-59950000D01*
X246760000Y-59950000D02*
X247040000Y-59670000D01*
X242500000Y-60750000D02*
X243600000Y-60750000D01*
X243600000Y-60750000D02*
X244400000Y-59950000D01*
X243950000Y-59950000D02*
X245600000Y-59950000D01*
X244160000Y-60265000D02*
X244160000Y-59670000D01*
D38*
X237400000Y-85200000D02*
X237850000Y-84750000D01*
X237850000Y-84750000D02*
X238850000Y-84750000D01*
X243200000Y-66600000D02*
X243000000Y-66800000D01*
X243200000Y-62000000D02*
X243200000Y-66600000D01*
X242500000Y-61750000D02*
X242950000Y-61750000D01*
X242950000Y-61750000D02*
X243200000Y-62000000D01*
D37*
X250400000Y-105000000D02*
X250450000Y-105000000D01*
X250450000Y-105000000D02*
X251450000Y-106000000D01*
X252950000Y-103800000D02*
X252950000Y-104500000D01*
X252950000Y-104500000D02*
X251450000Y-106000000D01*
X251450000Y-105800000D02*
X251450000Y-106000000D01*
X241200000Y-73200000D02*
X248200000Y-73200000D01*
X248200000Y-73200000D02*
X249800000Y-71600000D01*
X235500000Y-72750000D02*
X240750000Y-72750000D01*
X240750000Y-72750000D02*
X241200000Y-73200000D01*
X235500000Y-72750000D02*
X235500000Y-72550000D01*
X237170000Y-71620000D02*
X237190000Y-71600000D01*
X237190000Y-71600000D02*
X247260000Y-71600000D01*
X236250000Y-70500000D02*
X236250000Y-70700000D01*
X236250000Y-70700000D02*
X237170000Y-71620000D01*
D40*
X240400000Y-102400000D02*
X242200000Y-104200000D01*
X244600000Y-104200000D02*
X242200000Y-104200000D01*
X244400000Y-104000000D02*
X244600000Y-104200000D01*
X223600000Y-98600000D02*
X226200000Y-101200000D01*
X244100000Y-109600000D02*
X244100000Y-104700000D01*
X244100000Y-104700000D02*
X244600000Y-104200000D01*
X235200000Y-66800000D02*
X236000000Y-66000000D01*
X223600000Y-67600000D02*
X224400000Y-66800000D01*
X224400000Y-66800000D02*
X235200000Y-66800000D01*
X223600000Y-98600000D02*
X223600000Y-67600000D01*
X236000000Y-66000000D02*
X236000000Y-61175000D01*
X236000000Y-61175000D02*
X236525000Y-60650000D01*
X236525000Y-60650000D02*
X237400000Y-60650000D01*
X244100000Y-103500000D02*
X244600000Y-103000000D01*
X239000000Y-60750000D02*
X237400000Y-60750000D01*
D37*
X240600000Y-60750000D02*
X239000000Y-60750000D01*
D38*
X240600000Y-61250000D02*
X240600000Y-60750000D01*
D42*
G36*
X244587000Y-59850000D02*
X244588024Y-59855058D01*
X244590935Y-59859319D01*
X244595275Y-59862111D01*
X244600000Y-59863000D01*
X246987000Y-59863000D01*
X246987000Y-60837000D01*
X242563000Y-60837000D01*
X242563000Y-60663000D01*
X242900000Y-60663000D01*
X242905058Y-60661976D01*
X242908460Y-60659870D01*
X243258460Y-60359870D01*
X243261634Y-60355801D01*
X243263000Y-60350000D01*
X243263000Y-59805790D01*
X243754989Y-59363000D01*
X244587000Y-59363000D01*
X244587000Y-59850000D01*
X244587000Y-59850000D01*
G37*
X244587000Y-59850000D02*
X244588024Y-59855058D01*
X244590935Y-59859319D01*
X244595275Y-59862111D01*
X244600000Y-59863000D01*
X246987000Y-59863000D01*
X246987000Y-60837000D01*
X242563000Y-60837000D01*
X242563000Y-60663000D01*
X242900000Y-60663000D01*
X242905058Y-60661976D01*
X242908460Y-60659870D01*
X243258460Y-60359870D01*
X243261634Y-60355801D01*
X243263000Y-60350000D01*
X243263000Y-59805790D01*
X243754989Y-59363000D01*
X244587000Y-59363000D01*
X244587000Y-59850000D01*
G36*
X244537000Y-57737000D02*
X241963000Y-57737000D01*
X241963000Y-56363000D01*
X244537000Y-56363000D01*
X244537000Y-57737000D01*
X244537000Y-57737000D01*
G37*
X244537000Y-57737000D02*
X241963000Y-57737000D01*
X241963000Y-56363000D01*
X244537000Y-56363000D01*
X244537000Y-57737000D01*
D43*
G36*
X253214586Y-55608211D02*
X253073161Y-55948799D01*
X253072839Y-56317583D01*
X253213669Y-56658417D01*
X253474211Y-56919414D01*
X253814799Y-57060839D01*
X254183583Y-57061161D01*
X254524417Y-56920331D01*
X254785414Y-56659789D01*
X254926839Y-56319201D01*
X254927161Y-55950417D01*
X254786331Y-55609583D01*
X254678936Y-55502000D01*
X264498000Y-55502000D01*
X264498000Y-119498000D01*
X223502000Y-119498000D01*
X223502000Y-99459422D01*
X225720872Y-101678294D01*
X225816010Y-101773598D01*
X226064746Y-101876882D01*
X226334073Y-101877117D01*
X226582989Y-101774267D01*
X226623000Y-101734326D01*
X226623000Y-106599995D01*
X226622999Y-106600000D01*
X226666922Y-106820808D01*
X226791999Y-107008001D01*
X231423000Y-111639002D01*
X231423000Y-113769995D01*
X231422999Y-113770000D01*
X231466922Y-113990808D01*
X231591999Y-114178001D01*
X232121997Y-114707998D01*
X232121999Y-114708001D01*
X232309192Y-114833078D01*
X232394635Y-114850074D01*
X232394635Y-115150000D01*
X232424409Y-115308237D01*
X232517927Y-115453567D01*
X232660619Y-115551064D01*
X232830000Y-115585365D01*
X234530000Y-115585365D01*
X234688237Y-115555591D01*
X234833567Y-115462073D01*
X234931064Y-115319381D01*
X234948294Y-115234296D01*
X235271997Y-115557998D01*
X235271999Y-115558001D01*
X235312953Y-115585365D01*
X235459192Y-115683078D01*
X235680000Y-115727001D01*
X235680005Y-115727000D01*
X236156483Y-115727000D01*
X236237927Y-115853567D01*
X236380619Y-115951064D01*
X236550000Y-115985365D01*
X237450000Y-115985365D01*
X237608237Y-115955591D01*
X237753567Y-115862073D01*
X237851064Y-115719381D01*
X237885365Y-115550000D01*
X237885365Y-114750000D01*
X237855591Y-114591763D01*
X237762073Y-114446433D01*
X237619381Y-114348936D01*
X237450000Y-114314635D01*
X236550000Y-114314635D01*
X236391763Y-114344409D01*
X236246433Y-114437927D01*
X236154142Y-114573000D01*
X235919001Y-114573000D01*
X235238001Y-113891999D01*
X235050808Y-113766922D01*
X234965365Y-113749926D01*
X234965365Y-113450000D01*
X234935591Y-113291763D01*
X234842073Y-113146433D01*
X234699381Y-113048936D01*
X234530000Y-113014635D01*
X233817454Y-113014635D01*
X234193705Y-112939794D01*
X234607993Y-112662975D01*
X234825803Y-112337000D01*
X235970998Y-112337000D01*
X236216189Y-112582191D01*
X236148936Y-112680619D01*
X236114635Y-112850000D01*
X236114635Y-113650000D01*
X236144409Y-113808237D01*
X236237927Y-113953567D01*
X236380619Y-114051064D01*
X236550000Y-114085365D01*
X237450000Y-114085365D01*
X237608237Y-114055591D01*
X237753567Y-113962073D01*
X237851064Y-113819381D01*
X237885365Y-113650000D01*
X237885365Y-112850000D01*
X237855591Y-112691763D01*
X237762073Y-112546433D01*
X237619381Y-112448936D01*
X237554275Y-112435751D01*
X237533078Y-112329192D01*
X237479287Y-112248687D01*
X237408001Y-112141999D01*
X237407998Y-112141997D01*
X236618001Y-111351999D01*
X236430808Y-111226922D01*
X236210000Y-111182999D01*
X236209995Y-111183000D01*
X234825803Y-111183000D01*
X234607993Y-110857025D01*
X234193705Y-110580206D01*
X233740209Y-110490000D01*
X234193705Y-110399794D01*
X234607993Y-110122975D01*
X234758985Y-109897000D01*
X236914635Y-109897000D01*
X236914635Y-110500000D01*
X236944409Y-110658237D01*
X237037927Y-110803567D01*
X237180619Y-110901064D01*
X237350000Y-110935365D01*
X240850000Y-110935365D01*
X241008237Y-110905591D01*
X241153567Y-110812073D01*
X241251064Y-110669381D01*
X241285365Y-110500000D01*
X241285365Y-108700000D01*
X241255591Y-108541763D01*
X241162073Y-108396433D01*
X241019381Y-108298936D01*
X240850000Y-108264635D01*
X237350000Y-108264635D01*
X237191763Y-108294409D01*
X237046433Y-108387927D01*
X236948936Y-108530619D01*
X236946429Y-108543000D01*
X234758985Y-108543000D01*
X234607993Y-108317025D01*
X234193705Y-108040206D01*
X233705018Y-107943000D01*
X233654982Y-107943000D01*
X233166295Y-108040206D01*
X232752007Y-108317025D01*
X232475188Y-108731313D01*
X232377982Y-109220000D01*
X232475188Y-109708687D01*
X232536603Y-109800601D01*
X228577000Y-105840998D01*
X228577000Y-102534073D01*
X239722883Y-102534073D01*
X239825733Y-102782989D01*
X240016010Y-102973598D01*
X240016294Y-102973716D01*
X241721288Y-104678711D01*
X241831106Y-104752089D01*
X241940923Y-104825466D01*
X242200000Y-104877000D01*
X242914635Y-104877000D01*
X242914635Y-105850000D01*
X242944409Y-106008237D01*
X243037927Y-106153567D01*
X243180619Y-106251064D01*
X243350000Y-106285365D01*
X243423000Y-106285365D01*
X243423000Y-108264635D01*
X242350000Y-108264635D01*
X242191763Y-108294409D01*
X242046433Y-108387927D01*
X241948936Y-108530619D01*
X241914635Y-108700000D01*
X241914635Y-110500000D01*
X241944409Y-110658237D01*
X242037927Y-110803567D01*
X242180619Y-110901064D01*
X242350000Y-110935365D01*
X245850000Y-110935365D01*
X246008237Y-110905591D01*
X246153567Y-110812073D01*
X246251064Y-110669381D01*
X246285365Y-110500000D01*
X246285365Y-108700000D01*
X246255591Y-108541763D01*
X246162073Y-108396433D01*
X246019381Y-108298936D01*
X245850000Y-108264635D01*
X244777000Y-108264635D01*
X244777000Y-106285365D01*
X245850000Y-106285365D01*
X246008237Y-106255591D01*
X246153567Y-106162073D01*
X246251064Y-106019381D01*
X246285365Y-105850000D01*
X246285365Y-102550000D01*
X246255591Y-102391763D01*
X246162073Y-102246433D01*
X246019381Y-102148936D01*
X245850000Y-102114635D01*
X243350000Y-102114635D01*
X243191763Y-102144409D01*
X243046433Y-102237927D01*
X242948936Y-102380619D01*
X242914635Y-102550000D01*
X242914635Y-103523000D01*
X242480423Y-103523000D01*
X240879128Y-101921706D01*
X240783990Y-101826402D01*
X240535254Y-101723118D01*
X240265927Y-101722883D01*
X240017011Y-101825733D01*
X239826402Y-102016010D01*
X239723118Y-102264746D01*
X239722883Y-102534073D01*
X228577000Y-102534073D01*
X228577000Y-100600005D01*
X228577001Y-100600000D01*
X228533078Y-100379192D01*
X228408001Y-100191999D01*
X227250075Y-99034073D01*
X239822883Y-99034073D01*
X239925733Y-99282989D01*
X240116010Y-99473598D01*
X240364746Y-99576882D01*
X240634073Y-99577117D01*
X240882989Y-99474267D01*
X241073598Y-99283990D01*
X241176882Y-99035254D01*
X241176940Y-98968350D01*
X241272645Y-98872646D01*
X241354594Y-98750000D01*
X241386885Y-98701674D01*
X241405047Y-98610365D01*
X241430000Y-98610365D01*
X241588237Y-98580591D01*
X241733567Y-98487073D01*
X241831064Y-98344381D01*
X241865365Y-98175000D01*
X241865365Y-97525000D01*
X241835591Y-97366763D01*
X241742073Y-97221433D01*
X241599381Y-97123936D01*
X241430000Y-97089635D01*
X240370000Y-97089635D01*
X240211763Y-97119409D01*
X240066433Y-97212927D01*
X239968936Y-97355619D01*
X239934635Y-97525000D01*
X239934635Y-98175000D01*
X239964409Y-98333237D01*
X240021155Y-98421422D01*
X239926402Y-98516010D01*
X239823118Y-98764746D01*
X239822883Y-99034073D01*
X227250075Y-99034073D01*
X225777000Y-97560998D01*
X225777000Y-96183583D01*
X234272839Y-96183583D01*
X234413669Y-96524417D01*
X234674211Y-96785414D01*
X235014799Y-96926839D01*
X235383583Y-96927161D01*
X235383973Y-96927000D01*
X236948631Y-96927000D01*
X237200000Y-96977000D01*
X239200000Y-96977000D01*
X239554748Y-96906436D01*
X239590706Y-96882410D01*
X239733237Y-96855591D01*
X239878567Y-96762073D01*
X239902531Y-96727000D01*
X240800000Y-96727000D01*
X240883629Y-96710365D01*
X241430000Y-96710365D01*
X241588237Y-96680591D01*
X241733567Y-96587073D01*
X241831064Y-96444381D01*
X241865365Y-96275000D01*
X241865365Y-95625000D01*
X241835591Y-95466763D01*
X241742073Y-95321433D01*
X241599381Y-95223936D01*
X241430000Y-95189635D01*
X240370000Y-95189635D01*
X240211763Y-95219409D01*
X240066433Y-95312927D01*
X240025387Y-95373000D01*
X239904169Y-95373000D01*
X239887073Y-95346433D01*
X239744381Y-95248936D01*
X239591190Y-95217914D01*
X239554748Y-95193564D01*
X239200000Y-95123000D01*
X237401366Y-95123000D01*
X237150000Y-95073000D01*
X235200809Y-95073000D01*
X235016417Y-95072839D01*
X234675583Y-95213669D01*
X234414586Y-95474211D01*
X234273161Y-95814799D01*
X234272839Y-96183583D01*
X225777000Y-96183583D01*
X225777000Y-86700000D01*
X231189635Y-86700000D01*
X231189635Y-88000000D01*
X231219409Y-88158237D01*
X231312927Y-88303567D01*
X231455619Y-88401064D01*
X231625000Y-88435365D01*
X231875000Y-88435365D01*
X232004591Y-88410981D01*
X232125000Y-88435365D01*
X232147603Y-88435365D01*
X232073118Y-88614746D01*
X232072883Y-88884073D01*
X232175733Y-89132989D01*
X232366010Y-89323598D01*
X232614746Y-89426882D01*
X232884073Y-89427117D01*
X233132989Y-89324267D01*
X233323598Y-89133990D01*
X233426882Y-88885254D01*
X233427117Y-88615927D01*
X233421846Y-88603170D01*
X233498690Y-88635000D01*
X233528750Y-88635000D01*
X233687500Y-88476250D01*
X233687500Y-88298999D01*
X233750580Y-88206678D01*
X233812500Y-88302903D01*
X233812500Y-88476250D01*
X233971250Y-88635000D01*
X234001310Y-88635000D01*
X234234699Y-88538327D01*
X234337660Y-88435365D01*
X234375000Y-88435365D01*
X234504591Y-88410981D01*
X234625000Y-88435365D01*
X234673000Y-88435365D01*
X234673000Y-88774995D01*
X234672999Y-88775000D01*
X234716922Y-88995808D01*
X234778782Y-89088389D01*
X234475583Y-89213669D01*
X234214586Y-89474211D01*
X234073161Y-89814799D01*
X234072839Y-90183583D01*
X234213669Y-90524417D01*
X234474211Y-90785414D01*
X234814799Y-90926839D01*
X235183583Y-90927161D01*
X235183973Y-90927000D01*
X235573000Y-90927000D01*
X235573000Y-91750000D01*
X235643564Y-92104748D01*
X235667590Y-92140706D01*
X235694409Y-92283237D01*
X235787927Y-92428567D01*
X235930619Y-92526064D01*
X236065996Y-92553479D01*
X236145252Y-92606436D01*
X236500000Y-92677000D01*
X236854748Y-92606436D01*
X236932988Y-92554158D01*
X237058237Y-92530591D01*
X237088251Y-92511277D01*
X237240302Y-92663327D01*
X237473691Y-92760000D01*
X237714250Y-92760000D01*
X237873000Y-92601250D01*
X237873000Y-91877000D01*
X238127000Y-91877000D01*
X238127000Y-92601250D01*
X238285750Y-92760000D01*
X238526309Y-92760000D01*
X238759698Y-92663327D01*
X238938327Y-92484699D01*
X239035000Y-92251310D01*
X239035000Y-92035750D01*
X238876250Y-91877000D01*
X238127000Y-91877000D01*
X237873000Y-91877000D01*
X237853000Y-91877000D01*
X237853000Y-91623000D01*
X237873000Y-91623000D01*
X237873000Y-90898750D01*
X237849250Y-90875000D01*
X237873000Y-90851250D01*
X237873000Y-90127000D01*
X238127000Y-90127000D01*
X238127000Y-90851250D01*
X238150750Y-90875000D01*
X238127000Y-90898750D01*
X238127000Y-91623000D01*
X238876250Y-91623000D01*
X239035000Y-91464250D01*
X239035000Y-91248690D01*
X238938327Y-91015301D01*
X238856609Y-90933583D01*
X241822839Y-90933583D01*
X241963669Y-91274417D01*
X242224211Y-91535414D01*
X242224599Y-91535575D01*
X245473000Y-94783976D01*
X245473000Y-95336817D01*
X245344381Y-95248936D01*
X245175000Y-95214635D01*
X244425000Y-95214635D01*
X244266763Y-95244409D01*
X244222332Y-95273000D01*
X243871189Y-95273000D01*
X243799381Y-95223936D01*
X243630000Y-95189635D01*
X242570000Y-95189635D01*
X242411763Y-95219409D01*
X242266433Y-95312927D01*
X242168936Y-95455619D01*
X242134635Y-95625000D01*
X242134635Y-96275000D01*
X242164409Y-96433237D01*
X242257927Y-96578567D01*
X242400619Y-96676064D01*
X242570000Y-96710365D01*
X243630000Y-96710365D01*
X243788237Y-96680591D01*
X243871519Y-96627000D01*
X244031483Y-96627000D01*
X244112927Y-96753567D01*
X244255619Y-96851064D01*
X244425000Y-96885365D01*
X245175000Y-96885365D01*
X245333237Y-96855591D01*
X245478567Y-96762073D01*
X245502531Y-96727000D01*
X245695831Y-96727000D01*
X245712927Y-96753567D01*
X245855619Y-96851064D01*
X246008810Y-96882086D01*
X246045252Y-96906436D01*
X246400000Y-96977000D01*
X246754748Y-96906436D01*
X246790706Y-96882410D01*
X246933237Y-96855591D01*
X247078567Y-96762073D01*
X247176064Y-96619381D01*
X247203479Y-96484004D01*
X247256436Y-96404748D01*
X247327000Y-96050000D01*
X247327000Y-96000000D01*
X249022999Y-96000000D01*
X249023000Y-96000005D01*
X249023000Y-99149995D01*
X249022999Y-99150000D01*
X249066922Y-99370808D01*
X249191999Y-99558001D01*
X250764635Y-101130637D01*
X250764635Y-101650000D01*
X250794409Y-101808237D01*
X250873000Y-101930370D01*
X250873000Y-102049995D01*
X250872999Y-102050000D01*
X250873000Y-102050005D01*
X250873000Y-103072222D01*
X250798936Y-103180619D01*
X250764635Y-103350000D01*
X250764635Y-104250000D01*
X250794409Y-104408237D01*
X250846198Y-104488718D01*
X250783990Y-104426402D01*
X250535254Y-104323118D01*
X250265927Y-104322883D01*
X250017011Y-104425733D01*
X249826402Y-104616010D01*
X249723118Y-104864746D01*
X249722883Y-105134073D01*
X249825733Y-105382989D01*
X250016010Y-105573598D01*
X250264746Y-105676882D01*
X250310921Y-105676922D01*
X250764635Y-106130636D01*
X250764635Y-106450000D01*
X250794409Y-106608237D01*
X250887927Y-106753567D01*
X251030619Y-106851064D01*
X251200000Y-106885365D01*
X251700000Y-106885365D01*
X251858237Y-106855591D01*
X252003567Y-106762073D01*
X252101064Y-106619381D01*
X252135365Y-106450000D01*
X252135365Y-106130637D01*
X252264635Y-106001367D01*
X252264635Y-106450000D01*
X252294409Y-106608237D01*
X252387927Y-106753567D01*
X252530619Y-106851064D01*
X252700000Y-106885365D01*
X253200000Y-106885365D01*
X253358237Y-106855591D01*
X253503567Y-106762073D01*
X253601064Y-106619381D01*
X253609646Y-106577000D01*
X256339995Y-106577000D01*
X256340000Y-106577001D01*
X256560808Y-106533078D01*
X256748001Y-106408001D01*
X258104404Y-105051597D01*
X258181839Y-105067000D01*
X258218161Y-105067000D01*
X258572909Y-104996436D01*
X258873649Y-104795488D01*
X259074597Y-104494748D01*
X259145161Y-104140000D01*
X259074597Y-103785252D01*
X258887339Y-103505000D01*
X259074597Y-103224748D01*
X259145161Y-102870000D01*
X259074597Y-102515252D01*
X258887339Y-102235000D01*
X259074597Y-101954748D01*
X259145161Y-101600000D01*
X259074597Y-101245252D01*
X258887339Y-100965000D01*
X258929003Y-100902645D01*
X259127914Y-100863078D01*
X259315107Y-100738001D01*
X259408001Y-100645107D01*
X259482719Y-100533283D01*
X259607998Y-100408003D01*
X259608001Y-100408001D01*
X259733078Y-100220808D01*
X259738809Y-100191999D01*
X259777001Y-100000000D01*
X259777000Y-99999995D01*
X259777000Y-97400005D01*
X259777001Y-97400000D01*
X259733078Y-97179192D01*
X259608001Y-96991999D01*
X259607998Y-96991997D01*
X258008001Y-95391999D01*
X257820808Y-95266922D01*
X257600000Y-95222999D01*
X257599995Y-95223000D01*
X252600000Y-95223000D01*
X252379191Y-95266922D01*
X252310340Y-95312927D01*
X252191999Y-95391999D01*
X252191997Y-95392002D01*
X251791999Y-95791999D01*
X251666922Y-95979192D01*
X251622999Y-96200000D01*
X251623000Y-96200005D01*
X251623000Y-96314635D01*
X251200000Y-96314635D01*
X251141622Y-96325620D01*
X251073729Y-96257727D01*
X250974267Y-96017011D01*
X250783990Y-95826402D01*
X250646635Y-95769367D01*
X254808001Y-91608001D01*
X254933078Y-91420808D01*
X254977000Y-91200000D01*
X254977000Y-90833840D01*
X255185414Y-90625789D01*
X255201965Y-90585930D01*
X255258506Y-90501310D01*
X255356436Y-90354748D01*
X255427000Y-90000000D01*
X255427000Y-87926936D01*
X255573064Y-87927064D01*
X255572883Y-88134073D01*
X255675733Y-88382989D01*
X255866010Y-88573598D01*
X256114746Y-88676882D01*
X256384073Y-88677117D01*
X256632989Y-88574267D01*
X256823598Y-88383990D01*
X256926882Y-88135254D01*
X256927117Y-87865927D01*
X256824267Y-87617011D01*
X256777000Y-87569662D01*
X256777000Y-79762290D01*
X257250349Y-80235639D01*
X257157982Y-80700000D01*
X257255188Y-81188687D01*
X257532007Y-81602975D01*
X257946295Y-81879794D01*
X258399791Y-81970000D01*
X257946295Y-82060206D01*
X257532007Y-82337025D01*
X257255188Y-82751313D01*
X257157982Y-83240000D01*
X257255188Y-83728687D01*
X257532007Y-84142975D01*
X257946295Y-84419794D01*
X258399791Y-84510000D01*
X257946295Y-84600206D01*
X257532007Y-84877025D01*
X257255188Y-85291313D01*
X257157982Y-85780000D01*
X257255188Y-86268687D01*
X257532007Y-86682975D01*
X257946295Y-86959794D01*
X258399791Y-87050000D01*
X257946295Y-87140206D01*
X257532007Y-87417025D01*
X257255188Y-87831313D01*
X257157982Y-88320000D01*
X257255188Y-88808687D01*
X257532007Y-89222975D01*
X257946295Y-89499794D01*
X258399791Y-89590000D01*
X257946295Y-89680206D01*
X257532007Y-89957025D01*
X257255188Y-90371313D01*
X257157982Y-90860000D01*
X257255188Y-91348687D01*
X257532007Y-91762975D01*
X257946295Y-92039794D01*
X258434982Y-92137000D01*
X258485018Y-92137000D01*
X258973705Y-92039794D01*
X259387993Y-91762975D01*
X259664812Y-91348687D01*
X259730000Y-91020965D01*
X259795188Y-91348687D01*
X260072007Y-91762975D01*
X260486295Y-92039794D01*
X260974982Y-92137000D01*
X261025018Y-92137000D01*
X261513705Y-92039794D01*
X261927993Y-91762975D01*
X262204812Y-91348687D01*
X262302018Y-90860000D01*
X262204812Y-90371313D01*
X261927993Y-89957025D01*
X261513705Y-89680206D01*
X261060209Y-89590000D01*
X261513705Y-89499794D01*
X261927993Y-89222975D01*
X262204812Y-88808687D01*
X262302018Y-88320000D01*
X262204812Y-87831313D01*
X261927993Y-87417025D01*
X261513705Y-87140206D01*
X261060209Y-87050000D01*
X261513705Y-86959794D01*
X261927993Y-86682975D01*
X262204812Y-86268687D01*
X262302018Y-85780000D01*
X262204812Y-85291313D01*
X261927993Y-84877025D01*
X261513705Y-84600206D01*
X261060209Y-84510000D01*
X261513705Y-84419794D01*
X261927993Y-84142975D01*
X262204812Y-83728687D01*
X262302018Y-83240000D01*
X262204812Y-82751313D01*
X261927993Y-82337025D01*
X261513705Y-82060206D01*
X261060209Y-81970000D01*
X261513705Y-81879794D01*
X261927993Y-81602975D01*
X262204812Y-81188687D01*
X262302018Y-80700000D01*
X262204812Y-80211313D01*
X261927993Y-79797025D01*
X261513705Y-79520206D01*
X261060209Y-79430000D01*
X261513705Y-79339794D01*
X261927993Y-79062975D01*
X262204812Y-78648687D01*
X262302018Y-78160000D01*
X262204812Y-77671313D01*
X261927993Y-77257025D01*
X261520417Y-76984691D01*
X261881358Y-76815183D01*
X262271645Y-76386924D01*
X262441476Y-75976890D01*
X262320155Y-75747000D01*
X261127000Y-75747000D01*
X261127000Y-75767000D01*
X260873000Y-75767000D01*
X260873000Y-75747000D01*
X260853000Y-75747000D01*
X260853000Y-75493000D01*
X260873000Y-75493000D01*
X260873000Y-75473000D01*
X261127000Y-75473000D01*
X261127000Y-75493000D01*
X262320155Y-75493000D01*
X262441476Y-75263110D01*
X262271645Y-74853076D01*
X261881358Y-74424817D01*
X261520417Y-74255309D01*
X261927993Y-73982975D01*
X262204812Y-73568687D01*
X262302018Y-73080000D01*
X262204812Y-72591313D01*
X261927993Y-72177025D01*
X261513705Y-71900206D01*
X261060209Y-71810000D01*
X261513705Y-71719794D01*
X261927993Y-71442975D01*
X262204812Y-71028687D01*
X262302018Y-70540000D01*
X262204812Y-70051313D01*
X261927993Y-69637025D01*
X261700472Y-69485000D01*
X261976309Y-69485000D01*
X262209698Y-69388327D01*
X262388327Y-69209699D01*
X262485000Y-68976310D01*
X262485000Y-68285750D01*
X262326250Y-68127000D01*
X261127000Y-68127000D01*
X261127000Y-68147000D01*
X260873000Y-68147000D01*
X260873000Y-68127000D01*
X258587000Y-68127000D01*
X258587000Y-68147000D01*
X258333000Y-68147000D01*
X258333000Y-68127000D01*
X257139845Y-68127000D01*
X257018524Y-68356890D01*
X257188355Y-68766924D01*
X257578642Y-69195183D01*
X257939583Y-69364691D01*
X257532007Y-69637025D01*
X257255188Y-70051313D01*
X257157982Y-70540000D01*
X257255188Y-71028687D01*
X257532007Y-71442975D01*
X257946295Y-71719794D01*
X258399791Y-71810000D01*
X257946295Y-71900206D01*
X257532007Y-72177025D01*
X257255188Y-72591313D01*
X257157982Y-73080000D01*
X257250349Y-73544361D01*
X255417355Y-75377355D01*
X255362379Y-75459632D01*
X255286331Y-75275583D01*
X255025789Y-75014586D01*
X254685201Y-74873161D01*
X254316417Y-74872839D01*
X253975583Y-75013669D01*
X253714586Y-75274211D01*
X253573161Y-75614799D01*
X253572839Y-75983583D01*
X253573000Y-75983973D01*
X253573000Y-89674361D01*
X253473161Y-89914799D01*
X253472839Y-90283583D01*
X253613669Y-90624417D01*
X253823000Y-90834114D01*
X253823000Y-90960998D01*
X249191999Y-95591999D01*
X249066922Y-95779192D01*
X249022999Y-96000000D01*
X247327000Y-96000000D01*
X247327000Y-94400000D01*
X247256437Y-94045253D01*
X247055488Y-93744512D01*
X243424152Y-90113176D01*
X243503567Y-90062073D01*
X243601064Y-89919381D01*
X243635365Y-89750000D01*
X243635365Y-89250000D01*
X243605591Y-89091763D01*
X243512073Y-88946433D01*
X243369381Y-88848936D01*
X243200000Y-88814635D01*
X242300000Y-88814635D01*
X242141763Y-88844409D01*
X241996433Y-88937927D01*
X241898936Y-89080619D01*
X241864635Y-89250000D01*
X241864635Y-89750000D01*
X241894409Y-89908237D01*
X241987927Y-90053567D01*
X242075552Y-90113438D01*
X241964586Y-90224211D01*
X241823161Y-90564799D01*
X241822839Y-90933583D01*
X238856609Y-90933583D01*
X238798025Y-90875000D01*
X238938327Y-90734699D01*
X239035000Y-90501310D01*
X239035000Y-90285750D01*
X238876250Y-90127000D01*
X238127000Y-90127000D01*
X237873000Y-90127000D01*
X237853000Y-90127000D01*
X237853000Y-89873000D01*
X237873000Y-89873000D01*
X237873000Y-89148750D01*
X238127000Y-89148750D01*
X238127000Y-89873000D01*
X238876250Y-89873000D01*
X239035000Y-89714250D01*
X239035000Y-89498690D01*
X238938327Y-89265301D01*
X238759698Y-89086673D01*
X238526309Y-88990000D01*
X238285750Y-88990000D01*
X238127000Y-89148750D01*
X237873000Y-89148750D01*
X237714250Y-88990000D01*
X237473691Y-88990000D01*
X237240302Y-89086673D01*
X237089376Y-89237598D01*
X237069381Y-89223936D01*
X236934004Y-89196521D01*
X236854748Y-89143564D01*
X236500000Y-89073000D01*
X236364002Y-89073000D01*
X235827000Y-88535998D01*
X235827000Y-88435365D01*
X235875000Y-88435365D01*
X236004591Y-88410981D01*
X236125000Y-88435365D01*
X236375000Y-88435365D01*
X236504591Y-88410981D01*
X236625000Y-88435365D01*
X236875000Y-88435365D01*
X237004591Y-88410981D01*
X237125000Y-88435365D01*
X237375000Y-88435365D01*
X237533237Y-88405591D01*
X237678567Y-88312073D01*
X237776064Y-88169381D01*
X237810365Y-88000000D01*
X237810365Y-86700000D01*
X237780591Y-86541763D01*
X237687073Y-86396433D01*
X237544381Y-86298936D01*
X237375000Y-86264635D01*
X237125000Y-86264635D01*
X236995409Y-86289019D01*
X236875000Y-86264635D01*
X236625000Y-86264635D01*
X236495409Y-86289019D01*
X236375000Y-86264635D01*
X236125000Y-86264635D01*
X235995409Y-86289019D01*
X235875000Y-86264635D01*
X235625000Y-86264635D01*
X235495409Y-86289019D01*
X235375000Y-86264635D01*
X235125000Y-86264635D01*
X234995409Y-86289019D01*
X234875000Y-86264635D01*
X234625000Y-86264635D01*
X234495409Y-86289019D01*
X234375000Y-86264635D01*
X234337660Y-86264635D01*
X234234699Y-86161673D01*
X234001310Y-86065000D01*
X233971250Y-86065000D01*
X233812500Y-86223750D01*
X233812500Y-86401001D01*
X233749420Y-86493322D01*
X233687500Y-86397097D01*
X233687500Y-86223750D01*
X233528750Y-86065000D01*
X233498690Y-86065000D01*
X233265301Y-86161673D01*
X233162340Y-86264635D01*
X233125000Y-86264635D01*
X232995409Y-86289019D01*
X232875000Y-86264635D01*
X232625000Y-86264635D01*
X232495409Y-86289019D01*
X232375000Y-86264635D01*
X232125000Y-86264635D01*
X231995409Y-86289019D01*
X231875000Y-86264635D01*
X231625000Y-86264635D01*
X231466763Y-86294409D01*
X231321433Y-86387927D01*
X231223936Y-86530619D01*
X231189635Y-86700000D01*
X225777000Y-86700000D01*
X225777000Y-73859380D01*
X225982989Y-73774267D01*
X226173598Y-73583990D01*
X226276882Y-73335254D01*
X226277117Y-73065927D01*
X226174267Y-72817011D01*
X226086705Y-72729296D01*
X226942272Y-71873729D01*
X227182989Y-71774267D01*
X227373598Y-71583990D01*
X227476882Y-71335254D01*
X227477117Y-71065927D01*
X227374267Y-70817011D01*
X227183990Y-70626402D01*
X226935254Y-70523118D01*
X226665927Y-70522883D01*
X226417011Y-70625733D01*
X226226402Y-70816010D01*
X226125863Y-71058136D01*
X224277000Y-72906998D01*
X224277000Y-69030264D01*
X224380619Y-69101064D01*
X224550000Y-69135365D01*
X225190687Y-69135365D01*
X225400000Y-69177000D01*
X231612024Y-69177000D01*
X231144512Y-69644512D01*
X230943564Y-69945252D01*
X230873000Y-70300000D01*
X230873000Y-72616024D01*
X227744798Y-75744226D01*
X227614586Y-75874211D01*
X227473161Y-76214799D01*
X227472839Y-76583583D01*
X227613669Y-76924417D01*
X227874211Y-77185414D01*
X228214799Y-77326839D01*
X228583583Y-77327161D01*
X228924417Y-77186331D01*
X229185414Y-76925789D01*
X229185575Y-76925401D01*
X230465000Y-75645976D01*
X230465000Y-75751310D01*
X230561673Y-75984699D01*
X230740302Y-76163327D01*
X230973691Y-76260000D01*
X231214250Y-76260000D01*
X231373000Y-76101250D01*
X231373000Y-75377000D01*
X231353000Y-75377000D01*
X231353000Y-75123000D01*
X231373000Y-75123000D01*
X231373000Y-75103000D01*
X231627000Y-75103000D01*
X231627000Y-75123000D01*
X231647000Y-75123000D01*
X231647000Y-75377000D01*
X231627000Y-75377000D01*
X231627000Y-76101250D01*
X231785750Y-76260000D01*
X232026309Y-76260000D01*
X232259698Y-76163327D01*
X232410624Y-76012402D01*
X232430619Y-76026064D01*
X232443627Y-76028698D01*
X232466922Y-76145808D01*
X232591999Y-76333001D01*
X233173000Y-76914001D01*
X233173000Y-77365000D01*
X233122998Y-77365000D01*
X233122998Y-77415405D01*
X233048153Y-77384403D01*
X233028750Y-77365000D01*
X232971250Y-77365000D01*
X232951847Y-77384403D01*
X232765301Y-77461673D01*
X232687500Y-77539474D01*
X232687500Y-77523750D01*
X232528750Y-77365000D01*
X232498690Y-77365000D01*
X232265301Y-77461673D01*
X232162340Y-77564635D01*
X232125000Y-77564635D01*
X231995409Y-77589019D01*
X231875000Y-77564635D01*
X231625000Y-77564635D01*
X231466763Y-77594409D01*
X231321433Y-77687927D01*
X231223936Y-77830619D01*
X231189635Y-78000000D01*
X231189635Y-79300000D01*
X231219409Y-79458237D01*
X231223000Y-79463818D01*
X231223000Y-80059285D01*
X231205591Y-79966763D01*
X231112073Y-79821433D01*
X230969381Y-79723936D01*
X230800000Y-79689635D01*
X229500000Y-79689635D01*
X229341763Y-79719409D01*
X229196433Y-79812927D01*
X229098936Y-79955619D01*
X229064635Y-80125000D01*
X229064635Y-80375000D01*
X229089019Y-80504591D01*
X229064635Y-80625000D01*
X229064635Y-80875000D01*
X229089019Y-81004591D01*
X229064635Y-81125000D01*
X229064635Y-81375000D01*
X229089019Y-81504591D01*
X229064635Y-81625000D01*
X229064635Y-81875000D01*
X229089019Y-82004591D01*
X229064635Y-82125000D01*
X229064635Y-82375000D01*
X229089019Y-82504591D01*
X229064635Y-82625000D01*
X229064635Y-82875000D01*
X229089019Y-83004591D01*
X229064635Y-83125000D01*
X229064635Y-83375000D01*
X229089019Y-83504591D01*
X229064635Y-83625000D01*
X229064635Y-83875000D01*
X229089019Y-84004591D01*
X229064635Y-84125000D01*
X229064635Y-84375000D01*
X229089019Y-84504591D01*
X229064635Y-84625000D01*
X229064635Y-84875000D01*
X229089019Y-85004591D01*
X229064635Y-85125000D01*
X229064635Y-85375000D01*
X229089019Y-85504591D01*
X229064635Y-85625000D01*
X229064635Y-85875000D01*
X229094409Y-86033237D01*
X229187927Y-86178567D01*
X229330619Y-86276064D01*
X229500000Y-86310365D01*
X230800000Y-86310365D01*
X230958237Y-86280591D01*
X231103567Y-86187073D01*
X231201064Y-86044381D01*
X231235365Y-85875000D01*
X231235365Y-85625000D01*
X231210981Y-85495409D01*
X231235365Y-85375000D01*
X231235365Y-85334073D01*
X236722883Y-85334073D01*
X236825733Y-85582989D01*
X237016010Y-85773598D01*
X237264746Y-85876882D01*
X237534073Y-85877117D01*
X237764635Y-85781851D01*
X237764635Y-85875000D01*
X237794409Y-86033237D01*
X237887927Y-86178567D01*
X238030619Y-86276064D01*
X238200000Y-86310365D01*
X239500000Y-86310365D01*
X239554769Y-86300060D01*
X239627354Y-86372645D01*
X239717682Y-86433000D01*
X239798326Y-86486885D01*
X240000000Y-86527000D01*
X241569493Y-86527000D01*
X241616010Y-86573598D01*
X241864746Y-86676882D01*
X242134073Y-86677117D01*
X242173000Y-86661033D01*
X242173000Y-87338531D01*
X242141763Y-87344409D01*
X241996433Y-87437927D01*
X241898936Y-87580619D01*
X241864635Y-87750000D01*
X241864635Y-88250000D01*
X241894409Y-88408237D01*
X241987927Y-88553567D01*
X242130619Y-88651064D01*
X242300000Y-88685365D01*
X243200000Y-88685365D01*
X243358237Y-88655591D01*
X243503567Y-88562073D01*
X243601064Y-88419381D01*
X243635365Y-88250000D01*
X243635365Y-87750000D01*
X243605591Y-87591763D01*
X243512073Y-87446433D01*
X243369381Y-87348936D01*
X243327000Y-87340354D01*
X243327000Y-85535750D01*
X245490000Y-85535750D01*
X245490000Y-85776309D01*
X245586673Y-86009698D01*
X245765301Y-86188327D01*
X245998690Y-86285000D01*
X246214250Y-86285000D01*
X246373000Y-86126250D01*
X246373000Y-85377000D01*
X246627000Y-85377000D01*
X246627000Y-86126250D01*
X246785750Y-86285000D01*
X247001310Y-86285000D01*
X247234699Y-86188327D01*
X247413327Y-86009698D01*
X247510000Y-85776309D01*
X247510000Y-85535750D01*
X247351250Y-85377000D01*
X246627000Y-85377000D01*
X246373000Y-85377000D01*
X245648750Y-85377000D01*
X245490000Y-85535750D01*
X243327000Y-85535750D01*
X243327000Y-84750005D01*
X243327001Y-84750000D01*
X243283078Y-84529192D01*
X243279020Y-84523118D01*
X243158001Y-84341999D01*
X243157998Y-84341997D01*
X243101752Y-84285750D01*
X243490000Y-84285750D01*
X243490000Y-84526309D01*
X243586673Y-84759698D01*
X243765301Y-84938327D01*
X243998690Y-85035000D01*
X244214250Y-85035000D01*
X244373000Y-84876250D01*
X244373000Y-84127000D01*
X244627000Y-84127000D01*
X244627000Y-84876250D01*
X244785750Y-85035000D01*
X245001310Y-85035000D01*
X245234699Y-84938327D01*
X245413327Y-84759698D01*
X245510000Y-84526309D01*
X245510000Y-84285750D01*
X245351250Y-84127000D01*
X244627000Y-84127000D01*
X244373000Y-84127000D01*
X243648750Y-84127000D01*
X243490000Y-84285750D01*
X243101752Y-84285750D01*
X242658001Y-83841999D01*
X242560722Y-83777000D01*
X243552750Y-83777000D01*
X243648750Y-83873000D01*
X244373000Y-83873000D01*
X244373000Y-83853000D01*
X244627000Y-83853000D01*
X244627000Y-83873000D01*
X245351250Y-83873000D01*
X245447250Y-83777000D01*
X245689635Y-83777000D01*
X245689635Y-84150000D01*
X245719409Y-84308237D01*
X245738723Y-84338251D01*
X245586673Y-84490302D01*
X245490000Y-84723691D01*
X245490000Y-84964250D01*
X245648750Y-85123000D01*
X246373000Y-85123000D01*
X246373000Y-85103000D01*
X246627000Y-85103000D01*
X246627000Y-85123000D01*
X247351250Y-85123000D01*
X247510000Y-84964250D01*
X247510000Y-84723691D01*
X247413327Y-84490302D01*
X247262402Y-84339376D01*
X247276064Y-84319381D01*
X247284646Y-84277000D01*
X248531710Y-84277000D01*
X249564635Y-85309926D01*
X249564635Y-89500000D01*
X249594409Y-89658237D01*
X249687927Y-89803567D01*
X249830619Y-89901064D01*
X250000000Y-89935365D01*
X252000000Y-89935365D01*
X252158237Y-89905591D01*
X252303567Y-89812073D01*
X252401064Y-89669381D01*
X252435365Y-89500000D01*
X252435365Y-85000000D01*
X252405591Y-84841763D01*
X252312073Y-84696433D01*
X252169381Y-84598936D01*
X252000000Y-84564635D01*
X250309926Y-84564635D01*
X249122645Y-83377355D01*
X248951675Y-83263115D01*
X248750000Y-83223000D01*
X247286469Y-83223000D01*
X247280591Y-83191763D01*
X247187073Y-83046433D01*
X247158632Y-83027000D01*
X248500000Y-83027000D01*
X248701675Y-82986885D01*
X248872645Y-82872645D01*
X250309925Y-81435365D01*
X252000000Y-81435365D01*
X252158237Y-81405591D01*
X252303567Y-81312073D01*
X252401064Y-81169381D01*
X252435365Y-81000000D01*
X252435365Y-76500000D01*
X252405591Y-76341763D01*
X252312073Y-76196433D01*
X252169381Y-76098936D01*
X252000000Y-76064635D01*
X250000000Y-76064635D01*
X249841763Y-76094409D01*
X249696433Y-76187927D01*
X249598936Y-76330619D01*
X249564635Y-76500000D01*
X249564635Y-80690075D01*
X248281710Y-81973000D01*
X245286469Y-81973000D01*
X245280591Y-81941763D01*
X245271091Y-81927000D01*
X247375000Y-81927000D01*
X247729748Y-81856436D01*
X248030488Y-81655488D01*
X248455488Y-81230488D01*
X248656437Y-80929747D01*
X248727000Y-80575000D01*
X248727000Y-77200809D01*
X248727161Y-77016417D01*
X248586331Y-76675583D01*
X248325789Y-76414586D01*
X247985201Y-76273161D01*
X247616417Y-76272839D01*
X247275583Y-76413669D01*
X247014586Y-76674211D01*
X246873161Y-77014799D01*
X246872839Y-77383583D01*
X246873000Y-77383973D01*
X246873000Y-78699975D01*
X246734699Y-78561673D01*
X246501310Y-78465000D01*
X246285750Y-78465000D01*
X246127000Y-78623750D01*
X246127000Y-79373000D01*
X246147000Y-79373000D01*
X246147000Y-79627000D01*
X246127000Y-79627000D01*
X246127000Y-79647000D01*
X245873000Y-79647000D01*
X245873000Y-79627000D01*
X244627000Y-79627000D01*
X244627000Y-79647000D01*
X244373000Y-79647000D01*
X244373000Y-79627000D01*
X243648750Y-79627000D01*
X243490000Y-79785750D01*
X243490000Y-80026309D01*
X243586673Y-80259698D01*
X243737598Y-80410624D01*
X243723936Y-80430619D01*
X243696521Y-80565996D01*
X243643564Y-80645252D01*
X243573000Y-81000000D01*
X243595564Y-81113435D01*
X243579445Y-81129553D01*
X243574267Y-81117021D01*
X243383990Y-80926412D01*
X243135254Y-80823128D01*
X243041357Y-80823046D01*
X242951665Y-80763115D01*
X242749990Y-80723000D01*
X241890447Y-80723000D01*
X241926882Y-80635254D01*
X241927117Y-80365927D01*
X241824267Y-80117011D01*
X241633990Y-79926402D01*
X241385254Y-79823118D01*
X241115927Y-79822883D01*
X240927086Y-79900910D01*
X240927117Y-79865927D01*
X240824267Y-79617011D01*
X240633990Y-79426402D01*
X240385254Y-79323118D01*
X240115927Y-79322883D01*
X239867011Y-79425733D01*
X239676402Y-79616010D01*
X239634519Y-79716876D01*
X239500000Y-79689635D01*
X238200000Y-79689635D01*
X238041763Y-79719409D01*
X237896433Y-79812927D01*
X237798936Y-79955619D01*
X237764635Y-80125000D01*
X237764635Y-80323013D01*
X237615927Y-80322883D01*
X237367011Y-80425733D01*
X237176402Y-80616010D01*
X237073118Y-80864746D01*
X237072883Y-81134073D01*
X237175733Y-81382989D01*
X237223000Y-81430338D01*
X237223000Y-81500000D01*
X237263115Y-81701675D01*
X237377355Y-81872645D01*
X237627354Y-82122645D01*
X237727612Y-82189635D01*
X237764635Y-82214373D01*
X237764635Y-82375000D01*
X237789019Y-82504591D01*
X237764635Y-82625000D01*
X237764635Y-82875000D01*
X237789019Y-83004591D01*
X237764635Y-83125000D01*
X237764635Y-83162340D01*
X237661673Y-83265301D01*
X237565000Y-83498690D01*
X237565000Y-83528750D01*
X237723750Y-83687500D01*
X237901001Y-83687500D01*
X237993322Y-83750580D01*
X237897097Y-83812500D01*
X237723750Y-83812500D01*
X237565000Y-83971250D01*
X237565000Y-84001310D01*
X237661673Y-84234699D01*
X237683160Y-84256186D01*
X237648325Y-84263115D01*
X237477355Y-84377355D01*
X237331770Y-84522940D01*
X237265927Y-84522883D01*
X237017011Y-84625733D01*
X236826402Y-84816010D01*
X236723118Y-85064746D01*
X236722883Y-85334073D01*
X231235365Y-85334073D01*
X231235365Y-85125000D01*
X231210981Y-84995409D01*
X231235365Y-84875000D01*
X231235365Y-84625000D01*
X231210981Y-84495409D01*
X231235365Y-84375000D01*
X231235365Y-84125000D01*
X231210981Y-83995409D01*
X231235365Y-83875000D01*
X231235365Y-83625000D01*
X231210981Y-83495409D01*
X231235365Y-83375000D01*
X231235365Y-83336364D01*
X231423000Y-83523999D01*
X231423000Y-84224203D01*
X231323118Y-84464746D01*
X231322883Y-84734073D01*
X231425733Y-84982989D01*
X231616010Y-85173598D01*
X231864746Y-85276882D01*
X232134073Y-85277117D01*
X232382989Y-85174267D01*
X232573598Y-84983990D01*
X232676882Y-84735254D01*
X232677117Y-84465927D01*
X232577000Y-84223625D01*
X232577000Y-83284998D01*
X232533078Y-83064190D01*
X232408001Y-82876997D01*
X232407998Y-82876995D01*
X231994193Y-82463189D01*
X232112514Y-82345074D01*
X232215798Y-82096338D01*
X232216033Y-81827011D01*
X232113183Y-81578095D01*
X232101618Y-81566510D01*
X232176882Y-81385254D01*
X232177117Y-81115927D01*
X232168660Y-81095460D01*
X232364746Y-81176882D01*
X232634073Y-81177117D01*
X232882989Y-81074267D01*
X233073598Y-80883990D01*
X233176882Y-80635254D01*
X233177117Y-80365927D01*
X233074267Y-80117011D01*
X232883990Y-79926402D01*
X232877002Y-79923500D01*
X232877002Y-79884595D01*
X232951847Y-79915597D01*
X232971250Y-79935000D01*
X233028750Y-79935000D01*
X233048153Y-79915597D01*
X233234699Y-79838327D01*
X233312500Y-79760526D01*
X233312500Y-79776250D01*
X233471250Y-79935000D01*
X233501310Y-79935000D01*
X233734699Y-79838327D01*
X233837660Y-79735365D01*
X233875000Y-79735365D01*
X234004591Y-79710981D01*
X234125000Y-79735365D01*
X234375000Y-79735365D01*
X234504591Y-79710981D01*
X234625000Y-79735365D01*
X234875000Y-79735365D01*
X235004591Y-79710981D01*
X235125000Y-79735365D01*
X235375000Y-79735365D01*
X235504591Y-79710981D01*
X235625000Y-79735365D01*
X235875000Y-79735365D01*
X236004591Y-79710981D01*
X236125000Y-79735365D01*
X236126842Y-79735365D01*
X236073118Y-79864746D01*
X236072883Y-80134073D01*
X236175733Y-80382989D01*
X236366010Y-80573598D01*
X236614746Y-80676882D01*
X236884073Y-80677117D01*
X237132989Y-80574267D01*
X237323598Y-80383990D01*
X237426882Y-80135254D01*
X237427117Y-79865927D01*
X237373170Y-79735365D01*
X237375000Y-79735365D01*
X237533237Y-79705591D01*
X237678567Y-79612073D01*
X237776064Y-79469381D01*
X237810365Y-79300000D01*
X237810365Y-79277000D01*
X237819493Y-79277000D01*
X237866010Y-79323598D01*
X238114746Y-79426882D01*
X238384073Y-79427117D01*
X238632989Y-79324267D01*
X238823598Y-79133990D01*
X238890159Y-78973691D01*
X243490000Y-78973691D01*
X243490000Y-79214250D01*
X243648750Y-79373000D01*
X244373000Y-79373000D01*
X244373000Y-78623750D01*
X244627000Y-78623750D01*
X244627000Y-79373000D01*
X245873000Y-79373000D01*
X245873000Y-78623750D01*
X245714250Y-78465000D01*
X245498690Y-78465000D01*
X245265301Y-78561673D01*
X245250000Y-78576974D01*
X245234699Y-78561673D01*
X245001310Y-78465000D01*
X244785750Y-78465000D01*
X244627000Y-78623750D01*
X244373000Y-78623750D01*
X244214250Y-78465000D01*
X243998690Y-78465000D01*
X243765301Y-78561673D01*
X243586673Y-78740302D01*
X243490000Y-78973691D01*
X238890159Y-78973691D01*
X238926882Y-78885254D01*
X238927117Y-78615927D01*
X238824267Y-78367011D01*
X238633990Y-78176402D01*
X238385254Y-78073118D01*
X238115927Y-78072883D01*
X237867011Y-78175733D01*
X237819662Y-78223000D01*
X237810365Y-78223000D01*
X237810365Y-78000000D01*
X237780591Y-77841763D01*
X237687073Y-77696433D01*
X237544381Y-77598936D01*
X237375000Y-77564635D01*
X237125000Y-77564635D01*
X236995409Y-77589019D01*
X236875000Y-77564635D01*
X236625000Y-77564635D01*
X236495409Y-77589019D01*
X236375000Y-77564635D01*
X236125000Y-77564635D01*
X235995409Y-77589019D01*
X235875000Y-77564635D01*
X235827000Y-77564635D01*
X235827000Y-76914002D01*
X236407998Y-76333003D01*
X236408001Y-76333001D01*
X236533078Y-76145808D01*
X236555909Y-76031029D01*
X236558237Y-76030591D01*
X236588251Y-76011277D01*
X236740302Y-76163327D01*
X236973691Y-76260000D01*
X237214250Y-76260000D01*
X237373000Y-76101250D01*
X237373000Y-75377000D01*
X237627000Y-75377000D01*
X237627000Y-76101250D01*
X237785750Y-76260000D01*
X238026309Y-76260000D01*
X238259698Y-76163327D01*
X238438327Y-75984699D01*
X238535000Y-75751310D01*
X238535000Y-75535750D01*
X238376250Y-75377000D01*
X237627000Y-75377000D01*
X237373000Y-75377000D01*
X237353000Y-75377000D01*
X237353000Y-75123000D01*
X237373000Y-75123000D01*
X237373000Y-75103000D01*
X237627000Y-75103000D01*
X237627000Y-75123000D01*
X238376250Y-75123000D01*
X238535000Y-74964250D01*
X238535000Y-74927031D01*
X238683583Y-74927161D01*
X239024417Y-74786331D01*
X239285414Y-74525789D01*
X239426839Y-74185201D01*
X239427161Y-73816417D01*
X239286331Y-73475583D01*
X239138007Y-73327000D01*
X240510998Y-73327000D01*
X240791999Y-73608001D01*
X240979192Y-73733078D01*
X241200000Y-73777000D01*
X248199995Y-73777000D01*
X248200000Y-73777001D01*
X248420808Y-73733078D01*
X248608001Y-73608001D01*
X249437141Y-72778861D01*
X249800000Y-72851038D01*
X250269553Y-72757638D01*
X250667620Y-72491658D01*
X250933600Y-72093591D01*
X251027000Y-71624038D01*
X251027000Y-71575962D01*
X250933600Y-71106409D01*
X250667620Y-70708342D01*
X250269553Y-70442362D01*
X249800000Y-70348962D01*
X249330447Y-70442362D01*
X248932380Y-70708342D01*
X248666400Y-71106409D01*
X248573000Y-71575962D01*
X248573000Y-71624038D01*
X248637201Y-71946798D01*
X248495365Y-72088633D01*
X248495365Y-70800000D01*
X248465591Y-70641763D01*
X248372073Y-70496433D01*
X248229381Y-70398936D01*
X248060000Y-70364635D01*
X246460000Y-70364635D01*
X246301763Y-70394409D01*
X246156433Y-70487927D01*
X246058936Y-70630619D01*
X246024635Y-70800000D01*
X246024635Y-71023000D01*
X237389001Y-71023000D01*
X236935365Y-70569363D01*
X236935365Y-70050000D01*
X236905591Y-69891763D01*
X236812073Y-69746433D01*
X236669381Y-69648936D01*
X236500000Y-69614635D01*
X236000000Y-69614635D01*
X235841763Y-69644409D01*
X235696433Y-69737927D01*
X235598936Y-69880619D01*
X235564635Y-70050000D01*
X235564635Y-70950000D01*
X235594409Y-71108237D01*
X235687927Y-71253567D01*
X235830619Y-71351064D01*
X236000000Y-71385365D01*
X236119363Y-71385365D01*
X236761997Y-72027998D01*
X236761999Y-72028001D01*
X236874213Y-72102979D01*
X236949191Y-72153078D01*
X236985827Y-72160365D01*
X237049343Y-72173000D01*
X236161469Y-72173000D01*
X236155591Y-72141763D01*
X236062073Y-71996433D01*
X235919381Y-71898936D01*
X235750000Y-71864635D01*
X235327000Y-71864635D01*
X235327000Y-71227778D01*
X235401064Y-71119381D01*
X235435365Y-70950000D01*
X235435365Y-70050000D01*
X235405591Y-69891763D01*
X235312073Y-69746433D01*
X235169381Y-69648936D01*
X235000000Y-69614635D01*
X234500000Y-69614635D01*
X234341763Y-69644409D01*
X234196433Y-69737927D01*
X234155347Y-69798058D01*
X233983990Y-69626402D01*
X233843083Y-69567893D01*
X234233976Y-69177000D01*
X243750000Y-69177000D01*
X244104748Y-69106436D01*
X244405488Y-68905488D01*
X244655488Y-68655488D01*
X244707932Y-68577000D01*
X244856436Y-68354748D01*
X244927000Y-68000000D01*
X244927000Y-67643110D01*
X257018524Y-67643110D01*
X257139845Y-67873000D01*
X258333000Y-67873000D01*
X258333000Y-66679181D01*
X258587000Y-66679181D01*
X258587000Y-67873000D01*
X260873000Y-67873000D01*
X260873000Y-66673750D01*
X261127000Y-66673750D01*
X261127000Y-67873000D01*
X262326250Y-67873000D01*
X262485000Y-67714250D01*
X262485000Y-67023690D01*
X262388327Y-66790301D01*
X262209698Y-66611673D01*
X261976309Y-66515000D01*
X261285750Y-66515000D01*
X261127000Y-66673750D01*
X260873000Y-66673750D01*
X260714250Y-66515000D01*
X260023691Y-66515000D01*
X259790302Y-66611673D01*
X259611673Y-66790301D01*
X259523070Y-67004208D01*
X259341358Y-66804817D01*
X258816892Y-66558514D01*
X258587000Y-66679181D01*
X258333000Y-66679181D01*
X258103108Y-66558514D01*
X257578642Y-66804817D01*
X257188355Y-67233076D01*
X257018524Y-67643110D01*
X244927000Y-67643110D01*
X244927000Y-63783976D01*
X245583976Y-63127000D01*
X246366550Y-63127000D01*
X246126400Y-63486409D01*
X246033000Y-63955962D01*
X246033000Y-64004038D01*
X246126400Y-64473591D01*
X246392380Y-64871658D01*
X246790447Y-65137638D01*
X247260000Y-65231038D01*
X247729553Y-65137638D01*
X248127620Y-64871658D01*
X248337868Y-64557000D01*
X248722132Y-64557000D01*
X248932380Y-64871658D01*
X249330447Y-65137638D01*
X249800000Y-65231038D01*
X250269553Y-65137638D01*
X250667620Y-64871658D01*
X250933600Y-64473591D01*
X251027000Y-64004038D01*
X251027000Y-63955962D01*
X250933600Y-63486409D01*
X250667620Y-63088342D01*
X250377000Y-62894156D01*
X250377000Y-62010365D01*
X250450000Y-62010365D01*
X250608237Y-61980591D01*
X250638251Y-61961277D01*
X250790302Y-62113327D01*
X251023691Y-62210000D01*
X251264250Y-62210000D01*
X251423000Y-62051250D01*
X251423000Y-61327000D01*
X251677000Y-61327000D01*
X251677000Y-62051250D01*
X251835750Y-62210000D01*
X252076309Y-62210000D01*
X252309698Y-62113327D01*
X252488327Y-61934699D01*
X252585000Y-61701310D01*
X252585000Y-61485750D01*
X252426250Y-61327000D01*
X251677000Y-61327000D01*
X251423000Y-61327000D01*
X251403000Y-61327000D01*
X251403000Y-61073000D01*
X251423000Y-61073000D01*
X251423000Y-60348750D01*
X251677000Y-60348750D01*
X251677000Y-61073000D01*
X252426250Y-61073000D01*
X252585000Y-60914250D01*
X252585000Y-60698690D01*
X252488327Y-60465301D01*
X252309698Y-60286673D01*
X252076309Y-60190000D01*
X251835750Y-60190000D01*
X251677000Y-60348750D01*
X251423000Y-60348750D01*
X251264250Y-60190000D01*
X251023691Y-60190000D01*
X250790302Y-60286673D01*
X250639376Y-60437598D01*
X250619381Y-60423936D01*
X250450000Y-60389635D01*
X249650000Y-60389635D01*
X249527000Y-60412779D01*
X249527000Y-59464104D01*
X250849501Y-59464104D01*
X250886648Y-59679217D01*
X251314972Y-59822112D01*
X251765375Y-59790217D01*
X252033352Y-59679217D01*
X252070499Y-59464104D01*
X251460000Y-58853605D01*
X250849501Y-59464104D01*
X249527000Y-59464104D01*
X249527000Y-58528972D01*
X250311888Y-58528972D01*
X250343783Y-58979375D01*
X250454783Y-59247352D01*
X250669896Y-59284499D01*
X251280395Y-58674000D01*
X251639605Y-58674000D01*
X252250104Y-59284499D01*
X252465217Y-59247352D01*
X252595249Y-58857583D01*
X255612839Y-58857583D01*
X255753669Y-59198417D01*
X256014211Y-59459414D01*
X256354799Y-59600839D01*
X256723583Y-59601161D01*
X257064417Y-59460331D01*
X257325414Y-59199789D01*
X257466839Y-58859201D01*
X257467161Y-58490417D01*
X257326331Y-58149583D01*
X257065789Y-57888586D01*
X256725201Y-57747161D01*
X256356417Y-57746839D01*
X256015583Y-57887669D01*
X255754586Y-58148211D01*
X255613161Y-58488799D01*
X255612839Y-58857583D01*
X252595249Y-58857583D01*
X252608112Y-58819028D01*
X252576217Y-58368625D01*
X252465217Y-58100648D01*
X252250104Y-58063501D01*
X251639605Y-58674000D01*
X251280395Y-58674000D01*
X250669896Y-58063501D01*
X250454783Y-58100648D01*
X250311888Y-58528972D01*
X249527000Y-58528972D01*
X249527000Y-57883896D01*
X250849501Y-57883896D01*
X251460000Y-58494395D01*
X252070499Y-57883896D01*
X252033352Y-57668783D01*
X251605028Y-57525888D01*
X251154625Y-57557783D01*
X250886648Y-57668783D01*
X250849501Y-57883896D01*
X249527000Y-57883896D01*
X249527000Y-56610000D01*
X249456436Y-56255252D01*
X249255488Y-55954512D01*
X248954748Y-55753564D01*
X248600000Y-55683000D01*
X245600000Y-55683000D01*
X245245252Y-55753564D01*
X245034124Y-55894635D01*
X244205000Y-55894635D01*
X244063178Y-55923000D01*
X241950000Y-55923000D01*
X241794804Y-55952202D01*
X241652265Y-56043923D01*
X241556642Y-56183873D01*
X241523000Y-56350000D01*
X241523000Y-56783693D01*
X241514635Y-56825000D01*
X241514635Y-57575000D01*
X241523000Y-57619457D01*
X241523000Y-57750000D01*
X241552202Y-57905196D01*
X241643923Y-58047735D01*
X241673000Y-58067602D01*
X241673000Y-58095831D01*
X241646433Y-58112927D01*
X241548936Y-58255619D01*
X241514635Y-58425000D01*
X241514635Y-59175000D01*
X241544409Y-59333237D01*
X241637927Y-59478567D01*
X241780619Y-59576064D01*
X241923000Y-59604897D01*
X241923000Y-59847222D01*
X241848936Y-59955619D01*
X241814635Y-60125000D01*
X241814635Y-60375000D01*
X241839019Y-60504591D01*
X241814635Y-60625000D01*
X241814635Y-60875000D01*
X241839019Y-61004591D01*
X241814635Y-61125000D01*
X241814635Y-61375000D01*
X241839019Y-61504591D01*
X241814635Y-61625000D01*
X241814635Y-61875000D01*
X241844409Y-62033237D01*
X241937927Y-62178567D01*
X242080619Y-62276064D01*
X242250000Y-62310365D01*
X242673000Y-62310365D01*
X242673000Y-65591116D01*
X242612073Y-65496433D01*
X242469381Y-65398936D01*
X242300000Y-65364635D01*
X241800000Y-65364635D01*
X241641763Y-65394409D01*
X241496433Y-65487927D01*
X241398936Y-65630619D01*
X241364635Y-65800000D01*
X241364635Y-66700000D01*
X241394409Y-66858237D01*
X241473000Y-66980370D01*
X241473000Y-66999995D01*
X241472999Y-67000000D01*
X241516922Y-67220808D01*
X241585204Y-67323000D01*
X235612428Y-67323000D01*
X235678711Y-67278711D01*
X236478711Y-66478711D01*
X236513026Y-66427355D01*
X236625466Y-66259077D01*
X236677000Y-66000000D01*
X236677000Y-61455422D01*
X236752094Y-61380328D01*
X236855619Y-61451064D01*
X237025000Y-61485365D01*
X237775000Y-61485365D01*
X237933237Y-61455591D01*
X237977668Y-61427000D01*
X238420400Y-61427000D01*
X238455619Y-61451064D01*
X238625000Y-61485365D01*
X239375000Y-61485365D01*
X239533237Y-61455591D01*
X239678567Y-61362073D01*
X239702531Y-61327000D01*
X239914635Y-61327000D01*
X239914635Y-61375000D01*
X239944409Y-61533237D01*
X240037927Y-61678567D01*
X240143322Y-61750580D01*
X240046433Y-61812927D01*
X239948936Y-61955619D01*
X239914635Y-62125000D01*
X239914635Y-62375000D01*
X239944409Y-62533237D01*
X240023000Y-62655370D01*
X240023000Y-63470831D01*
X239996433Y-63487927D01*
X239898936Y-63630619D01*
X239864635Y-63800000D01*
X239864635Y-64700000D01*
X239894409Y-64858237D01*
X239973000Y-64980370D01*
X239973000Y-65522222D01*
X239898936Y-65630619D01*
X239864635Y-65800000D01*
X239864635Y-66700000D01*
X239894409Y-66858237D01*
X239987927Y-67003567D01*
X240130619Y-67101064D01*
X240300000Y-67135365D01*
X240800000Y-67135365D01*
X240958237Y-67105591D01*
X241103567Y-67012073D01*
X241201064Y-66869381D01*
X241235365Y-66700000D01*
X241235365Y-65800000D01*
X241205591Y-65641763D01*
X241127000Y-65519630D01*
X241127000Y-64977778D01*
X241201064Y-64869381D01*
X241235365Y-64700000D01*
X241235365Y-63800000D01*
X241205591Y-63641763D01*
X241177000Y-63597332D01*
X241177000Y-62652778D01*
X241251064Y-62544381D01*
X241285365Y-62375000D01*
X241285365Y-62125000D01*
X241255591Y-61966763D01*
X241162073Y-61821433D01*
X241056678Y-61749420D01*
X241153567Y-61687073D01*
X241251064Y-61544381D01*
X241285365Y-61375000D01*
X241285365Y-61125000D01*
X241260981Y-60995409D01*
X241285365Y-60875000D01*
X241285365Y-60625000D01*
X241255591Y-60466763D01*
X241162073Y-60321433D01*
X241019381Y-60223936D01*
X240850000Y-60189635D01*
X240683629Y-60189635D01*
X240600000Y-60173000D01*
X239795877Y-60173000D01*
X239780591Y-60091763D01*
X239687073Y-59946433D01*
X239544381Y-59848936D01*
X239375000Y-59814635D01*
X238625000Y-59814635D01*
X238466763Y-59844409D01*
X238321433Y-59937927D01*
X238229142Y-60073000D01*
X238168517Y-60073000D01*
X238087073Y-59946433D01*
X237944381Y-59848936D01*
X237775000Y-59814635D01*
X237025000Y-59814635D01*
X236866763Y-59844409D01*
X236721433Y-59937927D01*
X236697469Y-59973000D01*
X236525000Y-59973000D01*
X236265923Y-60024534D01*
X236072752Y-60153607D01*
X236046289Y-60171289D01*
X235521289Y-60696289D01*
X235374534Y-60915923D01*
X235323000Y-61175000D01*
X235323000Y-65719578D01*
X234919578Y-66123000D01*
X233536586Y-66123000D01*
X233553567Y-66112073D01*
X233651064Y-65969381D01*
X233685365Y-65800000D01*
X233685365Y-64900000D01*
X233655591Y-64741763D01*
X233562073Y-64596433D01*
X233419381Y-64498936D01*
X233250000Y-64464635D01*
X232609313Y-64464635D01*
X232400000Y-64423000D01*
X228037976Y-64423000D01*
X229303976Y-63157000D01*
X232409123Y-63157000D01*
X232424409Y-63238237D01*
X232517927Y-63383567D01*
X232660619Y-63481064D01*
X232830000Y-63515365D01*
X234530000Y-63515365D01*
X234688237Y-63485591D01*
X234833567Y-63392073D01*
X234931064Y-63249381D01*
X234965365Y-63080000D01*
X234965365Y-61380000D01*
X234935591Y-61221763D01*
X234842073Y-61076433D01*
X234699381Y-60978936D01*
X234530000Y-60944635D01*
X233817454Y-60944635D01*
X234193705Y-60869794D01*
X234607993Y-60592975D01*
X234884812Y-60178687D01*
X234982018Y-59690000D01*
X234884812Y-59201313D01*
X234607993Y-58787025D01*
X234193705Y-58510206D01*
X233705018Y-58413000D01*
X233654982Y-58413000D01*
X233166295Y-58510206D01*
X232752007Y-58787025D01*
X232475188Y-59201313D01*
X232377982Y-59690000D01*
X232475188Y-60178687D01*
X232752007Y-60592975D01*
X233166295Y-60869794D01*
X233542546Y-60944635D01*
X232830000Y-60944635D01*
X232671763Y-60974409D01*
X232526433Y-61067927D01*
X232428936Y-61210619D01*
X232410228Y-61303000D01*
X228920000Y-61303000D01*
X228565252Y-61373564D01*
X228309606Y-61544381D01*
X228264512Y-61574512D01*
X225416024Y-64423000D01*
X225400000Y-64423000D01*
X225190687Y-64464635D01*
X224550000Y-64464635D01*
X224391763Y-64494409D01*
X224246433Y-64587927D01*
X224148936Y-64730619D01*
X224114635Y-64900000D01*
X224114635Y-65800000D01*
X224144409Y-65958237D01*
X224237927Y-66103567D01*
X224296499Y-66143588D01*
X224140923Y-66174534D01*
X224014396Y-66259077D01*
X223921289Y-66321289D01*
X223502000Y-66740578D01*
X223502000Y-55502000D01*
X253320982Y-55502000D01*
X253214586Y-55608211D01*
X253214586Y-55608211D01*
G37*
X253214586Y-55608211D02*
X253073161Y-55948799D01*
X253072839Y-56317583D01*
X253213669Y-56658417D01*
X253474211Y-56919414D01*
X253814799Y-57060839D01*
X254183583Y-57061161D01*
X254524417Y-56920331D01*
X254785414Y-56659789D01*
X254926839Y-56319201D01*
X254927161Y-55950417D01*
X254786331Y-55609583D01*
X254678936Y-55502000D01*
X264498000Y-55502000D01*
X264498000Y-119498000D01*
X223502000Y-119498000D01*
X223502000Y-99459422D01*
X225720872Y-101678294D01*
X225816010Y-101773598D01*
X226064746Y-101876882D01*
X226334073Y-101877117D01*
X226582989Y-101774267D01*
X226623000Y-101734326D01*
X226623000Y-106599995D01*
X226622999Y-106600000D01*
X226666922Y-106820808D01*
X226791999Y-107008001D01*
X231423000Y-111639002D01*
X231423000Y-113769995D01*
X231422999Y-113770000D01*
X231466922Y-113990808D01*
X231591999Y-114178001D01*
X232121997Y-114707998D01*
X232121999Y-114708001D01*
X232309192Y-114833078D01*
X232394635Y-114850074D01*
X232394635Y-115150000D01*
X232424409Y-115308237D01*
X232517927Y-115453567D01*
X232660619Y-115551064D01*
X232830000Y-115585365D01*
X234530000Y-115585365D01*
X234688237Y-115555591D01*
X234833567Y-115462073D01*
X234931064Y-115319381D01*
X234948294Y-115234296D01*
X235271997Y-115557998D01*
X235271999Y-115558001D01*
X235312953Y-115585365D01*
X235459192Y-115683078D01*
X235680000Y-115727001D01*
X235680005Y-115727000D01*
X236156483Y-115727000D01*
X236237927Y-115853567D01*
X236380619Y-115951064D01*
X236550000Y-115985365D01*
X237450000Y-115985365D01*
X237608237Y-115955591D01*
X237753567Y-115862073D01*
X237851064Y-115719381D01*
X237885365Y-115550000D01*
X237885365Y-114750000D01*
X237855591Y-114591763D01*
X237762073Y-114446433D01*
X237619381Y-114348936D01*
X237450000Y-114314635D01*
X236550000Y-114314635D01*
X236391763Y-114344409D01*
X236246433Y-114437927D01*
X236154142Y-114573000D01*
X235919001Y-114573000D01*
X235238001Y-113891999D01*
X235050808Y-113766922D01*
X234965365Y-113749926D01*
X234965365Y-113450000D01*
X234935591Y-113291763D01*
X234842073Y-113146433D01*
X234699381Y-113048936D01*
X234530000Y-113014635D01*
X233817454Y-113014635D01*
X234193705Y-112939794D01*
X234607993Y-112662975D01*
X234825803Y-112337000D01*
X235970998Y-112337000D01*
X236216189Y-112582191D01*
X236148936Y-112680619D01*
X236114635Y-112850000D01*
X236114635Y-113650000D01*
X236144409Y-113808237D01*
X236237927Y-113953567D01*
X236380619Y-114051064D01*
X236550000Y-114085365D01*
X237450000Y-114085365D01*
X237608237Y-114055591D01*
X237753567Y-113962073D01*
X237851064Y-113819381D01*
X237885365Y-113650000D01*
X237885365Y-112850000D01*
X237855591Y-112691763D01*
X237762073Y-112546433D01*
X237619381Y-112448936D01*
X237554275Y-112435751D01*
X237533078Y-112329192D01*
X237479287Y-112248687D01*
X237408001Y-112141999D01*
X237407998Y-112141997D01*
X236618001Y-111351999D01*
X236430808Y-111226922D01*
X236210000Y-111182999D01*
X236209995Y-111183000D01*
X234825803Y-111183000D01*
X234607993Y-110857025D01*
X234193705Y-110580206D01*
X233740209Y-110490000D01*
X234193705Y-110399794D01*
X234607993Y-110122975D01*
X234758985Y-109897000D01*
X236914635Y-109897000D01*
X236914635Y-110500000D01*
X236944409Y-110658237D01*
X237037927Y-110803567D01*
X237180619Y-110901064D01*
X237350000Y-110935365D01*
X240850000Y-110935365D01*
X241008237Y-110905591D01*
X241153567Y-110812073D01*
X241251064Y-110669381D01*
X241285365Y-110500000D01*
X241285365Y-108700000D01*
X241255591Y-108541763D01*
X241162073Y-108396433D01*
X241019381Y-108298936D01*
X240850000Y-108264635D01*
X237350000Y-108264635D01*
X237191763Y-108294409D01*
X237046433Y-108387927D01*
X236948936Y-108530619D01*
X236946429Y-108543000D01*
X234758985Y-108543000D01*
X234607993Y-108317025D01*
X234193705Y-108040206D01*
X233705018Y-107943000D01*
X233654982Y-107943000D01*
X233166295Y-108040206D01*
X232752007Y-108317025D01*
X232475188Y-108731313D01*
X232377982Y-109220000D01*
X232475188Y-109708687D01*
X232536603Y-109800601D01*
X228577000Y-105840998D01*
X228577000Y-102534073D01*
X239722883Y-102534073D01*
X239825733Y-102782989D01*
X240016010Y-102973598D01*
X240016294Y-102973716D01*
X241721288Y-104678711D01*
X241831106Y-104752089D01*
X241940923Y-104825466D01*
X242200000Y-104877000D01*
X242914635Y-104877000D01*
X242914635Y-105850000D01*
X242944409Y-106008237D01*
X243037927Y-106153567D01*
X243180619Y-106251064D01*
X243350000Y-106285365D01*
X243423000Y-106285365D01*
X243423000Y-108264635D01*
X242350000Y-108264635D01*
X242191763Y-108294409D01*
X242046433Y-108387927D01*
X241948936Y-108530619D01*
X241914635Y-108700000D01*
X241914635Y-110500000D01*
X241944409Y-110658237D01*
X242037927Y-110803567D01*
X242180619Y-110901064D01*
X242350000Y-110935365D01*
X245850000Y-110935365D01*
X246008237Y-110905591D01*
X246153567Y-110812073D01*
X246251064Y-110669381D01*
X246285365Y-110500000D01*
X246285365Y-108700000D01*
X246255591Y-108541763D01*
X246162073Y-108396433D01*
X246019381Y-108298936D01*
X245850000Y-108264635D01*
X244777000Y-108264635D01*
X244777000Y-106285365D01*
X245850000Y-106285365D01*
X246008237Y-106255591D01*
X246153567Y-106162073D01*
X246251064Y-106019381D01*
X246285365Y-105850000D01*
X246285365Y-102550000D01*
X246255591Y-102391763D01*
X246162073Y-102246433D01*
X246019381Y-102148936D01*
X245850000Y-102114635D01*
X243350000Y-102114635D01*
X243191763Y-102144409D01*
X243046433Y-102237927D01*
X242948936Y-102380619D01*
X242914635Y-102550000D01*
X242914635Y-103523000D01*
X242480423Y-103523000D01*
X240879128Y-101921706D01*
X240783990Y-101826402D01*
X240535254Y-101723118D01*
X240265927Y-101722883D01*
X240017011Y-101825733D01*
X239826402Y-102016010D01*
X239723118Y-102264746D01*
X239722883Y-102534073D01*
X228577000Y-102534073D01*
X228577000Y-100600005D01*
X228577001Y-100600000D01*
X228533078Y-100379192D01*
X228408001Y-100191999D01*
X227250075Y-99034073D01*
X239822883Y-99034073D01*
X239925733Y-99282989D01*
X240116010Y-99473598D01*
X240364746Y-99576882D01*
X240634073Y-99577117D01*
X240882989Y-99474267D01*
X241073598Y-99283990D01*
X241176882Y-99035254D01*
X241176940Y-98968350D01*
X241272645Y-98872646D01*
X241354594Y-98750000D01*
X241386885Y-98701674D01*
X241405047Y-98610365D01*
X241430000Y-98610365D01*
X241588237Y-98580591D01*
X241733567Y-98487073D01*
X241831064Y-98344381D01*
X241865365Y-98175000D01*
X241865365Y-97525000D01*
X241835591Y-97366763D01*
X241742073Y-97221433D01*
X241599381Y-97123936D01*
X241430000Y-97089635D01*
X240370000Y-97089635D01*
X240211763Y-97119409D01*
X240066433Y-97212927D01*
X239968936Y-97355619D01*
X239934635Y-97525000D01*
X239934635Y-98175000D01*
X239964409Y-98333237D01*
X240021155Y-98421422D01*
X239926402Y-98516010D01*
X239823118Y-98764746D01*
X239822883Y-99034073D01*
X227250075Y-99034073D01*
X225777000Y-97560998D01*
X225777000Y-96183583D01*
X234272839Y-96183583D01*
X234413669Y-96524417D01*
X234674211Y-96785414D01*
X235014799Y-96926839D01*
X235383583Y-96927161D01*
X235383973Y-96927000D01*
X236948631Y-96927000D01*
X237200000Y-96977000D01*
X239200000Y-96977000D01*
X239554748Y-96906436D01*
X239590706Y-96882410D01*
X239733237Y-96855591D01*
X239878567Y-96762073D01*
X239902531Y-96727000D01*
X240800000Y-96727000D01*
X240883629Y-96710365D01*
X241430000Y-96710365D01*
X241588237Y-96680591D01*
X241733567Y-96587073D01*
X241831064Y-96444381D01*
X241865365Y-96275000D01*
X241865365Y-95625000D01*
X241835591Y-95466763D01*
X241742073Y-95321433D01*
X241599381Y-95223936D01*
X241430000Y-95189635D01*
X240370000Y-95189635D01*
X240211763Y-95219409D01*
X240066433Y-95312927D01*
X240025387Y-95373000D01*
X239904169Y-95373000D01*
X239887073Y-95346433D01*
X239744381Y-95248936D01*
X239591190Y-95217914D01*
X239554748Y-95193564D01*
X239200000Y-95123000D01*
X237401366Y-95123000D01*
X237150000Y-95073000D01*
X235200809Y-95073000D01*
X235016417Y-95072839D01*
X234675583Y-95213669D01*
X234414586Y-95474211D01*
X234273161Y-95814799D01*
X234272839Y-96183583D01*
X225777000Y-96183583D01*
X225777000Y-86700000D01*
X231189635Y-86700000D01*
X231189635Y-88000000D01*
X231219409Y-88158237D01*
X231312927Y-88303567D01*
X231455619Y-88401064D01*
X231625000Y-88435365D01*
X231875000Y-88435365D01*
X232004591Y-88410981D01*
X232125000Y-88435365D01*
X232147603Y-88435365D01*
X232073118Y-88614746D01*
X232072883Y-88884073D01*
X232175733Y-89132989D01*
X232366010Y-89323598D01*
X232614746Y-89426882D01*
X232884073Y-89427117D01*
X233132989Y-89324267D01*
X233323598Y-89133990D01*
X233426882Y-88885254D01*
X233427117Y-88615927D01*
X233421846Y-88603170D01*
X233498690Y-88635000D01*
X233528750Y-88635000D01*
X233687500Y-88476250D01*
X233687500Y-88298999D01*
X233750580Y-88206678D01*
X233812500Y-88302903D01*
X233812500Y-88476250D01*
X233971250Y-88635000D01*
X234001310Y-88635000D01*
X234234699Y-88538327D01*
X234337660Y-88435365D01*
X234375000Y-88435365D01*
X234504591Y-88410981D01*
X234625000Y-88435365D01*
X234673000Y-88435365D01*
X234673000Y-88774995D01*
X234672999Y-88775000D01*
X234716922Y-88995808D01*
X234778782Y-89088389D01*
X234475583Y-89213669D01*
X234214586Y-89474211D01*
X234073161Y-89814799D01*
X234072839Y-90183583D01*
X234213669Y-90524417D01*
X234474211Y-90785414D01*
X234814799Y-90926839D01*
X235183583Y-90927161D01*
X235183973Y-90927000D01*
X235573000Y-90927000D01*
X235573000Y-91750000D01*
X235643564Y-92104748D01*
X235667590Y-92140706D01*
X235694409Y-92283237D01*
X235787927Y-92428567D01*
X235930619Y-92526064D01*
X236065996Y-92553479D01*
X236145252Y-92606436D01*
X236500000Y-92677000D01*
X236854748Y-92606436D01*
X236932988Y-92554158D01*
X237058237Y-92530591D01*
X237088251Y-92511277D01*
X237240302Y-92663327D01*
X237473691Y-92760000D01*
X237714250Y-92760000D01*
X237873000Y-92601250D01*
X237873000Y-91877000D01*
X238127000Y-91877000D01*
X238127000Y-92601250D01*
X238285750Y-92760000D01*
X238526309Y-92760000D01*
X238759698Y-92663327D01*
X238938327Y-92484699D01*
X239035000Y-92251310D01*
X239035000Y-92035750D01*
X238876250Y-91877000D01*
X238127000Y-91877000D01*
X237873000Y-91877000D01*
X237853000Y-91877000D01*
X237853000Y-91623000D01*
X237873000Y-91623000D01*
X237873000Y-90898750D01*
X237849250Y-90875000D01*
X237873000Y-90851250D01*
X237873000Y-90127000D01*
X238127000Y-90127000D01*
X238127000Y-90851250D01*
X238150750Y-90875000D01*
X238127000Y-90898750D01*
X238127000Y-91623000D01*
X238876250Y-91623000D01*
X239035000Y-91464250D01*
X239035000Y-91248690D01*
X238938327Y-91015301D01*
X238856609Y-90933583D01*
X241822839Y-90933583D01*
X241963669Y-91274417D01*
X242224211Y-91535414D01*
X242224599Y-91535575D01*
X245473000Y-94783976D01*
X245473000Y-95336817D01*
X245344381Y-95248936D01*
X245175000Y-95214635D01*
X244425000Y-95214635D01*
X244266763Y-95244409D01*
X244222332Y-95273000D01*
X243871189Y-95273000D01*
X243799381Y-95223936D01*
X243630000Y-95189635D01*
X242570000Y-95189635D01*
X242411763Y-95219409D01*
X242266433Y-95312927D01*
X242168936Y-95455619D01*
X242134635Y-95625000D01*
X242134635Y-96275000D01*
X242164409Y-96433237D01*
X242257927Y-96578567D01*
X242400619Y-96676064D01*
X242570000Y-96710365D01*
X243630000Y-96710365D01*
X243788237Y-96680591D01*
X243871519Y-96627000D01*
X244031483Y-96627000D01*
X244112927Y-96753567D01*
X244255619Y-96851064D01*
X244425000Y-96885365D01*
X245175000Y-96885365D01*
X245333237Y-96855591D01*
X245478567Y-96762073D01*
X245502531Y-96727000D01*
X245695831Y-96727000D01*
X245712927Y-96753567D01*
X245855619Y-96851064D01*
X246008810Y-96882086D01*
X246045252Y-96906436D01*
X246400000Y-96977000D01*
X246754748Y-96906436D01*
X246790706Y-96882410D01*
X246933237Y-96855591D01*
X247078567Y-96762073D01*
X247176064Y-96619381D01*
X247203479Y-96484004D01*
X247256436Y-96404748D01*
X247327000Y-96050000D01*
X247327000Y-96000000D01*
X249022999Y-96000000D01*
X249023000Y-96000005D01*
X249023000Y-99149995D01*
X249022999Y-99150000D01*
X249066922Y-99370808D01*
X249191999Y-99558001D01*
X250764635Y-101130637D01*
X250764635Y-101650000D01*
X250794409Y-101808237D01*
X250873000Y-101930370D01*
X250873000Y-102049995D01*
X250872999Y-102050000D01*
X250873000Y-102050005D01*
X250873000Y-103072222D01*
X250798936Y-103180619D01*
X250764635Y-103350000D01*
X250764635Y-104250000D01*
X250794409Y-104408237D01*
X250846198Y-104488718D01*
X250783990Y-104426402D01*
X250535254Y-104323118D01*
X250265927Y-104322883D01*
X250017011Y-104425733D01*
X249826402Y-104616010D01*
X249723118Y-104864746D01*
X249722883Y-105134073D01*
X249825733Y-105382989D01*
X250016010Y-105573598D01*
X250264746Y-105676882D01*
X250310921Y-105676922D01*
X250764635Y-106130636D01*
X250764635Y-106450000D01*
X250794409Y-106608237D01*
X250887927Y-106753567D01*
X251030619Y-106851064D01*
X251200000Y-106885365D01*
X251700000Y-106885365D01*
X251858237Y-106855591D01*
X252003567Y-106762073D01*
X252101064Y-106619381D01*
X252135365Y-106450000D01*
X252135365Y-106130637D01*
X252264635Y-106001367D01*
X252264635Y-106450000D01*
X252294409Y-106608237D01*
X252387927Y-106753567D01*
X252530619Y-106851064D01*
X252700000Y-106885365D01*
X253200000Y-106885365D01*
X253358237Y-106855591D01*
X253503567Y-106762073D01*
X253601064Y-106619381D01*
X253609646Y-106577000D01*
X256339995Y-106577000D01*
X256340000Y-106577001D01*
X256560808Y-106533078D01*
X256748001Y-106408001D01*
X258104404Y-105051597D01*
X258181839Y-105067000D01*
X258218161Y-105067000D01*
X258572909Y-104996436D01*
X258873649Y-104795488D01*
X259074597Y-104494748D01*
X259145161Y-104140000D01*
X259074597Y-103785252D01*
X258887339Y-103505000D01*
X259074597Y-103224748D01*
X259145161Y-102870000D01*
X259074597Y-102515252D01*
X258887339Y-102235000D01*
X259074597Y-101954748D01*
X259145161Y-101600000D01*
X259074597Y-101245252D01*
X258887339Y-100965000D01*
X258929003Y-100902645D01*
X259127914Y-100863078D01*
X259315107Y-100738001D01*
X259408001Y-100645107D01*
X259482719Y-100533283D01*
X259607998Y-100408003D01*
X259608001Y-100408001D01*
X259733078Y-100220808D01*
X259738809Y-100191999D01*
X259777001Y-100000000D01*
X259777000Y-99999995D01*
X259777000Y-97400005D01*
X259777001Y-97400000D01*
X259733078Y-97179192D01*
X259608001Y-96991999D01*
X259607998Y-96991997D01*
X258008001Y-95391999D01*
X257820808Y-95266922D01*
X257600000Y-95222999D01*
X257599995Y-95223000D01*
X252600000Y-95223000D01*
X252379191Y-95266922D01*
X252310340Y-95312927D01*
X252191999Y-95391999D01*
X252191997Y-95392002D01*
X251791999Y-95791999D01*
X251666922Y-95979192D01*
X251622999Y-96200000D01*
X251623000Y-96200005D01*
X251623000Y-96314635D01*
X251200000Y-96314635D01*
X251141622Y-96325620D01*
X251073729Y-96257727D01*
X250974267Y-96017011D01*
X250783990Y-95826402D01*
X250646635Y-95769367D01*
X254808001Y-91608001D01*
X254933078Y-91420808D01*
X254977000Y-91200000D01*
X254977000Y-90833840D01*
X255185414Y-90625789D01*
X255201965Y-90585930D01*
X255258506Y-90501310D01*
X255356436Y-90354748D01*
X255427000Y-90000000D01*
X255427000Y-87926936D01*
X255573064Y-87927064D01*
X255572883Y-88134073D01*
X255675733Y-88382989D01*
X255866010Y-88573598D01*
X256114746Y-88676882D01*
X256384073Y-88677117D01*
X256632989Y-88574267D01*
X256823598Y-88383990D01*
X256926882Y-88135254D01*
X256927117Y-87865927D01*
X256824267Y-87617011D01*
X256777000Y-87569662D01*
X256777000Y-79762290D01*
X257250349Y-80235639D01*
X257157982Y-80700000D01*
X257255188Y-81188687D01*
X257532007Y-81602975D01*
X257946295Y-81879794D01*
X258399791Y-81970000D01*
X257946295Y-82060206D01*
X257532007Y-82337025D01*
X257255188Y-82751313D01*
X257157982Y-83240000D01*
X257255188Y-83728687D01*
X257532007Y-84142975D01*
X257946295Y-84419794D01*
X258399791Y-84510000D01*
X257946295Y-84600206D01*
X257532007Y-84877025D01*
X257255188Y-85291313D01*
X257157982Y-85780000D01*
X257255188Y-86268687D01*
X257532007Y-86682975D01*
X257946295Y-86959794D01*
X258399791Y-87050000D01*
X257946295Y-87140206D01*
X257532007Y-87417025D01*
X257255188Y-87831313D01*
X257157982Y-88320000D01*
X257255188Y-88808687D01*
X257532007Y-89222975D01*
X257946295Y-89499794D01*
X258399791Y-89590000D01*
X257946295Y-89680206D01*
X257532007Y-89957025D01*
X257255188Y-90371313D01*
X257157982Y-90860000D01*
X257255188Y-91348687D01*
X257532007Y-91762975D01*
X257946295Y-92039794D01*
X258434982Y-92137000D01*
X258485018Y-92137000D01*
X258973705Y-92039794D01*
X259387993Y-91762975D01*
X259664812Y-91348687D01*
X259730000Y-91020965D01*
X259795188Y-91348687D01*
X260072007Y-91762975D01*
X260486295Y-92039794D01*
X260974982Y-92137000D01*
X261025018Y-92137000D01*
X261513705Y-92039794D01*
X261927993Y-91762975D01*
X262204812Y-91348687D01*
X262302018Y-90860000D01*
X262204812Y-90371313D01*
X261927993Y-89957025D01*
X261513705Y-89680206D01*
X261060209Y-89590000D01*
X261513705Y-89499794D01*
X261927993Y-89222975D01*
X262204812Y-88808687D01*
X262302018Y-88320000D01*
X262204812Y-87831313D01*
X261927993Y-87417025D01*
X261513705Y-87140206D01*
X261060209Y-87050000D01*
X261513705Y-86959794D01*
X261927993Y-86682975D01*
X262204812Y-86268687D01*
X262302018Y-85780000D01*
X262204812Y-85291313D01*
X261927993Y-84877025D01*
X261513705Y-84600206D01*
X261060209Y-84510000D01*
X261513705Y-84419794D01*
X261927993Y-84142975D01*
X262204812Y-83728687D01*
X262302018Y-83240000D01*
X262204812Y-82751313D01*
X261927993Y-82337025D01*
X261513705Y-82060206D01*
X261060209Y-81970000D01*
X261513705Y-81879794D01*
X261927993Y-81602975D01*
X262204812Y-81188687D01*
X262302018Y-80700000D01*
X262204812Y-80211313D01*
X261927993Y-79797025D01*
X261513705Y-79520206D01*
X261060209Y-79430000D01*
X261513705Y-79339794D01*
X261927993Y-79062975D01*
X262204812Y-78648687D01*
X262302018Y-78160000D01*
X262204812Y-77671313D01*
X261927993Y-77257025D01*
X261520417Y-76984691D01*
X261881358Y-76815183D01*
X262271645Y-76386924D01*
X262441476Y-75976890D01*
X262320155Y-75747000D01*
X261127000Y-75747000D01*
X261127000Y-75767000D01*
X260873000Y-75767000D01*
X260873000Y-75747000D01*
X260853000Y-75747000D01*
X260853000Y-75493000D01*
X260873000Y-75493000D01*
X260873000Y-75473000D01*
X261127000Y-75473000D01*
X261127000Y-75493000D01*
X262320155Y-75493000D01*
X262441476Y-75263110D01*
X262271645Y-74853076D01*
X261881358Y-74424817D01*
X261520417Y-74255309D01*
X261927993Y-73982975D01*
X262204812Y-73568687D01*
X262302018Y-73080000D01*
X262204812Y-72591313D01*
X261927993Y-72177025D01*
X261513705Y-71900206D01*
X261060209Y-71810000D01*
X261513705Y-71719794D01*
X261927993Y-71442975D01*
X262204812Y-71028687D01*
X262302018Y-70540000D01*
X262204812Y-70051313D01*
X261927993Y-69637025D01*
X261700472Y-69485000D01*
X261976309Y-69485000D01*
X262209698Y-69388327D01*
X262388327Y-69209699D01*
X262485000Y-68976310D01*
X262485000Y-68285750D01*
X262326250Y-68127000D01*
X261127000Y-68127000D01*
X261127000Y-68147000D01*
X260873000Y-68147000D01*
X260873000Y-68127000D01*
X258587000Y-68127000D01*
X258587000Y-68147000D01*
X258333000Y-68147000D01*
X258333000Y-68127000D01*
X257139845Y-68127000D01*
X257018524Y-68356890D01*
X257188355Y-68766924D01*
X257578642Y-69195183D01*
X257939583Y-69364691D01*
X257532007Y-69637025D01*
X257255188Y-70051313D01*
X257157982Y-70540000D01*
X257255188Y-71028687D01*
X257532007Y-71442975D01*
X257946295Y-71719794D01*
X258399791Y-71810000D01*
X257946295Y-71900206D01*
X257532007Y-72177025D01*
X257255188Y-72591313D01*
X257157982Y-73080000D01*
X257250349Y-73544361D01*
X255417355Y-75377355D01*
X255362379Y-75459632D01*
X255286331Y-75275583D01*
X255025789Y-75014586D01*
X254685201Y-74873161D01*
X254316417Y-74872839D01*
X253975583Y-75013669D01*
X253714586Y-75274211D01*
X253573161Y-75614799D01*
X253572839Y-75983583D01*
X253573000Y-75983973D01*
X253573000Y-89674361D01*
X253473161Y-89914799D01*
X253472839Y-90283583D01*
X253613669Y-90624417D01*
X253823000Y-90834114D01*
X253823000Y-90960998D01*
X249191999Y-95591999D01*
X249066922Y-95779192D01*
X249022999Y-96000000D01*
X247327000Y-96000000D01*
X247327000Y-94400000D01*
X247256437Y-94045253D01*
X247055488Y-93744512D01*
X243424152Y-90113176D01*
X243503567Y-90062073D01*
X243601064Y-89919381D01*
X243635365Y-89750000D01*
X243635365Y-89250000D01*
X243605591Y-89091763D01*
X243512073Y-88946433D01*
X243369381Y-88848936D01*
X243200000Y-88814635D01*
X242300000Y-88814635D01*
X242141763Y-88844409D01*
X241996433Y-88937927D01*
X241898936Y-89080619D01*
X241864635Y-89250000D01*
X241864635Y-89750000D01*
X241894409Y-89908237D01*
X241987927Y-90053567D01*
X242075552Y-90113438D01*
X241964586Y-90224211D01*
X241823161Y-90564799D01*
X241822839Y-90933583D01*
X238856609Y-90933583D01*
X238798025Y-90875000D01*
X238938327Y-90734699D01*
X239035000Y-90501310D01*
X239035000Y-90285750D01*
X238876250Y-90127000D01*
X238127000Y-90127000D01*
X237873000Y-90127000D01*
X237853000Y-90127000D01*
X237853000Y-89873000D01*
X237873000Y-89873000D01*
X237873000Y-89148750D01*
X238127000Y-89148750D01*
X238127000Y-89873000D01*
X238876250Y-89873000D01*
X239035000Y-89714250D01*
X239035000Y-89498690D01*
X238938327Y-89265301D01*
X238759698Y-89086673D01*
X238526309Y-88990000D01*
X238285750Y-88990000D01*
X238127000Y-89148750D01*
X237873000Y-89148750D01*
X237714250Y-88990000D01*
X237473691Y-88990000D01*
X237240302Y-89086673D01*
X237089376Y-89237598D01*
X237069381Y-89223936D01*
X236934004Y-89196521D01*
X236854748Y-89143564D01*
X236500000Y-89073000D01*
X236364002Y-89073000D01*
X235827000Y-88535998D01*
X235827000Y-88435365D01*
X235875000Y-88435365D01*
X236004591Y-88410981D01*
X236125000Y-88435365D01*
X236375000Y-88435365D01*
X236504591Y-88410981D01*
X236625000Y-88435365D01*
X236875000Y-88435365D01*
X237004591Y-88410981D01*
X237125000Y-88435365D01*
X237375000Y-88435365D01*
X237533237Y-88405591D01*
X237678567Y-88312073D01*
X237776064Y-88169381D01*
X237810365Y-88000000D01*
X237810365Y-86700000D01*
X237780591Y-86541763D01*
X237687073Y-86396433D01*
X237544381Y-86298936D01*
X237375000Y-86264635D01*
X237125000Y-86264635D01*
X236995409Y-86289019D01*
X236875000Y-86264635D01*
X236625000Y-86264635D01*
X236495409Y-86289019D01*
X236375000Y-86264635D01*
X236125000Y-86264635D01*
X235995409Y-86289019D01*
X235875000Y-86264635D01*
X235625000Y-86264635D01*
X235495409Y-86289019D01*
X235375000Y-86264635D01*
X235125000Y-86264635D01*
X234995409Y-86289019D01*
X234875000Y-86264635D01*
X234625000Y-86264635D01*
X234495409Y-86289019D01*
X234375000Y-86264635D01*
X234337660Y-86264635D01*
X234234699Y-86161673D01*
X234001310Y-86065000D01*
X233971250Y-86065000D01*
X233812500Y-86223750D01*
X233812500Y-86401001D01*
X233749420Y-86493322D01*
X233687500Y-86397097D01*
X233687500Y-86223750D01*
X233528750Y-86065000D01*
X233498690Y-86065000D01*
X233265301Y-86161673D01*
X233162340Y-86264635D01*
X233125000Y-86264635D01*
X232995409Y-86289019D01*
X232875000Y-86264635D01*
X232625000Y-86264635D01*
X232495409Y-86289019D01*
X232375000Y-86264635D01*
X232125000Y-86264635D01*
X231995409Y-86289019D01*
X231875000Y-86264635D01*
X231625000Y-86264635D01*
X231466763Y-86294409D01*
X231321433Y-86387927D01*
X231223936Y-86530619D01*
X231189635Y-86700000D01*
X225777000Y-86700000D01*
X225777000Y-73859380D01*
X225982989Y-73774267D01*
X226173598Y-73583990D01*
X226276882Y-73335254D01*
X226277117Y-73065927D01*
X226174267Y-72817011D01*
X226086705Y-72729296D01*
X226942272Y-71873729D01*
X227182989Y-71774267D01*
X227373598Y-71583990D01*
X227476882Y-71335254D01*
X227477117Y-71065927D01*
X227374267Y-70817011D01*
X227183990Y-70626402D01*
X226935254Y-70523118D01*
X226665927Y-70522883D01*
X226417011Y-70625733D01*
X226226402Y-70816010D01*
X226125863Y-71058136D01*
X224277000Y-72906998D01*
X224277000Y-69030264D01*
X224380619Y-69101064D01*
X224550000Y-69135365D01*
X225190687Y-69135365D01*
X225400000Y-69177000D01*
X231612024Y-69177000D01*
X231144512Y-69644512D01*
X230943564Y-69945252D01*
X230873000Y-70300000D01*
X230873000Y-72616024D01*
X227744798Y-75744226D01*
X227614586Y-75874211D01*
X227473161Y-76214799D01*
X227472839Y-76583583D01*
X227613669Y-76924417D01*
X227874211Y-77185414D01*
X228214799Y-77326839D01*
X228583583Y-77327161D01*
X228924417Y-77186331D01*
X229185414Y-76925789D01*
X229185575Y-76925401D01*
X230465000Y-75645976D01*
X230465000Y-75751310D01*
X230561673Y-75984699D01*
X230740302Y-76163327D01*
X230973691Y-76260000D01*
X231214250Y-76260000D01*
X231373000Y-76101250D01*
X231373000Y-75377000D01*
X231353000Y-75377000D01*
X231353000Y-75123000D01*
X231373000Y-75123000D01*
X231373000Y-75103000D01*
X231627000Y-75103000D01*
X231627000Y-75123000D01*
X231647000Y-75123000D01*
X231647000Y-75377000D01*
X231627000Y-75377000D01*
X231627000Y-76101250D01*
X231785750Y-76260000D01*
X232026309Y-76260000D01*
X232259698Y-76163327D01*
X232410624Y-76012402D01*
X232430619Y-76026064D01*
X232443627Y-76028698D01*
X232466922Y-76145808D01*
X232591999Y-76333001D01*
X233173000Y-76914001D01*
X233173000Y-77365000D01*
X233122998Y-77365000D01*
X233122998Y-77415405D01*
X233048153Y-77384403D01*
X233028750Y-77365000D01*
X232971250Y-77365000D01*
X232951847Y-77384403D01*
X232765301Y-77461673D01*
X232687500Y-77539474D01*
X232687500Y-77523750D01*
X232528750Y-77365000D01*
X232498690Y-77365000D01*
X232265301Y-77461673D01*
X232162340Y-77564635D01*
X232125000Y-77564635D01*
X231995409Y-77589019D01*
X231875000Y-77564635D01*
X231625000Y-77564635D01*
X231466763Y-77594409D01*
X231321433Y-77687927D01*
X231223936Y-77830619D01*
X231189635Y-78000000D01*
X231189635Y-79300000D01*
X231219409Y-79458237D01*
X231223000Y-79463818D01*
X231223000Y-80059285D01*
X231205591Y-79966763D01*
X231112073Y-79821433D01*
X230969381Y-79723936D01*
X230800000Y-79689635D01*
X229500000Y-79689635D01*
X229341763Y-79719409D01*
X229196433Y-79812927D01*
X229098936Y-79955619D01*
X229064635Y-80125000D01*
X229064635Y-80375000D01*
X229089019Y-80504591D01*
X229064635Y-80625000D01*
X229064635Y-80875000D01*
X229089019Y-81004591D01*
X229064635Y-81125000D01*
X229064635Y-81375000D01*
X229089019Y-81504591D01*
X229064635Y-81625000D01*
X229064635Y-81875000D01*
X229089019Y-82004591D01*
X229064635Y-82125000D01*
X229064635Y-82375000D01*
X229089019Y-82504591D01*
X229064635Y-82625000D01*
X229064635Y-82875000D01*
X229089019Y-83004591D01*
X229064635Y-83125000D01*
X229064635Y-83375000D01*
X229089019Y-83504591D01*
X229064635Y-83625000D01*
X229064635Y-83875000D01*
X229089019Y-84004591D01*
X229064635Y-84125000D01*
X229064635Y-84375000D01*
X229089019Y-84504591D01*
X229064635Y-84625000D01*
X229064635Y-84875000D01*
X229089019Y-85004591D01*
X229064635Y-85125000D01*
X229064635Y-85375000D01*
X229089019Y-85504591D01*
X229064635Y-85625000D01*
X229064635Y-85875000D01*
X229094409Y-86033237D01*
X229187927Y-86178567D01*
X229330619Y-86276064D01*
X229500000Y-86310365D01*
X230800000Y-86310365D01*
X230958237Y-86280591D01*
X231103567Y-86187073D01*
X231201064Y-86044381D01*
X231235365Y-85875000D01*
X231235365Y-85625000D01*
X231210981Y-85495409D01*
X231235365Y-85375000D01*
X231235365Y-85334073D01*
X236722883Y-85334073D01*
X236825733Y-85582989D01*
X237016010Y-85773598D01*
X237264746Y-85876882D01*
X237534073Y-85877117D01*
X237764635Y-85781851D01*
X237764635Y-85875000D01*
X237794409Y-86033237D01*
X237887927Y-86178567D01*
X238030619Y-86276064D01*
X238200000Y-86310365D01*
X239500000Y-86310365D01*
X239554769Y-86300060D01*
X239627354Y-86372645D01*
X239717682Y-86433000D01*
X239798326Y-86486885D01*
X240000000Y-86527000D01*
X241569493Y-86527000D01*
X241616010Y-86573598D01*
X241864746Y-86676882D01*
X242134073Y-86677117D01*
X242173000Y-86661033D01*
X242173000Y-87338531D01*
X242141763Y-87344409D01*
X241996433Y-87437927D01*
X241898936Y-87580619D01*
X241864635Y-87750000D01*
X241864635Y-88250000D01*
X241894409Y-88408237D01*
X241987927Y-88553567D01*
X242130619Y-88651064D01*
X242300000Y-88685365D01*
X243200000Y-88685365D01*
X243358237Y-88655591D01*
X243503567Y-88562073D01*
X243601064Y-88419381D01*
X243635365Y-88250000D01*
X243635365Y-87750000D01*
X243605591Y-87591763D01*
X243512073Y-87446433D01*
X243369381Y-87348936D01*
X243327000Y-87340354D01*
X243327000Y-85535750D01*
X245490000Y-85535750D01*
X245490000Y-85776309D01*
X245586673Y-86009698D01*
X245765301Y-86188327D01*
X245998690Y-86285000D01*
X246214250Y-86285000D01*
X246373000Y-86126250D01*
X246373000Y-85377000D01*
X246627000Y-85377000D01*
X246627000Y-86126250D01*
X246785750Y-86285000D01*
X247001310Y-86285000D01*
X247234699Y-86188327D01*
X247413327Y-86009698D01*
X247510000Y-85776309D01*
X247510000Y-85535750D01*
X247351250Y-85377000D01*
X246627000Y-85377000D01*
X246373000Y-85377000D01*
X245648750Y-85377000D01*
X245490000Y-85535750D01*
X243327000Y-85535750D01*
X243327000Y-84750005D01*
X243327001Y-84750000D01*
X243283078Y-84529192D01*
X243279020Y-84523118D01*
X243158001Y-84341999D01*
X243157998Y-84341997D01*
X243101752Y-84285750D01*
X243490000Y-84285750D01*
X243490000Y-84526309D01*
X243586673Y-84759698D01*
X243765301Y-84938327D01*
X243998690Y-85035000D01*
X244214250Y-85035000D01*
X244373000Y-84876250D01*
X244373000Y-84127000D01*
X244627000Y-84127000D01*
X244627000Y-84876250D01*
X244785750Y-85035000D01*
X245001310Y-85035000D01*
X245234699Y-84938327D01*
X245413327Y-84759698D01*
X245510000Y-84526309D01*
X245510000Y-84285750D01*
X245351250Y-84127000D01*
X244627000Y-84127000D01*
X244373000Y-84127000D01*
X243648750Y-84127000D01*
X243490000Y-84285750D01*
X243101752Y-84285750D01*
X242658001Y-83841999D01*
X242560722Y-83777000D01*
X243552750Y-83777000D01*
X243648750Y-83873000D01*
X244373000Y-83873000D01*
X244373000Y-83853000D01*
X244627000Y-83853000D01*
X244627000Y-83873000D01*
X245351250Y-83873000D01*
X245447250Y-83777000D01*
X245689635Y-83777000D01*
X245689635Y-84150000D01*
X245719409Y-84308237D01*
X245738723Y-84338251D01*
X245586673Y-84490302D01*
X245490000Y-84723691D01*
X245490000Y-84964250D01*
X245648750Y-85123000D01*
X246373000Y-85123000D01*
X246373000Y-85103000D01*
X246627000Y-85103000D01*
X246627000Y-85123000D01*
X247351250Y-85123000D01*
X247510000Y-84964250D01*
X247510000Y-84723691D01*
X247413327Y-84490302D01*
X247262402Y-84339376D01*
X247276064Y-84319381D01*
X247284646Y-84277000D01*
X248531710Y-84277000D01*
X249564635Y-85309926D01*
X249564635Y-89500000D01*
X249594409Y-89658237D01*
X249687927Y-89803567D01*
X249830619Y-89901064D01*
X250000000Y-89935365D01*
X252000000Y-89935365D01*
X252158237Y-89905591D01*
X252303567Y-89812073D01*
X252401064Y-89669381D01*
X252435365Y-89500000D01*
X252435365Y-85000000D01*
X252405591Y-84841763D01*
X252312073Y-84696433D01*
X252169381Y-84598936D01*
X252000000Y-84564635D01*
X250309926Y-84564635D01*
X249122645Y-83377355D01*
X248951675Y-83263115D01*
X248750000Y-83223000D01*
X247286469Y-83223000D01*
X247280591Y-83191763D01*
X247187073Y-83046433D01*
X247158632Y-83027000D01*
X248500000Y-83027000D01*
X248701675Y-82986885D01*
X248872645Y-82872645D01*
X250309925Y-81435365D01*
X252000000Y-81435365D01*
X252158237Y-81405591D01*
X252303567Y-81312073D01*
X252401064Y-81169381D01*
X252435365Y-81000000D01*
X252435365Y-76500000D01*
X252405591Y-76341763D01*
X252312073Y-76196433D01*
X252169381Y-76098936D01*
X252000000Y-76064635D01*
X250000000Y-76064635D01*
X249841763Y-76094409D01*
X249696433Y-76187927D01*
X249598936Y-76330619D01*
X249564635Y-76500000D01*
X249564635Y-80690075D01*
X248281710Y-81973000D01*
X245286469Y-81973000D01*
X245280591Y-81941763D01*
X245271091Y-81927000D01*
X247375000Y-81927000D01*
X247729748Y-81856436D01*
X248030488Y-81655488D01*
X248455488Y-81230488D01*
X248656437Y-80929747D01*
X248727000Y-80575000D01*
X248727000Y-77200809D01*
X248727161Y-77016417D01*
X248586331Y-76675583D01*
X248325789Y-76414586D01*
X247985201Y-76273161D01*
X247616417Y-76272839D01*
X247275583Y-76413669D01*
X247014586Y-76674211D01*
X246873161Y-77014799D01*
X246872839Y-77383583D01*
X246873000Y-77383973D01*
X246873000Y-78699975D01*
X246734699Y-78561673D01*
X246501310Y-78465000D01*
X246285750Y-78465000D01*
X246127000Y-78623750D01*
X246127000Y-79373000D01*
X246147000Y-79373000D01*
X246147000Y-79627000D01*
X246127000Y-79627000D01*
X246127000Y-79647000D01*
X245873000Y-79647000D01*
X245873000Y-79627000D01*
X244627000Y-79627000D01*
X244627000Y-79647000D01*
X244373000Y-79647000D01*
X244373000Y-79627000D01*
X243648750Y-79627000D01*
X243490000Y-79785750D01*
X243490000Y-80026309D01*
X243586673Y-80259698D01*
X243737598Y-80410624D01*
X243723936Y-80430619D01*
X243696521Y-80565996D01*
X243643564Y-80645252D01*
X243573000Y-81000000D01*
X243595564Y-81113435D01*
X243579445Y-81129553D01*
X243574267Y-81117021D01*
X243383990Y-80926412D01*
X243135254Y-80823128D01*
X243041357Y-80823046D01*
X242951665Y-80763115D01*
X242749990Y-80723000D01*
X241890447Y-80723000D01*
X241926882Y-80635254D01*
X241927117Y-80365927D01*
X241824267Y-80117011D01*
X241633990Y-79926402D01*
X241385254Y-79823118D01*
X241115927Y-79822883D01*
X240927086Y-79900910D01*
X240927117Y-79865927D01*
X240824267Y-79617011D01*
X240633990Y-79426402D01*
X240385254Y-79323118D01*
X240115927Y-79322883D01*
X239867011Y-79425733D01*
X239676402Y-79616010D01*
X239634519Y-79716876D01*
X239500000Y-79689635D01*
X238200000Y-79689635D01*
X238041763Y-79719409D01*
X237896433Y-79812927D01*
X237798936Y-79955619D01*
X237764635Y-80125000D01*
X237764635Y-80323013D01*
X237615927Y-80322883D01*
X237367011Y-80425733D01*
X237176402Y-80616010D01*
X237073118Y-80864746D01*
X237072883Y-81134073D01*
X237175733Y-81382989D01*
X237223000Y-81430338D01*
X237223000Y-81500000D01*
X237263115Y-81701675D01*
X237377355Y-81872645D01*
X237627354Y-82122645D01*
X237727612Y-82189635D01*
X237764635Y-82214373D01*
X237764635Y-82375000D01*
X237789019Y-82504591D01*
X237764635Y-82625000D01*
X237764635Y-82875000D01*
X237789019Y-83004591D01*
X237764635Y-83125000D01*
X237764635Y-83162340D01*
X237661673Y-83265301D01*
X237565000Y-83498690D01*
X237565000Y-83528750D01*
X237723750Y-83687500D01*
X237901001Y-83687500D01*
X237993322Y-83750580D01*
X237897097Y-83812500D01*
X237723750Y-83812500D01*
X237565000Y-83971250D01*
X237565000Y-84001310D01*
X237661673Y-84234699D01*
X237683160Y-84256186D01*
X237648325Y-84263115D01*
X237477355Y-84377355D01*
X237331770Y-84522940D01*
X237265927Y-84522883D01*
X237017011Y-84625733D01*
X236826402Y-84816010D01*
X236723118Y-85064746D01*
X236722883Y-85334073D01*
X231235365Y-85334073D01*
X231235365Y-85125000D01*
X231210981Y-84995409D01*
X231235365Y-84875000D01*
X231235365Y-84625000D01*
X231210981Y-84495409D01*
X231235365Y-84375000D01*
X231235365Y-84125000D01*
X231210981Y-83995409D01*
X231235365Y-83875000D01*
X231235365Y-83625000D01*
X231210981Y-83495409D01*
X231235365Y-83375000D01*
X231235365Y-83336364D01*
X231423000Y-83523999D01*
X231423000Y-84224203D01*
X231323118Y-84464746D01*
X231322883Y-84734073D01*
X231425733Y-84982989D01*
X231616010Y-85173598D01*
X231864746Y-85276882D01*
X232134073Y-85277117D01*
X232382989Y-85174267D01*
X232573598Y-84983990D01*
X232676882Y-84735254D01*
X232677117Y-84465927D01*
X232577000Y-84223625D01*
X232577000Y-83284998D01*
X232533078Y-83064190D01*
X232408001Y-82876997D01*
X232407998Y-82876995D01*
X231994193Y-82463189D01*
X232112514Y-82345074D01*
X232215798Y-82096338D01*
X232216033Y-81827011D01*
X232113183Y-81578095D01*
X232101618Y-81566510D01*
X232176882Y-81385254D01*
X232177117Y-81115927D01*
X232168660Y-81095460D01*
X232364746Y-81176882D01*
X232634073Y-81177117D01*
X232882989Y-81074267D01*
X233073598Y-80883990D01*
X233176882Y-80635254D01*
X233177117Y-80365927D01*
X233074267Y-80117011D01*
X232883990Y-79926402D01*
X232877002Y-79923500D01*
X232877002Y-79884595D01*
X232951847Y-79915597D01*
X232971250Y-79935000D01*
X233028750Y-79935000D01*
X233048153Y-79915597D01*
X233234699Y-79838327D01*
X233312500Y-79760526D01*
X233312500Y-79776250D01*
X233471250Y-79935000D01*
X233501310Y-79935000D01*
X233734699Y-79838327D01*
X233837660Y-79735365D01*
X233875000Y-79735365D01*
X234004591Y-79710981D01*
X234125000Y-79735365D01*
X234375000Y-79735365D01*
X234504591Y-79710981D01*
X234625000Y-79735365D01*
X234875000Y-79735365D01*
X235004591Y-79710981D01*
X235125000Y-79735365D01*
X235375000Y-79735365D01*
X235504591Y-79710981D01*
X235625000Y-79735365D01*
X235875000Y-79735365D01*
X236004591Y-79710981D01*
X236125000Y-79735365D01*
X236126842Y-79735365D01*
X236073118Y-79864746D01*
X236072883Y-80134073D01*
X236175733Y-80382989D01*
X236366010Y-80573598D01*
X236614746Y-80676882D01*
X236884073Y-80677117D01*
X237132989Y-80574267D01*
X237323598Y-80383990D01*
X237426882Y-80135254D01*
X237427117Y-79865927D01*
X237373170Y-79735365D01*
X237375000Y-79735365D01*
X237533237Y-79705591D01*
X237678567Y-79612073D01*
X237776064Y-79469381D01*
X237810365Y-79300000D01*
X237810365Y-79277000D01*
X237819493Y-79277000D01*
X237866010Y-79323598D01*
X238114746Y-79426882D01*
X238384073Y-79427117D01*
X238632989Y-79324267D01*
X238823598Y-79133990D01*
X238890159Y-78973691D01*
X243490000Y-78973691D01*
X243490000Y-79214250D01*
X243648750Y-79373000D01*
X244373000Y-79373000D01*
X244373000Y-78623750D01*
X244627000Y-78623750D01*
X244627000Y-79373000D01*
X245873000Y-79373000D01*
X245873000Y-78623750D01*
X245714250Y-78465000D01*
X245498690Y-78465000D01*
X245265301Y-78561673D01*
X245250000Y-78576974D01*
X245234699Y-78561673D01*
X245001310Y-78465000D01*
X244785750Y-78465000D01*
X244627000Y-78623750D01*
X244373000Y-78623750D01*
X244214250Y-78465000D01*
X243998690Y-78465000D01*
X243765301Y-78561673D01*
X243586673Y-78740302D01*
X243490000Y-78973691D01*
X238890159Y-78973691D01*
X238926882Y-78885254D01*
X238927117Y-78615927D01*
X238824267Y-78367011D01*
X238633990Y-78176402D01*
X238385254Y-78073118D01*
X238115927Y-78072883D01*
X237867011Y-78175733D01*
X237819662Y-78223000D01*
X237810365Y-78223000D01*
X237810365Y-78000000D01*
X237780591Y-77841763D01*
X237687073Y-77696433D01*
X237544381Y-77598936D01*
X237375000Y-77564635D01*
X237125000Y-77564635D01*
X236995409Y-77589019D01*
X236875000Y-77564635D01*
X236625000Y-77564635D01*
X236495409Y-77589019D01*
X236375000Y-77564635D01*
X236125000Y-77564635D01*
X235995409Y-77589019D01*
X235875000Y-77564635D01*
X235827000Y-77564635D01*
X235827000Y-76914002D01*
X236407998Y-76333003D01*
X236408001Y-76333001D01*
X236533078Y-76145808D01*
X236555909Y-76031029D01*
X236558237Y-76030591D01*
X236588251Y-76011277D01*
X236740302Y-76163327D01*
X236973691Y-76260000D01*
X237214250Y-76260000D01*
X237373000Y-76101250D01*
X237373000Y-75377000D01*
X237627000Y-75377000D01*
X237627000Y-76101250D01*
X237785750Y-76260000D01*
X238026309Y-76260000D01*
X238259698Y-76163327D01*
X238438327Y-75984699D01*
X238535000Y-75751310D01*
X238535000Y-75535750D01*
X238376250Y-75377000D01*
X237627000Y-75377000D01*
X237373000Y-75377000D01*
X237353000Y-75377000D01*
X237353000Y-75123000D01*
X237373000Y-75123000D01*
X237373000Y-75103000D01*
X237627000Y-75103000D01*
X237627000Y-75123000D01*
X238376250Y-75123000D01*
X238535000Y-74964250D01*
X238535000Y-74927031D01*
X238683583Y-74927161D01*
X239024417Y-74786331D01*
X239285414Y-74525789D01*
X239426839Y-74185201D01*
X239427161Y-73816417D01*
X239286331Y-73475583D01*
X239138007Y-73327000D01*
X240510998Y-73327000D01*
X240791999Y-73608001D01*
X240979192Y-73733078D01*
X241200000Y-73777000D01*
X248199995Y-73777000D01*
X248200000Y-73777001D01*
X248420808Y-73733078D01*
X248608001Y-73608001D01*
X249437141Y-72778861D01*
X249800000Y-72851038D01*
X250269553Y-72757638D01*
X250667620Y-72491658D01*
X250933600Y-72093591D01*
X251027000Y-71624038D01*
X251027000Y-71575962D01*
X250933600Y-71106409D01*
X250667620Y-70708342D01*
X250269553Y-70442362D01*
X249800000Y-70348962D01*
X249330447Y-70442362D01*
X248932380Y-70708342D01*
X248666400Y-71106409D01*
X248573000Y-71575962D01*
X248573000Y-71624038D01*
X248637201Y-71946798D01*
X248495365Y-72088633D01*
X248495365Y-70800000D01*
X248465591Y-70641763D01*
X248372073Y-70496433D01*
X248229381Y-70398936D01*
X248060000Y-70364635D01*
X246460000Y-70364635D01*
X246301763Y-70394409D01*
X246156433Y-70487927D01*
X246058936Y-70630619D01*
X246024635Y-70800000D01*
X246024635Y-71023000D01*
X237389001Y-71023000D01*
X236935365Y-70569363D01*
X236935365Y-70050000D01*
X236905591Y-69891763D01*
X236812073Y-69746433D01*
X236669381Y-69648936D01*
X236500000Y-69614635D01*
X236000000Y-69614635D01*
X235841763Y-69644409D01*
X235696433Y-69737927D01*
X235598936Y-69880619D01*
X235564635Y-70050000D01*
X235564635Y-70950000D01*
X235594409Y-71108237D01*
X235687927Y-71253567D01*
X235830619Y-71351064D01*
X236000000Y-71385365D01*
X236119363Y-71385365D01*
X236761997Y-72027998D01*
X236761999Y-72028001D01*
X236874213Y-72102979D01*
X236949191Y-72153078D01*
X236985827Y-72160365D01*
X237049343Y-72173000D01*
X236161469Y-72173000D01*
X236155591Y-72141763D01*
X236062073Y-71996433D01*
X235919381Y-71898936D01*
X235750000Y-71864635D01*
X235327000Y-71864635D01*
X235327000Y-71227778D01*
X235401064Y-71119381D01*
X235435365Y-70950000D01*
X235435365Y-70050000D01*
X235405591Y-69891763D01*
X235312073Y-69746433D01*
X235169381Y-69648936D01*
X235000000Y-69614635D01*
X234500000Y-69614635D01*
X234341763Y-69644409D01*
X234196433Y-69737927D01*
X234155347Y-69798058D01*
X233983990Y-69626402D01*
X233843083Y-69567893D01*
X234233976Y-69177000D01*
X243750000Y-69177000D01*
X244104748Y-69106436D01*
X244405488Y-68905488D01*
X244655488Y-68655488D01*
X244707932Y-68577000D01*
X244856436Y-68354748D01*
X244927000Y-68000000D01*
X244927000Y-67643110D01*
X257018524Y-67643110D01*
X257139845Y-67873000D01*
X258333000Y-67873000D01*
X258333000Y-66679181D01*
X258587000Y-66679181D01*
X258587000Y-67873000D01*
X260873000Y-67873000D01*
X260873000Y-66673750D01*
X261127000Y-66673750D01*
X261127000Y-67873000D01*
X262326250Y-67873000D01*
X262485000Y-67714250D01*
X262485000Y-67023690D01*
X262388327Y-66790301D01*
X262209698Y-66611673D01*
X261976309Y-66515000D01*
X261285750Y-66515000D01*
X261127000Y-66673750D01*
X260873000Y-66673750D01*
X260714250Y-66515000D01*
X260023691Y-66515000D01*
X259790302Y-66611673D01*
X259611673Y-66790301D01*
X259523070Y-67004208D01*
X259341358Y-66804817D01*
X258816892Y-66558514D01*
X258587000Y-66679181D01*
X258333000Y-66679181D01*
X258103108Y-66558514D01*
X257578642Y-66804817D01*
X257188355Y-67233076D01*
X257018524Y-67643110D01*
X244927000Y-67643110D01*
X244927000Y-63783976D01*
X245583976Y-63127000D01*
X246366550Y-63127000D01*
X246126400Y-63486409D01*
X246033000Y-63955962D01*
X246033000Y-64004038D01*
X246126400Y-64473591D01*
X246392380Y-64871658D01*
X246790447Y-65137638D01*
X247260000Y-65231038D01*
X247729553Y-65137638D01*
X248127620Y-64871658D01*
X248337868Y-64557000D01*
X248722132Y-64557000D01*
X248932380Y-64871658D01*
X249330447Y-65137638D01*
X249800000Y-65231038D01*
X250269553Y-65137638D01*
X250667620Y-64871658D01*
X250933600Y-64473591D01*
X251027000Y-64004038D01*
X251027000Y-63955962D01*
X250933600Y-63486409D01*
X250667620Y-63088342D01*
X250377000Y-62894156D01*
X250377000Y-62010365D01*
X250450000Y-62010365D01*
X250608237Y-61980591D01*
X250638251Y-61961277D01*
X250790302Y-62113327D01*
X251023691Y-62210000D01*
X251264250Y-62210000D01*
X251423000Y-62051250D01*
X251423000Y-61327000D01*
X251677000Y-61327000D01*
X251677000Y-62051250D01*
X251835750Y-62210000D01*
X252076309Y-62210000D01*
X252309698Y-62113327D01*
X252488327Y-61934699D01*
X252585000Y-61701310D01*
X252585000Y-61485750D01*
X252426250Y-61327000D01*
X251677000Y-61327000D01*
X251423000Y-61327000D01*
X251403000Y-61327000D01*
X251403000Y-61073000D01*
X251423000Y-61073000D01*
X251423000Y-60348750D01*
X251677000Y-60348750D01*
X251677000Y-61073000D01*
X252426250Y-61073000D01*
X252585000Y-60914250D01*
X252585000Y-60698690D01*
X252488327Y-60465301D01*
X252309698Y-60286673D01*
X252076309Y-60190000D01*
X251835750Y-60190000D01*
X251677000Y-60348750D01*
X251423000Y-60348750D01*
X251264250Y-60190000D01*
X251023691Y-60190000D01*
X250790302Y-60286673D01*
X250639376Y-60437598D01*
X250619381Y-60423936D01*
X250450000Y-60389635D01*
X249650000Y-60389635D01*
X249527000Y-60412779D01*
X249527000Y-59464104D01*
X250849501Y-59464104D01*
X250886648Y-59679217D01*
X251314972Y-59822112D01*
X251765375Y-59790217D01*
X252033352Y-59679217D01*
X252070499Y-59464104D01*
X251460000Y-58853605D01*
X250849501Y-59464104D01*
X249527000Y-59464104D01*
X249527000Y-58528972D01*
X250311888Y-58528972D01*
X250343783Y-58979375D01*
X250454783Y-59247352D01*
X250669896Y-59284499D01*
X251280395Y-58674000D01*
X251639605Y-58674000D01*
X252250104Y-59284499D01*
X252465217Y-59247352D01*
X252595249Y-58857583D01*
X255612839Y-58857583D01*
X255753669Y-59198417D01*
X256014211Y-59459414D01*
X256354799Y-59600839D01*
X256723583Y-59601161D01*
X257064417Y-59460331D01*
X257325414Y-59199789D01*
X257466839Y-58859201D01*
X257467161Y-58490417D01*
X257326331Y-58149583D01*
X257065789Y-57888586D01*
X256725201Y-57747161D01*
X256356417Y-57746839D01*
X256015583Y-57887669D01*
X255754586Y-58148211D01*
X255613161Y-58488799D01*
X255612839Y-58857583D01*
X252595249Y-58857583D01*
X252608112Y-58819028D01*
X252576217Y-58368625D01*
X252465217Y-58100648D01*
X252250104Y-58063501D01*
X251639605Y-58674000D01*
X251280395Y-58674000D01*
X250669896Y-58063501D01*
X250454783Y-58100648D01*
X250311888Y-58528972D01*
X249527000Y-58528972D01*
X249527000Y-57883896D01*
X250849501Y-57883896D01*
X251460000Y-58494395D01*
X252070499Y-57883896D01*
X252033352Y-57668783D01*
X251605028Y-57525888D01*
X251154625Y-57557783D01*
X250886648Y-57668783D01*
X250849501Y-57883896D01*
X249527000Y-57883896D01*
X249527000Y-56610000D01*
X249456436Y-56255252D01*
X249255488Y-55954512D01*
X248954748Y-55753564D01*
X248600000Y-55683000D01*
X245600000Y-55683000D01*
X245245252Y-55753564D01*
X245034124Y-55894635D01*
X244205000Y-55894635D01*
X244063178Y-55923000D01*
X241950000Y-55923000D01*
X241794804Y-55952202D01*
X241652265Y-56043923D01*
X241556642Y-56183873D01*
X241523000Y-56350000D01*
X241523000Y-56783693D01*
X241514635Y-56825000D01*
X241514635Y-57575000D01*
X241523000Y-57619457D01*
X241523000Y-57750000D01*
X241552202Y-57905196D01*
X241643923Y-58047735D01*
X241673000Y-58067602D01*
X241673000Y-58095831D01*
X241646433Y-58112927D01*
X241548936Y-58255619D01*
X241514635Y-58425000D01*
X241514635Y-59175000D01*
X241544409Y-59333237D01*
X241637927Y-59478567D01*
X241780619Y-59576064D01*
X241923000Y-59604897D01*
X241923000Y-59847222D01*
X241848936Y-59955619D01*
X241814635Y-60125000D01*
X241814635Y-60375000D01*
X241839019Y-60504591D01*
X241814635Y-60625000D01*
X241814635Y-60875000D01*
X241839019Y-61004591D01*
X241814635Y-61125000D01*
X241814635Y-61375000D01*
X241839019Y-61504591D01*
X241814635Y-61625000D01*
X241814635Y-61875000D01*
X241844409Y-62033237D01*
X241937927Y-62178567D01*
X242080619Y-62276064D01*
X242250000Y-62310365D01*
X242673000Y-62310365D01*
X242673000Y-65591116D01*
X242612073Y-65496433D01*
X242469381Y-65398936D01*
X242300000Y-65364635D01*
X241800000Y-65364635D01*
X241641763Y-65394409D01*
X241496433Y-65487927D01*
X241398936Y-65630619D01*
X241364635Y-65800000D01*
X241364635Y-66700000D01*
X241394409Y-66858237D01*
X241473000Y-66980370D01*
X241473000Y-66999995D01*
X241472999Y-67000000D01*
X241516922Y-67220808D01*
X241585204Y-67323000D01*
X235612428Y-67323000D01*
X235678711Y-67278711D01*
X236478711Y-66478711D01*
X236513026Y-66427355D01*
X236625466Y-66259077D01*
X236677000Y-66000000D01*
X236677000Y-61455422D01*
X236752094Y-61380328D01*
X236855619Y-61451064D01*
X237025000Y-61485365D01*
X237775000Y-61485365D01*
X237933237Y-61455591D01*
X237977668Y-61427000D01*
X238420400Y-61427000D01*
X238455619Y-61451064D01*
X238625000Y-61485365D01*
X239375000Y-61485365D01*
X239533237Y-61455591D01*
X239678567Y-61362073D01*
X239702531Y-61327000D01*
X239914635Y-61327000D01*
X239914635Y-61375000D01*
X239944409Y-61533237D01*
X240037927Y-61678567D01*
X240143322Y-61750580D01*
X240046433Y-61812927D01*
X239948936Y-61955619D01*
X239914635Y-62125000D01*
X239914635Y-62375000D01*
X239944409Y-62533237D01*
X240023000Y-62655370D01*
X240023000Y-63470831D01*
X239996433Y-63487927D01*
X239898936Y-63630619D01*
X239864635Y-63800000D01*
X239864635Y-64700000D01*
X239894409Y-64858237D01*
X239973000Y-64980370D01*
X239973000Y-65522222D01*
X239898936Y-65630619D01*
X239864635Y-65800000D01*
X239864635Y-66700000D01*
X239894409Y-66858237D01*
X239987927Y-67003567D01*
X240130619Y-67101064D01*
X240300000Y-67135365D01*
X240800000Y-67135365D01*
X240958237Y-67105591D01*
X241103567Y-67012073D01*
X241201064Y-66869381D01*
X241235365Y-66700000D01*
X241235365Y-65800000D01*
X241205591Y-65641763D01*
X241127000Y-65519630D01*
X241127000Y-64977778D01*
X241201064Y-64869381D01*
X241235365Y-64700000D01*
X241235365Y-63800000D01*
X241205591Y-63641763D01*
X241177000Y-63597332D01*
X241177000Y-62652778D01*
X241251064Y-62544381D01*
X241285365Y-62375000D01*
X241285365Y-62125000D01*
X241255591Y-61966763D01*
X241162073Y-61821433D01*
X241056678Y-61749420D01*
X241153567Y-61687073D01*
X241251064Y-61544381D01*
X241285365Y-61375000D01*
X241285365Y-61125000D01*
X241260981Y-60995409D01*
X241285365Y-60875000D01*
X241285365Y-60625000D01*
X241255591Y-60466763D01*
X241162073Y-60321433D01*
X241019381Y-60223936D01*
X240850000Y-60189635D01*
X240683629Y-60189635D01*
X240600000Y-60173000D01*
X239795877Y-60173000D01*
X239780591Y-60091763D01*
X239687073Y-59946433D01*
X239544381Y-59848936D01*
X239375000Y-59814635D01*
X238625000Y-59814635D01*
X238466763Y-59844409D01*
X238321433Y-59937927D01*
X238229142Y-60073000D01*
X238168517Y-60073000D01*
X238087073Y-59946433D01*
X237944381Y-59848936D01*
X237775000Y-59814635D01*
X237025000Y-59814635D01*
X236866763Y-59844409D01*
X236721433Y-59937927D01*
X236697469Y-59973000D01*
X236525000Y-59973000D01*
X236265923Y-60024534D01*
X236072752Y-60153607D01*
X236046289Y-60171289D01*
X235521289Y-60696289D01*
X235374534Y-60915923D01*
X235323000Y-61175000D01*
X235323000Y-65719578D01*
X234919578Y-66123000D01*
X233536586Y-66123000D01*
X233553567Y-66112073D01*
X233651064Y-65969381D01*
X233685365Y-65800000D01*
X233685365Y-64900000D01*
X233655591Y-64741763D01*
X233562073Y-64596433D01*
X233419381Y-64498936D01*
X233250000Y-64464635D01*
X232609313Y-64464635D01*
X232400000Y-64423000D01*
X228037976Y-64423000D01*
X229303976Y-63157000D01*
X232409123Y-63157000D01*
X232424409Y-63238237D01*
X232517927Y-63383567D01*
X232660619Y-63481064D01*
X232830000Y-63515365D01*
X234530000Y-63515365D01*
X234688237Y-63485591D01*
X234833567Y-63392073D01*
X234931064Y-63249381D01*
X234965365Y-63080000D01*
X234965365Y-61380000D01*
X234935591Y-61221763D01*
X234842073Y-61076433D01*
X234699381Y-60978936D01*
X234530000Y-60944635D01*
X233817454Y-60944635D01*
X234193705Y-60869794D01*
X234607993Y-60592975D01*
X234884812Y-60178687D01*
X234982018Y-59690000D01*
X234884812Y-59201313D01*
X234607993Y-58787025D01*
X234193705Y-58510206D01*
X233705018Y-58413000D01*
X233654982Y-58413000D01*
X233166295Y-58510206D01*
X232752007Y-58787025D01*
X232475188Y-59201313D01*
X232377982Y-59690000D01*
X232475188Y-60178687D01*
X232752007Y-60592975D01*
X233166295Y-60869794D01*
X233542546Y-60944635D01*
X232830000Y-60944635D01*
X232671763Y-60974409D01*
X232526433Y-61067927D01*
X232428936Y-61210619D01*
X232410228Y-61303000D01*
X228920000Y-61303000D01*
X228565252Y-61373564D01*
X228309606Y-61544381D01*
X228264512Y-61574512D01*
X225416024Y-64423000D01*
X225400000Y-64423000D01*
X225190687Y-64464635D01*
X224550000Y-64464635D01*
X224391763Y-64494409D01*
X224246433Y-64587927D01*
X224148936Y-64730619D01*
X224114635Y-64900000D01*
X224114635Y-65800000D01*
X224144409Y-65958237D01*
X224237927Y-66103567D01*
X224296499Y-66143588D01*
X224140923Y-66174534D01*
X224014396Y-66259077D01*
X223921289Y-66321289D01*
X223502000Y-66740578D01*
X223502000Y-55502000D01*
X253320982Y-55502000D01*
X253214586Y-55608211D01*
G36*
X255962046Y-100203000D02*
X256803000Y-100203000D01*
X256803000Y-100183000D01*
X257057000Y-100183000D01*
X257057000Y-100203000D01*
X257077000Y-100203000D01*
X257077000Y-100457000D01*
X257057000Y-100457000D01*
X257057000Y-101473000D01*
X257077000Y-101473000D01*
X257077000Y-101727000D01*
X257057000Y-101727000D01*
X257057000Y-101747000D01*
X256803000Y-101747000D01*
X256803000Y-101727000D01*
X255962046Y-101727000D01*
X255835881Y-101901874D01*
X255942873Y-102160209D01*
X256140100Y-102388494D01*
X256055403Y-102515252D01*
X255984839Y-102870000D01*
X256055403Y-103224748D01*
X256140100Y-103351506D01*
X255942873Y-103579791D01*
X255835881Y-103838126D01*
X255962046Y-104013000D01*
X256803000Y-104013000D01*
X256803000Y-103993000D01*
X257057000Y-103993000D01*
X257057000Y-104013000D01*
X257077000Y-104013000D01*
X257077000Y-104267000D01*
X257057000Y-104267000D01*
X257057000Y-104287000D01*
X256803000Y-104287000D01*
X256803000Y-104267000D01*
X255962046Y-104267000D01*
X255835881Y-104441874D01*
X255942873Y-104700209D01*
X256232396Y-105035323D01*
X256402977Y-105121021D01*
X256100998Y-105423000D01*
X253611469Y-105423000D01*
X253605591Y-105391763D01*
X253512073Y-105246433D01*
X253369381Y-105148936D01*
X253200000Y-105114635D01*
X253151366Y-105114635D01*
X253357998Y-104908003D01*
X253358001Y-104908001D01*
X253483078Y-104720808D01*
X253519205Y-104539185D01*
X253601064Y-104419381D01*
X253635365Y-104250000D01*
X253635365Y-103350000D01*
X253605591Y-103191763D01*
X253512073Y-103046433D01*
X253410454Y-102977000D01*
X253599995Y-102977000D01*
X253600000Y-102977001D01*
X253820808Y-102933078D01*
X254008001Y-102808001D01*
X254608001Y-102208001D01*
X254733078Y-102020808D01*
X254777000Y-101800000D01*
X254777000Y-101229002D01*
X255374128Y-100631874D01*
X255835881Y-100631874D01*
X255942873Y-100890209D01*
X256007489Y-100965000D01*
X255942873Y-101039791D01*
X255835881Y-101298126D01*
X255962046Y-101473000D01*
X256803000Y-101473000D01*
X256803000Y-100457000D01*
X255962046Y-100457000D01*
X255835881Y-100631874D01*
X255374128Y-100631874D01*
X255895391Y-100110611D01*
X255962046Y-100203000D01*
X255962046Y-100203000D01*
G37*
X255962046Y-100203000D02*
X256803000Y-100203000D01*
X256803000Y-100183000D01*
X257057000Y-100183000D01*
X257057000Y-100203000D01*
X257077000Y-100203000D01*
X257077000Y-100457000D01*
X257057000Y-100457000D01*
X257057000Y-101473000D01*
X257077000Y-101473000D01*
X257077000Y-101727000D01*
X257057000Y-101727000D01*
X257057000Y-101747000D01*
X256803000Y-101747000D01*
X256803000Y-101727000D01*
X255962046Y-101727000D01*
X255835881Y-101901874D01*
X255942873Y-102160209D01*
X256140100Y-102388494D01*
X256055403Y-102515252D01*
X255984839Y-102870000D01*
X256055403Y-103224748D01*
X256140100Y-103351506D01*
X255942873Y-103579791D01*
X255835881Y-103838126D01*
X255962046Y-104013000D01*
X256803000Y-104013000D01*
X256803000Y-103993000D01*
X257057000Y-103993000D01*
X257057000Y-104013000D01*
X257077000Y-104013000D01*
X257077000Y-104267000D01*
X257057000Y-104267000D01*
X257057000Y-104287000D01*
X256803000Y-104287000D01*
X256803000Y-104267000D01*
X255962046Y-104267000D01*
X255835881Y-104441874D01*
X255942873Y-104700209D01*
X256232396Y-105035323D01*
X256402977Y-105121021D01*
X256100998Y-105423000D01*
X253611469Y-105423000D01*
X253605591Y-105391763D01*
X253512073Y-105246433D01*
X253369381Y-105148936D01*
X253200000Y-105114635D01*
X253151366Y-105114635D01*
X253357998Y-104908003D01*
X253358001Y-104908001D01*
X253483078Y-104720808D01*
X253519205Y-104539185D01*
X253601064Y-104419381D01*
X253635365Y-104250000D01*
X253635365Y-103350000D01*
X253605591Y-103191763D01*
X253512073Y-103046433D01*
X253410454Y-102977000D01*
X253599995Y-102977000D01*
X253600000Y-102977001D01*
X253820808Y-102933078D01*
X254008001Y-102808001D01*
X254608001Y-102208001D01*
X254733078Y-102020808D01*
X254777000Y-101800000D01*
X254777000Y-101229002D01*
X255374128Y-100631874D01*
X255835881Y-100631874D01*
X255942873Y-100890209D01*
X256007489Y-100965000D01*
X255942873Y-101039791D01*
X255835881Y-101298126D01*
X255962046Y-101473000D01*
X256803000Y-101473000D01*
X256803000Y-100457000D01*
X255962046Y-100457000D01*
X255835881Y-100631874D01*
X255374128Y-100631874D01*
X255895391Y-100110611D01*
X255962046Y-100203000D01*
M02*
