G04 #@! TF.FileFunction,Soldermask,Bot*
%FSLAX46Y46*%
G04 Gerber Fmt 4.6, Leading zero omitted, Abs format (unit mm)*
G04 Created by KiCad (PCBNEW 4.0.7) date Saturday, June 23, 2018 'PMt' 03:12:16 PM*
%MOMM*%
%LPD*%
G01*
G04 APERTURE LIST*
%ADD10C,0.100000*%
%ADD11O,12.400000X7.900000*%
%ADD12R,2.100000X2.100000*%
%ADD13O,2.100000X2.100000*%
%ADD14C,1.400000*%
%ADD15C,0.480000*%
%ADD16R,1.400000X1.400000*%
%ADD17O,1.400000X1.400000*%
%ADD18R,2.000000X2.000000*%
%ADD19O,2.000000X2.000000*%
G04 APERTURE END LIST*
D10*
D11*
X265000000Y-114500000D03*
D12*
X261000000Y-68000000D03*
D13*
X258460000Y-68000000D03*
X261000000Y-70540000D03*
X258460000Y-70540000D03*
X261000000Y-73080000D03*
X258460000Y-73080000D03*
X261000000Y-75620000D03*
X258460000Y-75620000D03*
X261000000Y-78160000D03*
X258460000Y-78160000D03*
X261000000Y-80700000D03*
X258460000Y-80700000D03*
X261000000Y-83240000D03*
X258460000Y-83240000D03*
X261000000Y-85780000D03*
X258460000Y-85780000D03*
X261000000Y-88320000D03*
X258460000Y-88320000D03*
X261000000Y-90860000D03*
X258460000Y-90860000D03*
D12*
X233680000Y-62230000D03*
D13*
X233680000Y-59690000D03*
X233680000Y-57150000D03*
D14*
X254000000Y-56134000D03*
X251460000Y-58674000D03*
X256540000Y-58674000D03*
D15*
X241550000Y-61250000D03*
X241550000Y-62200000D03*
X241550000Y-60300000D03*
D16*
X256930000Y-99060000D03*
D17*
X258200000Y-99060000D03*
X256930000Y-100330000D03*
X258200000Y-100330000D03*
X256930000Y-101600000D03*
X258200000Y-101600000D03*
X256930000Y-102870000D03*
X258200000Y-102870000D03*
X256930000Y-104140000D03*
X258200000Y-104140000D03*
D12*
X233680000Y-114300000D03*
D13*
X233680000Y-111760000D03*
X233680000Y-109220000D03*
X233680000Y-106680000D03*
D11*
X265000000Y-60500000D03*
D18*
X247260000Y-71600000D03*
D19*
X249800000Y-63980000D03*
X249800000Y-71600000D03*
X247260000Y-63980000D03*
M02*
