M48
;DRILL file {KiCad 4.0.7} date Saturday, June 23, 2018 'PMt' 03:17:18 PM
;FORMAT={-:-/ absolute / metric / decimal}
FMAT,2
METRIC,TZ
T1C0.200
T2C0.250
T3C0.500
T4C0.650
T5C0.800
T6C1.000
T7C3.200
%
G90
G05
M71
T1
X240.55Y-60.3
X240.55Y-61.25
X240.55Y-62.2
T2
X228.4Y-104.6
X229.Y-100.2
X230.2Y-88.8
X231.4Y-83.2
X231.4Y-84.
X231.4Y-84.8
X231.4Y-85.6
X231.5Y-81.25
X231.539Y-81.961
X231.75Y-80.5
X232.5Y-80.5
X232.8Y-90.4
X233.8Y-71.3
X234.8Y-69.4
X236.2Y-80.
X237.4Y-85.2
X237.7Y-96.15
X237.75Y-81.
X238.25Y-78.75
X240.25Y-80.
X240.5Y-98.9
X241.Y-80.2
X241.6Y-81.
X242.5Y-61.75
T3
X224.2Y-69.
X224.2Y-113.6
X225.Y-91.2
X226.2Y-76.
X228.4Y-76.4
X228.75Y-61.6
X230.2Y-78.8
X230.4Y-87.
X231.Y-71.
X231.4Y-95.6
X231.6Y-113.6
X231.6Y-120.8
X235.Y-90.
X235.Y-96.2
X235.6Y-81.
X235.8Y-113.2
X238.Y-62.8
X238.5Y-74.
X239.95Y-92.6
X240.1Y-108.
X240.5Y-87.1
X242.25Y-77.6
X242.75Y-90.75
X243.Y-68.95
X244.2Y-119.4
X244.8Y-89.4
X245.8Y-78.4
X248.4Y-67.6
X248.4Y-92.4
X248.45Y-71.9
X250.2Y-76.
X250.2Y-90.75
X251.9Y-78.8
X253.95Y-59.
T4
X229.72Y-103.33
X229.72Y-104.6
X229.72Y-105.87
X229.72Y-107.14
X229.72Y-108.41
X230.99Y-103.33
X230.99Y-104.6
X230.99Y-105.87
X230.99Y-107.14
X230.99Y-108.41
T5
X249.98Y-57.8
X249.98Y-60.34
X257.6Y-57.8
X257.6Y-60.34
T6
X226.Y-58.42
X226.Y-60.96
X226.Y-63.5
X226.Y-66.04
X256.921Y-71.12
X256.921Y-73.66
X256.921Y-76.2
X256.921Y-78.74
X256.921Y-81.28
X256.921Y-83.82
X256.921Y-88.9
X256.921Y-91.44
X256.921Y-93.98
X256.921Y-96.52
X256.921Y-99.06
X256.921Y-101.6
X256.921Y-106.68
X256.921Y-109.22
X256.921Y-111.76
X256.921Y-114.3
X256.921Y-116.84
X256.921Y-119.38
T7
X227.Y-72.
X227.2Y-117.8
T0
M30
