G04 #@! TF.FileFunction,Copper,L1,Top,Signal*
%FSLAX46Y46*%
G04 Gerber Fmt 4.6, Leading zero omitted, Abs format (unit mm)*
G04 Created by KiCad (PCBNEW 4.0.7) date Saturday, June 23, 2018 'PMt' 03:17:16 PM*
%MOMM*%
%LPD*%
G01*
G04 APERTURE LIST*
%ADD10C,0.100000*%
%ADD11C,1.000000*%
%ADD12R,1.600000X1.600000*%
%ADD13O,1.600000X1.600000*%
%ADD14C,6.400000*%
%ADD15R,1.300000X0.250000*%
%ADD16R,0.250000X1.300000*%
%ADD17R,0.750000X0.800000*%
%ADD18R,0.800000X0.750000*%
%ADD19R,0.900000X0.500000*%
%ADD20R,0.500000X0.900000*%
%ADD21R,1.060000X0.650000*%
%ADD22R,2.000000X4.500000*%
%ADD23R,1.000000X0.890000*%
%ADD24R,2.000000X0.330000*%
%ADD25R,0.500000X0.250000*%
%ADD26R,0.840000X2.400000*%
%ADD27C,0.400000*%
%ADD28R,1.000000X1.000000*%
%ADD29O,1.000000X1.000000*%
%ADD30R,1.700000X1.700000*%
%ADD31O,1.700000X1.700000*%
%ADD32R,3.500000X1.800000*%
%ADD33R,2.500000X3.300000*%
%ADD34R,0.300000X1.400000*%
%ADD35C,0.500000*%
%ADD36C,0.300000*%
%ADD37C,0.200000*%
%ADD38C,1.000000*%
%ADD39C,0.150000*%
%ADD40C,0.500000*%
%ADD41C,0.026000*%
%ADD42C,0.254000*%
G04 APERTURE END LIST*
D10*
D11*
X226200000Y-76000000D03*
X224200000Y-69000000D03*
X231000000Y-71000000D03*
X231600000Y-120800000D03*
X231600000Y-113600000D03*
X224200000Y-113600000D03*
X248450000Y-71900000D03*
X253950000Y-59000000D03*
X240100000Y-108000000D03*
X244200000Y-119400000D03*
X251900000Y-78800000D03*
X243000000Y-68950000D03*
X228750000Y-61600000D03*
D12*
X249980000Y-57800000D03*
D13*
X257600000Y-60340000D03*
X249980000Y-60340000D03*
X257600000Y-57800000D03*
D14*
X227200000Y-117800000D03*
D11*
X225000000Y-91200000D03*
X231400000Y-95600000D03*
X230200000Y-78800000D03*
X230400000Y-87000000D03*
X239950000Y-92600000D03*
X238000000Y-62800000D03*
X235600000Y-81000000D03*
X235800000Y-113200000D03*
X248400000Y-92400000D03*
X244800000Y-89400000D03*
X240500000Y-87100000D03*
X242250000Y-77600000D03*
X248400000Y-67600000D03*
D15*
X238850000Y-85750000D03*
X238850000Y-85250000D03*
X238850000Y-84750000D03*
X238850000Y-84250000D03*
X238850000Y-83750000D03*
X238850000Y-83250000D03*
X238850000Y-82750000D03*
X238850000Y-82250000D03*
X238850000Y-81750000D03*
X238850000Y-81250000D03*
X238850000Y-80750000D03*
X238850000Y-80250000D03*
D16*
X237250000Y-78650000D03*
X236750000Y-78650000D03*
X236250000Y-78650000D03*
X235750000Y-78650000D03*
X235250000Y-78650000D03*
X234750000Y-78650000D03*
X234250000Y-78650000D03*
X233750000Y-78650000D03*
X233250000Y-78650000D03*
X232750000Y-78650000D03*
X232250000Y-78650000D03*
X231750000Y-78650000D03*
D15*
X230150000Y-80250000D03*
X230150000Y-80750000D03*
X230150000Y-81250000D03*
X230150000Y-81750000D03*
X230150000Y-82250000D03*
X230150000Y-82750000D03*
X230150000Y-83250000D03*
X230150000Y-83750000D03*
X230150000Y-84250000D03*
X230150000Y-84750000D03*
X230150000Y-85250000D03*
X230150000Y-85750000D03*
D16*
X231750000Y-87350000D03*
X232250000Y-87350000D03*
X232750000Y-87350000D03*
X233250000Y-87350000D03*
X233750000Y-87350000D03*
X234250000Y-87350000D03*
X234750000Y-87350000D03*
X235250000Y-87350000D03*
X235750000Y-87350000D03*
X236250000Y-87350000D03*
X236750000Y-87350000D03*
X237250000Y-87350000D03*
D17*
X244400000Y-79500000D03*
X244400000Y-81000000D03*
X242800000Y-79500000D03*
X242800000Y-81000000D03*
D18*
X238000000Y-91750000D03*
X236500000Y-91750000D03*
X238000000Y-90000000D03*
X236500000Y-90000000D03*
X237500000Y-75250000D03*
X236000000Y-75250000D03*
X231500000Y-75250000D03*
X233000000Y-75250000D03*
X254250000Y-64300000D03*
X255750000Y-64300000D03*
X234050000Y-60150000D03*
X235550000Y-60150000D03*
X239750000Y-58500000D03*
X241250000Y-58500000D03*
D17*
X236800000Y-97650000D03*
X236800000Y-96150000D03*
X246700000Y-97650000D03*
X246700000Y-96150000D03*
X244800000Y-83800000D03*
X244800000Y-85300000D03*
X243200000Y-82500000D03*
X243200000Y-84000000D03*
D19*
X242750000Y-88000000D03*
X242750000Y-89500000D03*
D20*
X235500000Y-72750000D03*
X234000000Y-72750000D03*
X231750000Y-92400000D03*
X230250000Y-92400000D03*
X236250000Y-70500000D03*
X234750000Y-70500000D03*
D19*
X226400000Y-95950000D03*
X226400000Y-94450000D03*
X224800000Y-94450000D03*
X224800000Y-95950000D03*
X228000000Y-94450000D03*
X228000000Y-95950000D03*
D20*
X231750000Y-90400000D03*
X230250000Y-90400000D03*
X241050000Y-66250000D03*
X239550000Y-66250000D03*
X239550000Y-64250000D03*
X241050000Y-64250000D03*
D21*
X240900000Y-95950000D03*
X240900000Y-96900000D03*
X240900000Y-97850000D03*
X243100000Y-97850000D03*
X243100000Y-95950000D03*
D22*
X248400000Y-87250000D03*
X248400000Y-78750000D03*
D10*
G36*
X246545000Y-56890000D02*
X242655000Y-56890000D01*
X243205000Y-56330000D01*
X245995000Y-56330000D01*
X246545000Y-56890000D01*
X246545000Y-56890000D01*
G37*
D23*
X243150000Y-57330000D03*
X246040000Y-57330000D03*
X246040000Y-59670000D03*
D10*
G36*
X242655000Y-60110000D02*
X246545000Y-60110000D01*
X245995000Y-60670000D01*
X243205000Y-60670000D01*
X242655000Y-60110000D01*
X242655000Y-60110000D01*
G37*
D23*
X243160000Y-59670000D03*
D24*
X244580000Y-57050000D03*
X244600000Y-59950000D03*
D25*
X239600000Y-60250000D03*
X239600000Y-60750000D03*
X239600000Y-61250000D03*
X239600000Y-61750000D03*
X239600000Y-62250000D03*
X241500000Y-62250000D03*
X241500000Y-61750000D03*
X241500000Y-61250000D03*
X241500000Y-60750000D03*
X241500000Y-60250000D03*
D26*
X240550000Y-61250000D03*
D27*
X240550000Y-61250000D03*
X240550000Y-62200000D03*
X240550000Y-60300000D03*
D28*
X230990000Y-108410000D03*
D29*
X229720000Y-108410000D03*
X230990000Y-107140000D03*
X229720000Y-107140000D03*
X230990000Y-105870000D03*
X229720000Y-105870000D03*
X230990000Y-104600000D03*
X229720000Y-104600000D03*
X230990000Y-103330000D03*
X229720000Y-103330000D03*
D30*
X226000000Y-66040000D03*
D31*
X226000000Y-63500000D03*
X226000000Y-60960000D03*
X226000000Y-58420000D03*
D30*
X256921000Y-71120000D03*
D31*
X256921000Y-73660000D03*
X256921000Y-76200000D03*
X256921000Y-78740000D03*
X256921000Y-81280000D03*
X256921000Y-83820000D03*
D30*
X256921000Y-88900000D03*
D31*
X256921000Y-91440000D03*
X256921000Y-93980000D03*
X256921000Y-96520000D03*
X256921000Y-99060000D03*
X256921000Y-101600000D03*
D30*
X256921000Y-106680000D03*
D31*
X256921000Y-109220000D03*
X256921000Y-111760000D03*
X256921000Y-114300000D03*
X256921000Y-116840000D03*
X256921000Y-119380000D03*
D14*
X227000000Y-72000000D03*
D17*
X238700000Y-97650000D03*
X238700000Y-96150000D03*
X245000000Y-97650000D03*
X245000000Y-96150000D03*
X238000000Y-59100000D03*
X238000000Y-60600000D03*
D18*
X239750000Y-57000000D03*
X241250000Y-57000000D03*
D32*
X234950000Y-57350000D03*
X229950000Y-57350000D03*
D33*
X235600000Y-64600000D03*
X228800000Y-64600000D03*
D34*
X254800000Y-67600000D03*
X254300000Y-67600000D03*
X253800000Y-67600000D03*
X253300000Y-67600000D03*
X252800000Y-67600000D03*
X252800000Y-72000000D03*
X253300000Y-72000000D03*
X253800000Y-72000000D03*
X254300000Y-72000000D03*
X254800000Y-72000000D03*
X254400000Y-102000000D03*
X253900000Y-102000000D03*
X253400000Y-102000000D03*
X252900000Y-102000000D03*
X252400000Y-102000000D03*
X252400000Y-106400000D03*
X252900000Y-106400000D03*
X253400000Y-106400000D03*
X253900000Y-106400000D03*
X254400000Y-106400000D03*
D35*
X237700000Y-96150000D03*
D11*
X235000000Y-96200000D03*
X228400000Y-76400000D03*
D35*
X240500000Y-98900000D03*
D11*
X250200000Y-76000000D03*
X245800000Y-78400000D03*
X250200000Y-90750000D03*
D35*
X229000000Y-100200000D03*
X232800000Y-90400000D03*
D11*
X238500000Y-74000000D03*
X235000000Y-90000000D03*
X242750000Y-90750000D03*
D35*
X234800000Y-69400000D03*
X233800000Y-71300000D03*
X228400000Y-104600000D03*
X242500000Y-61750000D03*
X230200000Y-88800000D03*
X237400000Y-85200000D03*
X238250000Y-78750000D03*
X236200000Y-80000000D03*
X237750000Y-81000000D03*
X241600000Y-81000000D03*
X241000000Y-80200000D03*
X240250000Y-80000000D03*
X232500000Y-80500000D03*
X231750000Y-80500000D03*
X231500000Y-81250000D03*
X231538916Y-81961084D03*
X231400000Y-83200000D03*
X231400000Y-84000000D03*
X231400000Y-84800000D03*
X231400000Y-85600000D03*
D36*
X251400000Y-65050000D02*
X252150000Y-64300000D01*
X252150000Y-64300000D02*
X254250000Y-64300000D01*
X251400000Y-65050000D02*
X251400000Y-68550000D01*
X252800000Y-72000000D02*
X252800000Y-69950000D01*
X252800000Y-69950000D02*
X251400000Y-68550000D01*
X256400000Y-104450000D02*
X256921000Y-104971000D01*
X256921000Y-104971000D02*
X256921000Y-106680000D01*
X253350000Y-104450000D02*
X256400000Y-104450000D01*
X252400000Y-106400000D02*
X252400000Y-105400000D01*
X252400000Y-105400000D02*
X253350000Y-104450000D01*
X238850000Y-83750000D02*
X242950000Y-83750000D01*
X242950000Y-83750000D02*
X243200000Y-84000000D01*
X233750000Y-87350000D02*
X233750000Y-91950000D01*
X233750000Y-91950000D02*
X234400000Y-92600000D01*
X234400000Y-92600000D02*
X237125000Y-92600000D01*
X237125000Y-92600000D02*
X237975000Y-91750000D01*
X237975000Y-91750000D02*
X238000000Y-91750000D01*
X234000000Y-81000000D02*
X235600000Y-81000000D01*
X232750000Y-79750000D02*
X234000000Y-81000000D01*
X232750000Y-78650000D02*
X232750000Y-79750000D01*
X233250000Y-79600000D02*
X234650000Y-81000000D01*
X233250000Y-78650000D02*
X233250000Y-79600000D01*
X234650000Y-81000000D02*
X235600000Y-81000000D01*
D37*
X238600000Y-62200000D02*
X238600000Y-67000000D01*
X238600000Y-67000000D02*
X238800000Y-67200000D01*
X240200000Y-67200000D02*
X240200000Y-64650000D01*
X238800000Y-67200000D02*
X240200000Y-67200000D01*
X240600000Y-64250000D02*
X241050000Y-64250000D01*
X240200000Y-64650000D02*
X240600000Y-64250000D01*
X238600000Y-62200000D02*
X239050000Y-61750000D01*
X239050000Y-61750000D02*
X239600000Y-61750000D01*
X240550000Y-62200000D02*
X241450000Y-62200000D01*
X241450000Y-62200000D02*
X241500000Y-62250000D01*
X240550000Y-61250000D02*
X240050000Y-61750000D01*
X240050000Y-61750000D02*
X239600000Y-61750000D01*
X240550000Y-60300000D02*
X239650000Y-60300000D01*
X239650000Y-60300000D02*
X239600000Y-60250000D01*
D36*
X233750000Y-87350000D02*
X233750000Y-86250000D01*
X233750000Y-86250000D02*
X236250000Y-83750000D01*
X236250000Y-83750000D02*
X238850000Y-83750000D01*
X231500000Y-75250000D02*
X231500000Y-75925000D01*
X231500000Y-75925000D02*
X232750000Y-77175000D01*
X232750000Y-77175000D02*
X232750000Y-78650000D01*
X231500000Y-75925000D02*
X233250000Y-77675000D01*
X233250000Y-77675000D02*
X233250000Y-78650000D01*
D38*
X232650000Y-69700000D02*
X234000000Y-68350000D01*
X232650000Y-69700000D02*
X232650000Y-73350000D01*
X232650000Y-73350000D02*
X232250000Y-73750000D01*
D39*
X241500000Y-61250000D02*
X243950000Y-61250000D01*
X243950000Y-61250000D02*
X244300000Y-61600000D01*
D38*
X241300000Y-68350000D02*
X242400000Y-67250000D01*
X234000000Y-68350000D02*
X241300000Y-68350000D01*
X242400000Y-67250000D02*
X242400000Y-66400000D01*
X242400000Y-63500000D02*
X242400000Y-66400000D01*
X242400000Y-63500000D02*
X244300000Y-61600000D01*
D37*
X241050000Y-66250000D02*
X242250000Y-66250000D01*
X242250000Y-66250000D02*
X242400000Y-66400000D01*
D38*
X246340000Y-61600000D02*
X244300000Y-61600000D01*
X247540000Y-57330000D02*
X247540000Y-60400000D01*
X247540000Y-60400000D02*
X246340000Y-61600000D01*
D36*
X241250000Y-58500000D02*
X241250000Y-57000000D01*
X241500000Y-60250000D02*
X241500000Y-58750000D01*
X241500000Y-58750000D02*
X241250000Y-58500000D01*
D38*
X236800000Y-96150000D02*
X237700000Y-96150000D01*
X237700000Y-96150000D02*
X238700000Y-96150000D01*
X235000000Y-96200000D02*
X236750000Y-96200000D01*
X236750000Y-96200000D02*
X236800000Y-96150000D01*
X246040000Y-57330000D02*
X247540000Y-57330000D01*
X232250000Y-73750000D02*
X231050000Y-73750000D01*
X231050000Y-73750000D02*
X228400000Y-76400000D01*
D36*
X243150000Y-57330000D02*
X243880000Y-57330000D01*
X243880000Y-57330000D02*
X244600000Y-56610000D01*
X246040000Y-57330000D02*
X245320000Y-57330000D01*
X245320000Y-57330000D02*
X244600000Y-56610000D01*
D37*
X240900000Y-98500000D02*
X240500000Y-98900000D01*
X240900000Y-97850000D02*
X240900000Y-98500000D01*
D38*
X232250000Y-73750000D02*
X233000000Y-74500000D01*
X233000000Y-74500000D02*
X233000000Y-75250000D01*
D36*
X233000000Y-75250000D02*
X233000000Y-75925000D01*
X233000000Y-75925000D02*
X233750000Y-76675000D01*
X233750000Y-76675000D02*
X233750000Y-78650000D01*
D40*
X240900000Y-95950000D02*
X239200000Y-95950000D01*
X239200000Y-95950000D02*
X239000000Y-96150000D01*
D39*
X244600000Y-56610000D02*
X244600000Y-57030000D01*
X244600000Y-57030000D02*
X244580000Y-57050000D01*
D36*
X243030000Y-57450000D02*
X243150000Y-57330000D01*
X242750000Y-90750000D02*
X242750000Y-89500000D01*
D38*
X246700000Y-96150000D02*
X245000000Y-96150000D01*
X245000000Y-96150000D02*
X245000000Y-93000000D01*
X250200000Y-90750000D02*
X250200000Y-76000000D01*
X244400000Y-81000000D02*
X245775000Y-81000000D01*
X245775000Y-81000000D02*
X245800000Y-80975000D01*
X245800000Y-80975000D02*
X245800000Y-78400000D01*
X244400000Y-81000000D02*
X242800000Y-81000000D01*
D36*
X238850000Y-82250000D02*
X241575000Y-82250000D01*
X241575000Y-82250000D02*
X242800000Y-81025000D01*
X242800000Y-81025000D02*
X242800000Y-81000000D01*
D40*
X243100000Y-95950000D02*
X244800000Y-95950000D01*
X244800000Y-95950000D02*
X245000000Y-96150000D01*
D36*
X229000000Y-100200000D02*
X229000000Y-96000000D01*
X231750000Y-93250000D02*
X231750000Y-92400000D01*
X229000000Y-96000000D02*
X231750000Y-93250000D01*
X231750000Y-90400000D02*
X231750000Y-92400000D01*
X232800000Y-90400000D02*
X231750000Y-90400000D01*
D38*
X245000000Y-93000000D02*
X242750000Y-90750000D01*
X236000000Y-74750000D02*
X236750000Y-74000000D01*
X236750000Y-74000000D02*
X238500000Y-74000000D01*
X236000000Y-75250000D02*
X236000000Y-74750000D01*
X236000000Y-75000000D02*
X236000000Y-75250000D01*
X235000000Y-90000000D02*
X236500000Y-90000000D01*
X236500000Y-90000000D02*
X236500000Y-90500000D01*
X236500000Y-90500000D02*
X236500000Y-91750000D01*
D36*
X235250000Y-87350000D02*
X235250000Y-88775000D01*
X235250000Y-88775000D02*
X236500000Y-90025000D01*
X236500000Y-90025000D02*
X236500000Y-90500000D01*
X236000000Y-75250000D02*
X236000000Y-75925000D01*
X236000000Y-75925000D02*
X235250000Y-76675000D01*
X235250000Y-76675000D02*
X235250000Y-78650000D01*
X232750000Y-87350000D02*
X232750000Y-88300000D01*
X232750000Y-88300000D02*
X232450000Y-88600000D01*
X232450000Y-88600000D02*
X231400000Y-88600000D01*
X231400000Y-88600000D02*
X230800000Y-88000000D01*
X230800000Y-88000000D02*
X230200000Y-88000000D01*
X230200000Y-88000000D02*
X227400000Y-90800000D01*
X227400000Y-90800000D02*
X227400000Y-93650000D01*
X227400000Y-93650000D02*
X226600000Y-94450000D01*
X226600000Y-94450000D02*
X226400000Y-94450000D01*
X226400000Y-93800000D02*
X225650000Y-93800000D01*
X225650000Y-93800000D02*
X225000000Y-94450000D01*
X225000000Y-94450000D02*
X224800000Y-94450000D01*
X226800000Y-93400000D02*
X226400000Y-93800000D01*
X226800000Y-90400000D02*
X226800000Y-93400000D01*
X228400000Y-88800000D02*
X226800000Y-90400000D01*
X230150000Y-82250000D02*
X228750000Y-82250000D01*
X228750000Y-82250000D02*
X228400000Y-82600000D01*
X228400000Y-82600000D02*
X228400000Y-88800000D01*
D37*
X248400000Y-84800000D02*
X247400000Y-83800000D01*
X248400000Y-84800000D02*
X248400000Y-87250000D01*
X244800000Y-83800000D02*
X247400000Y-83800000D01*
X238850000Y-83250000D02*
X244250000Y-83250000D01*
X244250000Y-83250000D02*
X244800000Y-83800000D01*
X243200000Y-82500000D02*
X247300000Y-82500000D01*
X247300000Y-82500000D02*
X248400000Y-81400000D01*
X248400000Y-81400000D02*
X248400000Y-78750000D01*
X238850000Y-82750000D02*
X242950000Y-82750000D01*
X242950000Y-82750000D02*
X243200000Y-82500000D01*
D36*
X248400000Y-80000000D02*
X248400000Y-78750000D01*
X234800000Y-69400000D02*
X234800000Y-70450000D01*
X234800000Y-70450000D02*
X234750000Y-70500000D01*
X234750000Y-70500000D02*
X234750000Y-78650000D01*
X234000000Y-72750000D02*
X234000000Y-71500000D01*
X234000000Y-71500000D02*
X233800000Y-71300000D01*
X233900000Y-72650000D02*
X234000000Y-72750000D01*
X234250000Y-78650000D02*
X234250000Y-73000000D01*
X234250000Y-73000000D02*
X234000000Y-72750000D01*
X255750000Y-64300000D02*
X255775000Y-64300000D01*
X257600000Y-62475000D02*
X257600000Y-60340000D01*
X255775000Y-64300000D02*
X257600000Y-62475000D01*
X257600000Y-57800000D02*
X257600000Y-60340000D01*
X227800000Y-104000000D02*
X228400000Y-104600000D01*
X226400000Y-95950000D02*
X226400000Y-96500000D01*
X226400000Y-96500000D02*
X227800000Y-97900000D01*
X227800000Y-97900000D02*
X227800000Y-104000000D01*
X227200000Y-104620000D02*
X229720000Y-107140000D01*
X227200000Y-98000000D02*
X227200000Y-104620000D01*
X226000000Y-96800000D02*
X227200000Y-98000000D01*
X225100000Y-96800000D02*
X226000000Y-96800000D01*
X224800000Y-95950000D02*
X224800000Y-96500000D01*
X224800000Y-96500000D02*
X225100000Y-96800000D01*
X225000001Y-95199999D02*
X228999999Y-95199999D01*
X224800000Y-95950000D02*
X224800000Y-95400000D01*
X224800000Y-95400000D02*
X225000001Y-95199999D01*
X228999999Y-95199999D02*
X230250000Y-93949998D01*
X230250000Y-93949998D02*
X230250000Y-92400000D01*
X228400000Y-102010000D02*
X229720000Y-103330000D01*
X228000000Y-96800000D02*
X228400000Y-97200000D01*
X228400000Y-97200000D02*
X228400000Y-102010000D01*
X228000000Y-95950000D02*
X228000000Y-96800000D01*
X238850000Y-84250000D02*
X239850000Y-84250000D01*
X239850000Y-84250000D02*
X242750000Y-87150000D01*
X242750000Y-87150000D02*
X242750000Y-88000000D01*
X239550000Y-64250000D02*
X239550000Y-66250000D01*
X239600000Y-62250000D02*
X239600000Y-64200000D01*
X239600000Y-64200000D02*
X239550000Y-64250000D01*
D38*
X226000000Y-60960000D02*
X226340000Y-60960000D01*
X226340000Y-60960000D02*
X229950000Y-57350000D01*
D39*
X244600000Y-59950000D02*
X245760000Y-59950000D01*
X245760000Y-59950000D02*
X246040000Y-59670000D01*
X241500000Y-60750000D02*
X242600000Y-60750000D01*
X242600000Y-60750000D02*
X243400000Y-59950000D01*
X242950000Y-59950000D02*
X244600000Y-59950000D01*
X243160000Y-60265000D02*
X243160000Y-59670000D01*
D36*
X241500000Y-61750000D02*
X242500000Y-61750000D01*
D37*
X237400000Y-85200000D02*
X237850000Y-84750000D01*
X237850000Y-84750000D02*
X238850000Y-84750000D01*
D36*
X230200000Y-88800000D02*
X230200000Y-90350000D01*
X230200000Y-90350000D02*
X230250000Y-90400000D01*
X230200000Y-88800000D02*
X228000000Y-91000000D01*
X228000000Y-91000000D02*
X228000000Y-94450000D01*
X243800000Y-70800000D02*
X249180001Y-65419999D01*
X249980000Y-60340000D02*
X249180001Y-61139999D01*
X249180001Y-61139999D02*
X249180001Y-65419999D01*
X238000000Y-70800000D02*
X243800000Y-70800000D01*
X236050000Y-72750000D02*
X238000000Y-70800000D01*
X235500000Y-72750000D02*
X236050000Y-72750000D01*
X235500000Y-72750000D02*
X235500000Y-72550000D01*
X236250000Y-70500000D02*
X236800000Y-70500000D01*
X243510009Y-70349991D02*
X247710000Y-66150000D01*
X236800000Y-70500000D02*
X236950009Y-70349991D01*
X247710000Y-66140000D02*
X248600000Y-65250000D01*
X248880000Y-57800000D02*
X249980000Y-57800000D01*
X236950009Y-70349991D02*
X243510009Y-70349991D01*
X247710000Y-66150000D02*
X247710000Y-66140000D01*
X248600000Y-65250000D02*
X248600000Y-58080000D01*
X248600000Y-58080000D02*
X248880000Y-57800000D01*
X236250000Y-70500000D02*
X236250000Y-70700000D01*
X254800000Y-67600000D02*
X256800000Y-67600000D01*
X256800000Y-67600000D02*
X258400000Y-69200000D01*
X258400000Y-69200000D02*
X258400000Y-72200000D01*
X258400000Y-72200000D02*
X257789999Y-72810001D01*
X257789999Y-72810001D02*
X257770999Y-72810001D01*
X257770999Y-72810001D02*
X256921000Y-73660000D01*
D37*
X238250000Y-78750000D02*
X237350000Y-78750000D01*
X237350000Y-78750000D02*
X237250000Y-78650000D01*
D36*
X254300000Y-68600000D02*
X255600000Y-69900000D01*
X254300000Y-67600000D02*
X254300000Y-68600000D01*
X255600000Y-74879000D02*
X255600000Y-69900000D01*
X256921000Y-76200000D02*
X255600000Y-74879000D01*
D37*
X236200000Y-80000000D02*
X236750000Y-79450000D01*
X236750000Y-79450000D02*
X236750000Y-78650000D01*
D36*
X254800000Y-72000000D02*
X254800000Y-76619000D01*
X254800000Y-76619000D02*
X256921000Y-78740000D01*
D37*
X237750000Y-81000000D02*
X237750000Y-81500000D01*
X237750000Y-81500000D02*
X238000000Y-81750000D01*
X238000000Y-81750000D02*
X238850000Y-81750000D01*
X238850000Y-81250000D02*
X241350001Y-81249999D01*
X241350001Y-81249999D02*
X241600000Y-81000000D01*
D36*
X254300000Y-72000000D02*
X254300000Y-78659000D01*
X254300000Y-78659000D02*
X256921000Y-81280000D01*
D37*
X238850000Y-80750000D02*
X240450000Y-80750000D01*
X240450000Y-80750000D02*
X241000000Y-80200000D01*
D36*
X253800000Y-72000000D02*
X253800000Y-79861002D01*
X253800000Y-79861002D02*
X256071001Y-82132003D01*
X256071001Y-82132003D02*
X256071001Y-82970001D01*
X256071001Y-82970001D02*
X256921000Y-83820000D01*
X253300000Y-72000000D02*
X253300000Y-79997412D01*
X258450000Y-89911000D02*
X256921000Y-91440000D01*
X253300000Y-79997412D02*
X255600000Y-82297412D01*
X255600000Y-84900000D02*
X258450000Y-87750000D01*
X255600000Y-82297412D02*
X255600000Y-84900000D01*
X258450000Y-87750000D02*
X258450000Y-89911000D01*
D37*
X238850000Y-80250000D02*
X240000000Y-80250000D01*
X240000000Y-80250000D02*
X240250000Y-80000000D01*
D36*
X252900000Y-102000000D02*
X252900000Y-98001000D01*
X252900000Y-98001000D02*
X256921000Y-93980000D01*
D37*
X232500000Y-80500000D02*
X232250000Y-80250000D01*
X232250000Y-80250000D02*
X232250000Y-78650000D01*
D36*
X253400000Y-102000000D02*
X253400000Y-100041000D01*
X253400000Y-100041000D02*
X256921000Y-96520000D01*
D37*
X231750000Y-80500000D02*
X231750000Y-78650000D01*
D36*
X253900000Y-102000000D02*
X253900000Y-101000000D01*
X253900000Y-101000000D02*
X255840000Y-99060000D01*
X255840000Y-99060000D02*
X256921000Y-99060000D01*
D37*
X231500000Y-81250000D02*
X230150000Y-81250000D01*
D36*
X254400000Y-102000000D02*
X256521000Y-102000000D01*
X256521000Y-102000000D02*
X256921000Y-101600000D01*
D37*
X231327832Y-81750000D02*
X231538916Y-81961084D01*
X230150000Y-81750000D02*
X231327832Y-81750000D01*
D36*
X254400000Y-106400000D02*
X254400000Y-106950000D01*
X254400000Y-106950000D02*
X256670000Y-109220000D01*
X256670000Y-109220000D02*
X256921000Y-109220000D01*
D37*
X230150000Y-83750000D02*
X230850000Y-83750000D01*
X230850000Y-83750000D02*
X231400000Y-83200000D01*
D36*
X253900000Y-106400000D02*
X253900000Y-108739000D01*
X253900000Y-108739000D02*
X256921000Y-111760000D01*
D37*
X230150000Y-84250000D02*
X231150000Y-84250000D01*
X231150000Y-84250000D02*
X231400000Y-84000000D01*
D36*
X256921000Y-114300000D02*
X253400000Y-110779000D01*
X253400000Y-110779000D02*
X253400000Y-106400000D01*
D37*
X230150000Y-84750000D02*
X231350000Y-84750000D01*
X231350000Y-84750000D02*
X231400000Y-84800000D01*
D36*
X252900000Y-106400000D02*
X252900000Y-112819000D01*
X252900000Y-112819000D02*
X256921000Y-116840000D01*
D37*
X230150000Y-85250000D02*
X231050000Y-85250000D01*
X231050000Y-85250000D02*
X231400000Y-85600000D01*
D40*
X235550000Y-60150000D02*
X237550000Y-60150000D01*
X237550000Y-60150000D02*
X238000000Y-60600000D01*
D38*
X235550000Y-60150000D02*
X235550000Y-57950000D01*
X235550000Y-57950000D02*
X234950000Y-57350000D01*
X235600000Y-64600000D02*
X235600000Y-60200000D01*
X235600000Y-60200000D02*
X235550000Y-60150000D01*
X235550000Y-57650000D02*
X234900000Y-57000000D01*
X235550000Y-64550000D02*
X235600000Y-64600000D01*
X234900000Y-63900000D02*
X235600000Y-64600000D01*
D36*
X238000000Y-60600000D02*
X238150000Y-60750000D01*
X238150000Y-60750000D02*
X239600000Y-60750000D01*
D38*
X236200000Y-63550000D02*
X236200000Y-64600000D01*
D37*
X239600000Y-61250000D02*
X239600000Y-60750000D01*
D41*
G36*
X243587000Y-59850000D02*
X243588024Y-59855058D01*
X243590935Y-59859319D01*
X243595275Y-59862111D01*
X243600000Y-59863000D01*
X245987000Y-59863000D01*
X245987000Y-60837000D01*
X241563000Y-60837000D01*
X241563000Y-60663000D01*
X241900000Y-60663000D01*
X241905058Y-60661976D01*
X241908460Y-60659870D01*
X242258460Y-60359870D01*
X242261634Y-60355801D01*
X242263000Y-60350000D01*
X242263000Y-59805790D01*
X242754989Y-59363000D01*
X243587000Y-59363000D01*
X243587000Y-59850000D01*
X243587000Y-59850000D01*
G37*
X243587000Y-59850000D02*
X243588024Y-59855058D01*
X243590935Y-59859319D01*
X243595275Y-59862111D01*
X243600000Y-59863000D01*
X245987000Y-59863000D01*
X245987000Y-60837000D01*
X241563000Y-60837000D01*
X241563000Y-60663000D01*
X241900000Y-60663000D01*
X241905058Y-60661976D01*
X241908460Y-60659870D01*
X242258460Y-60359870D01*
X242261634Y-60355801D01*
X242263000Y-60350000D01*
X242263000Y-59805790D01*
X242754989Y-59363000D01*
X243587000Y-59363000D01*
X243587000Y-59850000D01*
G36*
X243537000Y-57737000D02*
X240963000Y-57737000D01*
X240963000Y-56363000D01*
X243537000Y-56363000D01*
X243537000Y-57737000D01*
X243537000Y-57737000D01*
G37*
X243537000Y-57737000D02*
X240963000Y-57737000D01*
X240963000Y-56363000D01*
X243537000Y-56363000D01*
X243537000Y-57737000D01*
D42*
G36*
X258498000Y-56941871D02*
X258491658Y-56932380D01*
X258093591Y-56666400D01*
X257624038Y-56573000D01*
X257575962Y-56573000D01*
X257106409Y-56666400D01*
X256708342Y-56932380D01*
X256442362Y-57330447D01*
X256348962Y-57800000D01*
X256442362Y-58269553D01*
X256708342Y-58667620D01*
X257023000Y-58877868D01*
X257023000Y-59262132D01*
X256708342Y-59472380D01*
X256442362Y-59870447D01*
X256348962Y-60340000D01*
X256442362Y-60809553D01*
X256708342Y-61207620D01*
X257023000Y-61417868D01*
X257023000Y-62235999D01*
X255769363Y-63489635D01*
X255350000Y-63489635D01*
X255191763Y-63519409D01*
X255161749Y-63538723D01*
X255009698Y-63386673D01*
X254776309Y-63290000D01*
X254535750Y-63290000D01*
X254377000Y-63448750D01*
X254377000Y-64173000D01*
X254397000Y-64173000D01*
X254397000Y-64427000D01*
X254377000Y-64427000D01*
X254377000Y-65151250D01*
X254535750Y-65310000D01*
X254776309Y-65310000D01*
X255009698Y-65213327D01*
X255160624Y-65062402D01*
X255180619Y-65076064D01*
X255350000Y-65110365D01*
X256150000Y-65110365D01*
X256308237Y-65080591D01*
X256453567Y-64987073D01*
X256551064Y-64844381D01*
X256585365Y-64675000D01*
X256585365Y-64305637D01*
X258007998Y-62883003D01*
X258008001Y-62883001D01*
X258133078Y-62695808D01*
X258134816Y-62687073D01*
X258177001Y-62475000D01*
X258177000Y-62474995D01*
X258177000Y-61417868D01*
X258491658Y-61207620D01*
X258498000Y-61198129D01*
X258498000Y-68481999D01*
X257208001Y-67191999D01*
X257020808Y-67066922D01*
X256800000Y-67022999D01*
X256799995Y-67023000D01*
X255385365Y-67023000D01*
X255385365Y-66900000D01*
X255355591Y-66741763D01*
X255262073Y-66596433D01*
X255119381Y-66498936D01*
X254950000Y-66464635D01*
X254650000Y-66464635D01*
X254546328Y-66484142D01*
X254450000Y-66464635D01*
X254150000Y-66464635D01*
X254046328Y-66484142D01*
X253950000Y-66464635D01*
X253650000Y-66464635D01*
X253546328Y-66484142D01*
X253450000Y-66464635D01*
X253150000Y-66464635D01*
X253046328Y-66484142D01*
X252950000Y-66464635D01*
X252650000Y-66464635D01*
X252491763Y-66494409D01*
X252346433Y-66587927D01*
X252248936Y-66730619D01*
X252214635Y-66900000D01*
X252214635Y-68300000D01*
X252244409Y-68458237D01*
X252337927Y-68603567D01*
X252480619Y-68701064D01*
X252650000Y-68735365D01*
X252950000Y-68735365D01*
X253053672Y-68715858D01*
X253150000Y-68735365D01*
X253450000Y-68735365D01*
X253553672Y-68715858D01*
X253650000Y-68735365D01*
X253749926Y-68735365D01*
X253766922Y-68820808D01*
X253891999Y-69008001D01*
X255023000Y-70139001D01*
X255023000Y-70879418D01*
X254950000Y-70864635D01*
X254650000Y-70864635D01*
X254546328Y-70884142D01*
X254450000Y-70864635D01*
X254150000Y-70864635D01*
X254046328Y-70884142D01*
X253950000Y-70864635D01*
X253650000Y-70864635D01*
X253546328Y-70884142D01*
X253450000Y-70864635D01*
X253150000Y-70864635D01*
X252991763Y-70894409D01*
X252846433Y-70987927D01*
X252748936Y-71130619D01*
X252714635Y-71300000D01*
X252714635Y-72700000D01*
X252723000Y-72744457D01*
X252723000Y-79997407D01*
X252722999Y-79997412D01*
X252766922Y-80218220D01*
X252891999Y-80405413D01*
X255023000Y-82536413D01*
X255023000Y-84899995D01*
X255022999Y-84900000D01*
X255066922Y-85120808D01*
X255191999Y-85308001D01*
X257298999Y-87415000D01*
X257206750Y-87415000D01*
X257048000Y-87573750D01*
X257048000Y-88773000D01*
X257068000Y-88773000D01*
X257068000Y-89027000D01*
X257048000Y-89027000D01*
X257048000Y-89047000D01*
X256794000Y-89047000D01*
X256794000Y-89027000D01*
X255594750Y-89027000D01*
X255436000Y-89185750D01*
X255436000Y-89876310D01*
X255532673Y-90109699D01*
X255711302Y-90288327D01*
X255944691Y-90385000D01*
X256220528Y-90385000D01*
X255993007Y-90537025D01*
X255716188Y-90951313D01*
X255618982Y-91440000D01*
X255716188Y-91928687D01*
X255993007Y-92342975D01*
X256407295Y-92619794D01*
X256860791Y-92710000D01*
X256407295Y-92800206D01*
X255993007Y-93077025D01*
X255716188Y-93491313D01*
X255618982Y-93980000D01*
X255699617Y-94385381D01*
X252491999Y-97592999D01*
X252366922Y-97780192D01*
X252322999Y-98001000D01*
X252323000Y-98001005D01*
X252323000Y-100864635D01*
X252250000Y-100864635D01*
X252091763Y-100894409D01*
X251946433Y-100987927D01*
X251848936Y-101130619D01*
X251814635Y-101300000D01*
X251814635Y-102700000D01*
X251844409Y-102858237D01*
X251937927Y-103003567D01*
X252080619Y-103101064D01*
X252250000Y-103135365D01*
X252550000Y-103135365D01*
X252653672Y-103115858D01*
X252750000Y-103135365D01*
X253050000Y-103135365D01*
X253153672Y-103115858D01*
X253250000Y-103135365D01*
X253550000Y-103135365D01*
X253653672Y-103115858D01*
X253750000Y-103135365D01*
X254050000Y-103135365D01*
X254153672Y-103115858D01*
X254250000Y-103135365D01*
X254550000Y-103135365D01*
X254708237Y-103105591D01*
X254853567Y-103012073D01*
X254951064Y-102869381D01*
X254985365Y-102700000D01*
X254985365Y-102577000D01*
X256103793Y-102577000D01*
X256407295Y-102779794D01*
X256895982Y-102877000D01*
X256946018Y-102877000D01*
X257434705Y-102779794D01*
X257848993Y-102502975D01*
X258125812Y-102088687D01*
X258223018Y-101600000D01*
X258125812Y-101111313D01*
X257848993Y-100697025D01*
X257434705Y-100420206D01*
X256981209Y-100330000D01*
X257434705Y-100239794D01*
X257848993Y-99962975D01*
X258125812Y-99548687D01*
X258223018Y-99060000D01*
X258125812Y-98571313D01*
X257848993Y-98157025D01*
X257434705Y-97880206D01*
X256981209Y-97790000D01*
X257434705Y-97699794D01*
X257848993Y-97422975D01*
X258125812Y-97008687D01*
X258223018Y-96520000D01*
X258125812Y-96031313D01*
X257848993Y-95617025D01*
X257434705Y-95340206D01*
X256981209Y-95250000D01*
X257434705Y-95159794D01*
X257848993Y-94882975D01*
X258125812Y-94468687D01*
X258223018Y-93980000D01*
X258125812Y-93491313D01*
X257848993Y-93077025D01*
X257434705Y-92800206D01*
X256981209Y-92710000D01*
X257434705Y-92619794D01*
X257848993Y-92342975D01*
X258125812Y-91928687D01*
X258223018Y-91440000D01*
X258142383Y-91034619D01*
X258498000Y-90679001D01*
X258498000Y-121498000D01*
X223502000Y-121498000D01*
X223502000Y-94200000D01*
X223914635Y-94200000D01*
X223914635Y-94700000D01*
X223944409Y-94858237D01*
X224037927Y-95003567D01*
X224180619Y-95101064D01*
X224302617Y-95125770D01*
X224266922Y-95179192D01*
X224246034Y-95284197D01*
X224191763Y-95294409D01*
X224046433Y-95387927D01*
X223948936Y-95530619D01*
X223914635Y-95700000D01*
X223914635Y-96200000D01*
X223944409Y-96358237D01*
X224037927Y-96503567D01*
X224180619Y-96601064D01*
X224245725Y-96614249D01*
X224266922Y-96720808D01*
X224391999Y-96908001D01*
X224691999Y-97208001D01*
X224879192Y-97333078D01*
X225100000Y-97377000D01*
X225760998Y-97377000D01*
X226623000Y-98239001D01*
X226623000Y-104619995D01*
X226622999Y-104620000D01*
X226666922Y-104840808D01*
X226791999Y-105028001D01*
X228796268Y-107032269D01*
X228774839Y-107140000D01*
X228845403Y-107494748D01*
X229032661Y-107775000D01*
X228845403Y-108055252D01*
X228774839Y-108410000D01*
X228845403Y-108764748D01*
X229046351Y-109065488D01*
X229347091Y-109266436D01*
X229701839Y-109337000D01*
X229738161Y-109337000D01*
X230092909Y-109266436D01*
X230176155Y-109210813D01*
X230177927Y-109213567D01*
X230320619Y-109311064D01*
X230490000Y-109345365D01*
X231490000Y-109345365D01*
X231648237Y-109315591D01*
X231793567Y-109222073D01*
X231891064Y-109079381D01*
X231925365Y-108910000D01*
X231925365Y-107910000D01*
X231902207Y-107786926D01*
X231977127Y-107700209D01*
X232084119Y-107441874D01*
X231957954Y-107267000D01*
X231117000Y-107267000D01*
X231117000Y-107287000D01*
X230863000Y-107287000D01*
X230863000Y-107267000D01*
X230843000Y-107267000D01*
X230843000Y-107013000D01*
X230863000Y-107013000D01*
X230863000Y-105997000D01*
X231117000Y-105997000D01*
X231117000Y-107013000D01*
X231957954Y-107013000D01*
X232084119Y-106838126D01*
X231977127Y-106579791D01*
X231912511Y-106505000D01*
X231977127Y-106430209D01*
X232084119Y-106171874D01*
X231957954Y-105997000D01*
X231117000Y-105997000D01*
X230863000Y-105997000D01*
X230843000Y-105997000D01*
X230843000Y-105743000D01*
X230863000Y-105743000D01*
X230863000Y-105723000D01*
X231117000Y-105723000D01*
X231117000Y-105743000D01*
X231957954Y-105743000D01*
X231988976Y-105700000D01*
X252314635Y-105700000D01*
X252314635Y-107100000D01*
X252323000Y-107144457D01*
X252323000Y-112818995D01*
X252322999Y-112819000D01*
X252366922Y-113039808D01*
X252491999Y-113227001D01*
X255699617Y-116434619D01*
X255618982Y-116840000D01*
X255716188Y-117328687D01*
X255993007Y-117742975D01*
X256407295Y-118019794D01*
X256860791Y-118110000D01*
X256407295Y-118200206D01*
X255993007Y-118477025D01*
X255716188Y-118891313D01*
X255618982Y-119380000D01*
X255716188Y-119868687D01*
X255993007Y-120282975D01*
X256407295Y-120559794D01*
X256895982Y-120657000D01*
X256946018Y-120657000D01*
X257434705Y-120559794D01*
X257848993Y-120282975D01*
X258125812Y-119868687D01*
X258223018Y-119380000D01*
X258125812Y-118891313D01*
X257848993Y-118477025D01*
X257434705Y-118200206D01*
X256981209Y-118110000D01*
X257434705Y-118019794D01*
X257848993Y-117742975D01*
X258125812Y-117328687D01*
X258223018Y-116840000D01*
X258125812Y-116351313D01*
X257848993Y-115937025D01*
X257434705Y-115660206D01*
X256981209Y-115570000D01*
X257434705Y-115479794D01*
X257848993Y-115202975D01*
X258125812Y-114788687D01*
X258223018Y-114300000D01*
X258125812Y-113811313D01*
X257848993Y-113397025D01*
X257434705Y-113120206D01*
X256981209Y-113030000D01*
X257434705Y-112939794D01*
X257848993Y-112662975D01*
X258125812Y-112248687D01*
X258223018Y-111760000D01*
X258125812Y-111271313D01*
X257848993Y-110857025D01*
X257434705Y-110580206D01*
X256981209Y-110490000D01*
X257434705Y-110399794D01*
X257848993Y-110122975D01*
X258125812Y-109708687D01*
X258223018Y-109220000D01*
X258125812Y-108731313D01*
X257848993Y-108317025D01*
X257621472Y-108165000D01*
X257897309Y-108165000D01*
X258130698Y-108068327D01*
X258309327Y-107889699D01*
X258406000Y-107656310D01*
X258406000Y-106965750D01*
X258247250Y-106807000D01*
X257048000Y-106807000D01*
X257048000Y-106827000D01*
X256794000Y-106827000D01*
X256794000Y-106807000D01*
X255594750Y-106807000D01*
X255436000Y-106965750D01*
X255436000Y-107169998D01*
X254985365Y-106719363D01*
X254985365Y-105703690D01*
X255436000Y-105703690D01*
X255436000Y-106394250D01*
X255594750Y-106553000D01*
X256794000Y-106553000D01*
X256794000Y-105353750D01*
X257048000Y-105353750D01*
X257048000Y-106553000D01*
X258247250Y-106553000D01*
X258406000Y-106394250D01*
X258406000Y-105703690D01*
X258309327Y-105470301D01*
X258130698Y-105291673D01*
X257897309Y-105195000D01*
X257206750Y-105195000D01*
X257048000Y-105353750D01*
X256794000Y-105353750D01*
X256635250Y-105195000D01*
X255944691Y-105195000D01*
X255711302Y-105291673D01*
X255532673Y-105470301D01*
X255436000Y-105703690D01*
X254985365Y-105703690D01*
X254985365Y-105700000D01*
X254955591Y-105541763D01*
X254862073Y-105396433D01*
X254719381Y-105298936D01*
X254550000Y-105264635D01*
X254250000Y-105264635D01*
X254146328Y-105284142D01*
X254050000Y-105264635D01*
X253750000Y-105264635D01*
X253646328Y-105284142D01*
X253550000Y-105264635D01*
X253250000Y-105264635D01*
X253146328Y-105284142D01*
X253050000Y-105264635D01*
X252750000Y-105264635D01*
X252591763Y-105294409D01*
X252446433Y-105387927D01*
X252348936Y-105530619D01*
X252314635Y-105700000D01*
X231988976Y-105700000D01*
X232084119Y-105568126D01*
X231977127Y-105309791D01*
X231779900Y-105081506D01*
X231864597Y-104954748D01*
X231935161Y-104600000D01*
X231864597Y-104245252D01*
X231779900Y-104118494D01*
X231977127Y-103890209D01*
X232084119Y-103631874D01*
X231957954Y-103457000D01*
X231117000Y-103457000D01*
X231117000Y-103477000D01*
X230863000Y-103477000D01*
X230863000Y-103457000D01*
X230843000Y-103457000D01*
X230843000Y-103203000D01*
X230863000Y-103203000D01*
X230863000Y-102360865D01*
X231117000Y-102360865D01*
X231117000Y-103203000D01*
X231957954Y-103203000D01*
X232084119Y-103028126D01*
X231977127Y-102769791D01*
X231687604Y-102434677D01*
X231291877Y-102235868D01*
X231117000Y-102360865D01*
X230863000Y-102360865D01*
X230688123Y-102235868D01*
X230292396Y-102434677D01*
X230198084Y-102543840D01*
X230092909Y-102473564D01*
X229738161Y-102403000D01*
X229701839Y-102403000D01*
X229624405Y-102418403D01*
X228977000Y-101770998D01*
X228977000Y-100876980D01*
X229134073Y-100877117D01*
X229382989Y-100774267D01*
X229573598Y-100583990D01*
X229676882Y-100335254D01*
X229677117Y-100065927D01*
X229577000Y-99823625D01*
X229577000Y-99034073D01*
X239822883Y-99034073D01*
X239925733Y-99282989D01*
X240116010Y-99473598D01*
X240364746Y-99576882D01*
X240634073Y-99577117D01*
X240882989Y-99474267D01*
X241073598Y-99283990D01*
X241176882Y-99035254D01*
X241176940Y-98968350D01*
X241272645Y-98872646D01*
X241386884Y-98701675D01*
X241386885Y-98701674D01*
X241405047Y-98610365D01*
X241430000Y-98610365D01*
X241588237Y-98580591D01*
X241733567Y-98487073D01*
X241831064Y-98344381D01*
X241865365Y-98175000D01*
X241865365Y-97525000D01*
X241835591Y-97366763D01*
X241742073Y-97221433D01*
X241599381Y-97123936D01*
X241430000Y-97089635D01*
X240370000Y-97089635D01*
X240211763Y-97119409D01*
X240066433Y-97212927D01*
X239968936Y-97355619D01*
X239934635Y-97525000D01*
X239934635Y-98175000D01*
X239964409Y-98333237D01*
X240021155Y-98421422D01*
X239926402Y-98516010D01*
X239823118Y-98764746D01*
X239822883Y-99034073D01*
X229577000Y-99034073D01*
X229577000Y-96383583D01*
X234072839Y-96383583D01*
X234213669Y-96724417D01*
X234474211Y-96985414D01*
X234814799Y-97126839D01*
X235183583Y-97127161D01*
X235183973Y-97127000D01*
X236750000Y-97127000D01*
X237001366Y-97077000D01*
X238700000Y-97077000D01*
X239054748Y-97006436D01*
X239090706Y-96982410D01*
X239233237Y-96955591D01*
X239378567Y-96862073D01*
X239476064Y-96719381D01*
X239494772Y-96627000D01*
X240128811Y-96627000D01*
X240200619Y-96676064D01*
X240370000Y-96710365D01*
X241430000Y-96710365D01*
X241588237Y-96680591D01*
X241733567Y-96587073D01*
X241831064Y-96444381D01*
X241865365Y-96275000D01*
X241865365Y-95625000D01*
X241835591Y-95466763D01*
X241742073Y-95321433D01*
X241599381Y-95223936D01*
X241430000Y-95189635D01*
X240370000Y-95189635D01*
X240211763Y-95219409D01*
X240128481Y-95273000D01*
X239200000Y-95273000D01*
X239064353Y-95299982D01*
X239054748Y-95293564D01*
X238700000Y-95223000D01*
X236800000Y-95223000D01*
X236548631Y-95273000D01*
X235000809Y-95273000D01*
X234816417Y-95272839D01*
X234475583Y-95413669D01*
X234214586Y-95674211D01*
X234073161Y-96014799D01*
X234072839Y-96383583D01*
X229577000Y-96383583D01*
X229577000Y-96239002D01*
X232157998Y-93658003D01*
X232158001Y-93658001D01*
X232283078Y-93470808D01*
X232327000Y-93250000D01*
X232327000Y-93127778D01*
X232401064Y-93019381D01*
X232435365Y-92850000D01*
X232435365Y-91950000D01*
X232405591Y-91791763D01*
X232327000Y-91669630D01*
X232327000Y-91127778D01*
X232401064Y-91019381D01*
X232409646Y-90977000D01*
X232424203Y-90977000D01*
X232664746Y-91076882D01*
X232934073Y-91077117D01*
X233182989Y-90974267D01*
X233373598Y-90783990D01*
X233476882Y-90535254D01*
X233477117Y-90265927D01*
X233374267Y-90017011D01*
X233183990Y-89826402D01*
X232935254Y-89723118D01*
X232665927Y-89722883D01*
X232423625Y-89823000D01*
X232411469Y-89823000D01*
X232405591Y-89791763D01*
X232312073Y-89646433D01*
X232169381Y-89548936D01*
X232000000Y-89514635D01*
X231500000Y-89514635D01*
X231341763Y-89544409D01*
X231196433Y-89637927D01*
X231098936Y-89780619D01*
X231064635Y-89950000D01*
X231064635Y-90850000D01*
X231094409Y-91008237D01*
X231173000Y-91130370D01*
X231173000Y-91672222D01*
X231098936Y-91780619D01*
X231064635Y-91950000D01*
X231064635Y-92850000D01*
X231094409Y-93008237D01*
X231126262Y-93057737D01*
X230827000Y-93356999D01*
X230827000Y-93127778D01*
X230901064Y-93019381D01*
X230935365Y-92850000D01*
X230935365Y-91950000D01*
X230905591Y-91791763D01*
X230812073Y-91646433D01*
X230669381Y-91548936D01*
X230500000Y-91514635D01*
X230000000Y-91514635D01*
X229841763Y-91544409D01*
X229696433Y-91637927D01*
X229598936Y-91780619D01*
X229564635Y-91950000D01*
X229564635Y-92850000D01*
X229594409Y-93008237D01*
X229673000Y-93130370D01*
X229673000Y-93710997D01*
X228885365Y-94498631D01*
X228885365Y-94200000D01*
X228855591Y-94041763D01*
X228762073Y-93896433D01*
X228619381Y-93798936D01*
X228577000Y-93790354D01*
X228577000Y-91239002D01*
X229564635Y-90251366D01*
X229564635Y-90850000D01*
X229594409Y-91008237D01*
X229687927Y-91153567D01*
X229830619Y-91251064D01*
X230000000Y-91285365D01*
X230500000Y-91285365D01*
X230658237Y-91255591D01*
X230803567Y-91162073D01*
X230901064Y-91019381D01*
X230935365Y-90850000D01*
X230935365Y-89950000D01*
X230905591Y-89791763D01*
X230812073Y-89646433D01*
X230777000Y-89622469D01*
X230777000Y-89175797D01*
X230876882Y-88935254D01*
X230876919Y-88892921D01*
X230991999Y-89008001D01*
X231179192Y-89133078D01*
X231400000Y-89177000D01*
X232449995Y-89177000D01*
X232450000Y-89177001D01*
X232670808Y-89133078D01*
X232858001Y-89008001D01*
X233158001Y-88708001D01*
X233270056Y-88540297D01*
X233498690Y-88635000D01*
X233528750Y-88635000D01*
X233687500Y-88476250D01*
X233687500Y-88298999D01*
X233750580Y-88206678D01*
X233812500Y-88302903D01*
X233812500Y-88476250D01*
X233971250Y-88635000D01*
X234001310Y-88635000D01*
X234234699Y-88538327D01*
X234337660Y-88435365D01*
X234375000Y-88435365D01*
X234504591Y-88410981D01*
X234625000Y-88435365D01*
X234673000Y-88435365D01*
X234673000Y-88774995D01*
X234672999Y-88775000D01*
X234716922Y-88995808D01*
X234778782Y-89088389D01*
X234475583Y-89213669D01*
X234214586Y-89474211D01*
X234073161Y-89814799D01*
X234072839Y-90183583D01*
X234213669Y-90524417D01*
X234474211Y-90785414D01*
X234814799Y-90926839D01*
X235183583Y-90927161D01*
X235183973Y-90927000D01*
X235573000Y-90927000D01*
X235573000Y-91750000D01*
X235643564Y-92104748D01*
X235667590Y-92140706D01*
X235694409Y-92283237D01*
X235787927Y-92428567D01*
X235930619Y-92526064D01*
X236065996Y-92553479D01*
X236145252Y-92606436D01*
X236500000Y-92677000D01*
X236854748Y-92606436D01*
X236932988Y-92554158D01*
X237058237Y-92530591D01*
X237088251Y-92511277D01*
X237240302Y-92663327D01*
X237473691Y-92760000D01*
X237714250Y-92760000D01*
X237873000Y-92601250D01*
X237873000Y-91877000D01*
X238127000Y-91877000D01*
X238127000Y-92601250D01*
X238285750Y-92760000D01*
X238526309Y-92760000D01*
X238759698Y-92663327D01*
X238938327Y-92484699D01*
X239035000Y-92251310D01*
X239035000Y-92035750D01*
X238876250Y-91877000D01*
X238127000Y-91877000D01*
X237873000Y-91877000D01*
X237853000Y-91877000D01*
X237853000Y-91623000D01*
X237873000Y-91623000D01*
X237873000Y-90898750D01*
X237849250Y-90875000D01*
X237873000Y-90851250D01*
X237873000Y-90127000D01*
X238127000Y-90127000D01*
X238127000Y-90851250D01*
X238150750Y-90875000D01*
X238127000Y-90898750D01*
X238127000Y-91623000D01*
X238876250Y-91623000D01*
X239035000Y-91464250D01*
X239035000Y-91248690D01*
X238938327Y-91015301D01*
X238856609Y-90933583D01*
X241822839Y-90933583D01*
X241963669Y-91274417D01*
X242224211Y-91535414D01*
X242224599Y-91535575D01*
X244073000Y-93383976D01*
X244073000Y-95273000D01*
X243871189Y-95273000D01*
X243799381Y-95223936D01*
X243630000Y-95189635D01*
X242570000Y-95189635D01*
X242411763Y-95219409D01*
X242266433Y-95312927D01*
X242168936Y-95455619D01*
X242134635Y-95625000D01*
X242134635Y-96275000D01*
X242164409Y-96433237D01*
X242257927Y-96578567D01*
X242400619Y-96676064D01*
X242570000Y-96710365D01*
X243630000Y-96710365D01*
X243788237Y-96680591D01*
X243871519Y-96627000D01*
X244204123Y-96627000D01*
X244219409Y-96708237D01*
X244312927Y-96853567D01*
X244455619Y-96951064D01*
X244608810Y-96982086D01*
X244645252Y-97006436D01*
X245000000Y-97077000D01*
X246700000Y-97077000D01*
X247054748Y-97006436D01*
X247090706Y-96982410D01*
X247233237Y-96955591D01*
X247378567Y-96862073D01*
X247476064Y-96719381D01*
X247503479Y-96584004D01*
X247556436Y-96504748D01*
X247627000Y-96150000D01*
X247556436Y-95795252D01*
X247504158Y-95717012D01*
X247480591Y-95591763D01*
X247387073Y-95446433D01*
X247244381Y-95348936D01*
X247091190Y-95317914D01*
X247054748Y-95293564D01*
X246700000Y-95223000D01*
X245927000Y-95223000D01*
X245927000Y-93000000D01*
X245895572Y-92842000D01*
X245856437Y-92645253D01*
X245655488Y-92344512D01*
X243424152Y-90113176D01*
X243503567Y-90062073D01*
X243601064Y-89919381D01*
X243635365Y-89750000D01*
X243635365Y-89250000D01*
X243605591Y-89091763D01*
X243512073Y-88946433D01*
X243369381Y-88848936D01*
X243200000Y-88814635D01*
X242300000Y-88814635D01*
X242141763Y-88844409D01*
X241996433Y-88937927D01*
X241898936Y-89080619D01*
X241864635Y-89250000D01*
X241864635Y-89750000D01*
X241894409Y-89908237D01*
X241987927Y-90053567D01*
X242075552Y-90113438D01*
X241964586Y-90224211D01*
X241823161Y-90564799D01*
X241822839Y-90933583D01*
X238856609Y-90933583D01*
X238798025Y-90875000D01*
X238938327Y-90734699D01*
X239035000Y-90501310D01*
X239035000Y-90285750D01*
X238876250Y-90127000D01*
X238127000Y-90127000D01*
X237873000Y-90127000D01*
X237853000Y-90127000D01*
X237853000Y-89873000D01*
X237873000Y-89873000D01*
X237873000Y-89148750D01*
X238127000Y-89148750D01*
X238127000Y-89873000D01*
X238876250Y-89873000D01*
X239035000Y-89714250D01*
X239035000Y-89498690D01*
X238938327Y-89265301D01*
X238759698Y-89086673D01*
X238526309Y-88990000D01*
X238285750Y-88990000D01*
X238127000Y-89148750D01*
X237873000Y-89148750D01*
X237714250Y-88990000D01*
X237473691Y-88990000D01*
X237240302Y-89086673D01*
X237089376Y-89237598D01*
X237069381Y-89223936D01*
X236934004Y-89196521D01*
X236854748Y-89143564D01*
X236500000Y-89073000D01*
X236364002Y-89073000D01*
X235827000Y-88535998D01*
X235827000Y-88435365D01*
X235875000Y-88435365D01*
X236004591Y-88410981D01*
X236125000Y-88435365D01*
X236375000Y-88435365D01*
X236504591Y-88410981D01*
X236625000Y-88435365D01*
X236875000Y-88435365D01*
X237004591Y-88410981D01*
X237125000Y-88435365D01*
X237375000Y-88435365D01*
X237533237Y-88405591D01*
X237678567Y-88312073D01*
X237776064Y-88169381D01*
X237810365Y-88000000D01*
X237810365Y-86700000D01*
X237780591Y-86541763D01*
X237687073Y-86396433D01*
X237544381Y-86298936D01*
X237375000Y-86264635D01*
X237125000Y-86264635D01*
X236995409Y-86289019D01*
X236875000Y-86264635D01*
X236625000Y-86264635D01*
X236495409Y-86289019D01*
X236375000Y-86264635D01*
X236125000Y-86264635D01*
X235995409Y-86289019D01*
X235875000Y-86264635D01*
X235625000Y-86264635D01*
X235495409Y-86289019D01*
X235375000Y-86264635D01*
X235125000Y-86264635D01*
X234995409Y-86289019D01*
X234875000Y-86264635D01*
X234625000Y-86264635D01*
X234495409Y-86289019D01*
X234375000Y-86264635D01*
X234337660Y-86264635D01*
X234234699Y-86161673D01*
X234001310Y-86065000D01*
X233971250Y-86065000D01*
X233812500Y-86223750D01*
X233812500Y-86401001D01*
X233749420Y-86493322D01*
X233687500Y-86397097D01*
X233687500Y-86223750D01*
X233528750Y-86065000D01*
X233498690Y-86065000D01*
X233265301Y-86161673D01*
X233162340Y-86264635D01*
X233125000Y-86264635D01*
X232995409Y-86289019D01*
X232875000Y-86264635D01*
X232625000Y-86264635D01*
X232495409Y-86289019D01*
X232375000Y-86264635D01*
X232125000Y-86264635D01*
X231995409Y-86289019D01*
X231875000Y-86264635D01*
X231625000Y-86264635D01*
X231466763Y-86294409D01*
X231321433Y-86387927D01*
X231223936Y-86530619D01*
X231189635Y-86700000D01*
X231189635Y-87579727D01*
X231020808Y-87466922D01*
X230800000Y-87422999D01*
X230799995Y-87423000D01*
X230200005Y-87423000D01*
X230200000Y-87422999D01*
X229979192Y-87466922D01*
X229791999Y-87591999D01*
X228977000Y-88406998D01*
X228977000Y-82839002D01*
X228989001Y-82827000D01*
X229064635Y-82827000D01*
X229064635Y-82875000D01*
X229089019Y-83004591D01*
X229064635Y-83125000D01*
X229064635Y-83375000D01*
X229089019Y-83504591D01*
X229064635Y-83625000D01*
X229064635Y-83875000D01*
X229089019Y-84004591D01*
X229064635Y-84125000D01*
X229064635Y-84375000D01*
X229089019Y-84504591D01*
X229064635Y-84625000D01*
X229064635Y-84875000D01*
X229089019Y-85004591D01*
X229064635Y-85125000D01*
X229064635Y-85375000D01*
X229089019Y-85504591D01*
X229064635Y-85625000D01*
X229064635Y-85875000D01*
X229094409Y-86033237D01*
X229187927Y-86178567D01*
X229330619Y-86276064D01*
X229500000Y-86310365D01*
X230800000Y-86310365D01*
X230958237Y-86280591D01*
X231081954Y-86200980D01*
X231264746Y-86276882D01*
X231534073Y-86277117D01*
X231782989Y-86174267D01*
X231973598Y-85983990D01*
X232076882Y-85735254D01*
X232077117Y-85465927D01*
X232022637Y-85334073D01*
X236722883Y-85334073D01*
X236825733Y-85582989D01*
X237016010Y-85773598D01*
X237264746Y-85876882D01*
X237534073Y-85877117D01*
X237764635Y-85781851D01*
X237764635Y-85875000D01*
X237794409Y-86033237D01*
X237887927Y-86178567D01*
X238030619Y-86276064D01*
X238200000Y-86310365D01*
X239500000Y-86310365D01*
X239658237Y-86280591D01*
X239803567Y-86187073D01*
X239901064Y-86044381D01*
X239935365Y-85875000D01*
X239935365Y-85625000D01*
X239910981Y-85495409D01*
X239935365Y-85375000D01*
X239935365Y-85151367D01*
X242133637Y-87349638D01*
X241996433Y-87437927D01*
X241898936Y-87580619D01*
X241864635Y-87750000D01*
X241864635Y-88250000D01*
X241894409Y-88408237D01*
X241987927Y-88553567D01*
X242130619Y-88651064D01*
X242300000Y-88685365D01*
X243200000Y-88685365D01*
X243358237Y-88655591D01*
X243503567Y-88562073D01*
X243601064Y-88419381D01*
X243635365Y-88250000D01*
X243635365Y-87750000D01*
X243605591Y-87591763D01*
X243512073Y-87446433D01*
X243369381Y-87348936D01*
X243327000Y-87340354D01*
X243327000Y-87150000D01*
X243283078Y-86929192D01*
X243158001Y-86741999D01*
X243157998Y-86741997D01*
X242001752Y-85585750D01*
X243790000Y-85585750D01*
X243790000Y-85826309D01*
X243886673Y-86059698D01*
X244065301Y-86238327D01*
X244298690Y-86335000D01*
X244514250Y-86335000D01*
X244673000Y-86176250D01*
X244673000Y-85427000D01*
X244927000Y-85427000D01*
X244927000Y-86176250D01*
X245085750Y-86335000D01*
X245301310Y-86335000D01*
X245534699Y-86238327D01*
X245713327Y-86059698D01*
X245810000Y-85826309D01*
X245810000Y-85585750D01*
X245651250Y-85427000D01*
X244927000Y-85427000D01*
X244673000Y-85427000D01*
X243948750Y-85427000D01*
X243790000Y-85585750D01*
X242001752Y-85585750D01*
X240701752Y-84285750D01*
X242190000Y-84285750D01*
X242190000Y-84526309D01*
X242286673Y-84759698D01*
X242465301Y-84938327D01*
X242698690Y-85035000D01*
X242914250Y-85035000D01*
X243073000Y-84876250D01*
X243073000Y-84127000D01*
X242348750Y-84127000D01*
X242190000Y-84285750D01*
X240701752Y-84285750D01*
X240258001Y-83841999D01*
X240160722Y-83777000D01*
X242252750Y-83777000D01*
X242348750Y-83873000D01*
X243073000Y-83873000D01*
X243073000Y-83853000D01*
X243327000Y-83853000D01*
X243327000Y-83873000D01*
X243347000Y-83873000D01*
X243347000Y-84127000D01*
X243327000Y-84127000D01*
X243327000Y-84876250D01*
X243485750Y-85035000D01*
X243701310Y-85035000D01*
X243790000Y-84998263D01*
X243790000Y-85014250D01*
X243948750Y-85173000D01*
X244673000Y-85173000D01*
X244673000Y-85153000D01*
X244927000Y-85153000D01*
X244927000Y-85173000D01*
X245651250Y-85173000D01*
X245810000Y-85014250D01*
X245810000Y-84773691D01*
X245713327Y-84540302D01*
X245562402Y-84389376D01*
X245576064Y-84369381D01*
X245584646Y-84327000D01*
X247181710Y-84327000D01*
X247419345Y-84564635D01*
X247400000Y-84564635D01*
X247241763Y-84594409D01*
X247096433Y-84687927D01*
X246998936Y-84830619D01*
X246964635Y-85000000D01*
X246964635Y-89500000D01*
X246994409Y-89658237D01*
X247087927Y-89803567D01*
X247230619Y-89901064D01*
X247400000Y-89935365D01*
X249273000Y-89935365D01*
X249273000Y-90749191D01*
X249272839Y-90933583D01*
X249413669Y-91274417D01*
X249674211Y-91535414D01*
X250014799Y-91676839D01*
X250383583Y-91677161D01*
X250724417Y-91536331D01*
X250985414Y-91275789D01*
X251126839Y-90935201D01*
X251127161Y-90566417D01*
X251127000Y-90566027D01*
X251127000Y-87923690D01*
X255436000Y-87923690D01*
X255436000Y-88614250D01*
X255594750Y-88773000D01*
X256794000Y-88773000D01*
X256794000Y-87573750D01*
X256635250Y-87415000D01*
X255944691Y-87415000D01*
X255711302Y-87511673D01*
X255532673Y-87690301D01*
X255436000Y-87923690D01*
X251127000Y-87923690D01*
X251127000Y-76000809D01*
X251127161Y-75816417D01*
X250986331Y-75475583D01*
X250725789Y-75214586D01*
X250385201Y-75073161D01*
X250016417Y-75072839D01*
X249675583Y-75213669D01*
X249414586Y-75474211D01*
X249273161Y-75814799D01*
X249272943Y-76064635D01*
X247400000Y-76064635D01*
X247241763Y-76094409D01*
X247096433Y-76187927D01*
X246998936Y-76330619D01*
X246964635Y-76500000D01*
X246964635Y-81000000D01*
X246994409Y-81158237D01*
X247087927Y-81303567D01*
X247230619Y-81401064D01*
X247400000Y-81435365D01*
X247619345Y-81435365D01*
X247081710Y-81973000D01*
X243986469Y-81973000D01*
X243980591Y-81941763D01*
X243971091Y-81927000D01*
X245775000Y-81927000D01*
X246129748Y-81856436D01*
X246430488Y-81655488D01*
X246455488Y-81630488D01*
X246496318Y-81569381D01*
X246656436Y-81329748D01*
X246727000Y-80975000D01*
X246727000Y-78400809D01*
X246727161Y-78216417D01*
X246586331Y-77875583D01*
X246325789Y-77614586D01*
X245985201Y-77473161D01*
X245616417Y-77472839D01*
X245275583Y-77613669D01*
X245014586Y-77874211D01*
X244873161Y-78214799D01*
X244872943Y-78465000D01*
X244685750Y-78465000D01*
X244527000Y-78623750D01*
X244527000Y-79373000D01*
X244547000Y-79373000D01*
X244547000Y-79627000D01*
X244527000Y-79627000D01*
X244527000Y-79647000D01*
X244273000Y-79647000D01*
X244273000Y-79627000D01*
X242927000Y-79627000D01*
X242927000Y-79647000D01*
X242673000Y-79647000D01*
X242673000Y-79627000D01*
X241948750Y-79627000D01*
X241790000Y-79785750D01*
X241790000Y-80026309D01*
X241886673Y-80259698D01*
X242037598Y-80410624D01*
X242023936Y-80430619D01*
X242017909Y-80460380D01*
X241983990Y-80426402D01*
X241735254Y-80323118D01*
X241676893Y-80323067D01*
X241677117Y-80065927D01*
X241574267Y-79817011D01*
X241383990Y-79626402D01*
X241135254Y-79523118D01*
X240865927Y-79522883D01*
X240769908Y-79562557D01*
X240633990Y-79426402D01*
X240385254Y-79323118D01*
X240115927Y-79322883D01*
X239867011Y-79425733D01*
X239676402Y-79616010D01*
X239634519Y-79716876D01*
X239500000Y-79689635D01*
X238200000Y-79689635D01*
X238041763Y-79719409D01*
X237896433Y-79812927D01*
X237798936Y-79955619D01*
X237764635Y-80125000D01*
X237764635Y-80323013D01*
X237615927Y-80322883D01*
X237367011Y-80425733D01*
X237176402Y-80616010D01*
X237073118Y-80864746D01*
X237072883Y-81134073D01*
X237175733Y-81382989D01*
X237223000Y-81430338D01*
X237223000Y-81500000D01*
X237263115Y-81701675D01*
X237377355Y-81872645D01*
X237627354Y-82122645D01*
X237727612Y-82189635D01*
X237764635Y-82214373D01*
X237764635Y-82375000D01*
X237789019Y-82504591D01*
X237764635Y-82625000D01*
X237764635Y-82875000D01*
X237789019Y-83004591D01*
X237764635Y-83125000D01*
X237764635Y-83162340D01*
X237661673Y-83265301D01*
X237565000Y-83498690D01*
X237565000Y-83528750D01*
X237723750Y-83687500D01*
X237901001Y-83687500D01*
X237993322Y-83750580D01*
X237897097Y-83812500D01*
X237723750Y-83812500D01*
X237565000Y-83971250D01*
X237565000Y-84001310D01*
X237661673Y-84234699D01*
X237683160Y-84256186D01*
X237648325Y-84263115D01*
X237477355Y-84377355D01*
X237331770Y-84522940D01*
X237265927Y-84522883D01*
X237017011Y-84625733D01*
X236826402Y-84816010D01*
X236723118Y-85064746D01*
X236722883Y-85334073D01*
X232022637Y-85334073D01*
X231974267Y-85217011D01*
X231957423Y-85200137D01*
X231973598Y-85183990D01*
X232076882Y-84935254D01*
X232077117Y-84665927D01*
X231974267Y-84417011D01*
X231957423Y-84400137D01*
X231973598Y-84383990D01*
X232076882Y-84135254D01*
X232077117Y-83865927D01*
X231974267Y-83617011D01*
X231957423Y-83600137D01*
X231973598Y-83583990D01*
X232076882Y-83335254D01*
X232077117Y-83065927D01*
X231974267Y-82817011D01*
X231783990Y-82626402D01*
X231742869Y-82609327D01*
X231921905Y-82535351D01*
X232112514Y-82345074D01*
X232215798Y-82096338D01*
X232216033Y-81827011D01*
X232113183Y-81578095D01*
X232101618Y-81566510D01*
X232176882Y-81385254D01*
X232177117Y-81115927D01*
X232168660Y-81095460D01*
X232364746Y-81176882D01*
X232634073Y-81177117D01*
X232882989Y-81074267D01*
X233073598Y-80883990D01*
X233176882Y-80635254D01*
X233177117Y-80365927D01*
X233074267Y-80117011D01*
X232883990Y-79926402D01*
X232877002Y-79923500D01*
X232877002Y-79884595D01*
X232951847Y-79915597D01*
X232971250Y-79935000D01*
X233028750Y-79935000D01*
X233048153Y-79915597D01*
X233234699Y-79838327D01*
X233312500Y-79760526D01*
X233312500Y-79776250D01*
X233471250Y-79935000D01*
X233501310Y-79935000D01*
X233734699Y-79838327D01*
X233837660Y-79735365D01*
X233875000Y-79735365D01*
X234004591Y-79710981D01*
X234125000Y-79735365D01*
X234375000Y-79735365D01*
X234504591Y-79710981D01*
X234625000Y-79735365D01*
X234875000Y-79735365D01*
X235004591Y-79710981D01*
X235125000Y-79735365D01*
X235375000Y-79735365D01*
X235504591Y-79710981D01*
X235580577Y-79726369D01*
X235523118Y-79864746D01*
X235522883Y-80134073D01*
X235625733Y-80382989D01*
X235816010Y-80573598D01*
X236064746Y-80676882D01*
X236334073Y-80677117D01*
X236582989Y-80574267D01*
X236773598Y-80383990D01*
X236876882Y-80135254D01*
X236876940Y-80068350D01*
X237122645Y-79822646D01*
X237180964Y-79735365D01*
X237375000Y-79735365D01*
X237533237Y-79705591D01*
X237678567Y-79612073D01*
X237776064Y-79469381D01*
X237810365Y-79300000D01*
X237810365Y-79277000D01*
X237819493Y-79277000D01*
X237866010Y-79323598D01*
X238114746Y-79426882D01*
X238384073Y-79427117D01*
X238632989Y-79324267D01*
X238823598Y-79133990D01*
X238890159Y-78973691D01*
X241790000Y-78973691D01*
X241790000Y-79214250D01*
X241948750Y-79373000D01*
X242673000Y-79373000D01*
X242673000Y-78623750D01*
X242927000Y-78623750D01*
X242927000Y-79373000D01*
X244273000Y-79373000D01*
X244273000Y-78623750D01*
X244114250Y-78465000D01*
X243898690Y-78465000D01*
X243665301Y-78561673D01*
X243600000Y-78626974D01*
X243534699Y-78561673D01*
X243301310Y-78465000D01*
X243085750Y-78465000D01*
X242927000Y-78623750D01*
X242673000Y-78623750D01*
X242514250Y-78465000D01*
X242298690Y-78465000D01*
X242065301Y-78561673D01*
X241886673Y-78740302D01*
X241790000Y-78973691D01*
X238890159Y-78973691D01*
X238926882Y-78885254D01*
X238927117Y-78615927D01*
X238824267Y-78367011D01*
X238633990Y-78176402D01*
X238385254Y-78073118D01*
X238115927Y-78072883D01*
X237867011Y-78175733D01*
X237819662Y-78223000D01*
X237810365Y-78223000D01*
X237810365Y-78000000D01*
X237780591Y-77841763D01*
X237687073Y-77696433D01*
X237544381Y-77598936D01*
X237375000Y-77564635D01*
X237125000Y-77564635D01*
X236995409Y-77589019D01*
X236875000Y-77564635D01*
X236625000Y-77564635D01*
X236495409Y-77589019D01*
X236375000Y-77564635D01*
X236125000Y-77564635D01*
X235995409Y-77589019D01*
X235875000Y-77564635D01*
X235827000Y-77564635D01*
X235827000Y-76914002D01*
X236407998Y-76333003D01*
X236408001Y-76333001D01*
X236533078Y-76145808D01*
X236555909Y-76031029D01*
X236558237Y-76030591D01*
X236588251Y-76011277D01*
X236740302Y-76163327D01*
X236973691Y-76260000D01*
X237214250Y-76260000D01*
X237373000Y-76101250D01*
X237373000Y-75377000D01*
X237627000Y-75377000D01*
X237627000Y-76101250D01*
X237785750Y-76260000D01*
X238026309Y-76260000D01*
X238259698Y-76163327D01*
X238438327Y-75984699D01*
X238535000Y-75751310D01*
X238535000Y-75535750D01*
X238376250Y-75377000D01*
X237627000Y-75377000D01*
X237373000Y-75377000D01*
X237353000Y-75377000D01*
X237353000Y-75123000D01*
X237373000Y-75123000D01*
X237373000Y-75103000D01*
X237627000Y-75103000D01*
X237627000Y-75123000D01*
X238376250Y-75123000D01*
X238535000Y-74964250D01*
X238535000Y-74927031D01*
X238683583Y-74927161D01*
X239024417Y-74786331D01*
X239285414Y-74525789D01*
X239426839Y-74185201D01*
X239427161Y-73816417D01*
X239286331Y-73475583D01*
X239025789Y-73214586D01*
X238685201Y-73073161D01*
X238316417Y-73072839D01*
X238316027Y-73073000D01*
X236750000Y-73073000D01*
X236491604Y-73124398D01*
X238239001Y-71377000D01*
X243799995Y-71377000D01*
X243800000Y-71377001D01*
X244020808Y-71333078D01*
X244208001Y-71208001D01*
X249587999Y-65828002D01*
X249588002Y-65828000D01*
X249662980Y-65715786D01*
X249713079Y-65640808D01*
X249757001Y-65419999D01*
X249757001Y-64585750D01*
X253215000Y-64585750D01*
X253215000Y-64801310D01*
X253311673Y-65034699D01*
X253490302Y-65213327D01*
X253723691Y-65310000D01*
X253964250Y-65310000D01*
X254123000Y-65151250D01*
X254123000Y-64427000D01*
X253373750Y-64427000D01*
X253215000Y-64585750D01*
X249757001Y-64585750D01*
X249757001Y-63798690D01*
X253215000Y-63798690D01*
X253215000Y-64014250D01*
X253373750Y-64173000D01*
X254123000Y-64173000D01*
X254123000Y-63448750D01*
X253964250Y-63290000D01*
X253723691Y-63290000D01*
X253490302Y-63386673D01*
X253311673Y-63565301D01*
X253215000Y-63798690D01*
X249757001Y-63798690D01*
X249757001Y-61527424D01*
X249955962Y-61567000D01*
X250004038Y-61567000D01*
X250473591Y-61473600D01*
X250871658Y-61207620D01*
X251137638Y-60809553D01*
X251231038Y-60340000D01*
X251137638Y-59870447D01*
X250871658Y-59472380D01*
X250473591Y-59206400D01*
X250004038Y-59113000D01*
X249955962Y-59113000D01*
X249486409Y-59206400D01*
X249177000Y-59413141D01*
X249177000Y-59034757D01*
X249180000Y-59035365D01*
X250780000Y-59035365D01*
X250938237Y-59005591D01*
X251083567Y-58912073D01*
X251181064Y-58769381D01*
X251215365Y-58600000D01*
X251215365Y-57000000D01*
X251185591Y-56841763D01*
X251092073Y-56696433D01*
X250949381Y-56598936D01*
X250780000Y-56564635D01*
X249180000Y-56564635D01*
X249021763Y-56594409D01*
X248876433Y-56687927D01*
X248778936Y-56830619D01*
X248744635Y-57000000D01*
X248744635Y-57249926D01*
X248659192Y-57266922D01*
X248471999Y-57391999D01*
X248471997Y-57392002D01*
X248467000Y-57396999D01*
X248467000Y-57330000D01*
X248396436Y-56975252D01*
X248195488Y-56674512D01*
X247894748Y-56473564D01*
X247540000Y-56403000D01*
X246676923Y-56403000D01*
X246305610Y-56024936D01*
X246164381Y-55928936D01*
X245995000Y-55894635D01*
X243205000Y-55894635D01*
X243063178Y-55923000D01*
X240950000Y-55923000D01*
X240794804Y-55952202D01*
X240652265Y-56043923D01*
X240556642Y-56183873D01*
X240523799Y-56346052D01*
X240448936Y-56455619D01*
X240414635Y-56625000D01*
X240414635Y-57375000D01*
X240444409Y-57533237D01*
X240523000Y-57655370D01*
X240523000Y-57750000D01*
X240537344Y-57826230D01*
X240448936Y-57955619D01*
X240414635Y-58125000D01*
X240414635Y-58875000D01*
X240444409Y-59033237D01*
X240537927Y-59178567D01*
X240680619Y-59276064D01*
X240850000Y-59310365D01*
X240923000Y-59310365D01*
X240923000Y-59847222D01*
X240848936Y-59955619D01*
X240814635Y-60125000D01*
X240814635Y-60375000D01*
X240839019Y-60504591D01*
X240814635Y-60625000D01*
X240814635Y-60875000D01*
X240839019Y-61004591D01*
X240814635Y-61125000D01*
X240814635Y-61375000D01*
X240839019Y-61504591D01*
X240814635Y-61625000D01*
X240814635Y-61875000D01*
X240844409Y-62033237D01*
X240937927Y-62178567D01*
X241080619Y-62276064D01*
X241250000Y-62310365D01*
X241416371Y-62310365D01*
X241500000Y-62327000D01*
X242124203Y-62327000D01*
X242221587Y-62367437D01*
X241744512Y-62844512D01*
X241543564Y-63145252D01*
X241473000Y-63500000D01*
X241473000Y-65401409D01*
X241469381Y-65398936D01*
X241300000Y-65364635D01*
X240800000Y-65364635D01*
X240641763Y-65394409D01*
X240496433Y-65487927D01*
X240398936Y-65630619D01*
X240364635Y-65800000D01*
X240364635Y-66700000D01*
X240394409Y-66858237D01*
X240487927Y-67003567D01*
X240630619Y-67101064D01*
X240800000Y-67135365D01*
X241203659Y-67135365D01*
X240916024Y-67423000D01*
X234000000Y-67423000D01*
X233645252Y-67493564D01*
X233344512Y-67694512D01*
X231994512Y-69044512D01*
X231793564Y-69345252D01*
X231723000Y-69700000D01*
X231723000Y-72823000D01*
X231050000Y-72823000D01*
X230695252Y-72893564D01*
X230449155Y-73058001D01*
X230394512Y-73094512D01*
X227744798Y-75744226D01*
X227614586Y-75874211D01*
X227473161Y-76214799D01*
X227472839Y-76583583D01*
X227613669Y-76924417D01*
X227874211Y-77185414D01*
X228214799Y-77326839D01*
X228583583Y-77327161D01*
X228924417Y-77186331D01*
X229185414Y-76925789D01*
X229185575Y-76925401D01*
X230465000Y-75645976D01*
X230465000Y-75751310D01*
X230561673Y-75984699D01*
X230740302Y-76163327D01*
X230973691Y-76260000D01*
X231214250Y-76260000D01*
X231373000Y-76101250D01*
X231373000Y-75377000D01*
X231353000Y-75377000D01*
X231353000Y-75123000D01*
X231373000Y-75123000D01*
X231373000Y-75103000D01*
X231627000Y-75103000D01*
X231627000Y-75123000D01*
X231647000Y-75123000D01*
X231647000Y-75377000D01*
X231627000Y-75377000D01*
X231627000Y-76101250D01*
X231785750Y-76260000D01*
X232026309Y-76260000D01*
X232259698Y-76163327D01*
X232410624Y-76012402D01*
X232430619Y-76026064D01*
X232443627Y-76028698D01*
X232466922Y-76145808D01*
X232591999Y-76333001D01*
X233173000Y-76914001D01*
X233173000Y-77365000D01*
X233122998Y-77365000D01*
X233122998Y-77415405D01*
X233048153Y-77384403D01*
X233028750Y-77365000D01*
X232971250Y-77365000D01*
X232951847Y-77384403D01*
X232765301Y-77461673D01*
X232687500Y-77539474D01*
X232687500Y-77523750D01*
X232528750Y-77365000D01*
X232498690Y-77365000D01*
X232265301Y-77461673D01*
X232162340Y-77564635D01*
X232125000Y-77564635D01*
X231995409Y-77589019D01*
X231875000Y-77564635D01*
X231625000Y-77564635D01*
X231466763Y-77594409D01*
X231321433Y-77687927D01*
X231223936Y-77830619D01*
X231189635Y-78000000D01*
X231189635Y-79300000D01*
X231219409Y-79458237D01*
X231223000Y-79463818D01*
X231223000Y-80059285D01*
X231205591Y-79966763D01*
X231112073Y-79821433D01*
X230969381Y-79723936D01*
X230800000Y-79689635D01*
X229500000Y-79689635D01*
X229341763Y-79719409D01*
X229196433Y-79812927D01*
X229098936Y-79955619D01*
X229064635Y-80125000D01*
X229064635Y-80375000D01*
X229089019Y-80504591D01*
X229064635Y-80625000D01*
X229064635Y-80875000D01*
X229089019Y-81004591D01*
X229064635Y-81125000D01*
X229064635Y-81375000D01*
X229089019Y-81504591D01*
X229064635Y-81625000D01*
X229064635Y-81673000D01*
X228750005Y-81673000D01*
X228750000Y-81672999D01*
X228553569Y-81712073D01*
X228529192Y-81716922D01*
X228341999Y-81841999D01*
X228341997Y-81842002D01*
X227991999Y-82191999D01*
X227866922Y-82379192D01*
X227822999Y-82600000D01*
X227823000Y-82600005D01*
X227823000Y-88560999D01*
X226391999Y-89991999D01*
X226266922Y-90179192D01*
X226222999Y-90400000D01*
X226223000Y-90400005D01*
X226223000Y-93160999D01*
X226160998Y-93223000D01*
X225650005Y-93223000D01*
X225650000Y-93222999D01*
X225429192Y-93266922D01*
X225241999Y-93391999D01*
X225241997Y-93392002D01*
X224869363Y-93764635D01*
X224350000Y-93764635D01*
X224191763Y-93794409D01*
X224046433Y-93887927D01*
X223948936Y-94030619D01*
X223914635Y-94200000D01*
X223502000Y-94200000D01*
X223502000Y-60960000D01*
X224697982Y-60960000D01*
X224795188Y-61448687D01*
X225072007Y-61862975D01*
X225486295Y-62139794D01*
X225939791Y-62230000D01*
X225486295Y-62320206D01*
X225072007Y-62597025D01*
X224795188Y-63011313D01*
X224697982Y-63500000D01*
X224795188Y-63988687D01*
X225072007Y-64402975D01*
X225486295Y-64679794D01*
X225862546Y-64754635D01*
X225150000Y-64754635D01*
X224991763Y-64784409D01*
X224846433Y-64877927D01*
X224748936Y-65020619D01*
X224714635Y-65190000D01*
X224714635Y-66890000D01*
X224744409Y-67048237D01*
X224837927Y-67193567D01*
X224980619Y-67291064D01*
X225150000Y-67325365D01*
X226850000Y-67325365D01*
X227008237Y-67295591D01*
X227153567Y-67202073D01*
X227251064Y-67059381D01*
X227285365Y-66890000D01*
X227285365Y-65190000D01*
X227255591Y-65031763D01*
X227162073Y-64886433D01*
X227019381Y-64788936D01*
X226850000Y-64754635D01*
X226137454Y-64754635D01*
X226513705Y-64679794D01*
X226927993Y-64402975D01*
X227204812Y-63988687D01*
X227302018Y-63500000D01*
X227204812Y-63011313D01*
X226927993Y-62597025D01*
X226513705Y-62320206D01*
X226060209Y-62230000D01*
X226513705Y-62139794D01*
X226927993Y-61862975D01*
X227204812Y-61448687D01*
X227215371Y-61395605D01*
X229925611Y-58685365D01*
X231700000Y-58685365D01*
X231858237Y-58655591D01*
X232003567Y-58562073D01*
X232101064Y-58419381D01*
X232135365Y-58250000D01*
X232135365Y-56450000D01*
X232764635Y-56450000D01*
X232764635Y-58250000D01*
X232794409Y-58408237D01*
X232887927Y-58553567D01*
X233030619Y-58651064D01*
X233200000Y-58685365D01*
X234623000Y-58685365D01*
X234623000Y-60150000D01*
X234673000Y-60401366D01*
X234673000Y-62514635D01*
X234350000Y-62514635D01*
X234191763Y-62544409D01*
X234046433Y-62637927D01*
X233948936Y-62780619D01*
X233914635Y-62950000D01*
X233914635Y-66250000D01*
X233944409Y-66408237D01*
X234037927Y-66553567D01*
X234180619Y-66651064D01*
X234350000Y-66685365D01*
X236850000Y-66685365D01*
X237008237Y-66655591D01*
X237153567Y-66562073D01*
X237251064Y-66419381D01*
X237285365Y-66250000D01*
X237285365Y-62950000D01*
X237255591Y-62791763D01*
X237162073Y-62646433D01*
X237019381Y-62548936D01*
X236850000Y-62514635D01*
X236527000Y-62514635D01*
X236527000Y-60827000D01*
X237189635Y-60827000D01*
X237189635Y-61000000D01*
X237219409Y-61158237D01*
X237312927Y-61303567D01*
X237455619Y-61401064D01*
X237625000Y-61435365D01*
X238375000Y-61435365D01*
X238533237Y-61405591D01*
X238655370Y-61327000D01*
X238914635Y-61327000D01*
X238914635Y-61375000D01*
X238944409Y-61533237D01*
X239037927Y-61678567D01*
X239143322Y-61750580D01*
X239046433Y-61812927D01*
X238948936Y-61955619D01*
X238914635Y-62125000D01*
X238914635Y-62375000D01*
X238944409Y-62533237D01*
X239023000Y-62655370D01*
X239023000Y-63470831D01*
X238996433Y-63487927D01*
X238898936Y-63630619D01*
X238864635Y-63800000D01*
X238864635Y-64700000D01*
X238894409Y-64858237D01*
X238973000Y-64980370D01*
X238973000Y-65522222D01*
X238898936Y-65630619D01*
X238864635Y-65800000D01*
X238864635Y-66700000D01*
X238894409Y-66858237D01*
X238987927Y-67003567D01*
X239130619Y-67101064D01*
X239300000Y-67135365D01*
X239800000Y-67135365D01*
X239958237Y-67105591D01*
X240103567Y-67012073D01*
X240201064Y-66869381D01*
X240235365Y-66700000D01*
X240235365Y-65800000D01*
X240205591Y-65641763D01*
X240127000Y-65519630D01*
X240127000Y-64977778D01*
X240201064Y-64869381D01*
X240235365Y-64700000D01*
X240235365Y-63800000D01*
X240205591Y-63641763D01*
X240177000Y-63597332D01*
X240177000Y-62652778D01*
X240251064Y-62544381D01*
X240285365Y-62375000D01*
X240285365Y-62125000D01*
X240255591Y-61966763D01*
X240162073Y-61821433D01*
X240056678Y-61749420D01*
X240153567Y-61687073D01*
X240251064Y-61544381D01*
X240285365Y-61375000D01*
X240285365Y-61125000D01*
X240260981Y-60995409D01*
X240285365Y-60875000D01*
X240285365Y-60625000D01*
X240255591Y-60466763D01*
X240162073Y-60321433D01*
X240019381Y-60223936D01*
X239850000Y-60189635D01*
X239683629Y-60189635D01*
X239600000Y-60173000D01*
X238805285Y-60173000D01*
X238780591Y-60041763D01*
X238687073Y-59896433D01*
X238544381Y-59798936D01*
X238375000Y-59764635D01*
X238122057Y-59764635D01*
X238028711Y-59671289D01*
X237930429Y-59605619D01*
X237809077Y-59524534D01*
X237550000Y-59473000D01*
X236477000Y-59473000D01*
X236477000Y-58685365D01*
X236700000Y-58685365D01*
X236858237Y-58655591D01*
X237003567Y-58562073D01*
X237101064Y-58419381D01*
X237135365Y-58250000D01*
X237135365Y-56450000D01*
X237105591Y-56291763D01*
X237012073Y-56146433D01*
X236869381Y-56048936D01*
X236700000Y-56014635D01*
X233200000Y-56014635D01*
X233041763Y-56044409D01*
X232896433Y-56137927D01*
X232798936Y-56280619D01*
X232764635Y-56450000D01*
X232135365Y-56450000D01*
X232105591Y-56291763D01*
X232012073Y-56146433D01*
X231869381Y-56048936D01*
X231700000Y-56014635D01*
X228200000Y-56014635D01*
X228041763Y-56044409D01*
X227896433Y-56137927D01*
X227798936Y-56280619D01*
X227764635Y-56450000D01*
X227764635Y-58224389D01*
X226259402Y-59729622D01*
X226025018Y-59683000D01*
X225974982Y-59683000D01*
X225486295Y-59780206D01*
X225072007Y-60057025D01*
X224795188Y-60471313D01*
X224697982Y-60960000D01*
X223502000Y-60960000D01*
X223502000Y-55502000D01*
X258498000Y-55502000D01*
X258498000Y-56941871D01*
X258498000Y-56941871D01*
G37*
X258498000Y-56941871D02*
X258491658Y-56932380D01*
X258093591Y-56666400D01*
X257624038Y-56573000D01*
X257575962Y-56573000D01*
X257106409Y-56666400D01*
X256708342Y-56932380D01*
X256442362Y-57330447D01*
X256348962Y-57800000D01*
X256442362Y-58269553D01*
X256708342Y-58667620D01*
X257023000Y-58877868D01*
X257023000Y-59262132D01*
X256708342Y-59472380D01*
X256442362Y-59870447D01*
X256348962Y-60340000D01*
X256442362Y-60809553D01*
X256708342Y-61207620D01*
X257023000Y-61417868D01*
X257023000Y-62235999D01*
X255769363Y-63489635D01*
X255350000Y-63489635D01*
X255191763Y-63519409D01*
X255161749Y-63538723D01*
X255009698Y-63386673D01*
X254776309Y-63290000D01*
X254535750Y-63290000D01*
X254377000Y-63448750D01*
X254377000Y-64173000D01*
X254397000Y-64173000D01*
X254397000Y-64427000D01*
X254377000Y-64427000D01*
X254377000Y-65151250D01*
X254535750Y-65310000D01*
X254776309Y-65310000D01*
X255009698Y-65213327D01*
X255160624Y-65062402D01*
X255180619Y-65076064D01*
X255350000Y-65110365D01*
X256150000Y-65110365D01*
X256308237Y-65080591D01*
X256453567Y-64987073D01*
X256551064Y-64844381D01*
X256585365Y-64675000D01*
X256585365Y-64305637D01*
X258007998Y-62883003D01*
X258008001Y-62883001D01*
X258133078Y-62695808D01*
X258134816Y-62687073D01*
X258177001Y-62475000D01*
X258177000Y-62474995D01*
X258177000Y-61417868D01*
X258491658Y-61207620D01*
X258498000Y-61198129D01*
X258498000Y-68481999D01*
X257208001Y-67191999D01*
X257020808Y-67066922D01*
X256800000Y-67022999D01*
X256799995Y-67023000D01*
X255385365Y-67023000D01*
X255385365Y-66900000D01*
X255355591Y-66741763D01*
X255262073Y-66596433D01*
X255119381Y-66498936D01*
X254950000Y-66464635D01*
X254650000Y-66464635D01*
X254546328Y-66484142D01*
X254450000Y-66464635D01*
X254150000Y-66464635D01*
X254046328Y-66484142D01*
X253950000Y-66464635D01*
X253650000Y-66464635D01*
X253546328Y-66484142D01*
X253450000Y-66464635D01*
X253150000Y-66464635D01*
X253046328Y-66484142D01*
X252950000Y-66464635D01*
X252650000Y-66464635D01*
X252491763Y-66494409D01*
X252346433Y-66587927D01*
X252248936Y-66730619D01*
X252214635Y-66900000D01*
X252214635Y-68300000D01*
X252244409Y-68458237D01*
X252337927Y-68603567D01*
X252480619Y-68701064D01*
X252650000Y-68735365D01*
X252950000Y-68735365D01*
X253053672Y-68715858D01*
X253150000Y-68735365D01*
X253450000Y-68735365D01*
X253553672Y-68715858D01*
X253650000Y-68735365D01*
X253749926Y-68735365D01*
X253766922Y-68820808D01*
X253891999Y-69008001D01*
X255023000Y-70139001D01*
X255023000Y-70879418D01*
X254950000Y-70864635D01*
X254650000Y-70864635D01*
X254546328Y-70884142D01*
X254450000Y-70864635D01*
X254150000Y-70864635D01*
X254046328Y-70884142D01*
X253950000Y-70864635D01*
X253650000Y-70864635D01*
X253546328Y-70884142D01*
X253450000Y-70864635D01*
X253150000Y-70864635D01*
X252991763Y-70894409D01*
X252846433Y-70987927D01*
X252748936Y-71130619D01*
X252714635Y-71300000D01*
X252714635Y-72700000D01*
X252723000Y-72744457D01*
X252723000Y-79997407D01*
X252722999Y-79997412D01*
X252766922Y-80218220D01*
X252891999Y-80405413D01*
X255023000Y-82536413D01*
X255023000Y-84899995D01*
X255022999Y-84900000D01*
X255066922Y-85120808D01*
X255191999Y-85308001D01*
X257298999Y-87415000D01*
X257206750Y-87415000D01*
X257048000Y-87573750D01*
X257048000Y-88773000D01*
X257068000Y-88773000D01*
X257068000Y-89027000D01*
X257048000Y-89027000D01*
X257048000Y-89047000D01*
X256794000Y-89047000D01*
X256794000Y-89027000D01*
X255594750Y-89027000D01*
X255436000Y-89185750D01*
X255436000Y-89876310D01*
X255532673Y-90109699D01*
X255711302Y-90288327D01*
X255944691Y-90385000D01*
X256220528Y-90385000D01*
X255993007Y-90537025D01*
X255716188Y-90951313D01*
X255618982Y-91440000D01*
X255716188Y-91928687D01*
X255993007Y-92342975D01*
X256407295Y-92619794D01*
X256860791Y-92710000D01*
X256407295Y-92800206D01*
X255993007Y-93077025D01*
X255716188Y-93491313D01*
X255618982Y-93980000D01*
X255699617Y-94385381D01*
X252491999Y-97592999D01*
X252366922Y-97780192D01*
X252322999Y-98001000D01*
X252323000Y-98001005D01*
X252323000Y-100864635D01*
X252250000Y-100864635D01*
X252091763Y-100894409D01*
X251946433Y-100987927D01*
X251848936Y-101130619D01*
X251814635Y-101300000D01*
X251814635Y-102700000D01*
X251844409Y-102858237D01*
X251937927Y-103003567D01*
X252080619Y-103101064D01*
X252250000Y-103135365D01*
X252550000Y-103135365D01*
X252653672Y-103115858D01*
X252750000Y-103135365D01*
X253050000Y-103135365D01*
X253153672Y-103115858D01*
X253250000Y-103135365D01*
X253550000Y-103135365D01*
X253653672Y-103115858D01*
X253750000Y-103135365D01*
X254050000Y-103135365D01*
X254153672Y-103115858D01*
X254250000Y-103135365D01*
X254550000Y-103135365D01*
X254708237Y-103105591D01*
X254853567Y-103012073D01*
X254951064Y-102869381D01*
X254985365Y-102700000D01*
X254985365Y-102577000D01*
X256103793Y-102577000D01*
X256407295Y-102779794D01*
X256895982Y-102877000D01*
X256946018Y-102877000D01*
X257434705Y-102779794D01*
X257848993Y-102502975D01*
X258125812Y-102088687D01*
X258223018Y-101600000D01*
X258125812Y-101111313D01*
X257848993Y-100697025D01*
X257434705Y-100420206D01*
X256981209Y-100330000D01*
X257434705Y-100239794D01*
X257848993Y-99962975D01*
X258125812Y-99548687D01*
X258223018Y-99060000D01*
X258125812Y-98571313D01*
X257848993Y-98157025D01*
X257434705Y-97880206D01*
X256981209Y-97790000D01*
X257434705Y-97699794D01*
X257848993Y-97422975D01*
X258125812Y-97008687D01*
X258223018Y-96520000D01*
X258125812Y-96031313D01*
X257848993Y-95617025D01*
X257434705Y-95340206D01*
X256981209Y-95250000D01*
X257434705Y-95159794D01*
X257848993Y-94882975D01*
X258125812Y-94468687D01*
X258223018Y-93980000D01*
X258125812Y-93491313D01*
X257848993Y-93077025D01*
X257434705Y-92800206D01*
X256981209Y-92710000D01*
X257434705Y-92619794D01*
X257848993Y-92342975D01*
X258125812Y-91928687D01*
X258223018Y-91440000D01*
X258142383Y-91034619D01*
X258498000Y-90679001D01*
X258498000Y-121498000D01*
X223502000Y-121498000D01*
X223502000Y-94200000D01*
X223914635Y-94200000D01*
X223914635Y-94700000D01*
X223944409Y-94858237D01*
X224037927Y-95003567D01*
X224180619Y-95101064D01*
X224302617Y-95125770D01*
X224266922Y-95179192D01*
X224246034Y-95284197D01*
X224191763Y-95294409D01*
X224046433Y-95387927D01*
X223948936Y-95530619D01*
X223914635Y-95700000D01*
X223914635Y-96200000D01*
X223944409Y-96358237D01*
X224037927Y-96503567D01*
X224180619Y-96601064D01*
X224245725Y-96614249D01*
X224266922Y-96720808D01*
X224391999Y-96908001D01*
X224691999Y-97208001D01*
X224879192Y-97333078D01*
X225100000Y-97377000D01*
X225760998Y-97377000D01*
X226623000Y-98239001D01*
X226623000Y-104619995D01*
X226622999Y-104620000D01*
X226666922Y-104840808D01*
X226791999Y-105028001D01*
X228796268Y-107032269D01*
X228774839Y-107140000D01*
X228845403Y-107494748D01*
X229032661Y-107775000D01*
X228845403Y-108055252D01*
X228774839Y-108410000D01*
X228845403Y-108764748D01*
X229046351Y-109065488D01*
X229347091Y-109266436D01*
X229701839Y-109337000D01*
X229738161Y-109337000D01*
X230092909Y-109266436D01*
X230176155Y-109210813D01*
X230177927Y-109213567D01*
X230320619Y-109311064D01*
X230490000Y-109345365D01*
X231490000Y-109345365D01*
X231648237Y-109315591D01*
X231793567Y-109222073D01*
X231891064Y-109079381D01*
X231925365Y-108910000D01*
X231925365Y-107910000D01*
X231902207Y-107786926D01*
X231977127Y-107700209D01*
X232084119Y-107441874D01*
X231957954Y-107267000D01*
X231117000Y-107267000D01*
X231117000Y-107287000D01*
X230863000Y-107287000D01*
X230863000Y-107267000D01*
X230843000Y-107267000D01*
X230843000Y-107013000D01*
X230863000Y-107013000D01*
X230863000Y-105997000D01*
X231117000Y-105997000D01*
X231117000Y-107013000D01*
X231957954Y-107013000D01*
X232084119Y-106838126D01*
X231977127Y-106579791D01*
X231912511Y-106505000D01*
X231977127Y-106430209D01*
X232084119Y-106171874D01*
X231957954Y-105997000D01*
X231117000Y-105997000D01*
X230863000Y-105997000D01*
X230843000Y-105997000D01*
X230843000Y-105743000D01*
X230863000Y-105743000D01*
X230863000Y-105723000D01*
X231117000Y-105723000D01*
X231117000Y-105743000D01*
X231957954Y-105743000D01*
X231988976Y-105700000D01*
X252314635Y-105700000D01*
X252314635Y-107100000D01*
X252323000Y-107144457D01*
X252323000Y-112818995D01*
X252322999Y-112819000D01*
X252366922Y-113039808D01*
X252491999Y-113227001D01*
X255699617Y-116434619D01*
X255618982Y-116840000D01*
X255716188Y-117328687D01*
X255993007Y-117742975D01*
X256407295Y-118019794D01*
X256860791Y-118110000D01*
X256407295Y-118200206D01*
X255993007Y-118477025D01*
X255716188Y-118891313D01*
X255618982Y-119380000D01*
X255716188Y-119868687D01*
X255993007Y-120282975D01*
X256407295Y-120559794D01*
X256895982Y-120657000D01*
X256946018Y-120657000D01*
X257434705Y-120559794D01*
X257848993Y-120282975D01*
X258125812Y-119868687D01*
X258223018Y-119380000D01*
X258125812Y-118891313D01*
X257848993Y-118477025D01*
X257434705Y-118200206D01*
X256981209Y-118110000D01*
X257434705Y-118019794D01*
X257848993Y-117742975D01*
X258125812Y-117328687D01*
X258223018Y-116840000D01*
X258125812Y-116351313D01*
X257848993Y-115937025D01*
X257434705Y-115660206D01*
X256981209Y-115570000D01*
X257434705Y-115479794D01*
X257848993Y-115202975D01*
X258125812Y-114788687D01*
X258223018Y-114300000D01*
X258125812Y-113811313D01*
X257848993Y-113397025D01*
X257434705Y-113120206D01*
X256981209Y-113030000D01*
X257434705Y-112939794D01*
X257848993Y-112662975D01*
X258125812Y-112248687D01*
X258223018Y-111760000D01*
X258125812Y-111271313D01*
X257848993Y-110857025D01*
X257434705Y-110580206D01*
X256981209Y-110490000D01*
X257434705Y-110399794D01*
X257848993Y-110122975D01*
X258125812Y-109708687D01*
X258223018Y-109220000D01*
X258125812Y-108731313D01*
X257848993Y-108317025D01*
X257621472Y-108165000D01*
X257897309Y-108165000D01*
X258130698Y-108068327D01*
X258309327Y-107889699D01*
X258406000Y-107656310D01*
X258406000Y-106965750D01*
X258247250Y-106807000D01*
X257048000Y-106807000D01*
X257048000Y-106827000D01*
X256794000Y-106827000D01*
X256794000Y-106807000D01*
X255594750Y-106807000D01*
X255436000Y-106965750D01*
X255436000Y-107169998D01*
X254985365Y-106719363D01*
X254985365Y-105703690D01*
X255436000Y-105703690D01*
X255436000Y-106394250D01*
X255594750Y-106553000D01*
X256794000Y-106553000D01*
X256794000Y-105353750D01*
X257048000Y-105353750D01*
X257048000Y-106553000D01*
X258247250Y-106553000D01*
X258406000Y-106394250D01*
X258406000Y-105703690D01*
X258309327Y-105470301D01*
X258130698Y-105291673D01*
X257897309Y-105195000D01*
X257206750Y-105195000D01*
X257048000Y-105353750D01*
X256794000Y-105353750D01*
X256635250Y-105195000D01*
X255944691Y-105195000D01*
X255711302Y-105291673D01*
X255532673Y-105470301D01*
X255436000Y-105703690D01*
X254985365Y-105703690D01*
X254985365Y-105700000D01*
X254955591Y-105541763D01*
X254862073Y-105396433D01*
X254719381Y-105298936D01*
X254550000Y-105264635D01*
X254250000Y-105264635D01*
X254146328Y-105284142D01*
X254050000Y-105264635D01*
X253750000Y-105264635D01*
X253646328Y-105284142D01*
X253550000Y-105264635D01*
X253250000Y-105264635D01*
X253146328Y-105284142D01*
X253050000Y-105264635D01*
X252750000Y-105264635D01*
X252591763Y-105294409D01*
X252446433Y-105387927D01*
X252348936Y-105530619D01*
X252314635Y-105700000D01*
X231988976Y-105700000D01*
X232084119Y-105568126D01*
X231977127Y-105309791D01*
X231779900Y-105081506D01*
X231864597Y-104954748D01*
X231935161Y-104600000D01*
X231864597Y-104245252D01*
X231779900Y-104118494D01*
X231977127Y-103890209D01*
X232084119Y-103631874D01*
X231957954Y-103457000D01*
X231117000Y-103457000D01*
X231117000Y-103477000D01*
X230863000Y-103477000D01*
X230863000Y-103457000D01*
X230843000Y-103457000D01*
X230843000Y-103203000D01*
X230863000Y-103203000D01*
X230863000Y-102360865D01*
X231117000Y-102360865D01*
X231117000Y-103203000D01*
X231957954Y-103203000D01*
X232084119Y-103028126D01*
X231977127Y-102769791D01*
X231687604Y-102434677D01*
X231291877Y-102235868D01*
X231117000Y-102360865D01*
X230863000Y-102360865D01*
X230688123Y-102235868D01*
X230292396Y-102434677D01*
X230198084Y-102543840D01*
X230092909Y-102473564D01*
X229738161Y-102403000D01*
X229701839Y-102403000D01*
X229624405Y-102418403D01*
X228977000Y-101770998D01*
X228977000Y-100876980D01*
X229134073Y-100877117D01*
X229382989Y-100774267D01*
X229573598Y-100583990D01*
X229676882Y-100335254D01*
X229677117Y-100065927D01*
X229577000Y-99823625D01*
X229577000Y-99034073D01*
X239822883Y-99034073D01*
X239925733Y-99282989D01*
X240116010Y-99473598D01*
X240364746Y-99576882D01*
X240634073Y-99577117D01*
X240882989Y-99474267D01*
X241073598Y-99283990D01*
X241176882Y-99035254D01*
X241176940Y-98968350D01*
X241272645Y-98872646D01*
X241386884Y-98701675D01*
X241386885Y-98701674D01*
X241405047Y-98610365D01*
X241430000Y-98610365D01*
X241588237Y-98580591D01*
X241733567Y-98487073D01*
X241831064Y-98344381D01*
X241865365Y-98175000D01*
X241865365Y-97525000D01*
X241835591Y-97366763D01*
X241742073Y-97221433D01*
X241599381Y-97123936D01*
X241430000Y-97089635D01*
X240370000Y-97089635D01*
X240211763Y-97119409D01*
X240066433Y-97212927D01*
X239968936Y-97355619D01*
X239934635Y-97525000D01*
X239934635Y-98175000D01*
X239964409Y-98333237D01*
X240021155Y-98421422D01*
X239926402Y-98516010D01*
X239823118Y-98764746D01*
X239822883Y-99034073D01*
X229577000Y-99034073D01*
X229577000Y-96383583D01*
X234072839Y-96383583D01*
X234213669Y-96724417D01*
X234474211Y-96985414D01*
X234814799Y-97126839D01*
X235183583Y-97127161D01*
X235183973Y-97127000D01*
X236750000Y-97127000D01*
X237001366Y-97077000D01*
X238700000Y-97077000D01*
X239054748Y-97006436D01*
X239090706Y-96982410D01*
X239233237Y-96955591D01*
X239378567Y-96862073D01*
X239476064Y-96719381D01*
X239494772Y-96627000D01*
X240128811Y-96627000D01*
X240200619Y-96676064D01*
X240370000Y-96710365D01*
X241430000Y-96710365D01*
X241588237Y-96680591D01*
X241733567Y-96587073D01*
X241831064Y-96444381D01*
X241865365Y-96275000D01*
X241865365Y-95625000D01*
X241835591Y-95466763D01*
X241742073Y-95321433D01*
X241599381Y-95223936D01*
X241430000Y-95189635D01*
X240370000Y-95189635D01*
X240211763Y-95219409D01*
X240128481Y-95273000D01*
X239200000Y-95273000D01*
X239064353Y-95299982D01*
X239054748Y-95293564D01*
X238700000Y-95223000D01*
X236800000Y-95223000D01*
X236548631Y-95273000D01*
X235000809Y-95273000D01*
X234816417Y-95272839D01*
X234475583Y-95413669D01*
X234214586Y-95674211D01*
X234073161Y-96014799D01*
X234072839Y-96383583D01*
X229577000Y-96383583D01*
X229577000Y-96239002D01*
X232157998Y-93658003D01*
X232158001Y-93658001D01*
X232283078Y-93470808D01*
X232327000Y-93250000D01*
X232327000Y-93127778D01*
X232401064Y-93019381D01*
X232435365Y-92850000D01*
X232435365Y-91950000D01*
X232405591Y-91791763D01*
X232327000Y-91669630D01*
X232327000Y-91127778D01*
X232401064Y-91019381D01*
X232409646Y-90977000D01*
X232424203Y-90977000D01*
X232664746Y-91076882D01*
X232934073Y-91077117D01*
X233182989Y-90974267D01*
X233373598Y-90783990D01*
X233476882Y-90535254D01*
X233477117Y-90265927D01*
X233374267Y-90017011D01*
X233183990Y-89826402D01*
X232935254Y-89723118D01*
X232665927Y-89722883D01*
X232423625Y-89823000D01*
X232411469Y-89823000D01*
X232405591Y-89791763D01*
X232312073Y-89646433D01*
X232169381Y-89548936D01*
X232000000Y-89514635D01*
X231500000Y-89514635D01*
X231341763Y-89544409D01*
X231196433Y-89637927D01*
X231098936Y-89780619D01*
X231064635Y-89950000D01*
X231064635Y-90850000D01*
X231094409Y-91008237D01*
X231173000Y-91130370D01*
X231173000Y-91672222D01*
X231098936Y-91780619D01*
X231064635Y-91950000D01*
X231064635Y-92850000D01*
X231094409Y-93008237D01*
X231126262Y-93057737D01*
X230827000Y-93356999D01*
X230827000Y-93127778D01*
X230901064Y-93019381D01*
X230935365Y-92850000D01*
X230935365Y-91950000D01*
X230905591Y-91791763D01*
X230812073Y-91646433D01*
X230669381Y-91548936D01*
X230500000Y-91514635D01*
X230000000Y-91514635D01*
X229841763Y-91544409D01*
X229696433Y-91637927D01*
X229598936Y-91780619D01*
X229564635Y-91950000D01*
X229564635Y-92850000D01*
X229594409Y-93008237D01*
X229673000Y-93130370D01*
X229673000Y-93710997D01*
X228885365Y-94498631D01*
X228885365Y-94200000D01*
X228855591Y-94041763D01*
X228762073Y-93896433D01*
X228619381Y-93798936D01*
X228577000Y-93790354D01*
X228577000Y-91239002D01*
X229564635Y-90251366D01*
X229564635Y-90850000D01*
X229594409Y-91008237D01*
X229687927Y-91153567D01*
X229830619Y-91251064D01*
X230000000Y-91285365D01*
X230500000Y-91285365D01*
X230658237Y-91255591D01*
X230803567Y-91162073D01*
X230901064Y-91019381D01*
X230935365Y-90850000D01*
X230935365Y-89950000D01*
X230905591Y-89791763D01*
X230812073Y-89646433D01*
X230777000Y-89622469D01*
X230777000Y-89175797D01*
X230876882Y-88935254D01*
X230876919Y-88892921D01*
X230991999Y-89008001D01*
X231179192Y-89133078D01*
X231400000Y-89177000D01*
X232449995Y-89177000D01*
X232450000Y-89177001D01*
X232670808Y-89133078D01*
X232858001Y-89008001D01*
X233158001Y-88708001D01*
X233270056Y-88540297D01*
X233498690Y-88635000D01*
X233528750Y-88635000D01*
X233687500Y-88476250D01*
X233687500Y-88298999D01*
X233750580Y-88206678D01*
X233812500Y-88302903D01*
X233812500Y-88476250D01*
X233971250Y-88635000D01*
X234001310Y-88635000D01*
X234234699Y-88538327D01*
X234337660Y-88435365D01*
X234375000Y-88435365D01*
X234504591Y-88410981D01*
X234625000Y-88435365D01*
X234673000Y-88435365D01*
X234673000Y-88774995D01*
X234672999Y-88775000D01*
X234716922Y-88995808D01*
X234778782Y-89088389D01*
X234475583Y-89213669D01*
X234214586Y-89474211D01*
X234073161Y-89814799D01*
X234072839Y-90183583D01*
X234213669Y-90524417D01*
X234474211Y-90785414D01*
X234814799Y-90926839D01*
X235183583Y-90927161D01*
X235183973Y-90927000D01*
X235573000Y-90927000D01*
X235573000Y-91750000D01*
X235643564Y-92104748D01*
X235667590Y-92140706D01*
X235694409Y-92283237D01*
X235787927Y-92428567D01*
X235930619Y-92526064D01*
X236065996Y-92553479D01*
X236145252Y-92606436D01*
X236500000Y-92677000D01*
X236854748Y-92606436D01*
X236932988Y-92554158D01*
X237058237Y-92530591D01*
X237088251Y-92511277D01*
X237240302Y-92663327D01*
X237473691Y-92760000D01*
X237714250Y-92760000D01*
X237873000Y-92601250D01*
X237873000Y-91877000D01*
X238127000Y-91877000D01*
X238127000Y-92601250D01*
X238285750Y-92760000D01*
X238526309Y-92760000D01*
X238759698Y-92663327D01*
X238938327Y-92484699D01*
X239035000Y-92251310D01*
X239035000Y-92035750D01*
X238876250Y-91877000D01*
X238127000Y-91877000D01*
X237873000Y-91877000D01*
X237853000Y-91877000D01*
X237853000Y-91623000D01*
X237873000Y-91623000D01*
X237873000Y-90898750D01*
X237849250Y-90875000D01*
X237873000Y-90851250D01*
X237873000Y-90127000D01*
X238127000Y-90127000D01*
X238127000Y-90851250D01*
X238150750Y-90875000D01*
X238127000Y-90898750D01*
X238127000Y-91623000D01*
X238876250Y-91623000D01*
X239035000Y-91464250D01*
X239035000Y-91248690D01*
X238938327Y-91015301D01*
X238856609Y-90933583D01*
X241822839Y-90933583D01*
X241963669Y-91274417D01*
X242224211Y-91535414D01*
X242224599Y-91535575D01*
X244073000Y-93383976D01*
X244073000Y-95273000D01*
X243871189Y-95273000D01*
X243799381Y-95223936D01*
X243630000Y-95189635D01*
X242570000Y-95189635D01*
X242411763Y-95219409D01*
X242266433Y-95312927D01*
X242168936Y-95455619D01*
X242134635Y-95625000D01*
X242134635Y-96275000D01*
X242164409Y-96433237D01*
X242257927Y-96578567D01*
X242400619Y-96676064D01*
X242570000Y-96710365D01*
X243630000Y-96710365D01*
X243788237Y-96680591D01*
X243871519Y-96627000D01*
X244204123Y-96627000D01*
X244219409Y-96708237D01*
X244312927Y-96853567D01*
X244455619Y-96951064D01*
X244608810Y-96982086D01*
X244645252Y-97006436D01*
X245000000Y-97077000D01*
X246700000Y-97077000D01*
X247054748Y-97006436D01*
X247090706Y-96982410D01*
X247233237Y-96955591D01*
X247378567Y-96862073D01*
X247476064Y-96719381D01*
X247503479Y-96584004D01*
X247556436Y-96504748D01*
X247627000Y-96150000D01*
X247556436Y-95795252D01*
X247504158Y-95717012D01*
X247480591Y-95591763D01*
X247387073Y-95446433D01*
X247244381Y-95348936D01*
X247091190Y-95317914D01*
X247054748Y-95293564D01*
X246700000Y-95223000D01*
X245927000Y-95223000D01*
X245927000Y-93000000D01*
X245895572Y-92842000D01*
X245856437Y-92645253D01*
X245655488Y-92344512D01*
X243424152Y-90113176D01*
X243503567Y-90062073D01*
X243601064Y-89919381D01*
X243635365Y-89750000D01*
X243635365Y-89250000D01*
X243605591Y-89091763D01*
X243512073Y-88946433D01*
X243369381Y-88848936D01*
X243200000Y-88814635D01*
X242300000Y-88814635D01*
X242141763Y-88844409D01*
X241996433Y-88937927D01*
X241898936Y-89080619D01*
X241864635Y-89250000D01*
X241864635Y-89750000D01*
X241894409Y-89908237D01*
X241987927Y-90053567D01*
X242075552Y-90113438D01*
X241964586Y-90224211D01*
X241823161Y-90564799D01*
X241822839Y-90933583D01*
X238856609Y-90933583D01*
X238798025Y-90875000D01*
X238938327Y-90734699D01*
X239035000Y-90501310D01*
X239035000Y-90285750D01*
X238876250Y-90127000D01*
X238127000Y-90127000D01*
X237873000Y-90127000D01*
X237853000Y-90127000D01*
X237853000Y-89873000D01*
X237873000Y-89873000D01*
X237873000Y-89148750D01*
X238127000Y-89148750D01*
X238127000Y-89873000D01*
X238876250Y-89873000D01*
X239035000Y-89714250D01*
X239035000Y-89498690D01*
X238938327Y-89265301D01*
X238759698Y-89086673D01*
X238526309Y-88990000D01*
X238285750Y-88990000D01*
X238127000Y-89148750D01*
X237873000Y-89148750D01*
X237714250Y-88990000D01*
X237473691Y-88990000D01*
X237240302Y-89086673D01*
X237089376Y-89237598D01*
X237069381Y-89223936D01*
X236934004Y-89196521D01*
X236854748Y-89143564D01*
X236500000Y-89073000D01*
X236364002Y-89073000D01*
X235827000Y-88535998D01*
X235827000Y-88435365D01*
X235875000Y-88435365D01*
X236004591Y-88410981D01*
X236125000Y-88435365D01*
X236375000Y-88435365D01*
X236504591Y-88410981D01*
X236625000Y-88435365D01*
X236875000Y-88435365D01*
X237004591Y-88410981D01*
X237125000Y-88435365D01*
X237375000Y-88435365D01*
X237533237Y-88405591D01*
X237678567Y-88312073D01*
X237776064Y-88169381D01*
X237810365Y-88000000D01*
X237810365Y-86700000D01*
X237780591Y-86541763D01*
X237687073Y-86396433D01*
X237544381Y-86298936D01*
X237375000Y-86264635D01*
X237125000Y-86264635D01*
X236995409Y-86289019D01*
X236875000Y-86264635D01*
X236625000Y-86264635D01*
X236495409Y-86289019D01*
X236375000Y-86264635D01*
X236125000Y-86264635D01*
X235995409Y-86289019D01*
X235875000Y-86264635D01*
X235625000Y-86264635D01*
X235495409Y-86289019D01*
X235375000Y-86264635D01*
X235125000Y-86264635D01*
X234995409Y-86289019D01*
X234875000Y-86264635D01*
X234625000Y-86264635D01*
X234495409Y-86289019D01*
X234375000Y-86264635D01*
X234337660Y-86264635D01*
X234234699Y-86161673D01*
X234001310Y-86065000D01*
X233971250Y-86065000D01*
X233812500Y-86223750D01*
X233812500Y-86401001D01*
X233749420Y-86493322D01*
X233687500Y-86397097D01*
X233687500Y-86223750D01*
X233528750Y-86065000D01*
X233498690Y-86065000D01*
X233265301Y-86161673D01*
X233162340Y-86264635D01*
X233125000Y-86264635D01*
X232995409Y-86289019D01*
X232875000Y-86264635D01*
X232625000Y-86264635D01*
X232495409Y-86289019D01*
X232375000Y-86264635D01*
X232125000Y-86264635D01*
X231995409Y-86289019D01*
X231875000Y-86264635D01*
X231625000Y-86264635D01*
X231466763Y-86294409D01*
X231321433Y-86387927D01*
X231223936Y-86530619D01*
X231189635Y-86700000D01*
X231189635Y-87579727D01*
X231020808Y-87466922D01*
X230800000Y-87422999D01*
X230799995Y-87423000D01*
X230200005Y-87423000D01*
X230200000Y-87422999D01*
X229979192Y-87466922D01*
X229791999Y-87591999D01*
X228977000Y-88406998D01*
X228977000Y-82839002D01*
X228989001Y-82827000D01*
X229064635Y-82827000D01*
X229064635Y-82875000D01*
X229089019Y-83004591D01*
X229064635Y-83125000D01*
X229064635Y-83375000D01*
X229089019Y-83504591D01*
X229064635Y-83625000D01*
X229064635Y-83875000D01*
X229089019Y-84004591D01*
X229064635Y-84125000D01*
X229064635Y-84375000D01*
X229089019Y-84504591D01*
X229064635Y-84625000D01*
X229064635Y-84875000D01*
X229089019Y-85004591D01*
X229064635Y-85125000D01*
X229064635Y-85375000D01*
X229089019Y-85504591D01*
X229064635Y-85625000D01*
X229064635Y-85875000D01*
X229094409Y-86033237D01*
X229187927Y-86178567D01*
X229330619Y-86276064D01*
X229500000Y-86310365D01*
X230800000Y-86310365D01*
X230958237Y-86280591D01*
X231081954Y-86200980D01*
X231264746Y-86276882D01*
X231534073Y-86277117D01*
X231782989Y-86174267D01*
X231973598Y-85983990D01*
X232076882Y-85735254D01*
X232077117Y-85465927D01*
X232022637Y-85334073D01*
X236722883Y-85334073D01*
X236825733Y-85582989D01*
X237016010Y-85773598D01*
X237264746Y-85876882D01*
X237534073Y-85877117D01*
X237764635Y-85781851D01*
X237764635Y-85875000D01*
X237794409Y-86033237D01*
X237887927Y-86178567D01*
X238030619Y-86276064D01*
X238200000Y-86310365D01*
X239500000Y-86310365D01*
X239658237Y-86280591D01*
X239803567Y-86187073D01*
X239901064Y-86044381D01*
X239935365Y-85875000D01*
X239935365Y-85625000D01*
X239910981Y-85495409D01*
X239935365Y-85375000D01*
X239935365Y-85151367D01*
X242133637Y-87349638D01*
X241996433Y-87437927D01*
X241898936Y-87580619D01*
X241864635Y-87750000D01*
X241864635Y-88250000D01*
X241894409Y-88408237D01*
X241987927Y-88553567D01*
X242130619Y-88651064D01*
X242300000Y-88685365D01*
X243200000Y-88685365D01*
X243358237Y-88655591D01*
X243503567Y-88562073D01*
X243601064Y-88419381D01*
X243635365Y-88250000D01*
X243635365Y-87750000D01*
X243605591Y-87591763D01*
X243512073Y-87446433D01*
X243369381Y-87348936D01*
X243327000Y-87340354D01*
X243327000Y-87150000D01*
X243283078Y-86929192D01*
X243158001Y-86741999D01*
X243157998Y-86741997D01*
X242001752Y-85585750D01*
X243790000Y-85585750D01*
X243790000Y-85826309D01*
X243886673Y-86059698D01*
X244065301Y-86238327D01*
X244298690Y-86335000D01*
X244514250Y-86335000D01*
X244673000Y-86176250D01*
X244673000Y-85427000D01*
X244927000Y-85427000D01*
X244927000Y-86176250D01*
X245085750Y-86335000D01*
X245301310Y-86335000D01*
X245534699Y-86238327D01*
X245713327Y-86059698D01*
X245810000Y-85826309D01*
X245810000Y-85585750D01*
X245651250Y-85427000D01*
X244927000Y-85427000D01*
X244673000Y-85427000D01*
X243948750Y-85427000D01*
X243790000Y-85585750D01*
X242001752Y-85585750D01*
X240701752Y-84285750D01*
X242190000Y-84285750D01*
X242190000Y-84526309D01*
X242286673Y-84759698D01*
X242465301Y-84938327D01*
X242698690Y-85035000D01*
X242914250Y-85035000D01*
X243073000Y-84876250D01*
X243073000Y-84127000D01*
X242348750Y-84127000D01*
X242190000Y-84285750D01*
X240701752Y-84285750D01*
X240258001Y-83841999D01*
X240160722Y-83777000D01*
X242252750Y-83777000D01*
X242348750Y-83873000D01*
X243073000Y-83873000D01*
X243073000Y-83853000D01*
X243327000Y-83853000D01*
X243327000Y-83873000D01*
X243347000Y-83873000D01*
X243347000Y-84127000D01*
X243327000Y-84127000D01*
X243327000Y-84876250D01*
X243485750Y-85035000D01*
X243701310Y-85035000D01*
X243790000Y-84998263D01*
X243790000Y-85014250D01*
X243948750Y-85173000D01*
X244673000Y-85173000D01*
X244673000Y-85153000D01*
X244927000Y-85153000D01*
X244927000Y-85173000D01*
X245651250Y-85173000D01*
X245810000Y-85014250D01*
X245810000Y-84773691D01*
X245713327Y-84540302D01*
X245562402Y-84389376D01*
X245576064Y-84369381D01*
X245584646Y-84327000D01*
X247181710Y-84327000D01*
X247419345Y-84564635D01*
X247400000Y-84564635D01*
X247241763Y-84594409D01*
X247096433Y-84687927D01*
X246998936Y-84830619D01*
X246964635Y-85000000D01*
X246964635Y-89500000D01*
X246994409Y-89658237D01*
X247087927Y-89803567D01*
X247230619Y-89901064D01*
X247400000Y-89935365D01*
X249273000Y-89935365D01*
X249273000Y-90749191D01*
X249272839Y-90933583D01*
X249413669Y-91274417D01*
X249674211Y-91535414D01*
X250014799Y-91676839D01*
X250383583Y-91677161D01*
X250724417Y-91536331D01*
X250985414Y-91275789D01*
X251126839Y-90935201D01*
X251127161Y-90566417D01*
X251127000Y-90566027D01*
X251127000Y-87923690D01*
X255436000Y-87923690D01*
X255436000Y-88614250D01*
X255594750Y-88773000D01*
X256794000Y-88773000D01*
X256794000Y-87573750D01*
X256635250Y-87415000D01*
X255944691Y-87415000D01*
X255711302Y-87511673D01*
X255532673Y-87690301D01*
X255436000Y-87923690D01*
X251127000Y-87923690D01*
X251127000Y-76000809D01*
X251127161Y-75816417D01*
X250986331Y-75475583D01*
X250725789Y-75214586D01*
X250385201Y-75073161D01*
X250016417Y-75072839D01*
X249675583Y-75213669D01*
X249414586Y-75474211D01*
X249273161Y-75814799D01*
X249272943Y-76064635D01*
X247400000Y-76064635D01*
X247241763Y-76094409D01*
X247096433Y-76187927D01*
X246998936Y-76330619D01*
X246964635Y-76500000D01*
X246964635Y-81000000D01*
X246994409Y-81158237D01*
X247087927Y-81303567D01*
X247230619Y-81401064D01*
X247400000Y-81435365D01*
X247619345Y-81435365D01*
X247081710Y-81973000D01*
X243986469Y-81973000D01*
X243980591Y-81941763D01*
X243971091Y-81927000D01*
X245775000Y-81927000D01*
X246129748Y-81856436D01*
X246430488Y-81655488D01*
X246455488Y-81630488D01*
X246496318Y-81569381D01*
X246656436Y-81329748D01*
X246727000Y-80975000D01*
X246727000Y-78400809D01*
X246727161Y-78216417D01*
X246586331Y-77875583D01*
X246325789Y-77614586D01*
X245985201Y-77473161D01*
X245616417Y-77472839D01*
X245275583Y-77613669D01*
X245014586Y-77874211D01*
X244873161Y-78214799D01*
X244872943Y-78465000D01*
X244685750Y-78465000D01*
X244527000Y-78623750D01*
X244527000Y-79373000D01*
X244547000Y-79373000D01*
X244547000Y-79627000D01*
X244527000Y-79627000D01*
X244527000Y-79647000D01*
X244273000Y-79647000D01*
X244273000Y-79627000D01*
X242927000Y-79627000D01*
X242927000Y-79647000D01*
X242673000Y-79647000D01*
X242673000Y-79627000D01*
X241948750Y-79627000D01*
X241790000Y-79785750D01*
X241790000Y-80026309D01*
X241886673Y-80259698D01*
X242037598Y-80410624D01*
X242023936Y-80430619D01*
X242017909Y-80460380D01*
X241983990Y-80426402D01*
X241735254Y-80323118D01*
X241676893Y-80323067D01*
X241677117Y-80065927D01*
X241574267Y-79817011D01*
X241383990Y-79626402D01*
X241135254Y-79523118D01*
X240865927Y-79522883D01*
X240769908Y-79562557D01*
X240633990Y-79426402D01*
X240385254Y-79323118D01*
X240115927Y-79322883D01*
X239867011Y-79425733D01*
X239676402Y-79616010D01*
X239634519Y-79716876D01*
X239500000Y-79689635D01*
X238200000Y-79689635D01*
X238041763Y-79719409D01*
X237896433Y-79812927D01*
X237798936Y-79955619D01*
X237764635Y-80125000D01*
X237764635Y-80323013D01*
X237615927Y-80322883D01*
X237367011Y-80425733D01*
X237176402Y-80616010D01*
X237073118Y-80864746D01*
X237072883Y-81134073D01*
X237175733Y-81382989D01*
X237223000Y-81430338D01*
X237223000Y-81500000D01*
X237263115Y-81701675D01*
X237377355Y-81872645D01*
X237627354Y-82122645D01*
X237727612Y-82189635D01*
X237764635Y-82214373D01*
X237764635Y-82375000D01*
X237789019Y-82504591D01*
X237764635Y-82625000D01*
X237764635Y-82875000D01*
X237789019Y-83004591D01*
X237764635Y-83125000D01*
X237764635Y-83162340D01*
X237661673Y-83265301D01*
X237565000Y-83498690D01*
X237565000Y-83528750D01*
X237723750Y-83687500D01*
X237901001Y-83687500D01*
X237993322Y-83750580D01*
X237897097Y-83812500D01*
X237723750Y-83812500D01*
X237565000Y-83971250D01*
X237565000Y-84001310D01*
X237661673Y-84234699D01*
X237683160Y-84256186D01*
X237648325Y-84263115D01*
X237477355Y-84377355D01*
X237331770Y-84522940D01*
X237265927Y-84522883D01*
X237017011Y-84625733D01*
X236826402Y-84816010D01*
X236723118Y-85064746D01*
X236722883Y-85334073D01*
X232022637Y-85334073D01*
X231974267Y-85217011D01*
X231957423Y-85200137D01*
X231973598Y-85183990D01*
X232076882Y-84935254D01*
X232077117Y-84665927D01*
X231974267Y-84417011D01*
X231957423Y-84400137D01*
X231973598Y-84383990D01*
X232076882Y-84135254D01*
X232077117Y-83865927D01*
X231974267Y-83617011D01*
X231957423Y-83600137D01*
X231973598Y-83583990D01*
X232076882Y-83335254D01*
X232077117Y-83065927D01*
X231974267Y-82817011D01*
X231783990Y-82626402D01*
X231742869Y-82609327D01*
X231921905Y-82535351D01*
X232112514Y-82345074D01*
X232215798Y-82096338D01*
X232216033Y-81827011D01*
X232113183Y-81578095D01*
X232101618Y-81566510D01*
X232176882Y-81385254D01*
X232177117Y-81115927D01*
X232168660Y-81095460D01*
X232364746Y-81176882D01*
X232634073Y-81177117D01*
X232882989Y-81074267D01*
X233073598Y-80883990D01*
X233176882Y-80635254D01*
X233177117Y-80365927D01*
X233074267Y-80117011D01*
X232883990Y-79926402D01*
X232877002Y-79923500D01*
X232877002Y-79884595D01*
X232951847Y-79915597D01*
X232971250Y-79935000D01*
X233028750Y-79935000D01*
X233048153Y-79915597D01*
X233234699Y-79838327D01*
X233312500Y-79760526D01*
X233312500Y-79776250D01*
X233471250Y-79935000D01*
X233501310Y-79935000D01*
X233734699Y-79838327D01*
X233837660Y-79735365D01*
X233875000Y-79735365D01*
X234004591Y-79710981D01*
X234125000Y-79735365D01*
X234375000Y-79735365D01*
X234504591Y-79710981D01*
X234625000Y-79735365D01*
X234875000Y-79735365D01*
X235004591Y-79710981D01*
X235125000Y-79735365D01*
X235375000Y-79735365D01*
X235504591Y-79710981D01*
X235580577Y-79726369D01*
X235523118Y-79864746D01*
X235522883Y-80134073D01*
X235625733Y-80382989D01*
X235816010Y-80573598D01*
X236064746Y-80676882D01*
X236334073Y-80677117D01*
X236582989Y-80574267D01*
X236773598Y-80383990D01*
X236876882Y-80135254D01*
X236876940Y-80068350D01*
X237122645Y-79822646D01*
X237180964Y-79735365D01*
X237375000Y-79735365D01*
X237533237Y-79705591D01*
X237678567Y-79612073D01*
X237776064Y-79469381D01*
X237810365Y-79300000D01*
X237810365Y-79277000D01*
X237819493Y-79277000D01*
X237866010Y-79323598D01*
X238114746Y-79426882D01*
X238384073Y-79427117D01*
X238632989Y-79324267D01*
X238823598Y-79133990D01*
X238890159Y-78973691D01*
X241790000Y-78973691D01*
X241790000Y-79214250D01*
X241948750Y-79373000D01*
X242673000Y-79373000D01*
X242673000Y-78623750D01*
X242927000Y-78623750D01*
X242927000Y-79373000D01*
X244273000Y-79373000D01*
X244273000Y-78623750D01*
X244114250Y-78465000D01*
X243898690Y-78465000D01*
X243665301Y-78561673D01*
X243600000Y-78626974D01*
X243534699Y-78561673D01*
X243301310Y-78465000D01*
X243085750Y-78465000D01*
X242927000Y-78623750D01*
X242673000Y-78623750D01*
X242514250Y-78465000D01*
X242298690Y-78465000D01*
X242065301Y-78561673D01*
X241886673Y-78740302D01*
X241790000Y-78973691D01*
X238890159Y-78973691D01*
X238926882Y-78885254D01*
X238927117Y-78615927D01*
X238824267Y-78367011D01*
X238633990Y-78176402D01*
X238385254Y-78073118D01*
X238115927Y-78072883D01*
X237867011Y-78175733D01*
X237819662Y-78223000D01*
X237810365Y-78223000D01*
X237810365Y-78000000D01*
X237780591Y-77841763D01*
X237687073Y-77696433D01*
X237544381Y-77598936D01*
X237375000Y-77564635D01*
X237125000Y-77564635D01*
X236995409Y-77589019D01*
X236875000Y-77564635D01*
X236625000Y-77564635D01*
X236495409Y-77589019D01*
X236375000Y-77564635D01*
X236125000Y-77564635D01*
X235995409Y-77589019D01*
X235875000Y-77564635D01*
X235827000Y-77564635D01*
X235827000Y-76914002D01*
X236407998Y-76333003D01*
X236408001Y-76333001D01*
X236533078Y-76145808D01*
X236555909Y-76031029D01*
X236558237Y-76030591D01*
X236588251Y-76011277D01*
X236740302Y-76163327D01*
X236973691Y-76260000D01*
X237214250Y-76260000D01*
X237373000Y-76101250D01*
X237373000Y-75377000D01*
X237627000Y-75377000D01*
X237627000Y-76101250D01*
X237785750Y-76260000D01*
X238026309Y-76260000D01*
X238259698Y-76163327D01*
X238438327Y-75984699D01*
X238535000Y-75751310D01*
X238535000Y-75535750D01*
X238376250Y-75377000D01*
X237627000Y-75377000D01*
X237373000Y-75377000D01*
X237353000Y-75377000D01*
X237353000Y-75123000D01*
X237373000Y-75123000D01*
X237373000Y-75103000D01*
X237627000Y-75103000D01*
X237627000Y-75123000D01*
X238376250Y-75123000D01*
X238535000Y-74964250D01*
X238535000Y-74927031D01*
X238683583Y-74927161D01*
X239024417Y-74786331D01*
X239285414Y-74525789D01*
X239426839Y-74185201D01*
X239427161Y-73816417D01*
X239286331Y-73475583D01*
X239025789Y-73214586D01*
X238685201Y-73073161D01*
X238316417Y-73072839D01*
X238316027Y-73073000D01*
X236750000Y-73073000D01*
X236491604Y-73124398D01*
X238239001Y-71377000D01*
X243799995Y-71377000D01*
X243800000Y-71377001D01*
X244020808Y-71333078D01*
X244208001Y-71208001D01*
X249587999Y-65828002D01*
X249588002Y-65828000D01*
X249662980Y-65715786D01*
X249713079Y-65640808D01*
X249757001Y-65419999D01*
X249757001Y-64585750D01*
X253215000Y-64585750D01*
X253215000Y-64801310D01*
X253311673Y-65034699D01*
X253490302Y-65213327D01*
X253723691Y-65310000D01*
X253964250Y-65310000D01*
X254123000Y-65151250D01*
X254123000Y-64427000D01*
X253373750Y-64427000D01*
X253215000Y-64585750D01*
X249757001Y-64585750D01*
X249757001Y-63798690D01*
X253215000Y-63798690D01*
X253215000Y-64014250D01*
X253373750Y-64173000D01*
X254123000Y-64173000D01*
X254123000Y-63448750D01*
X253964250Y-63290000D01*
X253723691Y-63290000D01*
X253490302Y-63386673D01*
X253311673Y-63565301D01*
X253215000Y-63798690D01*
X249757001Y-63798690D01*
X249757001Y-61527424D01*
X249955962Y-61567000D01*
X250004038Y-61567000D01*
X250473591Y-61473600D01*
X250871658Y-61207620D01*
X251137638Y-60809553D01*
X251231038Y-60340000D01*
X251137638Y-59870447D01*
X250871658Y-59472380D01*
X250473591Y-59206400D01*
X250004038Y-59113000D01*
X249955962Y-59113000D01*
X249486409Y-59206400D01*
X249177000Y-59413141D01*
X249177000Y-59034757D01*
X249180000Y-59035365D01*
X250780000Y-59035365D01*
X250938237Y-59005591D01*
X251083567Y-58912073D01*
X251181064Y-58769381D01*
X251215365Y-58600000D01*
X251215365Y-57000000D01*
X251185591Y-56841763D01*
X251092073Y-56696433D01*
X250949381Y-56598936D01*
X250780000Y-56564635D01*
X249180000Y-56564635D01*
X249021763Y-56594409D01*
X248876433Y-56687927D01*
X248778936Y-56830619D01*
X248744635Y-57000000D01*
X248744635Y-57249926D01*
X248659192Y-57266922D01*
X248471999Y-57391999D01*
X248471997Y-57392002D01*
X248467000Y-57396999D01*
X248467000Y-57330000D01*
X248396436Y-56975252D01*
X248195488Y-56674512D01*
X247894748Y-56473564D01*
X247540000Y-56403000D01*
X246676923Y-56403000D01*
X246305610Y-56024936D01*
X246164381Y-55928936D01*
X245995000Y-55894635D01*
X243205000Y-55894635D01*
X243063178Y-55923000D01*
X240950000Y-55923000D01*
X240794804Y-55952202D01*
X240652265Y-56043923D01*
X240556642Y-56183873D01*
X240523799Y-56346052D01*
X240448936Y-56455619D01*
X240414635Y-56625000D01*
X240414635Y-57375000D01*
X240444409Y-57533237D01*
X240523000Y-57655370D01*
X240523000Y-57750000D01*
X240537344Y-57826230D01*
X240448936Y-57955619D01*
X240414635Y-58125000D01*
X240414635Y-58875000D01*
X240444409Y-59033237D01*
X240537927Y-59178567D01*
X240680619Y-59276064D01*
X240850000Y-59310365D01*
X240923000Y-59310365D01*
X240923000Y-59847222D01*
X240848936Y-59955619D01*
X240814635Y-60125000D01*
X240814635Y-60375000D01*
X240839019Y-60504591D01*
X240814635Y-60625000D01*
X240814635Y-60875000D01*
X240839019Y-61004591D01*
X240814635Y-61125000D01*
X240814635Y-61375000D01*
X240839019Y-61504591D01*
X240814635Y-61625000D01*
X240814635Y-61875000D01*
X240844409Y-62033237D01*
X240937927Y-62178567D01*
X241080619Y-62276064D01*
X241250000Y-62310365D01*
X241416371Y-62310365D01*
X241500000Y-62327000D01*
X242124203Y-62327000D01*
X242221587Y-62367437D01*
X241744512Y-62844512D01*
X241543564Y-63145252D01*
X241473000Y-63500000D01*
X241473000Y-65401409D01*
X241469381Y-65398936D01*
X241300000Y-65364635D01*
X240800000Y-65364635D01*
X240641763Y-65394409D01*
X240496433Y-65487927D01*
X240398936Y-65630619D01*
X240364635Y-65800000D01*
X240364635Y-66700000D01*
X240394409Y-66858237D01*
X240487927Y-67003567D01*
X240630619Y-67101064D01*
X240800000Y-67135365D01*
X241203659Y-67135365D01*
X240916024Y-67423000D01*
X234000000Y-67423000D01*
X233645252Y-67493564D01*
X233344512Y-67694512D01*
X231994512Y-69044512D01*
X231793564Y-69345252D01*
X231723000Y-69700000D01*
X231723000Y-72823000D01*
X231050000Y-72823000D01*
X230695252Y-72893564D01*
X230449155Y-73058001D01*
X230394512Y-73094512D01*
X227744798Y-75744226D01*
X227614586Y-75874211D01*
X227473161Y-76214799D01*
X227472839Y-76583583D01*
X227613669Y-76924417D01*
X227874211Y-77185414D01*
X228214799Y-77326839D01*
X228583583Y-77327161D01*
X228924417Y-77186331D01*
X229185414Y-76925789D01*
X229185575Y-76925401D01*
X230465000Y-75645976D01*
X230465000Y-75751310D01*
X230561673Y-75984699D01*
X230740302Y-76163327D01*
X230973691Y-76260000D01*
X231214250Y-76260000D01*
X231373000Y-76101250D01*
X231373000Y-75377000D01*
X231353000Y-75377000D01*
X231353000Y-75123000D01*
X231373000Y-75123000D01*
X231373000Y-75103000D01*
X231627000Y-75103000D01*
X231627000Y-75123000D01*
X231647000Y-75123000D01*
X231647000Y-75377000D01*
X231627000Y-75377000D01*
X231627000Y-76101250D01*
X231785750Y-76260000D01*
X232026309Y-76260000D01*
X232259698Y-76163327D01*
X232410624Y-76012402D01*
X232430619Y-76026064D01*
X232443627Y-76028698D01*
X232466922Y-76145808D01*
X232591999Y-76333001D01*
X233173000Y-76914001D01*
X233173000Y-77365000D01*
X233122998Y-77365000D01*
X233122998Y-77415405D01*
X233048153Y-77384403D01*
X233028750Y-77365000D01*
X232971250Y-77365000D01*
X232951847Y-77384403D01*
X232765301Y-77461673D01*
X232687500Y-77539474D01*
X232687500Y-77523750D01*
X232528750Y-77365000D01*
X232498690Y-77365000D01*
X232265301Y-77461673D01*
X232162340Y-77564635D01*
X232125000Y-77564635D01*
X231995409Y-77589019D01*
X231875000Y-77564635D01*
X231625000Y-77564635D01*
X231466763Y-77594409D01*
X231321433Y-77687927D01*
X231223936Y-77830619D01*
X231189635Y-78000000D01*
X231189635Y-79300000D01*
X231219409Y-79458237D01*
X231223000Y-79463818D01*
X231223000Y-80059285D01*
X231205591Y-79966763D01*
X231112073Y-79821433D01*
X230969381Y-79723936D01*
X230800000Y-79689635D01*
X229500000Y-79689635D01*
X229341763Y-79719409D01*
X229196433Y-79812927D01*
X229098936Y-79955619D01*
X229064635Y-80125000D01*
X229064635Y-80375000D01*
X229089019Y-80504591D01*
X229064635Y-80625000D01*
X229064635Y-80875000D01*
X229089019Y-81004591D01*
X229064635Y-81125000D01*
X229064635Y-81375000D01*
X229089019Y-81504591D01*
X229064635Y-81625000D01*
X229064635Y-81673000D01*
X228750005Y-81673000D01*
X228750000Y-81672999D01*
X228553569Y-81712073D01*
X228529192Y-81716922D01*
X228341999Y-81841999D01*
X228341997Y-81842002D01*
X227991999Y-82191999D01*
X227866922Y-82379192D01*
X227822999Y-82600000D01*
X227823000Y-82600005D01*
X227823000Y-88560999D01*
X226391999Y-89991999D01*
X226266922Y-90179192D01*
X226222999Y-90400000D01*
X226223000Y-90400005D01*
X226223000Y-93160999D01*
X226160998Y-93223000D01*
X225650005Y-93223000D01*
X225650000Y-93222999D01*
X225429192Y-93266922D01*
X225241999Y-93391999D01*
X225241997Y-93392002D01*
X224869363Y-93764635D01*
X224350000Y-93764635D01*
X224191763Y-93794409D01*
X224046433Y-93887927D01*
X223948936Y-94030619D01*
X223914635Y-94200000D01*
X223502000Y-94200000D01*
X223502000Y-60960000D01*
X224697982Y-60960000D01*
X224795188Y-61448687D01*
X225072007Y-61862975D01*
X225486295Y-62139794D01*
X225939791Y-62230000D01*
X225486295Y-62320206D01*
X225072007Y-62597025D01*
X224795188Y-63011313D01*
X224697982Y-63500000D01*
X224795188Y-63988687D01*
X225072007Y-64402975D01*
X225486295Y-64679794D01*
X225862546Y-64754635D01*
X225150000Y-64754635D01*
X224991763Y-64784409D01*
X224846433Y-64877927D01*
X224748936Y-65020619D01*
X224714635Y-65190000D01*
X224714635Y-66890000D01*
X224744409Y-67048237D01*
X224837927Y-67193567D01*
X224980619Y-67291064D01*
X225150000Y-67325365D01*
X226850000Y-67325365D01*
X227008237Y-67295591D01*
X227153567Y-67202073D01*
X227251064Y-67059381D01*
X227285365Y-66890000D01*
X227285365Y-65190000D01*
X227255591Y-65031763D01*
X227162073Y-64886433D01*
X227019381Y-64788936D01*
X226850000Y-64754635D01*
X226137454Y-64754635D01*
X226513705Y-64679794D01*
X226927993Y-64402975D01*
X227204812Y-63988687D01*
X227302018Y-63500000D01*
X227204812Y-63011313D01*
X226927993Y-62597025D01*
X226513705Y-62320206D01*
X226060209Y-62230000D01*
X226513705Y-62139794D01*
X226927993Y-61862975D01*
X227204812Y-61448687D01*
X227215371Y-61395605D01*
X229925611Y-58685365D01*
X231700000Y-58685365D01*
X231858237Y-58655591D01*
X232003567Y-58562073D01*
X232101064Y-58419381D01*
X232135365Y-58250000D01*
X232135365Y-56450000D01*
X232764635Y-56450000D01*
X232764635Y-58250000D01*
X232794409Y-58408237D01*
X232887927Y-58553567D01*
X233030619Y-58651064D01*
X233200000Y-58685365D01*
X234623000Y-58685365D01*
X234623000Y-60150000D01*
X234673000Y-60401366D01*
X234673000Y-62514635D01*
X234350000Y-62514635D01*
X234191763Y-62544409D01*
X234046433Y-62637927D01*
X233948936Y-62780619D01*
X233914635Y-62950000D01*
X233914635Y-66250000D01*
X233944409Y-66408237D01*
X234037927Y-66553567D01*
X234180619Y-66651064D01*
X234350000Y-66685365D01*
X236850000Y-66685365D01*
X237008237Y-66655591D01*
X237153567Y-66562073D01*
X237251064Y-66419381D01*
X237285365Y-66250000D01*
X237285365Y-62950000D01*
X237255591Y-62791763D01*
X237162073Y-62646433D01*
X237019381Y-62548936D01*
X236850000Y-62514635D01*
X236527000Y-62514635D01*
X236527000Y-60827000D01*
X237189635Y-60827000D01*
X237189635Y-61000000D01*
X237219409Y-61158237D01*
X237312927Y-61303567D01*
X237455619Y-61401064D01*
X237625000Y-61435365D01*
X238375000Y-61435365D01*
X238533237Y-61405591D01*
X238655370Y-61327000D01*
X238914635Y-61327000D01*
X238914635Y-61375000D01*
X238944409Y-61533237D01*
X239037927Y-61678567D01*
X239143322Y-61750580D01*
X239046433Y-61812927D01*
X238948936Y-61955619D01*
X238914635Y-62125000D01*
X238914635Y-62375000D01*
X238944409Y-62533237D01*
X239023000Y-62655370D01*
X239023000Y-63470831D01*
X238996433Y-63487927D01*
X238898936Y-63630619D01*
X238864635Y-63800000D01*
X238864635Y-64700000D01*
X238894409Y-64858237D01*
X238973000Y-64980370D01*
X238973000Y-65522222D01*
X238898936Y-65630619D01*
X238864635Y-65800000D01*
X238864635Y-66700000D01*
X238894409Y-66858237D01*
X238987927Y-67003567D01*
X239130619Y-67101064D01*
X239300000Y-67135365D01*
X239800000Y-67135365D01*
X239958237Y-67105591D01*
X240103567Y-67012073D01*
X240201064Y-66869381D01*
X240235365Y-66700000D01*
X240235365Y-65800000D01*
X240205591Y-65641763D01*
X240127000Y-65519630D01*
X240127000Y-64977778D01*
X240201064Y-64869381D01*
X240235365Y-64700000D01*
X240235365Y-63800000D01*
X240205591Y-63641763D01*
X240177000Y-63597332D01*
X240177000Y-62652778D01*
X240251064Y-62544381D01*
X240285365Y-62375000D01*
X240285365Y-62125000D01*
X240255591Y-61966763D01*
X240162073Y-61821433D01*
X240056678Y-61749420D01*
X240153567Y-61687073D01*
X240251064Y-61544381D01*
X240285365Y-61375000D01*
X240285365Y-61125000D01*
X240260981Y-60995409D01*
X240285365Y-60875000D01*
X240285365Y-60625000D01*
X240255591Y-60466763D01*
X240162073Y-60321433D01*
X240019381Y-60223936D01*
X239850000Y-60189635D01*
X239683629Y-60189635D01*
X239600000Y-60173000D01*
X238805285Y-60173000D01*
X238780591Y-60041763D01*
X238687073Y-59896433D01*
X238544381Y-59798936D01*
X238375000Y-59764635D01*
X238122057Y-59764635D01*
X238028711Y-59671289D01*
X237930429Y-59605619D01*
X237809077Y-59524534D01*
X237550000Y-59473000D01*
X236477000Y-59473000D01*
X236477000Y-58685365D01*
X236700000Y-58685365D01*
X236858237Y-58655591D01*
X237003567Y-58562073D01*
X237101064Y-58419381D01*
X237135365Y-58250000D01*
X237135365Y-56450000D01*
X237105591Y-56291763D01*
X237012073Y-56146433D01*
X236869381Y-56048936D01*
X236700000Y-56014635D01*
X233200000Y-56014635D01*
X233041763Y-56044409D01*
X232896433Y-56137927D01*
X232798936Y-56280619D01*
X232764635Y-56450000D01*
X232135365Y-56450000D01*
X232105591Y-56291763D01*
X232012073Y-56146433D01*
X231869381Y-56048936D01*
X231700000Y-56014635D01*
X228200000Y-56014635D01*
X228041763Y-56044409D01*
X227896433Y-56137927D01*
X227798936Y-56280619D01*
X227764635Y-56450000D01*
X227764635Y-58224389D01*
X226259402Y-59729622D01*
X226025018Y-59683000D01*
X225974982Y-59683000D01*
X225486295Y-59780206D01*
X225072007Y-60057025D01*
X224795188Y-60471313D01*
X224697982Y-60960000D01*
X223502000Y-60960000D01*
X223502000Y-55502000D01*
X258498000Y-55502000D01*
X258498000Y-56941871D01*
G36*
X248023000Y-65010998D02*
X247301999Y-65731999D01*
X247281861Y-65762138D01*
X243271007Y-69772991D01*
X236950014Y-69772991D01*
X236950009Y-69772990D01*
X236842875Y-69794301D01*
X236812073Y-69746433D01*
X236669381Y-69648936D01*
X236500000Y-69614635D01*
X236000000Y-69614635D01*
X235841763Y-69644409D01*
X235696433Y-69737927D01*
X235598936Y-69880619D01*
X235564635Y-70050000D01*
X235564635Y-70950000D01*
X235594409Y-71108237D01*
X235687927Y-71253567D01*
X235830619Y-71351064D01*
X236000000Y-71385365D01*
X236500000Y-71385365D01*
X236621494Y-71362505D01*
X236017809Y-71966189D01*
X235919381Y-71898936D01*
X235750000Y-71864635D01*
X235327000Y-71864635D01*
X235327000Y-71227778D01*
X235401064Y-71119381D01*
X235435365Y-70950000D01*
X235435365Y-70050000D01*
X235405591Y-69891763D01*
X235377000Y-69847332D01*
X235377000Y-69775797D01*
X235476882Y-69535254D01*
X235477107Y-69277000D01*
X241300000Y-69277000D01*
X241654748Y-69206436D01*
X241955488Y-69005488D01*
X243055488Y-67905488D01*
X243112069Y-67820808D01*
X243256436Y-67604748D01*
X243327000Y-67250000D01*
X243327000Y-63883976D01*
X244683976Y-62527000D01*
X246340000Y-62527000D01*
X246694748Y-62456436D01*
X246995488Y-62255488D01*
X248023000Y-61227976D01*
X248023000Y-65010998D01*
X248023000Y-65010998D01*
G37*
X248023000Y-65010998D02*
X247301999Y-65731999D01*
X247281861Y-65762138D01*
X243271007Y-69772991D01*
X236950014Y-69772991D01*
X236950009Y-69772990D01*
X236842875Y-69794301D01*
X236812073Y-69746433D01*
X236669381Y-69648936D01*
X236500000Y-69614635D01*
X236000000Y-69614635D01*
X235841763Y-69644409D01*
X235696433Y-69737927D01*
X235598936Y-69880619D01*
X235564635Y-70050000D01*
X235564635Y-70950000D01*
X235594409Y-71108237D01*
X235687927Y-71253567D01*
X235830619Y-71351064D01*
X236000000Y-71385365D01*
X236500000Y-71385365D01*
X236621494Y-71362505D01*
X236017809Y-71966189D01*
X235919381Y-71898936D01*
X235750000Y-71864635D01*
X235327000Y-71864635D01*
X235327000Y-71227778D01*
X235401064Y-71119381D01*
X235435365Y-70950000D01*
X235435365Y-70050000D01*
X235405591Y-69891763D01*
X235377000Y-69847332D01*
X235377000Y-69775797D01*
X235476882Y-69535254D01*
X235477107Y-69277000D01*
X241300000Y-69277000D01*
X241654748Y-69206436D01*
X241955488Y-69005488D01*
X243055488Y-67905488D01*
X243112069Y-67820808D01*
X243256436Y-67604748D01*
X243327000Y-67250000D01*
X243327000Y-63883976D01*
X244683976Y-62527000D01*
X246340000Y-62527000D01*
X246694748Y-62456436D01*
X246995488Y-62255488D01*
X248023000Y-61227976D01*
X248023000Y-65010998D01*
G36*
X257823000Y-69439001D02*
X257823000Y-69635000D01*
X257206750Y-69635000D01*
X257048000Y-69793750D01*
X257048000Y-70993000D01*
X257068000Y-70993000D01*
X257068000Y-71247000D01*
X257048000Y-71247000D01*
X257048000Y-71267000D01*
X256794000Y-71267000D01*
X256794000Y-71247000D01*
X256774000Y-71247000D01*
X256774000Y-70993000D01*
X256794000Y-70993000D01*
X256794000Y-69793750D01*
X256635250Y-69635000D01*
X256103550Y-69635000D01*
X256085510Y-69608001D01*
X256008001Y-69491999D01*
X256007998Y-69491997D01*
X255177210Y-68661208D01*
X255253567Y-68612073D01*
X255351064Y-68469381D01*
X255385365Y-68300000D01*
X255385365Y-68177000D01*
X256560998Y-68177000D01*
X257823000Y-69439001D01*
X257823000Y-69439001D01*
G37*
X257823000Y-69439001D02*
X257823000Y-69635000D01*
X257206750Y-69635000D01*
X257048000Y-69793750D01*
X257048000Y-70993000D01*
X257068000Y-70993000D01*
X257068000Y-71247000D01*
X257048000Y-71247000D01*
X257048000Y-71267000D01*
X256794000Y-71267000D01*
X256794000Y-71247000D01*
X256774000Y-71247000D01*
X256774000Y-70993000D01*
X256794000Y-70993000D01*
X256794000Y-69793750D01*
X256635250Y-69635000D01*
X256103550Y-69635000D01*
X256085510Y-69608001D01*
X256008001Y-69491999D01*
X256007998Y-69491997D01*
X255177210Y-68661208D01*
X255253567Y-68612073D01*
X255351064Y-68469381D01*
X255385365Y-68300000D01*
X255385365Y-68177000D01*
X256560998Y-68177000D01*
X257823000Y-69439001D01*
M02*
