G04 #@! TF.FileFunction,Soldermask,Top*
%FSLAX46Y46*%
G04 Gerber Fmt 4.6, Leading zero omitted, Abs format (unit mm)*
G04 Created by KiCad (PCBNEW 4.0.7) date Saturday, June 23, 2018 'PMt' 03:17:16 PM*
%MOMM*%
%LPD*%
G01*
G04 APERTURE LIST*
%ADD10C,0.100000*%
%ADD11R,2.000000X2.000000*%
%ADD12O,2.000000X2.000000*%
%ADD13C,6.800000*%
%ADD14R,1.700000X0.650000*%
%ADD15R,0.650000X1.700000*%
%ADD16R,1.150000X1.200000*%
%ADD17R,1.200000X1.150000*%
%ADD18R,1.300000X0.900000*%
%ADD19R,0.900000X1.300000*%
%ADD20R,1.460000X1.050000*%
%ADD21R,2.400000X4.900000*%
%ADD22R,1.400000X1.290000*%
%ADD23R,2.400000X0.730000*%
%ADD24R,0.640000X0.390000*%
%ADD25R,0.980000X2.540000*%
%ADD26C,0.480000*%
%ADD27R,1.400000X1.400000*%
%ADD28O,1.400000X1.400000*%
%ADD29R,2.100000X2.100000*%
%ADD30O,2.100000X2.100000*%
%ADD31R,3.900000X2.200000*%
%ADD32R,2.900000X3.700000*%
%ADD33R,0.700000X1.800000*%
G04 APERTURE END LIST*
D10*
D11*
X249980000Y-57800000D03*
D12*
X257600000Y-60340000D03*
X249980000Y-60340000D03*
X257600000Y-57800000D03*
D13*
X227200000Y-117800000D03*
D14*
X238850000Y-85750000D03*
X238850000Y-85250000D03*
X238850000Y-84750000D03*
X238850000Y-84250000D03*
X238850000Y-83750000D03*
X238850000Y-83250000D03*
X238850000Y-82750000D03*
X238850000Y-82250000D03*
X238850000Y-81750000D03*
X238850000Y-81250000D03*
X238850000Y-80750000D03*
X238850000Y-80250000D03*
D15*
X237250000Y-78650000D03*
X236750000Y-78650000D03*
X236250000Y-78650000D03*
X235750000Y-78650000D03*
X235250000Y-78650000D03*
X234750000Y-78650000D03*
X234250000Y-78650000D03*
X233750000Y-78650000D03*
X233250000Y-78650000D03*
X232750000Y-78650000D03*
X232250000Y-78650000D03*
X231750000Y-78650000D03*
D14*
X230150000Y-80250000D03*
X230150000Y-80750000D03*
X230150000Y-81250000D03*
X230150000Y-81750000D03*
X230150000Y-82250000D03*
X230150000Y-82750000D03*
X230150000Y-83250000D03*
X230150000Y-83750000D03*
X230150000Y-84250000D03*
X230150000Y-84750000D03*
X230150000Y-85250000D03*
X230150000Y-85750000D03*
D15*
X231750000Y-87350000D03*
X232250000Y-87350000D03*
X232750000Y-87350000D03*
X233250000Y-87350000D03*
X233750000Y-87350000D03*
X234250000Y-87350000D03*
X234750000Y-87350000D03*
X235250000Y-87350000D03*
X235750000Y-87350000D03*
X236250000Y-87350000D03*
X236750000Y-87350000D03*
X237250000Y-87350000D03*
D16*
X244400000Y-79500000D03*
X244400000Y-81000000D03*
X242800000Y-79500000D03*
X242800000Y-81000000D03*
D17*
X238000000Y-91750000D03*
X236500000Y-91750000D03*
X238000000Y-90000000D03*
X236500000Y-90000000D03*
X237500000Y-75250000D03*
X236000000Y-75250000D03*
X231500000Y-75250000D03*
X233000000Y-75250000D03*
X254250000Y-64300000D03*
X255750000Y-64300000D03*
X234050000Y-60150000D03*
X235550000Y-60150000D03*
X239750000Y-58500000D03*
X241250000Y-58500000D03*
D16*
X236800000Y-97650000D03*
X236800000Y-96150000D03*
X246700000Y-97650000D03*
X246700000Y-96150000D03*
X244800000Y-83800000D03*
X244800000Y-85300000D03*
X243200000Y-82500000D03*
X243200000Y-84000000D03*
D18*
X242750000Y-88000000D03*
X242750000Y-89500000D03*
D19*
X235500000Y-72750000D03*
X234000000Y-72750000D03*
X231750000Y-92400000D03*
X230250000Y-92400000D03*
X236250000Y-70500000D03*
X234750000Y-70500000D03*
D18*
X226400000Y-95950000D03*
X226400000Y-94450000D03*
X224800000Y-94450000D03*
X224800000Y-95950000D03*
X228000000Y-94450000D03*
X228000000Y-95950000D03*
D19*
X231750000Y-90400000D03*
X230250000Y-90400000D03*
X241050000Y-66250000D03*
X239550000Y-66250000D03*
X239550000Y-64250000D03*
X241050000Y-64250000D03*
D20*
X240900000Y-95950000D03*
X240900000Y-96900000D03*
X240900000Y-97850000D03*
X243100000Y-97850000D03*
X243100000Y-95950000D03*
D21*
X248400000Y-87250000D03*
X248400000Y-78750000D03*
D10*
G36*
X246745000Y-57090000D02*
X242455000Y-57090000D01*
X243005000Y-56130000D01*
X246195000Y-56130000D01*
X246745000Y-57090000D01*
X246745000Y-57090000D01*
G37*
D22*
X243150000Y-57330000D03*
X246040000Y-57330000D03*
X246040000Y-59670000D03*
D10*
G36*
X242455000Y-59910000D02*
X246745000Y-59910000D01*
X246195000Y-60870000D01*
X243005000Y-60870000D01*
X242455000Y-59910000D01*
X242455000Y-59910000D01*
G37*
D22*
X243160000Y-59670000D03*
D23*
X244580000Y-57050000D03*
X244600000Y-59950000D03*
D24*
X239600000Y-60250000D03*
X239600000Y-60750000D03*
X239600000Y-61250000D03*
X239600000Y-61750000D03*
X239600000Y-62250000D03*
X241500000Y-62250000D03*
X241500000Y-61750000D03*
X241500000Y-61250000D03*
X241500000Y-60750000D03*
X241500000Y-60250000D03*
D25*
X240550000Y-61250000D03*
D26*
X240550000Y-61250000D03*
X240550000Y-62200000D03*
X240550000Y-60300000D03*
D27*
X230990000Y-108410000D03*
D28*
X229720000Y-108410000D03*
X230990000Y-107140000D03*
X229720000Y-107140000D03*
X230990000Y-105870000D03*
X229720000Y-105870000D03*
X230990000Y-104600000D03*
X229720000Y-104600000D03*
X230990000Y-103330000D03*
X229720000Y-103330000D03*
D29*
X226000000Y-66040000D03*
D30*
X226000000Y-63500000D03*
X226000000Y-60960000D03*
X226000000Y-58420000D03*
D29*
X256921000Y-71120000D03*
D30*
X256921000Y-73660000D03*
X256921000Y-76200000D03*
X256921000Y-78740000D03*
X256921000Y-81280000D03*
X256921000Y-83820000D03*
D29*
X256921000Y-88900000D03*
D30*
X256921000Y-91440000D03*
X256921000Y-93980000D03*
X256921000Y-96520000D03*
X256921000Y-99060000D03*
X256921000Y-101600000D03*
D29*
X256921000Y-106680000D03*
D30*
X256921000Y-109220000D03*
X256921000Y-111760000D03*
X256921000Y-114300000D03*
X256921000Y-116840000D03*
X256921000Y-119380000D03*
D13*
X227000000Y-72000000D03*
D16*
X238700000Y-97650000D03*
X238700000Y-96150000D03*
X245000000Y-97650000D03*
X245000000Y-96150000D03*
X238000000Y-59100000D03*
X238000000Y-60600000D03*
D17*
X239750000Y-57000000D03*
X241250000Y-57000000D03*
D31*
X234950000Y-57350000D03*
X229950000Y-57350000D03*
D32*
X235600000Y-64600000D03*
X228800000Y-64600000D03*
D33*
X254800000Y-67600000D03*
X254300000Y-67600000D03*
X253800000Y-67600000D03*
X253300000Y-67600000D03*
X252800000Y-67600000D03*
X252800000Y-72000000D03*
X253300000Y-72000000D03*
X253800000Y-72000000D03*
X254300000Y-72000000D03*
X254800000Y-72000000D03*
X254400000Y-102000000D03*
X253900000Y-102000000D03*
X253400000Y-102000000D03*
X252900000Y-102000000D03*
X252400000Y-102000000D03*
X252400000Y-106400000D03*
X252900000Y-106400000D03*
X253400000Y-106400000D03*
X253900000Y-106400000D03*
X254400000Y-106400000D03*
M02*
