G04 #@! TF.FileFunction,Copper,L2,Bot,Signal*
%FSLAX46Y46*%
G04 Gerber Fmt 4.6, Leading zero omitted, Abs format (unit mm)*
G04 Created by KiCad (PCBNEW 4.0.7) date Saturday, June 23, 2018 'PMt' 03:17:16 PM*
%MOMM*%
%LPD*%
G01*
G04 APERTURE LIST*
%ADD10C,0.100000*%
%ADD11C,1.000000*%
%ADD12R,1.600000X1.600000*%
%ADD13O,1.600000X1.600000*%
%ADD14C,6.400000*%
%ADD15C,0.400000*%
%ADD16R,1.000000X1.000000*%
%ADD17O,1.000000X1.000000*%
%ADD18R,1.700000X1.700000*%
%ADD19O,1.700000X1.700000*%
%ADD20R,0.800000X0.900000*%
%ADD21C,0.500000*%
%ADD22C,0.200000*%
%ADD23C,1.000000*%
%ADD24C,0.500000*%
%ADD25C,0.300000*%
%ADD26C,0.254000*%
G04 APERTURE END LIST*
D10*
D11*
X226200000Y-76000000D03*
X224200000Y-69000000D03*
X231000000Y-71000000D03*
X231600000Y-120800000D03*
X231600000Y-113600000D03*
X224200000Y-113600000D03*
X248450000Y-71900000D03*
X253950000Y-59000000D03*
X240100000Y-108000000D03*
X244200000Y-119400000D03*
X251900000Y-78800000D03*
X243000000Y-68950000D03*
X228750000Y-61600000D03*
D12*
X249980000Y-57800000D03*
D13*
X257600000Y-60340000D03*
X249980000Y-60340000D03*
X257600000Y-57800000D03*
D14*
X227200000Y-117800000D03*
D11*
X225000000Y-91200000D03*
X231400000Y-95600000D03*
X230200000Y-78800000D03*
X230400000Y-87000000D03*
X239950000Y-92600000D03*
X238000000Y-62800000D03*
X235600000Y-81000000D03*
X235800000Y-113200000D03*
X248400000Y-92400000D03*
X244800000Y-89400000D03*
X240500000Y-87100000D03*
X242250000Y-77600000D03*
X248400000Y-67600000D03*
D15*
X240550000Y-61250000D03*
X240550000Y-62200000D03*
X240550000Y-60300000D03*
D16*
X230990000Y-108410000D03*
D17*
X229720000Y-108410000D03*
X230990000Y-107140000D03*
X229720000Y-107140000D03*
X230990000Y-105870000D03*
X229720000Y-105870000D03*
X230990000Y-104600000D03*
X229720000Y-104600000D03*
X230990000Y-103330000D03*
X229720000Y-103330000D03*
D18*
X226000000Y-66040000D03*
D19*
X226000000Y-63500000D03*
X226000000Y-60960000D03*
X226000000Y-58420000D03*
D18*
X256921000Y-71120000D03*
D19*
X256921000Y-73660000D03*
X256921000Y-76200000D03*
X256921000Y-78740000D03*
X256921000Y-81280000D03*
X256921000Y-83820000D03*
D18*
X256921000Y-88900000D03*
D19*
X256921000Y-91440000D03*
X256921000Y-93980000D03*
X256921000Y-96520000D03*
X256921000Y-99060000D03*
X256921000Y-101600000D03*
D18*
X256921000Y-106680000D03*
D19*
X256921000Y-109220000D03*
X256921000Y-111760000D03*
X256921000Y-114300000D03*
X256921000Y-116840000D03*
X256921000Y-119380000D03*
D14*
X227000000Y-72000000D03*
D20*
X231700000Y-69250000D03*
X233600000Y-69250000D03*
X232650000Y-71250000D03*
D21*
X237700000Y-96150000D03*
D11*
X235000000Y-96200000D03*
X228400000Y-76400000D03*
D21*
X240500000Y-98900000D03*
D11*
X250200000Y-76000000D03*
X245800000Y-78400000D03*
X250200000Y-90750000D03*
D21*
X229000000Y-100200000D03*
X232800000Y-90400000D03*
D11*
X238500000Y-74000000D03*
X235000000Y-90000000D03*
X242750000Y-90750000D03*
D21*
X234800000Y-69400000D03*
X233800000Y-71300000D03*
X228400000Y-104600000D03*
X242500000Y-61750000D03*
X230200000Y-88800000D03*
X237400000Y-85200000D03*
X238250000Y-78750000D03*
X236200000Y-80000000D03*
X237750000Y-81000000D03*
X241600000Y-81000000D03*
X241000000Y-80200000D03*
X240250000Y-80000000D03*
X232500000Y-80500000D03*
X231750000Y-80500000D03*
X231500000Y-81250000D03*
X231538916Y-81961084D03*
X231400000Y-83200000D03*
X231400000Y-84000000D03*
X231400000Y-84800000D03*
X231400000Y-85600000D03*
D22*
X237700000Y-96150000D02*
X240450000Y-98900000D01*
X240450000Y-98900000D02*
X240500000Y-98900000D01*
D23*
X227899998Y-89099998D02*
X235000000Y-96200000D01*
X227899998Y-76900002D02*
X227899998Y-89099998D01*
X228400000Y-76400000D02*
X227899998Y-76900002D01*
D24*
X250942894Y-92200000D02*
X250942894Y-113401894D01*
X250942894Y-113401894D02*
X256921000Y-119380000D01*
D23*
X250200000Y-75292894D02*
X250157106Y-75250000D01*
X250157106Y-75250000D02*
X245600000Y-75250000D01*
X250200000Y-76000000D02*
X250200000Y-75292894D01*
X245600000Y-75250000D02*
X239750000Y-75250000D01*
X245800000Y-78400000D02*
X245800000Y-75450000D01*
X245800000Y-75450000D02*
X245600000Y-75250000D01*
D24*
X250200000Y-90750000D02*
X250200000Y-91457106D01*
X250200000Y-91457106D02*
X250942894Y-92200000D01*
D23*
X242750000Y-90750000D02*
X250200000Y-90750000D01*
D25*
X229600000Y-101600000D02*
X229000000Y-101000000D01*
X229000000Y-100200000D02*
X229000000Y-101000000D01*
X231600000Y-101600000D02*
X229600000Y-101600000D01*
X232200000Y-102200000D02*
X231600000Y-101600000D01*
X232200000Y-108000000D02*
X232200000Y-102200000D01*
X230990000Y-108410000D02*
X231790000Y-108410000D01*
X231790000Y-108410000D02*
X232200000Y-108000000D01*
X235000000Y-90000000D02*
X233200000Y-90000000D01*
X233200000Y-90000000D02*
X232800000Y-90400000D01*
D23*
X235000000Y-90000000D02*
X242000000Y-90000000D01*
X239750000Y-75250000D02*
X238500000Y-74000000D01*
X242000000Y-90000000D02*
X242750000Y-90750000D01*
D25*
X231450000Y-68050000D02*
X232450000Y-68050000D01*
X232450000Y-68050000D02*
X233600000Y-69200000D01*
X233600000Y-69200000D02*
X233600000Y-69250000D01*
X227749999Y-64349999D02*
X231450000Y-68050000D01*
X226000000Y-63500000D02*
X226849999Y-64349999D01*
X226849999Y-64349999D02*
X227749999Y-64349999D01*
X233600000Y-69250000D02*
X234650000Y-69250000D01*
X234650000Y-69250000D02*
X234800000Y-69400000D01*
X233350000Y-69200000D02*
X233350000Y-69250000D01*
X233500000Y-69400000D02*
X233350000Y-69250000D01*
X231700000Y-69250000D02*
X231700000Y-69200000D01*
X228540000Y-66040000D02*
X226000000Y-66040000D01*
X231700000Y-69200000D02*
X228540000Y-66040000D01*
X233250000Y-70150000D02*
X232550000Y-70150000D01*
X232550000Y-70150000D02*
X231700000Y-69300000D01*
X231700000Y-69300000D02*
X231700000Y-69250000D01*
X233800000Y-70700000D02*
X233250000Y-70150000D01*
X231450000Y-69200000D02*
X231450000Y-69250000D01*
X233800000Y-71300000D02*
X233800000Y-70700000D01*
X228400000Y-104600000D02*
X228400000Y-107090000D01*
X228400000Y-107090000D02*
X229720000Y-108410000D01*
X228800000Y-78550000D02*
X242500000Y-64850000D01*
X242500000Y-61750000D02*
X242500000Y-64850000D01*
X228800000Y-80000000D02*
X228800000Y-78550000D01*
X228800000Y-80000000D02*
X228800000Y-80300000D01*
X228800000Y-80300000D02*
X228800000Y-87400000D01*
D22*
X228800000Y-78550000D02*
X228800000Y-80300000D01*
X231600000Y-82600000D02*
X234200000Y-85200000D01*
X234200000Y-85200000D02*
X237400000Y-85200000D01*
X231600000Y-82600000D02*
X231400000Y-82600000D01*
X231400000Y-82600000D02*
X228800000Y-80000000D01*
D25*
X228800000Y-87400000D02*
X230200000Y-88800000D01*
D22*
X254800000Y-79000000D02*
X254800000Y-75781000D01*
X254800000Y-75781000D02*
X256921000Y-73660000D01*
X238250000Y-78750000D02*
X238750000Y-78250000D01*
X253800000Y-80000000D02*
X254800000Y-79000000D01*
X238750000Y-78250000D02*
X241500000Y-78250000D01*
X241500000Y-78250000D02*
X243250000Y-80000000D01*
X243250000Y-80000000D02*
X253800000Y-80000000D01*
X255200000Y-79400000D02*
X255200000Y-77921000D01*
X255200000Y-77921000D02*
X256921000Y-76200000D01*
X238600000Y-79400000D02*
X239250000Y-78750000D01*
X236600000Y-80000000D02*
X237200000Y-79400000D01*
X237200000Y-79400000D02*
X238600000Y-79400000D01*
X236200000Y-80000000D02*
X236600000Y-80000000D01*
X239250000Y-78750000D02*
X241250000Y-78750000D01*
X241250000Y-78750000D02*
X243000000Y-80500000D01*
X243000000Y-80500000D02*
X254100000Y-80500000D01*
X254100000Y-80500000D02*
X255200000Y-79400000D01*
X237750000Y-81000000D02*
X239500000Y-79250000D01*
X239500000Y-79250000D02*
X241000000Y-79250000D01*
X241000000Y-79250000D02*
X242750000Y-81000000D01*
X242750000Y-81000000D02*
X254661000Y-81000000D01*
X254661000Y-81000000D02*
X256921000Y-78740000D01*
X255718919Y-81280000D02*
X256921000Y-81280000D01*
X255498909Y-81500010D02*
X255718919Y-81280000D01*
X242100010Y-81500010D02*
X255498909Y-81500010D01*
X241600000Y-81000000D02*
X242100010Y-81500010D01*
X241000000Y-80200000D02*
X241000000Y-81600000D01*
X241000000Y-81600000D02*
X241400011Y-82000011D01*
X241400011Y-82000011D02*
X255101011Y-82000011D01*
X255101011Y-82000011D02*
X256921000Y-83820000D01*
X254800000Y-89319000D02*
X254800000Y-84800000D01*
X254800000Y-89319000D02*
X256921000Y-91440000D01*
X254800000Y-84800000D02*
X252500000Y-82500000D01*
X252500000Y-82500000D02*
X240900000Y-82500000D01*
X240900000Y-82500000D02*
X240250000Y-81850000D01*
X240250000Y-81850000D02*
X240250000Y-80000000D01*
X254400000Y-85000000D02*
X254400000Y-91459000D01*
X254400000Y-91459000D02*
X256921000Y-93980000D01*
X232500000Y-80500000D02*
X235000000Y-83000000D01*
X235000000Y-83000000D02*
X252400000Y-83000000D01*
X252400000Y-83000000D02*
X254400000Y-85000000D01*
X254000000Y-85200000D02*
X254000000Y-93599000D01*
X254000000Y-93599000D02*
X256921000Y-96520000D01*
X234750000Y-83500000D02*
X252300000Y-83500000D01*
X252300000Y-83500000D02*
X254000000Y-85200000D01*
X231750000Y-80500000D02*
X234750000Y-83500000D01*
X253600000Y-95739000D02*
X256921000Y-99060000D01*
X253600000Y-85400000D02*
X253600000Y-95739000D01*
X234500000Y-84000000D02*
X252200000Y-84000000D01*
X252200000Y-84000000D02*
X253600000Y-85400000D01*
X231500000Y-81250000D02*
X231750000Y-81250000D01*
X231750000Y-81250000D02*
X234500000Y-84000000D01*
X253200000Y-85600000D02*
X253200000Y-97879000D01*
X253200000Y-97879000D02*
X256921000Y-101600000D01*
X231538916Y-81961084D02*
X234077832Y-84500000D01*
X234077832Y-84500000D02*
X252100000Y-84500000D01*
X252100000Y-84500000D02*
X253200000Y-85600000D01*
X252800000Y-85800000D02*
X252800000Y-105099000D01*
X252800000Y-105099000D02*
X256921000Y-109220000D01*
X238600000Y-85000000D02*
X252000000Y-85000000D01*
X252000000Y-85000000D02*
X252800000Y-85800000D01*
X234000000Y-85800000D02*
X237800000Y-85800000D01*
X231400000Y-83200000D02*
X234000000Y-85800000D01*
X237800000Y-85800000D02*
X238600000Y-85000000D01*
X252400000Y-86000000D02*
X252400000Y-107239000D01*
X252400000Y-107239000D02*
X256921000Y-111760000D01*
X233600000Y-86200000D02*
X238000000Y-86200000D01*
X238000000Y-86200000D02*
X238800000Y-85400000D01*
X231400000Y-84000000D02*
X233600000Y-86200000D01*
X238800000Y-85400000D02*
X251800000Y-85400000D01*
X251800000Y-85400000D02*
X252400000Y-86000000D01*
X252000000Y-86200000D02*
X252000000Y-109379000D01*
X252000000Y-109379000D02*
X256921000Y-114300000D01*
X231400000Y-84800000D02*
X233200000Y-86600000D01*
X251600000Y-85800000D02*
X252000000Y-86200000D01*
X233200000Y-86600000D02*
X238200000Y-86600000D01*
X238200000Y-86600000D02*
X239000000Y-85800000D01*
X239000000Y-85800000D02*
X251600000Y-85800000D01*
X231400000Y-85600000D02*
X232800000Y-87000000D01*
X232800000Y-87000000D02*
X238400000Y-87000000D01*
X238400000Y-87000000D02*
X239200000Y-86200000D01*
X239200000Y-86200000D02*
X251400000Y-86200000D01*
X251600000Y-111519000D02*
X256921000Y-116840000D01*
X251400000Y-86200000D02*
X251600000Y-86400000D01*
X251600000Y-86400000D02*
X251600000Y-111519000D01*
D26*
G36*
X258498000Y-56941871D02*
X258491658Y-56932380D01*
X258093591Y-56666400D01*
X257624038Y-56573000D01*
X257575962Y-56573000D01*
X257106409Y-56666400D01*
X256708342Y-56932380D01*
X256442362Y-57330447D01*
X256348962Y-57800000D01*
X256442362Y-58269553D01*
X256708342Y-58667620D01*
X257106409Y-58933600D01*
X257575962Y-59027000D01*
X257624038Y-59027000D01*
X258093591Y-58933600D01*
X258491658Y-58667620D01*
X258498000Y-58658129D01*
X258498000Y-59481871D01*
X258491658Y-59472380D01*
X258093591Y-59206400D01*
X257624038Y-59113000D01*
X257575962Y-59113000D01*
X257106409Y-59206400D01*
X256708342Y-59472380D01*
X256442362Y-59870447D01*
X256348962Y-60340000D01*
X256442362Y-60809553D01*
X256708342Y-61207620D01*
X257106409Y-61473600D01*
X257575962Y-61567000D01*
X257624038Y-61567000D01*
X258093591Y-61473600D01*
X258491658Y-61207620D01*
X258498000Y-61198129D01*
X258498000Y-121498000D01*
X223502000Y-121498000D01*
X223502000Y-104734073D01*
X227722883Y-104734073D01*
X227823000Y-104976375D01*
X227823000Y-107089995D01*
X227822999Y-107090000D01*
X227866922Y-107310808D01*
X227991999Y-107498001D01*
X228796268Y-108302270D01*
X228774839Y-108410000D01*
X228845403Y-108764748D01*
X229046351Y-109065488D01*
X229347091Y-109266436D01*
X229701839Y-109337000D01*
X229738161Y-109337000D01*
X230092909Y-109266436D01*
X230176155Y-109210813D01*
X230177927Y-109213567D01*
X230320619Y-109311064D01*
X230490000Y-109345365D01*
X231490000Y-109345365D01*
X231648237Y-109315591D01*
X231793567Y-109222073D01*
X231891064Y-109079381D01*
X231914799Y-108962176D01*
X232010808Y-108943078D01*
X232198001Y-108818001D01*
X232607998Y-108408003D01*
X232608001Y-108408001D01*
X232733078Y-108220808D01*
X232744179Y-108165000D01*
X232777001Y-108000000D01*
X232777000Y-107999995D01*
X232777000Y-102200000D01*
X232733078Y-101979192D01*
X232608001Y-101791999D01*
X232008001Y-101191999D01*
X231820808Y-101066922D01*
X231600000Y-101022999D01*
X231599995Y-101023000D01*
X229839002Y-101023000D01*
X229577000Y-100760998D01*
X229577000Y-100575797D01*
X229676882Y-100335254D01*
X229677117Y-100065927D01*
X229574267Y-99817011D01*
X229383990Y-99626402D01*
X229135254Y-99523118D01*
X228865927Y-99522883D01*
X228617011Y-99625733D01*
X228426402Y-99816010D01*
X228323118Y-100064746D01*
X228322883Y-100334073D01*
X228423000Y-100576375D01*
X228423000Y-100999995D01*
X228422999Y-101000000D01*
X228466922Y-101220808D01*
X228591999Y-101408001D01*
X229191999Y-102008001D01*
X229379192Y-102133078D01*
X229600000Y-102177000D01*
X231360998Y-102177000D01*
X231549084Y-102365086D01*
X231291877Y-102235868D01*
X231117000Y-102360865D01*
X231117000Y-103203000D01*
X231137000Y-103203000D01*
X231137000Y-103457000D01*
X231117000Y-103457000D01*
X231117000Y-103477000D01*
X230863000Y-103477000D01*
X230863000Y-103457000D01*
X230843000Y-103457000D01*
X230843000Y-103203000D01*
X230863000Y-103203000D01*
X230863000Y-102360865D01*
X230688123Y-102235868D01*
X230292396Y-102434677D01*
X230198084Y-102543840D01*
X230092909Y-102473564D01*
X229738161Y-102403000D01*
X229701839Y-102403000D01*
X229347091Y-102473564D01*
X229046351Y-102674512D01*
X228845403Y-102975252D01*
X228774839Y-103330000D01*
X228845403Y-103684748D01*
X229032661Y-103965000D01*
X228908376Y-104151006D01*
X228783990Y-104026402D01*
X228535254Y-103923118D01*
X228265927Y-103922883D01*
X228017011Y-104025733D01*
X227826402Y-104216010D01*
X227723118Y-104464746D01*
X227722883Y-104734073D01*
X223502000Y-104734073D01*
X223502000Y-76900002D01*
X226972998Y-76900002D01*
X226972998Y-89099998D01*
X227043562Y-89454746D01*
X227170854Y-89645252D01*
X227244510Y-89755486D01*
X234344226Y-96855202D01*
X234474211Y-96985414D01*
X234814799Y-97126839D01*
X235183583Y-97127161D01*
X235524417Y-96986331D01*
X235785414Y-96725789D01*
X235926839Y-96385201D01*
X235926927Y-96284073D01*
X237022883Y-96284073D01*
X237125733Y-96532989D01*
X237316010Y-96723598D01*
X237564746Y-96826882D01*
X237631650Y-96826940D01*
X239822897Y-99018187D01*
X239822883Y-99034073D01*
X239925733Y-99282989D01*
X240116010Y-99473598D01*
X240364746Y-99576882D01*
X240634073Y-99577117D01*
X240882989Y-99474267D01*
X241073598Y-99283990D01*
X241176882Y-99035254D01*
X241177117Y-98765927D01*
X241074267Y-98517011D01*
X240883990Y-98326402D01*
X240635254Y-98223118D01*
X240518306Y-98223016D01*
X238377060Y-96081770D01*
X238377117Y-96015927D01*
X238274267Y-95767011D01*
X238083990Y-95576402D01*
X237835254Y-95473118D01*
X237565927Y-95472883D01*
X237317011Y-95575733D01*
X237126402Y-95766010D01*
X237023118Y-96014746D01*
X237022883Y-96284073D01*
X235926927Y-96284073D01*
X235927161Y-96016417D01*
X235786331Y-95675583D01*
X235525789Y-95414586D01*
X235525401Y-95414425D01*
X228826998Y-88716022D01*
X228826998Y-88243000D01*
X229526271Y-88942273D01*
X229625733Y-89182989D01*
X229816010Y-89373598D01*
X230064746Y-89476882D01*
X230334073Y-89477117D01*
X230582989Y-89374267D01*
X230773598Y-89183990D01*
X230876882Y-88935254D01*
X230877117Y-88665927D01*
X230774267Y-88417011D01*
X230583990Y-88226402D01*
X230341865Y-88125863D01*
X229377000Y-87160998D01*
X229377000Y-81322290D01*
X230848580Y-82793870D01*
X230826402Y-82816010D01*
X230723118Y-83064746D01*
X230722883Y-83334073D01*
X230825733Y-83582989D01*
X230842577Y-83599863D01*
X230826402Y-83616010D01*
X230723118Y-83864746D01*
X230722883Y-84134073D01*
X230825733Y-84382989D01*
X230842577Y-84399863D01*
X230826402Y-84416010D01*
X230723118Y-84664746D01*
X230722883Y-84934073D01*
X230825733Y-85182989D01*
X230842577Y-85199863D01*
X230826402Y-85216010D01*
X230723118Y-85464746D01*
X230722883Y-85734073D01*
X230825733Y-85982989D01*
X231016010Y-86173598D01*
X231264746Y-86276882D01*
X231331650Y-86276940D01*
X232427355Y-87372645D01*
X232598325Y-87486885D01*
X232800000Y-87527000D01*
X238400000Y-87527000D01*
X238601675Y-87486885D01*
X238772645Y-87372645D01*
X239418290Y-86727000D01*
X251073000Y-86727000D01*
X251073000Y-90435338D01*
X250986331Y-90225583D01*
X250725789Y-89964586D01*
X250385201Y-89823161D01*
X250016417Y-89822839D01*
X250016027Y-89823000D01*
X243133976Y-89823000D01*
X242655488Y-89344512D01*
X242638376Y-89333078D01*
X242354748Y-89143564D01*
X242000000Y-89073000D01*
X235000809Y-89073000D01*
X234816417Y-89072839D01*
X234475583Y-89213669D01*
X234265886Y-89423000D01*
X233200000Y-89423000D01*
X232979191Y-89466922D01*
X232904213Y-89517021D01*
X232791999Y-89591999D01*
X232791997Y-89592002D01*
X232657728Y-89726271D01*
X232417011Y-89825733D01*
X232226402Y-90016010D01*
X232123118Y-90264746D01*
X232122883Y-90534073D01*
X232225733Y-90782989D01*
X232416010Y-90973598D01*
X232664746Y-91076882D01*
X232934073Y-91077117D01*
X233182989Y-90974267D01*
X233373598Y-90783990D01*
X233459548Y-90577000D01*
X234266160Y-90577000D01*
X234474211Y-90785414D01*
X234814799Y-90926839D01*
X235183583Y-90927161D01*
X235183973Y-90927000D01*
X241616024Y-90927000D01*
X242094226Y-91405202D01*
X242224211Y-91535414D01*
X242564799Y-91676839D01*
X242933583Y-91677161D01*
X242933973Y-91677000D01*
X249566740Y-91677000D01*
X249574534Y-91716183D01*
X249715321Y-91926885D01*
X249721289Y-91935817D01*
X250265894Y-92480422D01*
X250265894Y-113401894D01*
X250317428Y-113660971D01*
X250464183Y-113880605D01*
X255676154Y-119092577D01*
X255618982Y-119380000D01*
X255716188Y-119868687D01*
X255993007Y-120282975D01*
X256407295Y-120559794D01*
X256895982Y-120657000D01*
X256946018Y-120657000D01*
X257434705Y-120559794D01*
X257848993Y-120282975D01*
X258125812Y-119868687D01*
X258223018Y-119380000D01*
X258125812Y-118891313D01*
X257848993Y-118477025D01*
X257434705Y-118200206D01*
X256981209Y-118110000D01*
X257434705Y-118019794D01*
X257848993Y-117742975D01*
X258125812Y-117328687D01*
X258223018Y-116840000D01*
X258125812Y-116351313D01*
X257848993Y-115937025D01*
X257434705Y-115660206D01*
X256981209Y-115570000D01*
X257434705Y-115479794D01*
X257848993Y-115202975D01*
X258125812Y-114788687D01*
X258223018Y-114300000D01*
X258125812Y-113811313D01*
X257848993Y-113397025D01*
X257434705Y-113120206D01*
X256981209Y-113030000D01*
X257434705Y-112939794D01*
X257848993Y-112662975D01*
X258125812Y-112248687D01*
X258223018Y-111760000D01*
X258125812Y-111271313D01*
X257848993Y-110857025D01*
X257434705Y-110580206D01*
X256981209Y-110490000D01*
X257434705Y-110399794D01*
X257848993Y-110122975D01*
X258125812Y-109708687D01*
X258223018Y-109220000D01*
X258125812Y-108731313D01*
X257848993Y-108317025D01*
X257621472Y-108165000D01*
X257897309Y-108165000D01*
X258130698Y-108068327D01*
X258309327Y-107889699D01*
X258406000Y-107656310D01*
X258406000Y-106965750D01*
X258247250Y-106807000D01*
X257048000Y-106807000D01*
X257048000Y-106827000D01*
X256794000Y-106827000D01*
X256794000Y-106807000D01*
X255594750Y-106807000D01*
X255436000Y-106965750D01*
X255436000Y-106989710D01*
X254149980Y-105703690D01*
X255436000Y-105703690D01*
X255436000Y-106394250D01*
X255594750Y-106553000D01*
X256794000Y-106553000D01*
X256794000Y-105353750D01*
X257048000Y-105353750D01*
X257048000Y-106553000D01*
X258247250Y-106553000D01*
X258406000Y-106394250D01*
X258406000Y-105703690D01*
X258309327Y-105470301D01*
X258130698Y-105291673D01*
X257897309Y-105195000D01*
X257206750Y-105195000D01*
X257048000Y-105353750D01*
X256794000Y-105353750D01*
X256635250Y-105195000D01*
X255944691Y-105195000D01*
X255711302Y-105291673D01*
X255532673Y-105470301D01*
X255436000Y-105703690D01*
X254149980Y-105703690D01*
X253327000Y-104880710D01*
X253327000Y-98751290D01*
X255711349Y-101135640D01*
X255618982Y-101600000D01*
X255716188Y-102088687D01*
X255993007Y-102502975D01*
X256407295Y-102779794D01*
X256895982Y-102877000D01*
X256946018Y-102877000D01*
X257434705Y-102779794D01*
X257848993Y-102502975D01*
X258125812Y-102088687D01*
X258223018Y-101600000D01*
X258125812Y-101111313D01*
X257848993Y-100697025D01*
X257434705Y-100420206D01*
X256981209Y-100330000D01*
X257434705Y-100239794D01*
X257848993Y-99962975D01*
X258125812Y-99548687D01*
X258223018Y-99060000D01*
X258125812Y-98571313D01*
X257848993Y-98157025D01*
X257434705Y-97880206D01*
X256981209Y-97790000D01*
X257434705Y-97699794D01*
X257848993Y-97422975D01*
X258125812Y-97008687D01*
X258223018Y-96520000D01*
X258125812Y-96031313D01*
X257848993Y-95617025D01*
X257434705Y-95340206D01*
X256981209Y-95250000D01*
X257434705Y-95159794D01*
X257848993Y-94882975D01*
X258125812Y-94468687D01*
X258223018Y-93980000D01*
X258125812Y-93491313D01*
X257848993Y-93077025D01*
X257434705Y-92800206D01*
X256981209Y-92710000D01*
X257434705Y-92619794D01*
X257848993Y-92342975D01*
X258125812Y-91928687D01*
X258223018Y-91440000D01*
X258125812Y-90951313D01*
X257848993Y-90537025D01*
X257621472Y-90385000D01*
X257897309Y-90385000D01*
X258130698Y-90288327D01*
X258309327Y-90109699D01*
X258406000Y-89876310D01*
X258406000Y-89185750D01*
X258247250Y-89027000D01*
X257048000Y-89027000D01*
X257048000Y-89047000D01*
X256794000Y-89047000D01*
X256794000Y-89027000D01*
X255594750Y-89027000D01*
X255436000Y-89185750D01*
X255436000Y-89209710D01*
X255327000Y-89100710D01*
X255327000Y-87923690D01*
X255436000Y-87923690D01*
X255436000Y-88614250D01*
X255594750Y-88773000D01*
X256794000Y-88773000D01*
X256794000Y-87573750D01*
X257048000Y-87573750D01*
X257048000Y-88773000D01*
X258247250Y-88773000D01*
X258406000Y-88614250D01*
X258406000Y-87923690D01*
X258309327Y-87690301D01*
X258130698Y-87511673D01*
X257897309Y-87415000D01*
X257206750Y-87415000D01*
X257048000Y-87573750D01*
X256794000Y-87573750D01*
X256635250Y-87415000D01*
X255944691Y-87415000D01*
X255711302Y-87511673D01*
X255532673Y-87690301D01*
X255436000Y-87923690D01*
X255327000Y-87923690D01*
X255327000Y-84800000D01*
X255286885Y-84598326D01*
X255286885Y-84598325D01*
X255172645Y-84427355D01*
X253272301Y-82527011D01*
X254882721Y-82527011D01*
X255711349Y-83355639D01*
X255618982Y-83820000D01*
X255716188Y-84308687D01*
X255993007Y-84722975D01*
X256407295Y-84999794D01*
X256895982Y-85097000D01*
X256946018Y-85097000D01*
X257434705Y-84999794D01*
X257848993Y-84722975D01*
X258125812Y-84308687D01*
X258223018Y-83820000D01*
X258125812Y-83331313D01*
X257848993Y-82917025D01*
X257434705Y-82640206D01*
X256981209Y-82550000D01*
X257434705Y-82459794D01*
X257848993Y-82182975D01*
X258125812Y-81768687D01*
X258223018Y-81280000D01*
X258125812Y-80791313D01*
X257848993Y-80377025D01*
X257434705Y-80100206D01*
X256981209Y-80010000D01*
X257434705Y-79919794D01*
X257848993Y-79642975D01*
X258125812Y-79228687D01*
X258223018Y-78740000D01*
X258125812Y-78251313D01*
X257848993Y-77837025D01*
X257434705Y-77560206D01*
X256981209Y-77470000D01*
X257434705Y-77379794D01*
X257848993Y-77102975D01*
X258125812Y-76688687D01*
X258223018Y-76200000D01*
X258125812Y-75711313D01*
X257848993Y-75297025D01*
X257434705Y-75020206D01*
X256981209Y-74930000D01*
X257434705Y-74839794D01*
X257848993Y-74562975D01*
X258125812Y-74148687D01*
X258223018Y-73660000D01*
X258125812Y-73171313D01*
X257848993Y-72757025D01*
X257621472Y-72605000D01*
X257897309Y-72605000D01*
X258130698Y-72508327D01*
X258309327Y-72329699D01*
X258406000Y-72096310D01*
X258406000Y-71405750D01*
X258247250Y-71247000D01*
X257048000Y-71247000D01*
X257048000Y-71267000D01*
X256794000Y-71267000D01*
X256794000Y-71247000D01*
X255594750Y-71247000D01*
X255436000Y-71405750D01*
X255436000Y-72096310D01*
X255532673Y-72329699D01*
X255711302Y-72508327D01*
X255944691Y-72605000D01*
X256220528Y-72605000D01*
X255993007Y-72757025D01*
X255716188Y-73171313D01*
X255618982Y-73660000D01*
X255711349Y-74124361D01*
X254427355Y-75408355D01*
X254313115Y-75579325D01*
X254308058Y-75604748D01*
X254273000Y-75781000D01*
X254273000Y-78781709D01*
X253581710Y-79473000D01*
X243468290Y-79473000D01*
X241872645Y-77877355D01*
X241701675Y-77763115D01*
X241500000Y-77723000D01*
X238750000Y-77723000D01*
X238548326Y-77763115D01*
X238377355Y-77877355D01*
X238181770Y-78072940D01*
X238115927Y-78072883D01*
X237867011Y-78175733D01*
X237676402Y-78366010D01*
X237573118Y-78614746D01*
X237572893Y-78873000D01*
X237200000Y-78873000D01*
X236998325Y-78913115D01*
X236827355Y-79027355D01*
X236473986Y-79380724D01*
X236335254Y-79323118D01*
X236065927Y-79322883D01*
X235817011Y-79425733D01*
X235626402Y-79616010D01*
X235523118Y-79864746D01*
X235522883Y-80134073D01*
X235625733Y-80382989D01*
X235816010Y-80573598D01*
X236064746Y-80676882D01*
X236334073Y-80677117D01*
X236582989Y-80574267D01*
X236637888Y-80519464D01*
X236801675Y-80486885D01*
X236972645Y-80372645D01*
X237418290Y-79927000D01*
X238077710Y-79927000D01*
X237681770Y-80322940D01*
X237615927Y-80322883D01*
X237367011Y-80425733D01*
X237176402Y-80616010D01*
X237073118Y-80864746D01*
X237072883Y-81134073D01*
X237175733Y-81382989D01*
X237366010Y-81573598D01*
X237614746Y-81676882D01*
X237884073Y-81677117D01*
X238132989Y-81574267D01*
X238323598Y-81383990D01*
X238426882Y-81135254D01*
X238426940Y-81068350D01*
X239573068Y-79922222D01*
X239572883Y-80134073D01*
X239675733Y-80382989D01*
X239723000Y-80430338D01*
X239723000Y-81850000D01*
X239763115Y-82051675D01*
X239877355Y-82222645D01*
X240127710Y-82473000D01*
X235218290Y-82473000D01*
X233177060Y-80431770D01*
X233177117Y-80365927D01*
X233074267Y-80117011D01*
X232883990Y-79926402D01*
X232635254Y-79823118D01*
X232365927Y-79822883D01*
X232124714Y-79922550D01*
X231885254Y-79823118D01*
X231615927Y-79822883D01*
X231367011Y-79925733D01*
X231176402Y-80116010D01*
X231073118Y-80364746D01*
X231072883Y-80634073D01*
X231097956Y-80694755D01*
X230926402Y-80866010D01*
X230823118Y-81114746D01*
X230822976Y-81277686D01*
X229377000Y-79831710D01*
X229377000Y-78789002D01*
X233982418Y-74183583D01*
X237572839Y-74183583D01*
X237713669Y-74524417D01*
X237974211Y-74785414D01*
X237974599Y-74785575D01*
X239094512Y-75905488D01*
X239395252Y-76106436D01*
X239750000Y-76177000D01*
X244873000Y-76177000D01*
X244873000Y-78399191D01*
X244872839Y-78583583D01*
X245013669Y-78924417D01*
X245274211Y-79185414D01*
X245614799Y-79326839D01*
X245983583Y-79327161D01*
X246324417Y-79186331D01*
X246585414Y-78925789D01*
X246726839Y-78585201D01*
X246727161Y-78216417D01*
X246727000Y-78216027D01*
X246727000Y-76177000D01*
X249272845Y-76177000D01*
X249272839Y-76183583D01*
X249413669Y-76524417D01*
X249674211Y-76785414D01*
X250014799Y-76926839D01*
X250383583Y-76927161D01*
X250724417Y-76786331D01*
X250985414Y-76525789D01*
X251126839Y-76185201D01*
X251127161Y-75816417D01*
X251127000Y-75816027D01*
X251127000Y-75292894D01*
X251056436Y-74938146D01*
X250855488Y-74637406D01*
X250812594Y-74594512D01*
X250811175Y-74593564D01*
X250511854Y-74393564D01*
X250157106Y-74323000D01*
X240133976Y-74323000D01*
X239155488Y-73344512D01*
X239025789Y-73214586D01*
X238685201Y-73073161D01*
X238316417Y-73072839D01*
X237975583Y-73213669D01*
X237714586Y-73474211D01*
X237573161Y-73814799D01*
X237572839Y-74183583D01*
X233982418Y-74183583D01*
X238022311Y-70143690D01*
X255436000Y-70143690D01*
X255436000Y-70834250D01*
X255594750Y-70993000D01*
X256794000Y-70993000D01*
X256794000Y-69793750D01*
X257048000Y-69793750D01*
X257048000Y-70993000D01*
X258247250Y-70993000D01*
X258406000Y-70834250D01*
X258406000Y-70143690D01*
X258309327Y-69910301D01*
X258130698Y-69731673D01*
X257897309Y-69635000D01*
X257206750Y-69635000D01*
X257048000Y-69793750D01*
X256794000Y-69793750D01*
X256635250Y-69635000D01*
X255944691Y-69635000D01*
X255711302Y-69731673D01*
X255532673Y-69910301D01*
X255436000Y-70143690D01*
X238022311Y-70143690D01*
X242907998Y-65258003D01*
X242908001Y-65258001D01*
X243033078Y-65070808D01*
X243040845Y-65031763D01*
X243077001Y-64850000D01*
X243077000Y-64849995D01*
X243077000Y-62125797D01*
X243176882Y-61885254D01*
X243177117Y-61615927D01*
X243074267Y-61367011D01*
X242883990Y-61176402D01*
X242635254Y-61073118D01*
X242365927Y-61072883D01*
X242117011Y-61175733D01*
X241926402Y-61366010D01*
X241823118Y-61614746D01*
X241822883Y-61884073D01*
X241923000Y-62126375D01*
X241923000Y-64610999D01*
X228826998Y-77707000D01*
X228826998Y-77283978D01*
X229055488Y-77055488D01*
X229185414Y-76925789D01*
X229326839Y-76585201D01*
X229327161Y-76216417D01*
X229186331Y-75875583D01*
X228925789Y-75614586D01*
X228585201Y-75473161D01*
X228216417Y-75472839D01*
X227875583Y-75613669D01*
X227614586Y-75874211D01*
X227614425Y-75874599D01*
X227244510Y-76244514D01*
X227043562Y-76545254D01*
X226972998Y-76900002D01*
X223502000Y-76900002D01*
X223502000Y-60960000D01*
X224697982Y-60960000D01*
X224795188Y-61448687D01*
X225072007Y-61862975D01*
X225486295Y-62139794D01*
X225939791Y-62230000D01*
X225486295Y-62320206D01*
X225072007Y-62597025D01*
X224795188Y-63011313D01*
X224697982Y-63500000D01*
X224795188Y-63988687D01*
X225072007Y-64402975D01*
X225486295Y-64679794D01*
X225862546Y-64754635D01*
X225150000Y-64754635D01*
X224991763Y-64784409D01*
X224846433Y-64877927D01*
X224748936Y-65020619D01*
X224714635Y-65190000D01*
X224714635Y-66890000D01*
X224744409Y-67048237D01*
X224837927Y-67193567D01*
X224980619Y-67291064D01*
X225150000Y-67325365D01*
X226850000Y-67325365D01*
X227008237Y-67295591D01*
X227153567Y-67202073D01*
X227251064Y-67059381D01*
X227285365Y-66890000D01*
X227285365Y-66617000D01*
X228300998Y-66617000D01*
X230864635Y-69180637D01*
X230864635Y-69700000D01*
X230894409Y-69858237D01*
X230987927Y-70003567D01*
X231130619Y-70101064D01*
X231300000Y-70135365D01*
X231719364Y-70135365D01*
X232141997Y-70557998D01*
X232141999Y-70558001D01*
X232239103Y-70622883D01*
X232329192Y-70683078D01*
X232550000Y-70727001D01*
X232550005Y-70727000D01*
X233010998Y-70727000D01*
X233218658Y-70934659D01*
X233123118Y-71164746D01*
X233122883Y-71434073D01*
X233225733Y-71682989D01*
X233416010Y-71873598D01*
X233664746Y-71976882D01*
X233934073Y-71977117D01*
X234182989Y-71874267D01*
X234373598Y-71683990D01*
X234476882Y-71435254D01*
X234477117Y-71165927D01*
X234377000Y-70923625D01*
X234377000Y-70700000D01*
X234333078Y-70479192D01*
X234333078Y-70479191D01*
X234282979Y-70404213D01*
X234208001Y-70291999D01*
X234207998Y-70291997D01*
X234043232Y-70127230D01*
X234158237Y-70105591D01*
X234303567Y-70012073D01*
X234364864Y-69922362D01*
X234416010Y-69973598D01*
X234664746Y-70076882D01*
X234934073Y-70077117D01*
X235182989Y-69974267D01*
X235373598Y-69783990D01*
X235476882Y-69535254D01*
X235477117Y-69265927D01*
X235374267Y-69017011D01*
X235183990Y-68826402D01*
X234935254Y-68723118D01*
X234880009Y-68723070D01*
X234870808Y-68716922D01*
X234650000Y-68672999D01*
X234649995Y-68673000D01*
X234411469Y-68673000D01*
X234405591Y-68641763D01*
X234312073Y-68496433D01*
X234169381Y-68398936D01*
X234000000Y-68364635D01*
X233580636Y-68364635D01*
X232858001Y-67641999D01*
X232670808Y-67516922D01*
X232450000Y-67472999D01*
X232449995Y-67473000D01*
X231689001Y-67473000D01*
X228158000Y-63941998D01*
X227970807Y-63816921D01*
X227749999Y-63772998D01*
X227749994Y-63772999D01*
X227247715Y-63772999D01*
X227302018Y-63500000D01*
X227204812Y-63011313D01*
X226927993Y-62597025D01*
X226513705Y-62320206D01*
X226060209Y-62230000D01*
X226513705Y-62139794D01*
X226927993Y-61862975D01*
X227204812Y-61448687D01*
X227302018Y-60960000D01*
X227204812Y-60471313D01*
X227117072Y-60340000D01*
X248728962Y-60340000D01*
X248822362Y-60809553D01*
X249088342Y-61207620D01*
X249486409Y-61473600D01*
X249955962Y-61567000D01*
X250004038Y-61567000D01*
X250473591Y-61473600D01*
X250871658Y-61207620D01*
X251137638Y-60809553D01*
X251231038Y-60340000D01*
X251137638Y-59870447D01*
X250871658Y-59472380D01*
X250473591Y-59206400D01*
X250004038Y-59113000D01*
X249955962Y-59113000D01*
X249486409Y-59206400D01*
X249088342Y-59472380D01*
X248822362Y-59870447D01*
X248728962Y-60340000D01*
X227117072Y-60340000D01*
X226927993Y-60057025D01*
X226513705Y-59780206D01*
X226025018Y-59683000D01*
X225974982Y-59683000D01*
X225486295Y-59780206D01*
X225072007Y-60057025D01*
X224795188Y-60471313D01*
X224697982Y-60960000D01*
X223502000Y-60960000D01*
X223502000Y-57000000D01*
X248744635Y-57000000D01*
X248744635Y-58600000D01*
X248774409Y-58758237D01*
X248867927Y-58903567D01*
X249010619Y-59001064D01*
X249180000Y-59035365D01*
X250780000Y-59035365D01*
X250938237Y-59005591D01*
X251083567Y-58912073D01*
X251181064Y-58769381D01*
X251215365Y-58600000D01*
X251215365Y-57000000D01*
X251185591Y-56841763D01*
X251092073Y-56696433D01*
X250949381Y-56598936D01*
X250780000Y-56564635D01*
X249180000Y-56564635D01*
X249021763Y-56594409D01*
X248876433Y-56687927D01*
X248778936Y-56830619D01*
X248744635Y-57000000D01*
X223502000Y-57000000D01*
X223502000Y-55502000D01*
X258498000Y-55502000D01*
X258498000Y-56941871D01*
X258498000Y-56941871D01*
G37*
X258498000Y-56941871D02*
X258491658Y-56932380D01*
X258093591Y-56666400D01*
X257624038Y-56573000D01*
X257575962Y-56573000D01*
X257106409Y-56666400D01*
X256708342Y-56932380D01*
X256442362Y-57330447D01*
X256348962Y-57800000D01*
X256442362Y-58269553D01*
X256708342Y-58667620D01*
X257106409Y-58933600D01*
X257575962Y-59027000D01*
X257624038Y-59027000D01*
X258093591Y-58933600D01*
X258491658Y-58667620D01*
X258498000Y-58658129D01*
X258498000Y-59481871D01*
X258491658Y-59472380D01*
X258093591Y-59206400D01*
X257624038Y-59113000D01*
X257575962Y-59113000D01*
X257106409Y-59206400D01*
X256708342Y-59472380D01*
X256442362Y-59870447D01*
X256348962Y-60340000D01*
X256442362Y-60809553D01*
X256708342Y-61207620D01*
X257106409Y-61473600D01*
X257575962Y-61567000D01*
X257624038Y-61567000D01*
X258093591Y-61473600D01*
X258491658Y-61207620D01*
X258498000Y-61198129D01*
X258498000Y-121498000D01*
X223502000Y-121498000D01*
X223502000Y-104734073D01*
X227722883Y-104734073D01*
X227823000Y-104976375D01*
X227823000Y-107089995D01*
X227822999Y-107090000D01*
X227866922Y-107310808D01*
X227991999Y-107498001D01*
X228796268Y-108302270D01*
X228774839Y-108410000D01*
X228845403Y-108764748D01*
X229046351Y-109065488D01*
X229347091Y-109266436D01*
X229701839Y-109337000D01*
X229738161Y-109337000D01*
X230092909Y-109266436D01*
X230176155Y-109210813D01*
X230177927Y-109213567D01*
X230320619Y-109311064D01*
X230490000Y-109345365D01*
X231490000Y-109345365D01*
X231648237Y-109315591D01*
X231793567Y-109222073D01*
X231891064Y-109079381D01*
X231914799Y-108962176D01*
X232010808Y-108943078D01*
X232198001Y-108818001D01*
X232607998Y-108408003D01*
X232608001Y-108408001D01*
X232733078Y-108220808D01*
X232744179Y-108165000D01*
X232777001Y-108000000D01*
X232777000Y-107999995D01*
X232777000Y-102200000D01*
X232733078Y-101979192D01*
X232608001Y-101791999D01*
X232008001Y-101191999D01*
X231820808Y-101066922D01*
X231600000Y-101022999D01*
X231599995Y-101023000D01*
X229839002Y-101023000D01*
X229577000Y-100760998D01*
X229577000Y-100575797D01*
X229676882Y-100335254D01*
X229677117Y-100065927D01*
X229574267Y-99817011D01*
X229383990Y-99626402D01*
X229135254Y-99523118D01*
X228865927Y-99522883D01*
X228617011Y-99625733D01*
X228426402Y-99816010D01*
X228323118Y-100064746D01*
X228322883Y-100334073D01*
X228423000Y-100576375D01*
X228423000Y-100999995D01*
X228422999Y-101000000D01*
X228466922Y-101220808D01*
X228591999Y-101408001D01*
X229191999Y-102008001D01*
X229379192Y-102133078D01*
X229600000Y-102177000D01*
X231360998Y-102177000D01*
X231549084Y-102365086D01*
X231291877Y-102235868D01*
X231117000Y-102360865D01*
X231117000Y-103203000D01*
X231137000Y-103203000D01*
X231137000Y-103457000D01*
X231117000Y-103457000D01*
X231117000Y-103477000D01*
X230863000Y-103477000D01*
X230863000Y-103457000D01*
X230843000Y-103457000D01*
X230843000Y-103203000D01*
X230863000Y-103203000D01*
X230863000Y-102360865D01*
X230688123Y-102235868D01*
X230292396Y-102434677D01*
X230198084Y-102543840D01*
X230092909Y-102473564D01*
X229738161Y-102403000D01*
X229701839Y-102403000D01*
X229347091Y-102473564D01*
X229046351Y-102674512D01*
X228845403Y-102975252D01*
X228774839Y-103330000D01*
X228845403Y-103684748D01*
X229032661Y-103965000D01*
X228908376Y-104151006D01*
X228783990Y-104026402D01*
X228535254Y-103923118D01*
X228265927Y-103922883D01*
X228017011Y-104025733D01*
X227826402Y-104216010D01*
X227723118Y-104464746D01*
X227722883Y-104734073D01*
X223502000Y-104734073D01*
X223502000Y-76900002D01*
X226972998Y-76900002D01*
X226972998Y-89099998D01*
X227043562Y-89454746D01*
X227170854Y-89645252D01*
X227244510Y-89755486D01*
X234344226Y-96855202D01*
X234474211Y-96985414D01*
X234814799Y-97126839D01*
X235183583Y-97127161D01*
X235524417Y-96986331D01*
X235785414Y-96725789D01*
X235926839Y-96385201D01*
X235926927Y-96284073D01*
X237022883Y-96284073D01*
X237125733Y-96532989D01*
X237316010Y-96723598D01*
X237564746Y-96826882D01*
X237631650Y-96826940D01*
X239822897Y-99018187D01*
X239822883Y-99034073D01*
X239925733Y-99282989D01*
X240116010Y-99473598D01*
X240364746Y-99576882D01*
X240634073Y-99577117D01*
X240882989Y-99474267D01*
X241073598Y-99283990D01*
X241176882Y-99035254D01*
X241177117Y-98765927D01*
X241074267Y-98517011D01*
X240883990Y-98326402D01*
X240635254Y-98223118D01*
X240518306Y-98223016D01*
X238377060Y-96081770D01*
X238377117Y-96015927D01*
X238274267Y-95767011D01*
X238083990Y-95576402D01*
X237835254Y-95473118D01*
X237565927Y-95472883D01*
X237317011Y-95575733D01*
X237126402Y-95766010D01*
X237023118Y-96014746D01*
X237022883Y-96284073D01*
X235926927Y-96284073D01*
X235927161Y-96016417D01*
X235786331Y-95675583D01*
X235525789Y-95414586D01*
X235525401Y-95414425D01*
X228826998Y-88716022D01*
X228826998Y-88243000D01*
X229526271Y-88942273D01*
X229625733Y-89182989D01*
X229816010Y-89373598D01*
X230064746Y-89476882D01*
X230334073Y-89477117D01*
X230582989Y-89374267D01*
X230773598Y-89183990D01*
X230876882Y-88935254D01*
X230877117Y-88665927D01*
X230774267Y-88417011D01*
X230583990Y-88226402D01*
X230341865Y-88125863D01*
X229377000Y-87160998D01*
X229377000Y-81322290D01*
X230848580Y-82793870D01*
X230826402Y-82816010D01*
X230723118Y-83064746D01*
X230722883Y-83334073D01*
X230825733Y-83582989D01*
X230842577Y-83599863D01*
X230826402Y-83616010D01*
X230723118Y-83864746D01*
X230722883Y-84134073D01*
X230825733Y-84382989D01*
X230842577Y-84399863D01*
X230826402Y-84416010D01*
X230723118Y-84664746D01*
X230722883Y-84934073D01*
X230825733Y-85182989D01*
X230842577Y-85199863D01*
X230826402Y-85216010D01*
X230723118Y-85464746D01*
X230722883Y-85734073D01*
X230825733Y-85982989D01*
X231016010Y-86173598D01*
X231264746Y-86276882D01*
X231331650Y-86276940D01*
X232427355Y-87372645D01*
X232598325Y-87486885D01*
X232800000Y-87527000D01*
X238400000Y-87527000D01*
X238601675Y-87486885D01*
X238772645Y-87372645D01*
X239418290Y-86727000D01*
X251073000Y-86727000D01*
X251073000Y-90435338D01*
X250986331Y-90225583D01*
X250725789Y-89964586D01*
X250385201Y-89823161D01*
X250016417Y-89822839D01*
X250016027Y-89823000D01*
X243133976Y-89823000D01*
X242655488Y-89344512D01*
X242638376Y-89333078D01*
X242354748Y-89143564D01*
X242000000Y-89073000D01*
X235000809Y-89073000D01*
X234816417Y-89072839D01*
X234475583Y-89213669D01*
X234265886Y-89423000D01*
X233200000Y-89423000D01*
X232979191Y-89466922D01*
X232904213Y-89517021D01*
X232791999Y-89591999D01*
X232791997Y-89592002D01*
X232657728Y-89726271D01*
X232417011Y-89825733D01*
X232226402Y-90016010D01*
X232123118Y-90264746D01*
X232122883Y-90534073D01*
X232225733Y-90782989D01*
X232416010Y-90973598D01*
X232664746Y-91076882D01*
X232934073Y-91077117D01*
X233182989Y-90974267D01*
X233373598Y-90783990D01*
X233459548Y-90577000D01*
X234266160Y-90577000D01*
X234474211Y-90785414D01*
X234814799Y-90926839D01*
X235183583Y-90927161D01*
X235183973Y-90927000D01*
X241616024Y-90927000D01*
X242094226Y-91405202D01*
X242224211Y-91535414D01*
X242564799Y-91676839D01*
X242933583Y-91677161D01*
X242933973Y-91677000D01*
X249566740Y-91677000D01*
X249574534Y-91716183D01*
X249715321Y-91926885D01*
X249721289Y-91935817D01*
X250265894Y-92480422D01*
X250265894Y-113401894D01*
X250317428Y-113660971D01*
X250464183Y-113880605D01*
X255676154Y-119092577D01*
X255618982Y-119380000D01*
X255716188Y-119868687D01*
X255993007Y-120282975D01*
X256407295Y-120559794D01*
X256895982Y-120657000D01*
X256946018Y-120657000D01*
X257434705Y-120559794D01*
X257848993Y-120282975D01*
X258125812Y-119868687D01*
X258223018Y-119380000D01*
X258125812Y-118891313D01*
X257848993Y-118477025D01*
X257434705Y-118200206D01*
X256981209Y-118110000D01*
X257434705Y-118019794D01*
X257848993Y-117742975D01*
X258125812Y-117328687D01*
X258223018Y-116840000D01*
X258125812Y-116351313D01*
X257848993Y-115937025D01*
X257434705Y-115660206D01*
X256981209Y-115570000D01*
X257434705Y-115479794D01*
X257848993Y-115202975D01*
X258125812Y-114788687D01*
X258223018Y-114300000D01*
X258125812Y-113811313D01*
X257848993Y-113397025D01*
X257434705Y-113120206D01*
X256981209Y-113030000D01*
X257434705Y-112939794D01*
X257848993Y-112662975D01*
X258125812Y-112248687D01*
X258223018Y-111760000D01*
X258125812Y-111271313D01*
X257848993Y-110857025D01*
X257434705Y-110580206D01*
X256981209Y-110490000D01*
X257434705Y-110399794D01*
X257848993Y-110122975D01*
X258125812Y-109708687D01*
X258223018Y-109220000D01*
X258125812Y-108731313D01*
X257848993Y-108317025D01*
X257621472Y-108165000D01*
X257897309Y-108165000D01*
X258130698Y-108068327D01*
X258309327Y-107889699D01*
X258406000Y-107656310D01*
X258406000Y-106965750D01*
X258247250Y-106807000D01*
X257048000Y-106807000D01*
X257048000Y-106827000D01*
X256794000Y-106827000D01*
X256794000Y-106807000D01*
X255594750Y-106807000D01*
X255436000Y-106965750D01*
X255436000Y-106989710D01*
X254149980Y-105703690D01*
X255436000Y-105703690D01*
X255436000Y-106394250D01*
X255594750Y-106553000D01*
X256794000Y-106553000D01*
X256794000Y-105353750D01*
X257048000Y-105353750D01*
X257048000Y-106553000D01*
X258247250Y-106553000D01*
X258406000Y-106394250D01*
X258406000Y-105703690D01*
X258309327Y-105470301D01*
X258130698Y-105291673D01*
X257897309Y-105195000D01*
X257206750Y-105195000D01*
X257048000Y-105353750D01*
X256794000Y-105353750D01*
X256635250Y-105195000D01*
X255944691Y-105195000D01*
X255711302Y-105291673D01*
X255532673Y-105470301D01*
X255436000Y-105703690D01*
X254149980Y-105703690D01*
X253327000Y-104880710D01*
X253327000Y-98751290D01*
X255711349Y-101135640D01*
X255618982Y-101600000D01*
X255716188Y-102088687D01*
X255993007Y-102502975D01*
X256407295Y-102779794D01*
X256895982Y-102877000D01*
X256946018Y-102877000D01*
X257434705Y-102779794D01*
X257848993Y-102502975D01*
X258125812Y-102088687D01*
X258223018Y-101600000D01*
X258125812Y-101111313D01*
X257848993Y-100697025D01*
X257434705Y-100420206D01*
X256981209Y-100330000D01*
X257434705Y-100239794D01*
X257848993Y-99962975D01*
X258125812Y-99548687D01*
X258223018Y-99060000D01*
X258125812Y-98571313D01*
X257848993Y-98157025D01*
X257434705Y-97880206D01*
X256981209Y-97790000D01*
X257434705Y-97699794D01*
X257848993Y-97422975D01*
X258125812Y-97008687D01*
X258223018Y-96520000D01*
X258125812Y-96031313D01*
X257848993Y-95617025D01*
X257434705Y-95340206D01*
X256981209Y-95250000D01*
X257434705Y-95159794D01*
X257848993Y-94882975D01*
X258125812Y-94468687D01*
X258223018Y-93980000D01*
X258125812Y-93491313D01*
X257848993Y-93077025D01*
X257434705Y-92800206D01*
X256981209Y-92710000D01*
X257434705Y-92619794D01*
X257848993Y-92342975D01*
X258125812Y-91928687D01*
X258223018Y-91440000D01*
X258125812Y-90951313D01*
X257848993Y-90537025D01*
X257621472Y-90385000D01*
X257897309Y-90385000D01*
X258130698Y-90288327D01*
X258309327Y-90109699D01*
X258406000Y-89876310D01*
X258406000Y-89185750D01*
X258247250Y-89027000D01*
X257048000Y-89027000D01*
X257048000Y-89047000D01*
X256794000Y-89047000D01*
X256794000Y-89027000D01*
X255594750Y-89027000D01*
X255436000Y-89185750D01*
X255436000Y-89209710D01*
X255327000Y-89100710D01*
X255327000Y-87923690D01*
X255436000Y-87923690D01*
X255436000Y-88614250D01*
X255594750Y-88773000D01*
X256794000Y-88773000D01*
X256794000Y-87573750D01*
X257048000Y-87573750D01*
X257048000Y-88773000D01*
X258247250Y-88773000D01*
X258406000Y-88614250D01*
X258406000Y-87923690D01*
X258309327Y-87690301D01*
X258130698Y-87511673D01*
X257897309Y-87415000D01*
X257206750Y-87415000D01*
X257048000Y-87573750D01*
X256794000Y-87573750D01*
X256635250Y-87415000D01*
X255944691Y-87415000D01*
X255711302Y-87511673D01*
X255532673Y-87690301D01*
X255436000Y-87923690D01*
X255327000Y-87923690D01*
X255327000Y-84800000D01*
X255286885Y-84598326D01*
X255286885Y-84598325D01*
X255172645Y-84427355D01*
X253272301Y-82527011D01*
X254882721Y-82527011D01*
X255711349Y-83355639D01*
X255618982Y-83820000D01*
X255716188Y-84308687D01*
X255993007Y-84722975D01*
X256407295Y-84999794D01*
X256895982Y-85097000D01*
X256946018Y-85097000D01*
X257434705Y-84999794D01*
X257848993Y-84722975D01*
X258125812Y-84308687D01*
X258223018Y-83820000D01*
X258125812Y-83331313D01*
X257848993Y-82917025D01*
X257434705Y-82640206D01*
X256981209Y-82550000D01*
X257434705Y-82459794D01*
X257848993Y-82182975D01*
X258125812Y-81768687D01*
X258223018Y-81280000D01*
X258125812Y-80791313D01*
X257848993Y-80377025D01*
X257434705Y-80100206D01*
X256981209Y-80010000D01*
X257434705Y-79919794D01*
X257848993Y-79642975D01*
X258125812Y-79228687D01*
X258223018Y-78740000D01*
X258125812Y-78251313D01*
X257848993Y-77837025D01*
X257434705Y-77560206D01*
X256981209Y-77470000D01*
X257434705Y-77379794D01*
X257848993Y-77102975D01*
X258125812Y-76688687D01*
X258223018Y-76200000D01*
X258125812Y-75711313D01*
X257848993Y-75297025D01*
X257434705Y-75020206D01*
X256981209Y-74930000D01*
X257434705Y-74839794D01*
X257848993Y-74562975D01*
X258125812Y-74148687D01*
X258223018Y-73660000D01*
X258125812Y-73171313D01*
X257848993Y-72757025D01*
X257621472Y-72605000D01*
X257897309Y-72605000D01*
X258130698Y-72508327D01*
X258309327Y-72329699D01*
X258406000Y-72096310D01*
X258406000Y-71405750D01*
X258247250Y-71247000D01*
X257048000Y-71247000D01*
X257048000Y-71267000D01*
X256794000Y-71267000D01*
X256794000Y-71247000D01*
X255594750Y-71247000D01*
X255436000Y-71405750D01*
X255436000Y-72096310D01*
X255532673Y-72329699D01*
X255711302Y-72508327D01*
X255944691Y-72605000D01*
X256220528Y-72605000D01*
X255993007Y-72757025D01*
X255716188Y-73171313D01*
X255618982Y-73660000D01*
X255711349Y-74124361D01*
X254427355Y-75408355D01*
X254313115Y-75579325D01*
X254308058Y-75604748D01*
X254273000Y-75781000D01*
X254273000Y-78781709D01*
X253581710Y-79473000D01*
X243468290Y-79473000D01*
X241872645Y-77877355D01*
X241701675Y-77763115D01*
X241500000Y-77723000D01*
X238750000Y-77723000D01*
X238548326Y-77763115D01*
X238377355Y-77877355D01*
X238181770Y-78072940D01*
X238115927Y-78072883D01*
X237867011Y-78175733D01*
X237676402Y-78366010D01*
X237573118Y-78614746D01*
X237572893Y-78873000D01*
X237200000Y-78873000D01*
X236998325Y-78913115D01*
X236827355Y-79027355D01*
X236473986Y-79380724D01*
X236335254Y-79323118D01*
X236065927Y-79322883D01*
X235817011Y-79425733D01*
X235626402Y-79616010D01*
X235523118Y-79864746D01*
X235522883Y-80134073D01*
X235625733Y-80382989D01*
X235816010Y-80573598D01*
X236064746Y-80676882D01*
X236334073Y-80677117D01*
X236582989Y-80574267D01*
X236637888Y-80519464D01*
X236801675Y-80486885D01*
X236972645Y-80372645D01*
X237418290Y-79927000D01*
X238077710Y-79927000D01*
X237681770Y-80322940D01*
X237615927Y-80322883D01*
X237367011Y-80425733D01*
X237176402Y-80616010D01*
X237073118Y-80864746D01*
X237072883Y-81134073D01*
X237175733Y-81382989D01*
X237366010Y-81573598D01*
X237614746Y-81676882D01*
X237884073Y-81677117D01*
X238132989Y-81574267D01*
X238323598Y-81383990D01*
X238426882Y-81135254D01*
X238426940Y-81068350D01*
X239573068Y-79922222D01*
X239572883Y-80134073D01*
X239675733Y-80382989D01*
X239723000Y-80430338D01*
X239723000Y-81850000D01*
X239763115Y-82051675D01*
X239877355Y-82222645D01*
X240127710Y-82473000D01*
X235218290Y-82473000D01*
X233177060Y-80431770D01*
X233177117Y-80365927D01*
X233074267Y-80117011D01*
X232883990Y-79926402D01*
X232635254Y-79823118D01*
X232365927Y-79822883D01*
X232124714Y-79922550D01*
X231885254Y-79823118D01*
X231615927Y-79822883D01*
X231367011Y-79925733D01*
X231176402Y-80116010D01*
X231073118Y-80364746D01*
X231072883Y-80634073D01*
X231097956Y-80694755D01*
X230926402Y-80866010D01*
X230823118Y-81114746D01*
X230822976Y-81277686D01*
X229377000Y-79831710D01*
X229377000Y-78789002D01*
X233982418Y-74183583D01*
X237572839Y-74183583D01*
X237713669Y-74524417D01*
X237974211Y-74785414D01*
X237974599Y-74785575D01*
X239094512Y-75905488D01*
X239395252Y-76106436D01*
X239750000Y-76177000D01*
X244873000Y-76177000D01*
X244873000Y-78399191D01*
X244872839Y-78583583D01*
X245013669Y-78924417D01*
X245274211Y-79185414D01*
X245614799Y-79326839D01*
X245983583Y-79327161D01*
X246324417Y-79186331D01*
X246585414Y-78925789D01*
X246726839Y-78585201D01*
X246727161Y-78216417D01*
X246727000Y-78216027D01*
X246727000Y-76177000D01*
X249272845Y-76177000D01*
X249272839Y-76183583D01*
X249413669Y-76524417D01*
X249674211Y-76785414D01*
X250014799Y-76926839D01*
X250383583Y-76927161D01*
X250724417Y-76786331D01*
X250985414Y-76525789D01*
X251126839Y-76185201D01*
X251127161Y-75816417D01*
X251127000Y-75816027D01*
X251127000Y-75292894D01*
X251056436Y-74938146D01*
X250855488Y-74637406D01*
X250812594Y-74594512D01*
X250811175Y-74593564D01*
X250511854Y-74393564D01*
X250157106Y-74323000D01*
X240133976Y-74323000D01*
X239155488Y-73344512D01*
X239025789Y-73214586D01*
X238685201Y-73073161D01*
X238316417Y-73072839D01*
X237975583Y-73213669D01*
X237714586Y-73474211D01*
X237573161Y-73814799D01*
X237572839Y-74183583D01*
X233982418Y-74183583D01*
X238022311Y-70143690D01*
X255436000Y-70143690D01*
X255436000Y-70834250D01*
X255594750Y-70993000D01*
X256794000Y-70993000D01*
X256794000Y-69793750D01*
X257048000Y-69793750D01*
X257048000Y-70993000D01*
X258247250Y-70993000D01*
X258406000Y-70834250D01*
X258406000Y-70143690D01*
X258309327Y-69910301D01*
X258130698Y-69731673D01*
X257897309Y-69635000D01*
X257206750Y-69635000D01*
X257048000Y-69793750D01*
X256794000Y-69793750D01*
X256635250Y-69635000D01*
X255944691Y-69635000D01*
X255711302Y-69731673D01*
X255532673Y-69910301D01*
X255436000Y-70143690D01*
X238022311Y-70143690D01*
X242907998Y-65258003D01*
X242908001Y-65258001D01*
X243033078Y-65070808D01*
X243040845Y-65031763D01*
X243077001Y-64850000D01*
X243077000Y-64849995D01*
X243077000Y-62125797D01*
X243176882Y-61885254D01*
X243177117Y-61615927D01*
X243074267Y-61367011D01*
X242883990Y-61176402D01*
X242635254Y-61073118D01*
X242365927Y-61072883D01*
X242117011Y-61175733D01*
X241926402Y-61366010D01*
X241823118Y-61614746D01*
X241822883Y-61884073D01*
X241923000Y-62126375D01*
X241923000Y-64610999D01*
X228826998Y-77707000D01*
X228826998Y-77283978D01*
X229055488Y-77055488D01*
X229185414Y-76925789D01*
X229326839Y-76585201D01*
X229327161Y-76216417D01*
X229186331Y-75875583D01*
X228925789Y-75614586D01*
X228585201Y-75473161D01*
X228216417Y-75472839D01*
X227875583Y-75613669D01*
X227614586Y-75874211D01*
X227614425Y-75874599D01*
X227244510Y-76244514D01*
X227043562Y-76545254D01*
X226972998Y-76900002D01*
X223502000Y-76900002D01*
X223502000Y-60960000D01*
X224697982Y-60960000D01*
X224795188Y-61448687D01*
X225072007Y-61862975D01*
X225486295Y-62139794D01*
X225939791Y-62230000D01*
X225486295Y-62320206D01*
X225072007Y-62597025D01*
X224795188Y-63011313D01*
X224697982Y-63500000D01*
X224795188Y-63988687D01*
X225072007Y-64402975D01*
X225486295Y-64679794D01*
X225862546Y-64754635D01*
X225150000Y-64754635D01*
X224991763Y-64784409D01*
X224846433Y-64877927D01*
X224748936Y-65020619D01*
X224714635Y-65190000D01*
X224714635Y-66890000D01*
X224744409Y-67048237D01*
X224837927Y-67193567D01*
X224980619Y-67291064D01*
X225150000Y-67325365D01*
X226850000Y-67325365D01*
X227008237Y-67295591D01*
X227153567Y-67202073D01*
X227251064Y-67059381D01*
X227285365Y-66890000D01*
X227285365Y-66617000D01*
X228300998Y-66617000D01*
X230864635Y-69180637D01*
X230864635Y-69700000D01*
X230894409Y-69858237D01*
X230987927Y-70003567D01*
X231130619Y-70101064D01*
X231300000Y-70135365D01*
X231719364Y-70135365D01*
X232141997Y-70557998D01*
X232141999Y-70558001D01*
X232239103Y-70622883D01*
X232329192Y-70683078D01*
X232550000Y-70727001D01*
X232550005Y-70727000D01*
X233010998Y-70727000D01*
X233218658Y-70934659D01*
X233123118Y-71164746D01*
X233122883Y-71434073D01*
X233225733Y-71682989D01*
X233416010Y-71873598D01*
X233664746Y-71976882D01*
X233934073Y-71977117D01*
X234182989Y-71874267D01*
X234373598Y-71683990D01*
X234476882Y-71435254D01*
X234477117Y-71165927D01*
X234377000Y-70923625D01*
X234377000Y-70700000D01*
X234333078Y-70479192D01*
X234333078Y-70479191D01*
X234282979Y-70404213D01*
X234208001Y-70291999D01*
X234207998Y-70291997D01*
X234043232Y-70127230D01*
X234158237Y-70105591D01*
X234303567Y-70012073D01*
X234364864Y-69922362D01*
X234416010Y-69973598D01*
X234664746Y-70076882D01*
X234934073Y-70077117D01*
X235182989Y-69974267D01*
X235373598Y-69783990D01*
X235476882Y-69535254D01*
X235477117Y-69265927D01*
X235374267Y-69017011D01*
X235183990Y-68826402D01*
X234935254Y-68723118D01*
X234880009Y-68723070D01*
X234870808Y-68716922D01*
X234650000Y-68672999D01*
X234649995Y-68673000D01*
X234411469Y-68673000D01*
X234405591Y-68641763D01*
X234312073Y-68496433D01*
X234169381Y-68398936D01*
X234000000Y-68364635D01*
X233580636Y-68364635D01*
X232858001Y-67641999D01*
X232670808Y-67516922D01*
X232450000Y-67472999D01*
X232449995Y-67473000D01*
X231689001Y-67473000D01*
X228158000Y-63941998D01*
X227970807Y-63816921D01*
X227749999Y-63772998D01*
X227749994Y-63772999D01*
X227247715Y-63772999D01*
X227302018Y-63500000D01*
X227204812Y-63011313D01*
X226927993Y-62597025D01*
X226513705Y-62320206D01*
X226060209Y-62230000D01*
X226513705Y-62139794D01*
X226927993Y-61862975D01*
X227204812Y-61448687D01*
X227302018Y-60960000D01*
X227204812Y-60471313D01*
X227117072Y-60340000D01*
X248728962Y-60340000D01*
X248822362Y-60809553D01*
X249088342Y-61207620D01*
X249486409Y-61473600D01*
X249955962Y-61567000D01*
X250004038Y-61567000D01*
X250473591Y-61473600D01*
X250871658Y-61207620D01*
X251137638Y-60809553D01*
X251231038Y-60340000D01*
X251137638Y-59870447D01*
X250871658Y-59472380D01*
X250473591Y-59206400D01*
X250004038Y-59113000D01*
X249955962Y-59113000D01*
X249486409Y-59206400D01*
X249088342Y-59472380D01*
X248822362Y-59870447D01*
X248728962Y-60340000D01*
X227117072Y-60340000D01*
X226927993Y-60057025D01*
X226513705Y-59780206D01*
X226025018Y-59683000D01*
X225974982Y-59683000D01*
X225486295Y-59780206D01*
X225072007Y-60057025D01*
X224795188Y-60471313D01*
X224697982Y-60960000D01*
X223502000Y-60960000D01*
X223502000Y-57000000D01*
X248744635Y-57000000D01*
X248744635Y-58600000D01*
X248774409Y-58758237D01*
X248867927Y-58903567D01*
X249010619Y-59001064D01*
X249180000Y-59035365D01*
X250780000Y-59035365D01*
X250938237Y-59005591D01*
X251083567Y-58912073D01*
X251181064Y-58769381D01*
X251215365Y-58600000D01*
X251215365Y-57000000D01*
X251185591Y-56841763D01*
X251092073Y-56696433D01*
X250949381Y-56598936D01*
X250780000Y-56564635D01*
X249180000Y-56564635D01*
X249021763Y-56594409D01*
X248876433Y-56687927D01*
X248778936Y-56830619D01*
X248744635Y-57000000D01*
X223502000Y-57000000D01*
X223502000Y-55502000D01*
X258498000Y-55502000D01*
X258498000Y-56941871D01*
G36*
X231117000Y-105743000D02*
X231137000Y-105743000D01*
X231137000Y-105997000D01*
X231117000Y-105997000D01*
X231117000Y-107013000D01*
X231137000Y-107013000D01*
X231137000Y-107267000D01*
X231117000Y-107267000D01*
X231117000Y-107287000D01*
X230863000Y-107287000D01*
X230863000Y-107267000D01*
X230843000Y-107267000D01*
X230843000Y-107013000D01*
X230863000Y-107013000D01*
X230863000Y-105997000D01*
X230843000Y-105997000D01*
X230843000Y-105743000D01*
X230863000Y-105743000D01*
X230863000Y-105723000D01*
X231117000Y-105723000D01*
X231117000Y-105743000D01*
X231117000Y-105743000D01*
G37*
X231117000Y-105743000D02*
X231137000Y-105743000D01*
X231137000Y-105997000D01*
X231117000Y-105997000D01*
X231117000Y-107013000D01*
X231137000Y-107013000D01*
X231137000Y-107267000D01*
X231117000Y-107267000D01*
X231117000Y-107287000D01*
X230863000Y-107287000D01*
X230863000Y-107267000D01*
X230843000Y-107267000D01*
X230843000Y-107013000D01*
X230863000Y-107013000D01*
X230863000Y-105997000D01*
X230843000Y-105997000D01*
X230843000Y-105743000D01*
X230863000Y-105743000D01*
X230863000Y-105723000D01*
X231117000Y-105723000D01*
X231117000Y-105743000D01*
M02*
