M48
;DRILL file {KiCad 4.0.7} date Saturday, May 19, 2018 'PMt' 08:52:04 PM
;FORMAT={-:-/ absolute / metric / decimal}
FMAT,2
METRIC,TZ
T1C0.200
T2C0.250
T3C0.500
T4C0.650
T5C0.800
T6C1.000
T7C3.500
%
G90
G05
M71
T1
X238.75Y-60.3
X238.75Y-61.25
X238.75Y-62.2
T2
X231.5Y-81.25
X231.539Y-81.961
X231.75Y-80.5
X232.Y-84.6
X232.5Y-80.5
X232.75Y-88.75
X232.8Y-71.1
X233.6Y-70.2
X236.75Y-80.
X237.4Y-85.2
X237.75Y-81.
X238.Y-97.
X238.25Y-78.75
X240.2Y-66.8
X240.25Y-80.
X240.5Y-98.9
X241.25Y-80.5
X241.25Y-85.25
X242.Y-86.
X243.Y-81.5
X250.312Y-98.2
X250.4Y-96.4
X250.4Y-105.
X255.5Y-87.25
X256.25Y-88.
X257.Y-77.5
T3
X228.2Y-83.6
X228.2Y-94.
X228.4Y-76.4
X233.Y-85.4
X234.4Y-94.6
X235.Y-90.
X235.6Y-81.
X236.2Y-62.8
X236.2Y-96.2
X237.8Y-58.9
X238.5Y-74.
X240.4Y-91.6
X240.8Y-88.6
X241.8Y-77.
X242.75Y-90.75
X242.8Y-69.
X245.Y-88.6
X247.8Y-77.2
X248.4Y-92.4
X251.46Y-58.674
X253.6Y-94.4
X254.Y-56.134
X254.4Y-90.1
X254.5Y-75.8
X255.2Y-73.8
X256.4Y-90.2
X256.54Y-58.674
X263.8Y-90.6
T4
X256.93Y-99.06
X256.93Y-100.33
X256.93Y-101.6
X256.93Y-102.87
X256.93Y-104.14
X258.2Y-99.06
X258.2Y-100.33
X258.2Y-101.6
X258.2Y-102.87
X258.2Y-104.14
T5
X243.92Y-64.
X243.92Y-71.62
X246.46Y-64.
X246.46Y-71.62
X249.Y-64.
X249.Y-71.62
X251.54Y-64.
X251.54Y-71.62
T6
X233.68Y-58.42
X233.68Y-60.96
X233.68Y-63.5
X233.68Y-66.04
X233.68Y-109.22
X233.68Y-111.76
X233.68Y-114.3
X258.46Y-68.
X258.46Y-70.54
X258.46Y-73.08
X258.46Y-75.62
X258.46Y-78.16
X258.46Y-80.7
X258.46Y-83.24
X258.46Y-85.78
X258.46Y-88.32
X258.46Y-90.86
X261.Y-68.
X261.Y-70.54
X261.Y-73.08
X261.Y-75.62
X261.Y-78.16
X261.Y-80.7
X261.Y-83.24
X261.Y-85.78
X261.Y-88.32
X261.Y-90.86
T7
X262.75Y-60.5G85X267.25Y-60.5
G05
X262.75Y-114.5G85X267.25Y-114.5
G05
T0
M30
