G04 #@! TF.FileFunction,Legend,Top*
%FSLAX46Y46*%
G04 Gerber Fmt 4.6, Leading zero omitted, Abs format (unit mm)*
G04 Created by KiCad (PCBNEW 4.0.7) date Saturday, May 19, 2018 'PMt' 08:52:02 PM*
%MOMM*%
%LPD*%
G01*
G04 APERTURE LIST*
%ADD10C,0.100000*%
%ADD11C,0.300000*%
%ADD12C,0.280000*%
%ADD13C,0.150000*%
%ADD14C,0.120000*%
%ADD15O,12.400000X7.900000*%
%ADD16R,1.700000X0.650000*%
%ADD17R,0.650000X1.700000*%
%ADD18R,2.100000X2.100000*%
%ADD19O,2.100000X2.100000*%
%ADD20R,1.150000X1.200000*%
%ADD21R,1.200000X1.150000*%
%ADD22R,1.300000X0.900000*%
%ADD23R,0.900000X1.300000*%
%ADD24R,1.460000X1.050000*%
%ADD25R,2.400000X4.900000*%
%ADD26R,1.300000X2.100000*%
%ADD27C,1.400000*%
%ADD28R,1.400000X1.290000*%
%ADD29R,2.400000X0.730000*%
%ADD30R,0.640000X0.390000*%
%ADD31R,0.980000X2.540000*%
%ADD32C,0.480000*%
%ADD33R,1.400000X1.400000*%
%ADD34O,1.400000X1.400000*%
%ADD35R,2.000000X2.000000*%
%ADD36O,2.000000X2.000000*%
G04 APERTURE END LIST*
D10*
D11*
X235614286Y-108428571D02*
X236542857Y-108428571D01*
X236042857Y-109000000D01*
X236257143Y-109000000D01*
X236400000Y-109071429D01*
X236471429Y-109142857D01*
X236542857Y-109285714D01*
X236542857Y-109642857D01*
X236471429Y-109785714D01*
X236400000Y-109857143D01*
X236257143Y-109928571D01*
X235828571Y-109928571D01*
X235685714Y-109857143D01*
X235614286Y-109785714D01*
X237185714Y-109785714D02*
X237257142Y-109857143D01*
X237185714Y-109928571D01*
X237114285Y-109857143D01*
X237185714Y-109785714D01*
X237185714Y-109928571D01*
X237185714Y-109000000D02*
X237257142Y-109071429D01*
X237185714Y-109142857D01*
X237114285Y-109071429D01*
X237185714Y-109000000D01*
X237185714Y-109142857D01*
X237900000Y-109928571D02*
X237900000Y-108428571D01*
X238757143Y-109928571D02*
X238114286Y-109071429D01*
X238757143Y-108428571D02*
X237900000Y-109285714D01*
X235685714Y-111121429D02*
X235757143Y-111050000D01*
X235900000Y-110978571D01*
X236257143Y-110978571D01*
X236400000Y-111050000D01*
X236471429Y-111121429D01*
X236542857Y-111264286D01*
X236542857Y-111407143D01*
X236471429Y-111621429D01*
X235614286Y-112478571D01*
X236542857Y-112478571D01*
X237185714Y-112335714D02*
X237257142Y-112407143D01*
X237185714Y-112478571D01*
X237114285Y-112407143D01*
X237185714Y-112335714D01*
X237185714Y-112478571D01*
X237185714Y-111550000D02*
X237257142Y-111621429D01*
X237185714Y-111692857D01*
X237114285Y-111621429D01*
X237185714Y-111550000D01*
X237185714Y-111692857D01*
X237900000Y-112478571D02*
X237900000Y-110978571D01*
X238757143Y-112478571D01*
X238757143Y-110978571D01*
X240328572Y-112335714D02*
X240257143Y-112407143D01*
X240042857Y-112478571D01*
X239900000Y-112478571D01*
X239685715Y-112407143D01*
X239542857Y-112264286D01*
X239471429Y-112121429D01*
X239400000Y-111835714D01*
X239400000Y-111621429D01*
X239471429Y-111335714D01*
X239542857Y-111192857D01*
X239685715Y-111050000D01*
X239900000Y-110978571D01*
X240042857Y-110978571D01*
X240257143Y-111050000D01*
X240328572Y-111121429D01*
X236542857Y-115028571D02*
X235685714Y-115028571D01*
X236114286Y-115028571D02*
X236114286Y-113528571D01*
X235971429Y-113742857D01*
X235828571Y-113885714D01*
X235685714Y-113957143D01*
X237185714Y-114885714D02*
X237257142Y-114957143D01*
X237185714Y-115028571D01*
X237114285Y-114957143D01*
X237185714Y-114885714D01*
X237185714Y-115028571D01*
X237185714Y-114100000D02*
X237257142Y-114171429D01*
X237185714Y-114242857D01*
X237114285Y-114171429D01*
X237185714Y-114100000D01*
X237185714Y-114242857D01*
X237828571Y-114600000D02*
X238542857Y-114600000D01*
X237685714Y-115028571D02*
X238185714Y-113528571D01*
X238685714Y-115028571D01*
D12*
X246866665Y-115843333D02*
X246399999Y-115176667D01*
X246066665Y-115843333D02*
X246066665Y-114443333D01*
X246599999Y-114443333D01*
X246733332Y-114510000D01*
X246799999Y-114576667D01*
X246866665Y-114710000D01*
X246866665Y-114910000D01*
X246799999Y-115043333D01*
X246733332Y-115110000D01*
X246599999Y-115176667D01*
X246066665Y-115176667D01*
X247999999Y-115776667D02*
X247866665Y-115843333D01*
X247599999Y-115843333D01*
X247466665Y-115776667D01*
X247399999Y-115643333D01*
X247399999Y-115110000D01*
X247466665Y-114976667D01*
X247599999Y-114910000D01*
X247866665Y-114910000D01*
X247999999Y-114976667D01*
X248066665Y-115110000D01*
X248066665Y-115243333D01*
X247399999Y-115376667D01*
X248533332Y-114910000D02*
X248866665Y-115843333D01*
X249199999Y-114910000D01*
X249733332Y-115843333D02*
X249733332Y-114910000D01*
X249733332Y-114443333D02*
X249666666Y-114510000D01*
X249733332Y-114576667D01*
X249799999Y-114510000D01*
X249733332Y-114443333D01*
X249733332Y-114576667D01*
X250333333Y-115776667D02*
X250466666Y-115843333D01*
X250733333Y-115843333D01*
X250866666Y-115776667D01*
X250933333Y-115643333D01*
X250933333Y-115576667D01*
X250866666Y-115443333D01*
X250733333Y-115376667D01*
X250533333Y-115376667D01*
X250399999Y-115310000D01*
X250333333Y-115176667D01*
X250333333Y-115110000D01*
X250399999Y-114976667D01*
X250533333Y-114910000D01*
X250733333Y-114910000D01*
X250866666Y-114976667D01*
X251533332Y-115843333D02*
X251533332Y-114910000D01*
X251533332Y-114443333D02*
X251466666Y-114510000D01*
X251533332Y-114576667D01*
X251599999Y-114510000D01*
X251533332Y-114443333D01*
X251533332Y-114576667D01*
X252399999Y-115843333D02*
X252266666Y-115776667D01*
X252199999Y-115710000D01*
X252133333Y-115576667D01*
X252133333Y-115176667D01*
X252199999Y-115043333D01*
X252266666Y-114976667D01*
X252399999Y-114910000D01*
X252599999Y-114910000D01*
X252733333Y-114976667D01*
X252799999Y-115043333D01*
X252866666Y-115176667D01*
X252866666Y-115576667D01*
X252799999Y-115710000D01*
X252733333Y-115776667D01*
X252599999Y-115843333D01*
X252399999Y-115843333D01*
X253466666Y-114910000D02*
X253466666Y-115843333D01*
X253466666Y-115043333D02*
X253533333Y-114976667D01*
X253666666Y-114910000D01*
X253866666Y-114910000D01*
X254000000Y-114976667D01*
X254066666Y-115110000D01*
X254066666Y-115843333D01*
X256533334Y-115843333D02*
X255733334Y-115843333D01*
X256133334Y-115843333D02*
X256133334Y-114443333D01*
X256000000Y-114643333D01*
X255866667Y-114776667D01*
X255733334Y-114843333D01*
X242933337Y-116956667D02*
X243000003Y-116890000D01*
X243133337Y-116823333D01*
X243466670Y-116823333D01*
X243600003Y-116890000D01*
X243666670Y-116956667D01*
X243733337Y-117090000D01*
X243733337Y-117223333D01*
X243666670Y-117423333D01*
X242866670Y-118223333D01*
X243733337Y-118223333D01*
X244600003Y-116823333D02*
X244733336Y-116823333D01*
X244866670Y-116890000D01*
X244933336Y-116956667D01*
X245000003Y-117090000D01*
X245066670Y-117356667D01*
X245066670Y-117690000D01*
X245000003Y-117956667D01*
X244933336Y-118090000D01*
X244866670Y-118156667D01*
X244733336Y-118223333D01*
X244600003Y-118223333D01*
X244466670Y-118156667D01*
X244400003Y-118090000D01*
X244333336Y-117956667D01*
X244266670Y-117690000D01*
X244266670Y-117356667D01*
X244333336Y-117090000D01*
X244400003Y-116956667D01*
X244466670Y-116890000D01*
X244600003Y-116823333D01*
X246400003Y-118223333D02*
X245600003Y-118223333D01*
X246000003Y-118223333D02*
X246000003Y-116823333D01*
X245866669Y-117023333D01*
X245733336Y-117156667D01*
X245600003Y-117223333D01*
X247200002Y-117423333D02*
X247066669Y-117356667D01*
X247000002Y-117290000D01*
X246933336Y-117156667D01*
X246933336Y-117090000D01*
X247000002Y-116956667D01*
X247066669Y-116890000D01*
X247200002Y-116823333D01*
X247466669Y-116823333D01*
X247600002Y-116890000D01*
X247666669Y-116956667D01*
X247733336Y-117090000D01*
X247733336Y-117156667D01*
X247666669Y-117290000D01*
X247600002Y-117356667D01*
X247466669Y-117423333D01*
X247200002Y-117423333D01*
X247066669Y-117490000D01*
X247000002Y-117556667D01*
X246933336Y-117690000D01*
X246933336Y-117956667D01*
X247000002Y-118090000D01*
X247066669Y-118156667D01*
X247200002Y-118223333D01*
X247466669Y-118223333D01*
X247600002Y-118156667D01*
X247666669Y-118090000D01*
X247733336Y-117956667D01*
X247733336Y-117690000D01*
X247666669Y-117556667D01*
X247600002Y-117490000D01*
X247466669Y-117423333D01*
X248333335Y-117690000D02*
X249400002Y-117690000D01*
X250333335Y-116823333D02*
X250466668Y-116823333D01*
X250600002Y-116890000D01*
X250666668Y-116956667D01*
X250733335Y-117090000D01*
X250800002Y-117356667D01*
X250800002Y-117690000D01*
X250733335Y-117956667D01*
X250666668Y-118090000D01*
X250600002Y-118156667D01*
X250466668Y-118223333D01*
X250333335Y-118223333D01*
X250200002Y-118156667D01*
X250133335Y-118090000D01*
X250066668Y-117956667D01*
X250000002Y-117690000D01*
X250000002Y-117356667D01*
X250066668Y-117090000D01*
X250133335Y-116956667D01*
X250200002Y-116890000D01*
X250333335Y-116823333D01*
X252066668Y-116823333D02*
X251400001Y-116823333D01*
X251333335Y-117490000D01*
X251400001Y-117423333D01*
X251533335Y-117356667D01*
X251866668Y-117356667D01*
X252000001Y-117423333D01*
X252066668Y-117490000D01*
X252133335Y-117623333D01*
X252133335Y-117956667D01*
X252066668Y-118090000D01*
X252000001Y-118156667D01*
X251866668Y-118223333D01*
X251533335Y-118223333D01*
X251400001Y-118156667D01*
X251333335Y-118090000D01*
X252733334Y-117690000D02*
X253800001Y-117690000D01*
X255200001Y-118223333D02*
X254400001Y-118223333D01*
X254800001Y-118223333D02*
X254800001Y-116823333D01*
X254666667Y-117023333D01*
X254533334Y-117156667D01*
X254400001Y-117223333D01*
X256000000Y-117423333D02*
X255866667Y-117356667D01*
X255800000Y-117290000D01*
X255733334Y-117156667D01*
X255733334Y-117090000D01*
X255800000Y-116956667D01*
X255866667Y-116890000D01*
X256000000Y-116823333D01*
X256266667Y-116823333D01*
X256400000Y-116890000D01*
X256466667Y-116956667D01*
X256533334Y-117090000D01*
X256533334Y-117156667D01*
X256466667Y-117290000D01*
X256400000Y-117356667D01*
X256266667Y-117423333D01*
X256000000Y-117423333D01*
X255866667Y-117490000D01*
X255800000Y-117556667D01*
X255733334Y-117690000D01*
X255733334Y-117956667D01*
X255800000Y-118090000D01*
X255866667Y-118156667D01*
X256000000Y-118223333D01*
X256266667Y-118223333D01*
X256400000Y-118156667D01*
X256466667Y-118090000D01*
X256533334Y-117956667D01*
X256533334Y-117690000D01*
X256466667Y-117556667D01*
X256400000Y-117490000D01*
X256266667Y-117423333D01*
X230099998Y-100520000D02*
X230566665Y-100520000D01*
X230766665Y-101253333D02*
X230099998Y-101253333D01*
X230099998Y-99853333D01*
X230766665Y-99853333D01*
X231366665Y-101253333D02*
X231366665Y-100320000D01*
X231366665Y-99853333D02*
X231299999Y-99920000D01*
X231366665Y-99986667D01*
X231433332Y-99920000D01*
X231366665Y-99853333D01*
X231366665Y-99986667D01*
X232033332Y-100320000D02*
X232033332Y-101253333D01*
X232033332Y-100453333D02*
X232099999Y-100386667D01*
X232233332Y-100320000D01*
X232433332Y-100320000D01*
X232566666Y-100386667D01*
X232633332Y-100520000D01*
X232633332Y-101253333D01*
X233233333Y-101186667D02*
X233366666Y-101253333D01*
X233633333Y-101253333D01*
X233766666Y-101186667D01*
X233833333Y-101053333D01*
X233833333Y-100986667D01*
X233766666Y-100853333D01*
X233633333Y-100786667D01*
X233433333Y-100786667D01*
X233299999Y-100720000D01*
X233233333Y-100586667D01*
X233233333Y-100520000D01*
X233299999Y-100386667D01*
X233433333Y-100320000D01*
X233633333Y-100320000D01*
X233766666Y-100386667D01*
X234233332Y-100320000D02*
X234766666Y-100320000D01*
X234433332Y-99853333D02*
X234433332Y-101053333D01*
X234499999Y-101186667D01*
X234633332Y-101253333D01*
X234766666Y-101253333D01*
X235766666Y-101186667D02*
X235633332Y-101253333D01*
X235366666Y-101253333D01*
X235233332Y-101186667D01*
X235166666Y-101053333D01*
X235166666Y-100520000D01*
X235233332Y-100386667D01*
X235366666Y-100320000D01*
X235633332Y-100320000D01*
X235766666Y-100386667D01*
X235833332Y-100520000D01*
X235833332Y-100653333D01*
X235166666Y-100786667D01*
X236433332Y-101253333D02*
X236433332Y-100320000D01*
X236433332Y-99853333D02*
X236366666Y-99920000D01*
X236433332Y-99986667D01*
X236499999Y-99920000D01*
X236433332Y-99853333D01*
X236433332Y-99986667D01*
X237099999Y-100320000D02*
X237099999Y-101253333D01*
X237099999Y-100453333D02*
X237166666Y-100386667D01*
X237299999Y-100320000D01*
X237499999Y-100320000D01*
X237633333Y-100386667D01*
X237699999Y-100520000D01*
X237699999Y-101253333D01*
X239433333Y-101253333D02*
X239433333Y-99853333D01*
X239900000Y-100853333D01*
X240366667Y-99853333D01*
X240366667Y-101253333D01*
X241233333Y-101253333D02*
X241100000Y-101186667D01*
X241033333Y-101120000D01*
X240966667Y-100986667D01*
X240966667Y-100586667D01*
X241033333Y-100453333D01*
X241100000Y-100386667D01*
X241233333Y-100320000D01*
X241433333Y-100320000D01*
X241566667Y-100386667D01*
X241633333Y-100453333D01*
X241700000Y-100586667D01*
X241700000Y-100986667D01*
X241633333Y-101120000D01*
X241566667Y-101186667D01*
X241433333Y-101253333D01*
X241233333Y-101253333D01*
X242100000Y-100320000D02*
X242633334Y-100320000D01*
X242300000Y-99853333D02*
X242300000Y-101053333D01*
X242366667Y-101186667D01*
X242500000Y-101253333D01*
X242633334Y-101253333D01*
X243300000Y-101253333D02*
X243166667Y-101186667D01*
X243100000Y-101120000D01*
X243033334Y-100986667D01*
X243033334Y-100586667D01*
X243100000Y-100453333D01*
X243166667Y-100386667D01*
X243300000Y-100320000D01*
X243500000Y-100320000D01*
X243633334Y-100386667D01*
X243700000Y-100453333D01*
X243766667Y-100586667D01*
X243766667Y-100986667D01*
X243700000Y-101120000D01*
X243633334Y-101186667D01*
X243500000Y-101253333D01*
X243300000Y-101253333D01*
X244366667Y-101253333D02*
X244366667Y-100320000D01*
X244366667Y-100586667D02*
X244433334Y-100453333D01*
X244500001Y-100386667D01*
X244633334Y-100320000D01*
X244766667Y-100320000D01*
X245166668Y-101186667D02*
X245300001Y-101253333D01*
X245566668Y-101253333D01*
X245700001Y-101186667D01*
X245766668Y-101053333D01*
X245766668Y-100986667D01*
X245700001Y-100853333D01*
X245566668Y-100786667D01*
X245366668Y-100786667D01*
X245233334Y-100720000D01*
X245166668Y-100586667D01*
X245166668Y-100520000D01*
X245233334Y-100386667D01*
X245366668Y-100320000D01*
X245566668Y-100320000D01*
X245700001Y-100386667D01*
X246366667Y-100320000D02*
X246366667Y-101720000D01*
X246366667Y-100386667D02*
X246500001Y-100320000D01*
X246766667Y-100320000D01*
X246900001Y-100386667D01*
X246966667Y-100453333D01*
X247033334Y-100586667D01*
X247033334Y-100986667D01*
X246966667Y-101120000D01*
X246900001Y-101186667D01*
X246766667Y-101253333D01*
X246500001Y-101253333D01*
X246366667Y-101186667D01*
X247833334Y-101253333D02*
X247700001Y-101186667D01*
X247633334Y-101120000D01*
X247566668Y-100986667D01*
X247566668Y-100586667D01*
X247633334Y-100453333D01*
X247700001Y-100386667D01*
X247833334Y-100320000D01*
X248033334Y-100320000D01*
X248166668Y-100386667D01*
X248233334Y-100453333D01*
X248300001Y-100586667D01*
X248300001Y-100986667D01*
X248233334Y-101120000D01*
X248166668Y-101186667D01*
X248033334Y-101253333D01*
X247833334Y-101253333D01*
X248900001Y-101253333D02*
X248900001Y-100320000D01*
X248900001Y-100586667D02*
X248966668Y-100453333D01*
X249033335Y-100386667D01*
X249166668Y-100320000D01*
X249300001Y-100320000D01*
X249566668Y-100320000D02*
X250100002Y-100320000D01*
X249766668Y-99853333D02*
X249766668Y-101053333D01*
X249833335Y-101186667D01*
X249966668Y-101253333D01*
X250100002Y-101253333D01*
X234833332Y-103633333D02*
X234833332Y-102233333D01*
X235166666Y-102233333D01*
X235366666Y-102300000D01*
X235499999Y-102433333D01*
X235566666Y-102566667D01*
X235633332Y-102833333D01*
X235633332Y-103033333D01*
X235566666Y-103300000D01*
X235499999Y-103433333D01*
X235366666Y-103566667D01*
X235166666Y-103633333D01*
X234833332Y-103633333D01*
X236833332Y-103633333D02*
X236833332Y-102900000D01*
X236766666Y-102766667D01*
X236633332Y-102700000D01*
X236366666Y-102700000D01*
X236233332Y-102766667D01*
X236833332Y-103566667D02*
X236699999Y-103633333D01*
X236366666Y-103633333D01*
X236233332Y-103566667D01*
X236166666Y-103433333D01*
X236166666Y-103300000D01*
X236233332Y-103166667D01*
X236366666Y-103100000D01*
X236699999Y-103100000D01*
X236833332Y-103033333D01*
X237433333Y-103566667D02*
X237566666Y-103633333D01*
X237833333Y-103633333D01*
X237966666Y-103566667D01*
X238033333Y-103433333D01*
X238033333Y-103366667D01*
X237966666Y-103233333D01*
X237833333Y-103166667D01*
X237633333Y-103166667D01*
X237499999Y-103100000D01*
X237433333Y-102966667D01*
X237433333Y-102900000D01*
X237499999Y-102766667D01*
X237633333Y-102700000D01*
X237833333Y-102700000D01*
X237966666Y-102766667D01*
X238633332Y-103633333D02*
X238633332Y-102233333D01*
X239233332Y-103633333D02*
X239233332Y-102900000D01*
X239166666Y-102766667D01*
X239033332Y-102700000D01*
X238833332Y-102700000D01*
X238699999Y-102766667D01*
X238633332Y-102833333D01*
X239899999Y-103633333D02*
X239899999Y-102233333D01*
X239899999Y-102766667D02*
X240033333Y-102700000D01*
X240299999Y-102700000D01*
X240433333Y-102766667D01*
X240499999Y-102833333D01*
X240566666Y-102966667D01*
X240566666Y-103366667D01*
X240499999Y-103500000D01*
X240433333Y-103566667D01*
X240299999Y-103633333D01*
X240033333Y-103633333D01*
X239899999Y-103566667D01*
X241366666Y-103633333D02*
X241233333Y-103566667D01*
X241166666Y-103500000D01*
X241100000Y-103366667D01*
X241100000Y-102966667D01*
X241166666Y-102833333D01*
X241233333Y-102766667D01*
X241366666Y-102700000D01*
X241566666Y-102700000D01*
X241700000Y-102766667D01*
X241766666Y-102833333D01*
X241833333Y-102966667D01*
X241833333Y-103366667D01*
X241766666Y-103500000D01*
X241700000Y-103566667D01*
X241566666Y-103633333D01*
X241366666Y-103633333D01*
X243033333Y-103633333D02*
X243033333Y-102900000D01*
X242966667Y-102766667D01*
X242833333Y-102700000D01*
X242566667Y-102700000D01*
X242433333Y-102766667D01*
X243033333Y-103566667D02*
X242900000Y-103633333D01*
X242566667Y-103633333D01*
X242433333Y-103566667D01*
X242366667Y-103433333D01*
X242366667Y-103300000D01*
X242433333Y-103166667D01*
X242566667Y-103100000D01*
X242900000Y-103100000D01*
X243033333Y-103033333D01*
X243700000Y-103633333D02*
X243700000Y-102700000D01*
X243700000Y-102966667D02*
X243766667Y-102833333D01*
X243833334Y-102766667D01*
X243966667Y-102700000D01*
X244100000Y-102700000D01*
X245166667Y-103633333D02*
X245166667Y-102233333D01*
X245166667Y-103566667D02*
X245033334Y-103633333D01*
X244766667Y-103633333D01*
X244633334Y-103566667D01*
X244566667Y-103500000D01*
X244500001Y-103366667D01*
X244500001Y-102966667D01*
X244566667Y-102833333D01*
X244633334Y-102766667D01*
X244766667Y-102700000D01*
X245033334Y-102700000D01*
X245166667Y-102766667D01*
X230499998Y-106013333D02*
X230499998Y-104613333D01*
X230499998Y-105146667D02*
X230633332Y-105080000D01*
X230899998Y-105080000D01*
X231033332Y-105146667D01*
X231099998Y-105213333D01*
X231166665Y-105346667D01*
X231166665Y-105746667D01*
X231099998Y-105880000D01*
X231033332Y-105946667D01*
X230899998Y-106013333D01*
X230633332Y-106013333D01*
X230499998Y-105946667D01*
X231633332Y-105080000D02*
X231966665Y-106013333D01*
X232299999Y-105080000D02*
X231966665Y-106013333D01*
X231833332Y-106346667D01*
X231766665Y-106413333D01*
X231633332Y-106480000D01*
X233699999Y-104613333D02*
X234499999Y-104613333D01*
X234099999Y-106013333D02*
X234099999Y-104613333D01*
X234966666Y-106013333D02*
X234966666Y-104613333D01*
X235566666Y-106013333D02*
X235566666Y-105280000D01*
X235500000Y-105146667D01*
X235366666Y-105080000D01*
X235166666Y-105080000D01*
X235033333Y-105146667D01*
X234966666Y-105213333D01*
X236433333Y-106013333D02*
X236300000Y-105946667D01*
X236233333Y-105880000D01*
X236166667Y-105746667D01*
X236166667Y-105346667D01*
X236233333Y-105213333D01*
X236300000Y-105146667D01*
X236433333Y-105080000D01*
X236633333Y-105080000D01*
X236766667Y-105146667D01*
X236833333Y-105213333D01*
X236900000Y-105346667D01*
X236900000Y-105746667D01*
X236833333Y-105880000D01*
X236766667Y-105946667D01*
X236633333Y-106013333D01*
X236433333Y-106013333D01*
X237500000Y-106013333D02*
X237500000Y-105080000D01*
X237500000Y-105213333D02*
X237566667Y-105146667D01*
X237700000Y-105080000D01*
X237900000Y-105080000D01*
X238033334Y-105146667D01*
X238100000Y-105280000D01*
X238100000Y-106013333D01*
X238100000Y-105280000D02*
X238166667Y-105146667D01*
X238300000Y-105080000D01*
X238500000Y-105080000D01*
X238633334Y-105146667D01*
X238700000Y-105280000D01*
X238700000Y-106013333D01*
X239966667Y-106013333D02*
X239966667Y-105280000D01*
X239900001Y-105146667D01*
X239766667Y-105080000D01*
X239500001Y-105080000D01*
X239366667Y-105146667D01*
X239966667Y-105946667D02*
X239833334Y-106013333D01*
X239500001Y-106013333D01*
X239366667Y-105946667D01*
X239300001Y-105813333D01*
X239300001Y-105680000D01*
X239366667Y-105546667D01*
X239500001Y-105480000D01*
X239833334Y-105480000D01*
X239966667Y-105413333D01*
X240566668Y-105946667D02*
X240700001Y-106013333D01*
X240966668Y-106013333D01*
X241100001Y-105946667D01*
X241166668Y-105813333D01*
X241166668Y-105746667D01*
X241100001Y-105613333D01*
X240966668Y-105546667D01*
X240766668Y-105546667D01*
X240633334Y-105480000D01*
X240566668Y-105346667D01*
X240566668Y-105280000D01*
X240633334Y-105146667D01*
X240766668Y-105080000D01*
X240966668Y-105080000D01*
X241100001Y-105146667D01*
X242700001Y-104613333D02*
X243033334Y-106013333D01*
X243300001Y-105013333D01*
X243566668Y-106013333D01*
X243900001Y-104613333D01*
X245033334Y-106013333D02*
X245033334Y-105280000D01*
X244966668Y-105146667D01*
X244833334Y-105080000D01*
X244566668Y-105080000D01*
X244433334Y-105146667D01*
X245033334Y-105946667D02*
X244900001Y-106013333D01*
X244566668Y-106013333D01*
X244433334Y-105946667D01*
X244366668Y-105813333D01*
X244366668Y-105680000D01*
X244433334Y-105546667D01*
X244566668Y-105480000D01*
X244900001Y-105480000D01*
X245033334Y-105413333D01*
X245500001Y-105080000D02*
X246033335Y-105080000D01*
X245700001Y-104613333D02*
X245700001Y-105813333D01*
X245766668Y-105946667D01*
X245900001Y-106013333D01*
X246033335Y-106013333D01*
X246433335Y-105946667D02*
X246566668Y-106013333D01*
X246833335Y-106013333D01*
X246966668Y-105946667D01*
X247033335Y-105813333D01*
X247033335Y-105746667D01*
X246966668Y-105613333D01*
X246833335Y-105546667D01*
X246633335Y-105546667D01*
X246500001Y-105480000D01*
X246433335Y-105346667D01*
X246433335Y-105280000D01*
X246500001Y-105146667D01*
X246633335Y-105080000D01*
X246833335Y-105080000D01*
X246966668Y-105146667D01*
X247833334Y-106013333D02*
X247700001Y-105946667D01*
X247633334Y-105880000D01*
X247566668Y-105746667D01*
X247566668Y-105346667D01*
X247633334Y-105213333D01*
X247700001Y-105146667D01*
X247833334Y-105080000D01*
X248033334Y-105080000D01*
X248166668Y-105146667D01*
X248233334Y-105213333D01*
X248300001Y-105346667D01*
X248300001Y-105746667D01*
X248233334Y-105880000D01*
X248166668Y-105946667D01*
X248033334Y-106013333D01*
X247833334Y-106013333D01*
X248900001Y-105080000D02*
X248900001Y-106013333D01*
X248900001Y-105213333D02*
X248966668Y-105146667D01*
X249100001Y-105080000D01*
X249300001Y-105080000D01*
X249433335Y-105146667D01*
X249500001Y-105280000D01*
X249500001Y-106013333D01*
D13*
X238125000Y-86625000D02*
X238125000Y-86175000D01*
X230875000Y-86625000D02*
X230875000Y-86100000D01*
X230875000Y-79375000D02*
X230875000Y-79900000D01*
X238125000Y-79375000D02*
X238125000Y-79900000D01*
X238125000Y-86625000D02*
X237600000Y-86625000D01*
X238125000Y-79375000D02*
X237600000Y-79375000D01*
X230875000Y-79375000D02*
X231400000Y-79375000D01*
X230875000Y-86625000D02*
X231400000Y-86625000D01*
X238125000Y-86175000D02*
X239500000Y-86175000D01*
D14*
X262330000Y-69270000D02*
X262330000Y-92190000D01*
X262330000Y-92190000D02*
X257130000Y-92190000D01*
X257130000Y-92190000D02*
X257130000Y-66670000D01*
X257130000Y-66670000D02*
X259730000Y-66670000D01*
X259730000Y-66670000D02*
X259730000Y-69270000D01*
X259730000Y-69270000D02*
X262330000Y-69270000D01*
X262330000Y-68000000D02*
X262330000Y-66670000D01*
X262330000Y-66670000D02*
X261060000Y-66670000D01*
X246600000Y-79900000D02*
X246600000Y-80600000D01*
X245400000Y-80600000D02*
X245400000Y-79900000D01*
X245100000Y-79900000D02*
X245100000Y-80600000D01*
X243900000Y-80600000D02*
X243900000Y-79900000D01*
X237600000Y-92350000D02*
X236900000Y-92350000D01*
X236900000Y-91150000D02*
X237600000Y-91150000D01*
X237600000Y-90600000D02*
X236900000Y-90600000D01*
X236900000Y-89400000D02*
X237600000Y-89400000D01*
X237100000Y-75850000D02*
X236400000Y-75850000D01*
X236400000Y-74650000D02*
X237100000Y-74650000D01*
X231900000Y-74650000D02*
X232600000Y-74650000D01*
X232600000Y-75850000D02*
X231900000Y-75850000D01*
X249550000Y-61800000D02*
X248850000Y-61800000D01*
X248850000Y-60600000D02*
X249550000Y-60600000D01*
X236800000Y-59650000D02*
X236800000Y-60350000D01*
X235600000Y-60350000D02*
X235600000Y-59650000D01*
X238400000Y-56850000D02*
X239100000Y-56850000D01*
X239100000Y-58050000D02*
X238400000Y-58050000D01*
X238400000Y-97250000D02*
X238400000Y-96550000D01*
X239600000Y-96550000D02*
X239600000Y-97250000D01*
X244400000Y-97250000D02*
X244400000Y-96550000D01*
X245600000Y-96550000D02*
X245600000Y-97250000D01*
X247100000Y-84150000D02*
X247100000Y-84850000D01*
X245900000Y-84850000D02*
X245900000Y-84150000D01*
X245100000Y-82900000D02*
X245100000Y-83600000D01*
X243900000Y-83600000D02*
X243900000Y-82900000D01*
X242070000Y-89250000D02*
X242070000Y-88250000D01*
X243430000Y-88250000D02*
X243430000Y-89250000D01*
X234250000Y-72070000D02*
X235250000Y-72070000D01*
X235250000Y-73430000D02*
X234250000Y-73430000D01*
X252700000Y-101880000D02*
X251700000Y-101880000D01*
X251700000Y-100520000D02*
X252700000Y-100520000D01*
X235000000Y-69820000D02*
X236000000Y-69820000D01*
X236000000Y-71180000D02*
X235000000Y-71180000D01*
X251700000Y-96520000D02*
X252700000Y-96520000D01*
X252700000Y-97880000D02*
X251700000Y-97880000D01*
X252700000Y-99880000D02*
X251700000Y-99880000D01*
X251700000Y-98520000D02*
X252700000Y-98520000D01*
X252700000Y-106680000D02*
X251700000Y-106680000D01*
X251700000Y-105320000D02*
X252700000Y-105320000D01*
X252700000Y-104480000D02*
X251700000Y-104480000D01*
X251700000Y-103120000D02*
X252700000Y-103120000D01*
X238000000Y-65570000D02*
X239000000Y-65570000D01*
X239000000Y-66930000D02*
X238000000Y-66930000D01*
X239000000Y-64930000D02*
X238000000Y-64930000D01*
X238000000Y-63570000D02*
X239000000Y-63570000D01*
X241100000Y-98510000D02*
X242900000Y-98510000D01*
X242900000Y-95290000D02*
X240450000Y-95290000D01*
X248450000Y-77100000D02*
X248450000Y-89700000D01*
X248450000Y-89700000D02*
X253550000Y-89700000D01*
X253550000Y-89700000D02*
X253550000Y-77100000D01*
X226800000Y-96130000D02*
X228800000Y-96130000D01*
X228800000Y-98270000D02*
X226800000Y-98270000D01*
X232240000Y-115630000D02*
X232240000Y-107890000D01*
X232240000Y-107890000D02*
X229580000Y-107890000D01*
X229580000Y-107890000D02*
X229580000Y-115630000D01*
X229580000Y-115630000D02*
X232240000Y-115630000D01*
X229580000Y-114680000D02*
X223580000Y-114680000D01*
X223580000Y-114680000D02*
X223580000Y-113920000D01*
X223580000Y-113920000D02*
X229580000Y-113920000D01*
X229580000Y-114620000D02*
X223580000Y-114620000D01*
X229580000Y-114500000D02*
X223580000Y-114500000D01*
X229580000Y-114380000D02*
X223580000Y-114380000D01*
X229580000Y-114260000D02*
X223580000Y-114260000D01*
X229580000Y-114140000D02*
X223580000Y-114140000D01*
X229580000Y-114020000D02*
X223580000Y-114020000D01*
X232570000Y-114680000D02*
X232240000Y-114680000D01*
X232570000Y-113920000D02*
X232240000Y-113920000D01*
X232240000Y-113030000D02*
X229580000Y-113030000D01*
X229580000Y-112140000D02*
X223580000Y-112140000D01*
X223580000Y-112140000D02*
X223580000Y-111380000D01*
X223580000Y-111380000D02*
X229580000Y-111380000D01*
X232637071Y-112140000D02*
X232240000Y-112140000D01*
X232637071Y-111380000D02*
X232240000Y-111380000D01*
X232240000Y-110490000D02*
X229580000Y-110490000D01*
X229580000Y-109600000D02*
X223580000Y-109600000D01*
X223580000Y-109600000D02*
X223580000Y-108840000D01*
X223580000Y-108840000D02*
X229580000Y-108840000D01*
X232637071Y-109600000D02*
X232240000Y-109600000D01*
X232637071Y-108840000D02*
X232240000Y-108840000D01*
X234950000Y-114300000D02*
X234950000Y-115570000D01*
X234950000Y-115570000D02*
X233680000Y-115570000D01*
X226800000Y-102930000D02*
X228800000Y-102930000D01*
X228800000Y-105070000D02*
X226800000Y-105070000D01*
D13*
X250698000Y-55118000D02*
X250698000Y-58420000D01*
X257302000Y-55118000D02*
X250698000Y-55118000D01*
X257302000Y-59690000D02*
X257302000Y-55118000D01*
X255778000Y-59690000D02*
X257302000Y-59690000D01*
X255778000Y-59182000D02*
X255778000Y-59690000D01*
X252222000Y-59182000D02*
X255778000Y-59182000D01*
X252222000Y-59690000D02*
X252222000Y-59182000D01*
X250698000Y-59690000D02*
X252222000Y-59690000D01*
X250698000Y-58420000D02*
X250698000Y-59690000D01*
X237250000Y-59750000D02*
X237750000Y-59750000D01*
X237250000Y-60250000D02*
X237250000Y-59750000D01*
D14*
X258640000Y-98440323D02*
X258640000Y-98365000D01*
X258640000Y-98365000D02*
X259760000Y-98365000D01*
X259760000Y-98365000D02*
X259760000Y-104835000D01*
X259760000Y-104835000D02*
X258640000Y-104835000D01*
X258640000Y-104835000D02*
X258640000Y-104759677D01*
X259760000Y-98800000D02*
X263760000Y-98800000D01*
X263760000Y-98800000D02*
X263760000Y-99320000D01*
X263760000Y-99320000D02*
X259760000Y-99320000D01*
X259760000Y-98860000D02*
X263760000Y-98860000D01*
X259760000Y-98980000D02*
X263760000Y-98980000D01*
X259760000Y-99100000D02*
X263760000Y-99100000D01*
X259760000Y-99220000D02*
X263760000Y-99220000D01*
X258640000Y-99695000D02*
X259760000Y-99695000D01*
X258640000Y-99679677D02*
X258640000Y-99710323D01*
X259760000Y-100070000D02*
X263760000Y-100070000D01*
X263760000Y-100070000D02*
X263760000Y-100590000D01*
X263760000Y-100590000D02*
X259760000Y-100590000D01*
X258640000Y-100965000D02*
X259760000Y-100965000D01*
X258640000Y-100949677D02*
X258640000Y-100980323D01*
X259760000Y-101340000D02*
X263760000Y-101340000D01*
X263760000Y-101340000D02*
X263760000Y-101860000D01*
X263760000Y-101860000D02*
X259760000Y-101860000D01*
X258640000Y-102235000D02*
X259760000Y-102235000D01*
X258640000Y-102219677D02*
X258640000Y-102250323D01*
X259760000Y-102610000D02*
X263760000Y-102610000D01*
X263760000Y-102610000D02*
X263760000Y-103130000D01*
X263760000Y-103130000D02*
X259760000Y-103130000D01*
X258640000Y-103505000D02*
X259760000Y-103505000D01*
X258640000Y-103489677D02*
X258640000Y-103520323D01*
X259760000Y-103880000D02*
X263760000Y-103880000D01*
X263760000Y-103880000D02*
X263760000Y-104400000D01*
X263760000Y-104400000D02*
X259760000Y-104400000D01*
X256170000Y-99060000D02*
X256170000Y-98300000D01*
X256170000Y-98300000D02*
X256930000Y-98300000D01*
X232240000Y-67370000D02*
X232240000Y-57090000D01*
X232240000Y-57090000D02*
X229580000Y-57090000D01*
X229580000Y-57090000D02*
X229580000Y-67370000D01*
X229580000Y-67370000D02*
X232240000Y-67370000D01*
X229580000Y-66420000D02*
X223580000Y-66420000D01*
X223580000Y-66420000D02*
X223580000Y-65660000D01*
X223580000Y-65660000D02*
X229580000Y-65660000D01*
X229580000Y-66360000D02*
X223580000Y-66360000D01*
X229580000Y-66240000D02*
X223580000Y-66240000D01*
X229580000Y-66120000D02*
X223580000Y-66120000D01*
X229580000Y-66000000D02*
X223580000Y-66000000D01*
X229580000Y-65880000D02*
X223580000Y-65880000D01*
X229580000Y-65760000D02*
X223580000Y-65760000D01*
X232570000Y-66420000D02*
X232240000Y-66420000D01*
X232570000Y-65660000D02*
X232240000Y-65660000D01*
X232240000Y-64770000D02*
X229580000Y-64770000D01*
X229580000Y-63880000D02*
X223580000Y-63880000D01*
X223580000Y-63880000D02*
X223580000Y-63120000D01*
X223580000Y-63120000D02*
X229580000Y-63120000D01*
X232637071Y-63880000D02*
X232240000Y-63880000D01*
X232637071Y-63120000D02*
X232240000Y-63120000D01*
X232240000Y-62230000D02*
X229580000Y-62230000D01*
X229580000Y-61340000D02*
X223580000Y-61340000D01*
X223580000Y-61340000D02*
X223580000Y-60580000D01*
X223580000Y-60580000D02*
X229580000Y-60580000D01*
X232637071Y-61340000D02*
X232240000Y-61340000D01*
X232637071Y-60580000D02*
X232240000Y-60580000D01*
X232240000Y-59690000D02*
X229580000Y-59690000D01*
X229580000Y-58800000D02*
X223580000Y-58800000D01*
X223580000Y-58800000D02*
X223580000Y-58040000D01*
X223580000Y-58040000D02*
X229580000Y-58040000D01*
X232637071Y-58800000D02*
X232240000Y-58800000D01*
X232637071Y-58040000D02*
X232240000Y-58040000D01*
X234950000Y-66040000D02*
X234950000Y-67310000D01*
X234950000Y-67310000D02*
X233680000Y-67310000D01*
X241240000Y-73020000D02*
X242510000Y-73020000D01*
X241240000Y-73020000D02*
X241240000Y-70480000D01*
X241440000Y-72820000D02*
X241440000Y-62800000D01*
X241440000Y-62800000D02*
X254020000Y-62800000D01*
X254020000Y-62800000D02*
X254020000Y-72820000D01*
X254020000Y-72820000D02*
X241440000Y-72820000D01*
X243285000Y-69840000D02*
X244555000Y-69840000D01*
X244555000Y-69840000D02*
X244555000Y-65780000D01*
X244555000Y-65780000D02*
X243285000Y-65780000D01*
X243285000Y-65780000D02*
X243285000Y-69840000D01*
X243285000Y-67810000D02*
X244555000Y-67810000D01*
X245825000Y-69840000D02*
X247095000Y-69840000D01*
X247095000Y-69840000D02*
X247095000Y-65780000D01*
X247095000Y-65780000D02*
X245825000Y-65780000D01*
X245825000Y-65780000D02*
X245825000Y-69840000D01*
X245825000Y-67810000D02*
X247095000Y-67810000D01*
X248365000Y-69840000D02*
X249635000Y-69840000D01*
X249635000Y-69840000D02*
X249635000Y-65780000D01*
X249635000Y-65780000D02*
X248365000Y-65780000D01*
X248365000Y-65780000D02*
X248365000Y-69840000D01*
X248365000Y-67810000D02*
X249635000Y-67810000D01*
X250905000Y-69840000D02*
X252175000Y-69840000D01*
X252175000Y-69840000D02*
X252175000Y-65780000D01*
X252175000Y-65780000D02*
X250905000Y-65780000D01*
X250905000Y-65780000D02*
X250905000Y-69840000D01*
X250905000Y-67810000D02*
X252175000Y-67810000D01*
D13*
X229488095Y-88452381D02*
X229488095Y-89261905D01*
X229535714Y-89357143D01*
X229583333Y-89404762D01*
X229678571Y-89452381D01*
X229869048Y-89452381D01*
X229964286Y-89404762D01*
X230011905Y-89357143D01*
X230059524Y-89261905D01*
X230059524Y-88452381D01*
X231059524Y-89452381D02*
X230488095Y-89452381D01*
X230773809Y-89452381D02*
X230773809Y-88452381D01*
X230678571Y-88595238D01*
X230583333Y-88690476D01*
X230488095Y-88738095D01*
X259396667Y-64852381D02*
X259396667Y-65566667D01*
X259349047Y-65709524D01*
X259253809Y-65804762D01*
X259110952Y-65852381D01*
X259015714Y-65852381D01*
X260396667Y-65852381D02*
X259825238Y-65852381D01*
X260110952Y-65852381D02*
X260110952Y-64852381D01*
X260015714Y-64995238D01*
X259920476Y-65090476D01*
X259825238Y-65138095D01*
X259039524Y-93642381D02*
X258563333Y-93642381D01*
X258563333Y-92642381D01*
X259944286Y-93547143D02*
X259896667Y-93594762D01*
X259753810Y-93642381D01*
X259658572Y-93642381D01*
X259515714Y-93594762D01*
X259420476Y-93499524D01*
X259372857Y-93404286D01*
X259325238Y-93213810D01*
X259325238Y-93070952D01*
X259372857Y-92880476D01*
X259420476Y-92785238D01*
X259515714Y-92690000D01*
X259658572Y-92642381D01*
X259753810Y-92642381D01*
X259896667Y-92690000D01*
X259944286Y-92737619D01*
X260372857Y-93642381D02*
X260372857Y-92642381D01*
X260610952Y-92642381D01*
X260753810Y-92690000D01*
X260849048Y-92785238D01*
X260896667Y-92880476D01*
X260944286Y-93070952D01*
X260944286Y-93213810D01*
X260896667Y-93404286D01*
X260849048Y-93499524D01*
X260753810Y-93594762D01*
X260610952Y-93642381D01*
X260372857Y-93642381D01*
X246357143Y-77766666D02*
X246404762Y-77814285D01*
X246452381Y-77957142D01*
X246452381Y-78052380D01*
X246404762Y-78195238D01*
X246309524Y-78290476D01*
X246214286Y-78338095D01*
X246023810Y-78385714D01*
X245880952Y-78385714D01*
X245690476Y-78338095D01*
X245595238Y-78290476D01*
X245500000Y-78195238D01*
X245452381Y-78052380D01*
X245452381Y-77957142D01*
X245500000Y-77814285D01*
X245547619Y-77766666D01*
X246452381Y-76814285D02*
X246452381Y-77385714D01*
X246452381Y-77100000D02*
X245452381Y-77100000D01*
X245595238Y-77195238D01*
X245690476Y-77290476D01*
X245738095Y-77385714D01*
X244857143Y-77766666D02*
X244904762Y-77814285D01*
X244952381Y-77957142D01*
X244952381Y-78052380D01*
X244904762Y-78195238D01*
X244809524Y-78290476D01*
X244714286Y-78338095D01*
X244523810Y-78385714D01*
X244380952Y-78385714D01*
X244190476Y-78338095D01*
X244095238Y-78290476D01*
X244000000Y-78195238D01*
X243952381Y-78052380D01*
X243952381Y-77957142D01*
X244000000Y-77814285D01*
X244047619Y-77766666D01*
X244047619Y-77385714D02*
X244000000Y-77338095D01*
X243952381Y-77242857D01*
X243952381Y-77004761D01*
X244000000Y-76909523D01*
X244047619Y-76861904D01*
X244142857Y-76814285D01*
X244238095Y-76814285D01*
X244380952Y-76861904D01*
X244952381Y-77433333D01*
X244952381Y-76814285D01*
X239833334Y-92107143D02*
X239785715Y-92154762D01*
X239642858Y-92202381D01*
X239547620Y-92202381D01*
X239404762Y-92154762D01*
X239309524Y-92059524D01*
X239261905Y-91964286D01*
X239214286Y-91773810D01*
X239214286Y-91630952D01*
X239261905Y-91440476D01*
X239309524Y-91345238D01*
X239404762Y-91250000D01*
X239547620Y-91202381D01*
X239642858Y-91202381D01*
X239785715Y-91250000D01*
X239833334Y-91297619D01*
X240166667Y-91202381D02*
X240785715Y-91202381D01*
X240452381Y-91583333D01*
X240595239Y-91583333D01*
X240690477Y-91630952D01*
X240738096Y-91678571D01*
X240785715Y-91773810D01*
X240785715Y-92011905D01*
X240738096Y-92107143D01*
X240690477Y-92154762D01*
X240595239Y-92202381D01*
X240309524Y-92202381D01*
X240214286Y-92154762D01*
X240166667Y-92107143D01*
X239833334Y-90357143D02*
X239785715Y-90404762D01*
X239642858Y-90452381D01*
X239547620Y-90452381D01*
X239404762Y-90404762D01*
X239309524Y-90309524D01*
X239261905Y-90214286D01*
X239214286Y-90023810D01*
X239214286Y-89880952D01*
X239261905Y-89690476D01*
X239309524Y-89595238D01*
X239404762Y-89500000D01*
X239547620Y-89452381D01*
X239642858Y-89452381D01*
X239785715Y-89500000D01*
X239833334Y-89547619D01*
X240690477Y-89785714D02*
X240690477Y-90452381D01*
X240452381Y-89404762D02*
X240214286Y-90119048D01*
X240833334Y-90119048D01*
X236583334Y-77107143D02*
X236535715Y-77154762D01*
X236392858Y-77202381D01*
X236297620Y-77202381D01*
X236154762Y-77154762D01*
X236059524Y-77059524D01*
X236011905Y-76964286D01*
X235964286Y-76773810D01*
X235964286Y-76630952D01*
X236011905Y-76440476D01*
X236059524Y-76345238D01*
X236154762Y-76250000D01*
X236297620Y-76202381D01*
X236392858Y-76202381D01*
X236535715Y-76250000D01*
X236583334Y-76297619D01*
X237488096Y-76202381D02*
X237011905Y-76202381D01*
X236964286Y-76678571D01*
X237011905Y-76630952D01*
X237107143Y-76583333D01*
X237345239Y-76583333D01*
X237440477Y-76630952D01*
X237488096Y-76678571D01*
X237535715Y-76773810D01*
X237535715Y-77011905D01*
X237488096Y-77107143D01*
X237440477Y-77154762D01*
X237345239Y-77202381D01*
X237107143Y-77202381D01*
X237011905Y-77154762D01*
X236964286Y-77107143D01*
X232083334Y-77107143D02*
X232035715Y-77154762D01*
X231892858Y-77202381D01*
X231797620Y-77202381D01*
X231654762Y-77154762D01*
X231559524Y-77059524D01*
X231511905Y-76964286D01*
X231464286Y-76773810D01*
X231464286Y-76630952D01*
X231511905Y-76440476D01*
X231559524Y-76345238D01*
X231654762Y-76250000D01*
X231797620Y-76202381D01*
X231892858Y-76202381D01*
X232035715Y-76250000D01*
X232083334Y-76297619D01*
X232940477Y-76202381D02*
X232750000Y-76202381D01*
X232654762Y-76250000D01*
X232607143Y-76297619D01*
X232511905Y-76440476D01*
X232464286Y-76630952D01*
X232464286Y-77011905D01*
X232511905Y-77107143D01*
X232559524Y-77154762D01*
X232654762Y-77202381D01*
X232845239Y-77202381D01*
X232940477Y-77154762D01*
X232988096Y-77107143D01*
X233035715Y-77011905D01*
X233035715Y-76773810D01*
X232988096Y-76678571D01*
X232940477Y-76630952D01*
X232845239Y-76583333D01*
X232654762Y-76583333D01*
X232559524Y-76630952D01*
X232511905Y-76678571D01*
X232464286Y-76773810D01*
X251633334Y-61557143D02*
X251585715Y-61604762D01*
X251442858Y-61652381D01*
X251347620Y-61652381D01*
X251204762Y-61604762D01*
X251109524Y-61509524D01*
X251061905Y-61414286D01*
X251014286Y-61223810D01*
X251014286Y-61080952D01*
X251061905Y-60890476D01*
X251109524Y-60795238D01*
X251204762Y-60700000D01*
X251347620Y-60652381D01*
X251442858Y-60652381D01*
X251585715Y-60700000D01*
X251633334Y-60747619D01*
X251966667Y-60652381D02*
X252633334Y-60652381D01*
X252204762Y-61652381D01*
X236033334Y-58157143D02*
X235985715Y-58204762D01*
X235842858Y-58252381D01*
X235747620Y-58252381D01*
X235604762Y-58204762D01*
X235509524Y-58109524D01*
X235461905Y-58014286D01*
X235414286Y-57823810D01*
X235414286Y-57680952D01*
X235461905Y-57490476D01*
X235509524Y-57395238D01*
X235604762Y-57300000D01*
X235747620Y-57252381D01*
X235842858Y-57252381D01*
X235985715Y-57300000D01*
X236033334Y-57347619D01*
X236604762Y-57680952D02*
X236509524Y-57633333D01*
X236461905Y-57585714D01*
X236414286Y-57490476D01*
X236414286Y-57442857D01*
X236461905Y-57347619D01*
X236509524Y-57300000D01*
X236604762Y-57252381D01*
X236795239Y-57252381D01*
X236890477Y-57300000D01*
X236938096Y-57347619D01*
X236985715Y-57442857D01*
X236985715Y-57490476D01*
X236938096Y-57585714D01*
X236890477Y-57633333D01*
X236795239Y-57680952D01*
X236604762Y-57680952D01*
X236509524Y-57728571D01*
X236461905Y-57776190D01*
X236414286Y-57871429D01*
X236414286Y-58061905D01*
X236461905Y-58157143D01*
X236509524Y-58204762D01*
X236604762Y-58252381D01*
X236795239Y-58252381D01*
X236890477Y-58204762D01*
X236938096Y-58157143D01*
X236985715Y-58061905D01*
X236985715Y-57871429D01*
X236938096Y-57776190D01*
X236890477Y-57728571D01*
X236795239Y-57680952D01*
X238633334Y-56357143D02*
X238585715Y-56404762D01*
X238442858Y-56452381D01*
X238347620Y-56452381D01*
X238204762Y-56404762D01*
X238109524Y-56309524D01*
X238061905Y-56214286D01*
X238014286Y-56023810D01*
X238014286Y-55880952D01*
X238061905Y-55690476D01*
X238109524Y-55595238D01*
X238204762Y-55500000D01*
X238347620Y-55452381D01*
X238442858Y-55452381D01*
X238585715Y-55500000D01*
X238633334Y-55547619D01*
X239109524Y-56452381D02*
X239300000Y-56452381D01*
X239395239Y-56404762D01*
X239442858Y-56357143D01*
X239538096Y-56214286D01*
X239585715Y-56023810D01*
X239585715Y-55642857D01*
X239538096Y-55547619D01*
X239490477Y-55500000D01*
X239395239Y-55452381D01*
X239204762Y-55452381D01*
X239109524Y-55500000D01*
X239061905Y-55547619D01*
X239014286Y-55642857D01*
X239014286Y-55880952D01*
X239061905Y-55976190D01*
X239109524Y-56023810D01*
X239204762Y-56071429D01*
X239395239Y-56071429D01*
X239490477Y-56023810D01*
X239538096Y-55976190D01*
X239585715Y-55880952D01*
X237857143Y-97542857D02*
X237904762Y-97590476D01*
X237952381Y-97733333D01*
X237952381Y-97828571D01*
X237904762Y-97971429D01*
X237809524Y-98066667D01*
X237714286Y-98114286D01*
X237523810Y-98161905D01*
X237380952Y-98161905D01*
X237190476Y-98114286D01*
X237095238Y-98066667D01*
X237000000Y-97971429D01*
X236952381Y-97828571D01*
X236952381Y-97733333D01*
X237000000Y-97590476D01*
X237047619Y-97542857D01*
X237952381Y-96590476D02*
X237952381Y-97161905D01*
X237952381Y-96876191D02*
X236952381Y-96876191D01*
X237095238Y-96971429D01*
X237190476Y-97066667D01*
X237238095Y-97161905D01*
X236952381Y-95971429D02*
X236952381Y-95876190D01*
X237000000Y-95780952D01*
X237047619Y-95733333D01*
X237142857Y-95685714D01*
X237333333Y-95638095D01*
X237571429Y-95638095D01*
X237761905Y-95685714D01*
X237857143Y-95733333D01*
X237904762Y-95780952D01*
X237952381Y-95876190D01*
X237952381Y-95971429D01*
X237904762Y-96066667D01*
X237857143Y-96114286D01*
X237761905Y-96161905D01*
X237571429Y-96209524D01*
X237333333Y-96209524D01*
X237142857Y-96161905D01*
X237047619Y-96114286D01*
X237000000Y-96066667D01*
X236952381Y-95971429D01*
X246857143Y-97542857D02*
X246904762Y-97590476D01*
X246952381Y-97733333D01*
X246952381Y-97828571D01*
X246904762Y-97971429D01*
X246809524Y-98066667D01*
X246714286Y-98114286D01*
X246523810Y-98161905D01*
X246380952Y-98161905D01*
X246190476Y-98114286D01*
X246095238Y-98066667D01*
X246000000Y-97971429D01*
X245952381Y-97828571D01*
X245952381Y-97733333D01*
X246000000Y-97590476D01*
X246047619Y-97542857D01*
X246952381Y-96590476D02*
X246952381Y-97161905D01*
X246952381Y-96876191D02*
X245952381Y-96876191D01*
X246095238Y-96971429D01*
X246190476Y-97066667D01*
X246238095Y-97161905D01*
X246952381Y-95638095D02*
X246952381Y-96209524D01*
X246952381Y-95923810D02*
X245952381Y-95923810D01*
X246095238Y-96019048D01*
X246190476Y-96114286D01*
X246238095Y-96209524D01*
X246857143Y-88142857D02*
X246904762Y-88190476D01*
X246952381Y-88333333D01*
X246952381Y-88428571D01*
X246904762Y-88571429D01*
X246809524Y-88666667D01*
X246714286Y-88714286D01*
X246523810Y-88761905D01*
X246380952Y-88761905D01*
X246190476Y-88714286D01*
X246095238Y-88666667D01*
X246000000Y-88571429D01*
X245952381Y-88428571D01*
X245952381Y-88333333D01*
X246000000Y-88190476D01*
X246047619Y-88142857D01*
X246952381Y-87190476D02*
X246952381Y-87761905D01*
X246952381Y-87476191D02*
X245952381Y-87476191D01*
X246095238Y-87571429D01*
X246190476Y-87666667D01*
X246238095Y-87761905D01*
X246047619Y-86809524D02*
X246000000Y-86761905D01*
X245952381Y-86666667D01*
X245952381Y-86428571D01*
X246000000Y-86333333D01*
X246047619Y-86285714D01*
X246142857Y-86238095D01*
X246238095Y-86238095D01*
X246380952Y-86285714D01*
X246952381Y-86857143D01*
X246952381Y-86238095D01*
X244857143Y-86892857D02*
X244904762Y-86940476D01*
X244952381Y-87083333D01*
X244952381Y-87178571D01*
X244904762Y-87321429D01*
X244809524Y-87416667D01*
X244714286Y-87464286D01*
X244523810Y-87511905D01*
X244380952Y-87511905D01*
X244190476Y-87464286D01*
X244095238Y-87416667D01*
X244000000Y-87321429D01*
X243952381Y-87178571D01*
X243952381Y-87083333D01*
X244000000Y-86940476D01*
X244047619Y-86892857D01*
X244952381Y-85940476D02*
X244952381Y-86511905D01*
X244952381Y-86226191D02*
X243952381Y-86226191D01*
X244095238Y-86321429D01*
X244190476Y-86416667D01*
X244238095Y-86511905D01*
X243952381Y-85607143D02*
X243952381Y-84988095D01*
X244333333Y-85321429D01*
X244333333Y-85178571D01*
X244380952Y-85083333D01*
X244428571Y-85035714D01*
X244523810Y-84988095D01*
X244761905Y-84988095D01*
X244857143Y-85035714D01*
X244904762Y-85083333D01*
X244952381Y-85178571D01*
X244952381Y-85464286D01*
X244904762Y-85559524D01*
X244857143Y-85607143D01*
X244652381Y-88916666D02*
X244176190Y-89250000D01*
X244652381Y-89488095D02*
X243652381Y-89488095D01*
X243652381Y-89107142D01*
X243700000Y-89011904D01*
X243747619Y-88964285D01*
X243842857Y-88916666D01*
X243985714Y-88916666D01*
X244080952Y-88964285D01*
X244128571Y-89011904D01*
X244176190Y-89107142D01*
X244176190Y-89488095D01*
X244652381Y-87964285D02*
X244652381Y-88535714D01*
X244652381Y-88250000D02*
X243652381Y-88250000D01*
X243795238Y-88345238D01*
X243890476Y-88440476D01*
X243938095Y-88535714D01*
X232333334Y-73202381D02*
X232000000Y-72726190D01*
X231761905Y-73202381D02*
X231761905Y-72202381D01*
X232142858Y-72202381D01*
X232238096Y-72250000D01*
X232285715Y-72297619D01*
X232333334Y-72392857D01*
X232333334Y-72535714D01*
X232285715Y-72630952D01*
X232238096Y-72678571D01*
X232142858Y-72726190D01*
X231761905Y-72726190D01*
X232714286Y-72297619D02*
X232761905Y-72250000D01*
X232857143Y-72202381D01*
X233095239Y-72202381D01*
X233190477Y-72250000D01*
X233238096Y-72297619D01*
X233285715Y-72392857D01*
X233285715Y-72488095D01*
X233238096Y-72630952D01*
X232666667Y-73202381D01*
X233285715Y-73202381D01*
X254433334Y-101652381D02*
X254100000Y-101176190D01*
X253861905Y-101652381D02*
X253861905Y-100652381D01*
X254242858Y-100652381D01*
X254338096Y-100700000D01*
X254385715Y-100747619D01*
X254433334Y-100842857D01*
X254433334Y-100985714D01*
X254385715Y-101080952D01*
X254338096Y-101128571D01*
X254242858Y-101176190D01*
X253861905Y-101176190D01*
X254766667Y-100652381D02*
X255385715Y-100652381D01*
X255052381Y-101033333D01*
X255195239Y-101033333D01*
X255290477Y-101080952D01*
X255338096Y-101128571D01*
X255385715Y-101223810D01*
X255385715Y-101461905D01*
X255338096Y-101557143D01*
X255290477Y-101604762D01*
X255195239Y-101652381D01*
X254909524Y-101652381D01*
X254814286Y-101604762D01*
X254766667Y-101557143D01*
X233083334Y-70952381D02*
X232750000Y-70476190D01*
X232511905Y-70952381D02*
X232511905Y-69952381D01*
X232892858Y-69952381D01*
X232988096Y-70000000D01*
X233035715Y-70047619D01*
X233083334Y-70142857D01*
X233083334Y-70285714D01*
X233035715Y-70380952D01*
X232988096Y-70428571D01*
X232892858Y-70476190D01*
X232511905Y-70476190D01*
X233940477Y-70285714D02*
X233940477Y-70952381D01*
X233702381Y-69904762D02*
X233464286Y-70619048D01*
X234083334Y-70619048D01*
X254433334Y-97652381D02*
X254100000Y-97176190D01*
X253861905Y-97652381D02*
X253861905Y-96652381D01*
X254242858Y-96652381D01*
X254338096Y-96700000D01*
X254385715Y-96747619D01*
X254433334Y-96842857D01*
X254433334Y-96985714D01*
X254385715Y-97080952D01*
X254338096Y-97128571D01*
X254242858Y-97176190D01*
X253861905Y-97176190D01*
X255338096Y-96652381D02*
X254861905Y-96652381D01*
X254814286Y-97128571D01*
X254861905Y-97080952D01*
X254957143Y-97033333D01*
X255195239Y-97033333D01*
X255290477Y-97080952D01*
X255338096Y-97128571D01*
X255385715Y-97223810D01*
X255385715Y-97461905D01*
X255338096Y-97557143D01*
X255290477Y-97604762D01*
X255195239Y-97652381D01*
X254957143Y-97652381D01*
X254861905Y-97604762D01*
X254814286Y-97557143D01*
X254433334Y-99652381D02*
X254100000Y-99176190D01*
X253861905Y-99652381D02*
X253861905Y-98652381D01*
X254242858Y-98652381D01*
X254338096Y-98700000D01*
X254385715Y-98747619D01*
X254433334Y-98842857D01*
X254433334Y-98985714D01*
X254385715Y-99080952D01*
X254338096Y-99128571D01*
X254242858Y-99176190D01*
X253861905Y-99176190D01*
X255290477Y-98652381D02*
X255100000Y-98652381D01*
X255004762Y-98700000D01*
X254957143Y-98747619D01*
X254861905Y-98890476D01*
X254814286Y-99080952D01*
X254814286Y-99461905D01*
X254861905Y-99557143D01*
X254909524Y-99604762D01*
X255004762Y-99652381D01*
X255195239Y-99652381D01*
X255290477Y-99604762D01*
X255338096Y-99557143D01*
X255385715Y-99461905D01*
X255385715Y-99223810D01*
X255338096Y-99128571D01*
X255290477Y-99080952D01*
X255195239Y-99033333D01*
X255004762Y-99033333D01*
X254909524Y-99080952D01*
X254861905Y-99128571D01*
X254814286Y-99223810D01*
X254433334Y-106452381D02*
X254100000Y-105976190D01*
X253861905Y-106452381D02*
X253861905Y-105452381D01*
X254242858Y-105452381D01*
X254338096Y-105500000D01*
X254385715Y-105547619D01*
X254433334Y-105642857D01*
X254433334Y-105785714D01*
X254385715Y-105880952D01*
X254338096Y-105928571D01*
X254242858Y-105976190D01*
X253861905Y-105976190D01*
X254766667Y-105452381D02*
X255433334Y-105452381D01*
X255004762Y-106452381D01*
X254433334Y-104252381D02*
X254100000Y-103776190D01*
X253861905Y-104252381D02*
X253861905Y-103252381D01*
X254242858Y-103252381D01*
X254338096Y-103300000D01*
X254385715Y-103347619D01*
X254433334Y-103442857D01*
X254433334Y-103585714D01*
X254385715Y-103680952D01*
X254338096Y-103728571D01*
X254242858Y-103776190D01*
X253861905Y-103776190D01*
X255004762Y-103680952D02*
X254909524Y-103633333D01*
X254861905Y-103585714D01*
X254814286Y-103490476D01*
X254814286Y-103442857D01*
X254861905Y-103347619D01*
X254909524Y-103300000D01*
X255004762Y-103252381D01*
X255195239Y-103252381D01*
X255290477Y-103300000D01*
X255338096Y-103347619D01*
X255385715Y-103442857D01*
X255385715Y-103490476D01*
X255338096Y-103585714D01*
X255290477Y-103633333D01*
X255195239Y-103680952D01*
X255004762Y-103680952D01*
X254909524Y-103728571D01*
X254861905Y-103776190D01*
X254814286Y-103871429D01*
X254814286Y-104061905D01*
X254861905Y-104157143D01*
X254909524Y-104204762D01*
X255004762Y-104252381D01*
X255195239Y-104252381D01*
X255290477Y-104204762D01*
X255338096Y-104157143D01*
X255385715Y-104061905D01*
X255385715Y-103871429D01*
X255338096Y-103776190D01*
X255290477Y-103728571D01*
X255195239Y-103680952D01*
X238233334Y-68252381D02*
X237900000Y-67776190D01*
X237661905Y-68252381D02*
X237661905Y-67252381D01*
X238042858Y-67252381D01*
X238138096Y-67300000D01*
X238185715Y-67347619D01*
X238233334Y-67442857D01*
X238233334Y-67585714D01*
X238185715Y-67680952D01*
X238138096Y-67728571D01*
X238042858Y-67776190D01*
X237661905Y-67776190D01*
X238709524Y-68252381D02*
X238900000Y-68252381D01*
X238995239Y-68204762D01*
X239042858Y-68157143D01*
X239138096Y-68014286D01*
X239185715Y-67823810D01*
X239185715Y-67442857D01*
X239138096Y-67347619D01*
X239090477Y-67300000D01*
X238995239Y-67252381D01*
X238804762Y-67252381D01*
X238709524Y-67300000D01*
X238661905Y-67347619D01*
X238614286Y-67442857D01*
X238614286Y-67680952D01*
X238661905Y-67776190D01*
X238709524Y-67823810D01*
X238804762Y-67871429D01*
X238995239Y-67871429D01*
X239090477Y-67823810D01*
X239138096Y-67776190D01*
X239185715Y-67680952D01*
X241052381Y-64842857D02*
X240576190Y-65176191D01*
X241052381Y-65414286D02*
X240052381Y-65414286D01*
X240052381Y-65033333D01*
X240100000Y-64938095D01*
X240147619Y-64890476D01*
X240242857Y-64842857D01*
X240385714Y-64842857D01*
X240480952Y-64890476D01*
X240528571Y-64938095D01*
X240576190Y-65033333D01*
X240576190Y-65414286D01*
X241052381Y-63890476D02*
X241052381Y-64461905D01*
X241052381Y-64176191D02*
X240052381Y-64176191D01*
X240195238Y-64271429D01*
X240290476Y-64366667D01*
X240338095Y-64461905D01*
X240052381Y-63271429D02*
X240052381Y-63176190D01*
X240100000Y-63080952D01*
X240147619Y-63033333D01*
X240242857Y-62985714D01*
X240433333Y-62938095D01*
X240671429Y-62938095D01*
X240861905Y-62985714D01*
X240957143Y-63033333D01*
X241004762Y-63080952D01*
X241052381Y-63176190D01*
X241052381Y-63271429D01*
X241004762Y-63366667D01*
X240957143Y-63414286D01*
X240861905Y-63461905D01*
X240671429Y-63509524D01*
X240433333Y-63509524D01*
X240242857Y-63461905D01*
X240147619Y-63414286D01*
X240100000Y-63366667D01*
X240052381Y-63271429D01*
X240988095Y-93602381D02*
X240988095Y-94411905D01*
X241035714Y-94507143D01*
X241083333Y-94554762D01*
X241178571Y-94602381D01*
X241369048Y-94602381D01*
X241464286Y-94554762D01*
X241511905Y-94507143D01*
X241559524Y-94411905D01*
X241559524Y-93602381D01*
X241940476Y-93602381D02*
X242559524Y-93602381D01*
X242226190Y-93983333D01*
X242369048Y-93983333D01*
X242464286Y-94030952D01*
X242511905Y-94078571D01*
X242559524Y-94173810D01*
X242559524Y-94411905D01*
X242511905Y-94507143D01*
X242464286Y-94554762D01*
X242369048Y-94602381D01*
X242083333Y-94602381D01*
X241988095Y-94554762D01*
X241940476Y-94507143D01*
X254576190Y-88876191D02*
X255052381Y-88876191D01*
X254052381Y-89209524D02*
X254576190Y-88876191D01*
X254052381Y-88542857D01*
X255052381Y-87685714D02*
X255052381Y-88257143D01*
X255052381Y-87971429D02*
X254052381Y-87971429D01*
X254195238Y-88066667D01*
X254290476Y-88161905D01*
X254338095Y-88257143D01*
X227157143Y-99502381D02*
X226823809Y-99026190D01*
X226585714Y-99502381D02*
X226585714Y-98502381D01*
X226966667Y-98502381D01*
X227061905Y-98550000D01*
X227109524Y-98597619D01*
X227157143Y-98692857D01*
X227157143Y-98835714D01*
X227109524Y-98930952D01*
X227061905Y-98978571D01*
X226966667Y-99026190D01*
X226585714Y-99026190D01*
X228109524Y-99502381D02*
X227538095Y-99502381D01*
X227823809Y-99502381D02*
X227823809Y-98502381D01*
X227728571Y-98645238D01*
X227633333Y-98740476D01*
X227538095Y-98788095D01*
X229061905Y-99502381D02*
X228490476Y-99502381D01*
X228776190Y-99502381D02*
X228776190Y-98502381D01*
X228680952Y-98645238D01*
X228585714Y-98740476D01*
X228490476Y-98788095D01*
X224466667Y-116652381D02*
X224466667Y-117366667D01*
X224419047Y-117509524D01*
X224323809Y-117604762D01*
X224180952Y-117652381D01*
X224085714Y-117652381D01*
X224847619Y-116652381D02*
X225466667Y-116652381D01*
X225133333Y-117033333D01*
X225276191Y-117033333D01*
X225371429Y-117080952D01*
X225419048Y-117128571D01*
X225466667Y-117223810D01*
X225466667Y-117461905D01*
X225419048Y-117557143D01*
X225371429Y-117604762D01*
X225276191Y-117652381D01*
X224990476Y-117652381D01*
X224895238Y-117604762D01*
X224847619Y-117557143D01*
X230423810Y-117652381D02*
X229947619Y-117652381D01*
X229947619Y-116652381D01*
X231328572Y-117557143D02*
X231280953Y-117604762D01*
X231138096Y-117652381D01*
X231042858Y-117652381D01*
X230900000Y-117604762D01*
X230804762Y-117509524D01*
X230757143Y-117414286D01*
X230709524Y-117223810D01*
X230709524Y-117080952D01*
X230757143Y-116890476D01*
X230804762Y-116795238D01*
X230900000Y-116700000D01*
X231042858Y-116652381D01*
X231138096Y-116652381D01*
X231280953Y-116700000D01*
X231328572Y-116747619D01*
X231757143Y-117652381D02*
X231757143Y-116652381D01*
X231995238Y-116652381D01*
X232138096Y-116700000D01*
X232233334Y-116795238D01*
X232280953Y-116890476D01*
X232328572Y-117080952D01*
X232328572Y-117223810D01*
X232280953Y-117414286D01*
X232233334Y-117509524D01*
X232138096Y-117604762D01*
X231995238Y-117652381D01*
X231757143Y-117652381D01*
X232519048Y-117747619D02*
X233280953Y-117747619D01*
X233852382Y-117128571D02*
X233995239Y-117176190D01*
X234042858Y-117223810D01*
X234090477Y-117319048D01*
X234090477Y-117461905D01*
X234042858Y-117557143D01*
X233995239Y-117604762D01*
X233900001Y-117652381D01*
X233519048Y-117652381D01*
X233519048Y-116652381D01*
X233852382Y-116652381D01*
X233947620Y-116700000D01*
X233995239Y-116747619D01*
X234042858Y-116842857D01*
X234042858Y-116938095D01*
X233995239Y-117033333D01*
X233947620Y-117080952D01*
X233852382Y-117128571D01*
X233519048Y-117128571D01*
X234995239Y-117652381D02*
X234519048Y-117652381D01*
X234519048Y-116652381D01*
X227157143Y-106302381D02*
X226823809Y-105826190D01*
X226585714Y-106302381D02*
X226585714Y-105302381D01*
X226966667Y-105302381D01*
X227061905Y-105350000D01*
X227109524Y-105397619D01*
X227157143Y-105492857D01*
X227157143Y-105635714D01*
X227109524Y-105730952D01*
X227061905Y-105778571D01*
X226966667Y-105826190D01*
X226585714Y-105826190D01*
X228109524Y-106302381D02*
X227538095Y-106302381D01*
X227823809Y-106302381D02*
X227823809Y-105302381D01*
X227728571Y-105445238D01*
X227633333Y-105540476D01*
X227538095Y-105588095D01*
X228490476Y-105397619D02*
X228538095Y-105350000D01*
X228633333Y-105302381D01*
X228871429Y-105302381D01*
X228966667Y-105350000D01*
X229014286Y-105397619D01*
X229061905Y-105492857D01*
X229061905Y-105588095D01*
X229014286Y-105730952D01*
X228442857Y-106302381D01*
X229061905Y-106302381D01*
X255944762Y-61412381D02*
X255611428Y-60936190D01*
X255373333Y-61412381D02*
X255373333Y-60412381D01*
X255754286Y-60412381D01*
X255849524Y-60460000D01*
X255897143Y-60507619D01*
X255944762Y-60602857D01*
X255944762Y-60745714D01*
X255897143Y-60840952D01*
X255849524Y-60888571D01*
X255754286Y-60936190D01*
X255373333Y-60936190D01*
X256230476Y-60412381D02*
X256563809Y-61412381D01*
X256897143Y-60412381D01*
X257754286Y-61412381D02*
X257182857Y-61412381D01*
X257468571Y-61412381D02*
X257468571Y-60412381D01*
X257373333Y-60555238D01*
X257278095Y-60650476D01*
X257182857Y-60698095D01*
X246352381Y-58666666D02*
X246352381Y-59142857D01*
X245352381Y-59142857D01*
X246352381Y-57809523D02*
X246352381Y-58380952D01*
X246352381Y-58095238D02*
X245352381Y-58095238D01*
X245495238Y-58190476D01*
X245590476Y-58285714D01*
X245638095Y-58380952D01*
X237988095Y-58452381D02*
X237988095Y-59261905D01*
X238035714Y-59357143D01*
X238083333Y-59404762D01*
X238178571Y-59452381D01*
X238369048Y-59452381D01*
X238464286Y-59404762D01*
X238511905Y-59357143D01*
X238559524Y-59261905D01*
X238559524Y-58452381D01*
X238988095Y-58547619D02*
X239035714Y-58500000D01*
X239130952Y-58452381D01*
X239369048Y-58452381D01*
X239464286Y-58500000D01*
X239511905Y-58547619D01*
X239559524Y-58642857D01*
X239559524Y-58738095D01*
X239511905Y-58880952D01*
X238940476Y-59452381D01*
X239559524Y-59452381D01*
X256066667Y-108452381D02*
X256066667Y-109166667D01*
X256019047Y-109309524D01*
X255923809Y-109404762D01*
X255780952Y-109452381D01*
X255685714Y-109452381D01*
X256495238Y-108547619D02*
X256542857Y-108500000D01*
X256638095Y-108452381D01*
X256876191Y-108452381D01*
X256971429Y-108500000D01*
X257019048Y-108547619D01*
X257066667Y-108642857D01*
X257066667Y-108738095D01*
X257019048Y-108880952D01*
X256447619Y-109452381D01*
X257066667Y-109452381D01*
X258361905Y-109452381D02*
X258361905Y-108452381D01*
X258600000Y-108452381D01*
X258742858Y-108500000D01*
X258838096Y-108595238D01*
X258885715Y-108690476D01*
X258933334Y-108880952D01*
X258933334Y-109023810D01*
X258885715Y-109214286D01*
X258838096Y-109309524D01*
X258742858Y-109404762D01*
X258600000Y-109452381D01*
X258361905Y-109452381D01*
X259361905Y-108928571D02*
X259695239Y-108928571D01*
X259838096Y-109452381D02*
X259361905Y-109452381D01*
X259361905Y-108452381D01*
X259838096Y-108452381D01*
X260600001Y-108928571D02*
X260742858Y-108976190D01*
X260790477Y-109023810D01*
X260838096Y-109119048D01*
X260838096Y-109261905D01*
X260790477Y-109357143D01*
X260742858Y-109404762D01*
X260647620Y-109452381D01*
X260266667Y-109452381D01*
X260266667Y-108452381D01*
X260600001Y-108452381D01*
X260695239Y-108500000D01*
X260742858Y-108547619D01*
X260790477Y-108642857D01*
X260790477Y-108738095D01*
X260742858Y-108833333D01*
X260695239Y-108880952D01*
X260600001Y-108928571D01*
X260266667Y-108928571D01*
X261266667Y-108452381D02*
X261266667Y-109261905D01*
X261314286Y-109357143D01*
X261361905Y-109404762D01*
X261457143Y-109452381D01*
X261647620Y-109452381D01*
X261742858Y-109404762D01*
X261790477Y-109357143D01*
X261838096Y-109261905D01*
X261838096Y-108452381D01*
X262838096Y-108500000D02*
X262742858Y-108452381D01*
X262600001Y-108452381D01*
X262457143Y-108500000D01*
X262361905Y-108595238D01*
X262314286Y-108690476D01*
X262266667Y-108880952D01*
X262266667Y-109023810D01*
X262314286Y-109214286D01*
X262361905Y-109309524D01*
X262457143Y-109404762D01*
X262600001Y-109452381D01*
X262695239Y-109452381D01*
X262838096Y-109404762D01*
X262885715Y-109357143D01*
X262885715Y-109023810D01*
X262695239Y-109023810D01*
X227666667Y-55452381D02*
X227666667Y-56166667D01*
X227619047Y-56309524D01*
X227523809Y-56404762D01*
X227380952Y-56452381D01*
X227285714Y-56452381D01*
X228571429Y-55785714D02*
X228571429Y-56452381D01*
X228333333Y-55404762D02*
X228095238Y-56119048D01*
X228714286Y-56119048D01*
X231380953Y-56357143D02*
X231333334Y-56404762D01*
X231190477Y-56452381D01*
X231095239Y-56452381D01*
X230952381Y-56404762D01*
X230857143Y-56309524D01*
X230809524Y-56214286D01*
X230761905Y-56023810D01*
X230761905Y-55880952D01*
X230809524Y-55690476D01*
X230857143Y-55595238D01*
X230952381Y-55500000D01*
X231095239Y-55452381D01*
X231190477Y-55452381D01*
X231333334Y-55500000D01*
X231380953Y-55547619D01*
X231761905Y-56166667D02*
X232238096Y-56166667D01*
X231666667Y-56452381D02*
X232000000Y-55452381D01*
X232333334Y-56452381D01*
X233238096Y-56452381D02*
X232904762Y-55976190D01*
X232666667Y-56452381D02*
X232666667Y-55452381D01*
X233047620Y-55452381D01*
X233142858Y-55500000D01*
X233190477Y-55547619D01*
X233238096Y-55642857D01*
X233238096Y-55785714D01*
X233190477Y-55880952D01*
X233142858Y-55928571D01*
X233047620Y-55976190D01*
X232666667Y-55976190D01*
X240844762Y-72933333D02*
X240892381Y-72790476D01*
X240892381Y-72552380D01*
X240844762Y-72457142D01*
X240797143Y-72409523D01*
X240701905Y-72361904D01*
X240606667Y-72361904D01*
X240511429Y-72409523D01*
X240463810Y-72457142D01*
X240416190Y-72552380D01*
X240368571Y-72742857D01*
X240320952Y-72838095D01*
X240273333Y-72885714D01*
X240178095Y-72933333D01*
X240082857Y-72933333D01*
X239987619Y-72885714D01*
X239940000Y-72838095D01*
X239892381Y-72742857D01*
X239892381Y-72504761D01*
X239940000Y-72361904D01*
X239892381Y-72028571D02*
X240892381Y-71790476D01*
X240178095Y-71599999D01*
X240892381Y-71409523D01*
X239892381Y-71171428D01*
X240892381Y-70266666D02*
X240892381Y-70838095D01*
X240892381Y-70552381D02*
X239892381Y-70552381D01*
X240035238Y-70647619D01*
X240130476Y-70742857D01*
X240178095Y-70838095D01*
%LPC*%
D15*
X265000000Y-114500000D03*
D16*
X238850000Y-85750000D03*
X238850000Y-85250000D03*
X238850000Y-84750000D03*
X238850000Y-84250000D03*
X238850000Y-83750000D03*
X238850000Y-83250000D03*
X238850000Y-82750000D03*
X238850000Y-82250000D03*
X238850000Y-81750000D03*
X238850000Y-81250000D03*
X238850000Y-80750000D03*
X238850000Y-80250000D03*
D17*
X237250000Y-78650000D03*
X236750000Y-78650000D03*
X236250000Y-78650000D03*
X235750000Y-78650000D03*
X235250000Y-78650000D03*
X234750000Y-78650000D03*
X234250000Y-78650000D03*
X233750000Y-78650000D03*
X233250000Y-78650000D03*
X232750000Y-78650000D03*
X232250000Y-78650000D03*
X231750000Y-78650000D03*
D16*
X230150000Y-80250000D03*
X230150000Y-80750000D03*
X230150000Y-81250000D03*
X230150000Y-81750000D03*
X230150000Y-82250000D03*
X230150000Y-82750000D03*
X230150000Y-83250000D03*
X230150000Y-83750000D03*
X230150000Y-84250000D03*
X230150000Y-84750000D03*
X230150000Y-85250000D03*
X230150000Y-85750000D03*
D17*
X231750000Y-87350000D03*
X232250000Y-87350000D03*
X232750000Y-87350000D03*
X233250000Y-87350000D03*
X233750000Y-87350000D03*
X234250000Y-87350000D03*
X234750000Y-87350000D03*
X235250000Y-87350000D03*
X235750000Y-87350000D03*
X236250000Y-87350000D03*
X236750000Y-87350000D03*
X237250000Y-87350000D03*
D18*
X261000000Y-68000000D03*
D19*
X258460000Y-68000000D03*
X261000000Y-70540000D03*
X258460000Y-70540000D03*
X261000000Y-73080000D03*
X258460000Y-73080000D03*
X261000000Y-75620000D03*
X258460000Y-75620000D03*
X261000000Y-78160000D03*
X258460000Y-78160000D03*
X261000000Y-80700000D03*
X258460000Y-80700000D03*
X261000000Y-83240000D03*
X258460000Y-83240000D03*
X261000000Y-85780000D03*
X258460000Y-85780000D03*
X261000000Y-88320000D03*
X258460000Y-88320000D03*
X261000000Y-90860000D03*
X258460000Y-90860000D03*
D20*
X246000000Y-79500000D03*
X246000000Y-81000000D03*
X244500000Y-79500000D03*
X244500000Y-81000000D03*
D21*
X238000000Y-91750000D03*
X236500000Y-91750000D03*
X238000000Y-90000000D03*
X236500000Y-90000000D03*
X237500000Y-75250000D03*
X236000000Y-75250000D03*
X231500000Y-75250000D03*
X233000000Y-75250000D03*
X249950000Y-61200000D03*
X248450000Y-61200000D03*
D20*
X236200000Y-59250000D03*
X236200000Y-60750000D03*
D21*
X238000000Y-57450000D03*
X239500000Y-57450000D03*
D20*
X239000000Y-97650000D03*
X239000000Y-96150000D03*
X245000000Y-97650000D03*
X245000000Y-96150000D03*
X246500000Y-83750000D03*
X246500000Y-85250000D03*
X244500000Y-82500000D03*
X244500000Y-84000000D03*
D22*
X242750000Y-88000000D03*
X242750000Y-89500000D03*
D23*
X235500000Y-72750000D03*
X234000000Y-72750000D03*
X251450000Y-101200000D03*
X252950000Y-101200000D03*
X236250000Y-70500000D03*
X234750000Y-70500000D03*
X252950000Y-97200000D03*
X251450000Y-97200000D03*
X251450000Y-99200000D03*
X252950000Y-99200000D03*
X251450000Y-106000000D03*
X252950000Y-106000000D03*
X251450000Y-103800000D03*
X252950000Y-103800000D03*
X239250000Y-66250000D03*
X237750000Y-66250000D03*
X237750000Y-64250000D03*
X239250000Y-64250000D03*
D24*
X240900000Y-95950000D03*
X240900000Y-96900000D03*
X240900000Y-97850000D03*
X243100000Y-97850000D03*
X243100000Y-95950000D03*
D25*
X251000000Y-87250000D03*
X251000000Y-78750000D03*
D26*
X229250000Y-97200000D03*
X226350000Y-97200000D03*
D18*
X233680000Y-114300000D03*
D19*
X233680000Y-111760000D03*
X233680000Y-109220000D03*
D26*
X229250000Y-104000000D03*
X226350000Y-104000000D03*
D27*
X254000000Y-56134000D03*
X251460000Y-58674000D03*
X256540000Y-58674000D03*
D10*
G36*
X244945000Y-57090000D02*
X240655000Y-57090000D01*
X241205000Y-56130000D01*
X244395000Y-56130000D01*
X244945000Y-57090000D01*
X244945000Y-57090000D01*
G37*
D28*
X241350000Y-57330000D03*
X244240000Y-57330000D03*
X244240000Y-59670000D03*
D10*
G36*
X240655000Y-59910000D02*
X244945000Y-59910000D01*
X244395000Y-60870000D01*
X241205000Y-60870000D01*
X240655000Y-59910000D01*
X240655000Y-59910000D01*
G37*
D28*
X241360000Y-59670000D03*
D29*
X242780000Y-57050000D03*
X242800000Y-59950000D03*
D30*
X237800000Y-60250000D03*
X237800000Y-60750000D03*
X237800000Y-61250000D03*
X237800000Y-61750000D03*
X237800000Y-62250000D03*
X239700000Y-62250000D03*
X239700000Y-61750000D03*
X239700000Y-61250000D03*
X239700000Y-60750000D03*
X239700000Y-60250000D03*
D31*
X238750000Y-61250000D03*
D32*
X238750000Y-61250000D03*
X238750000Y-62200000D03*
X238750000Y-60300000D03*
D33*
X256930000Y-99060000D03*
D34*
X258200000Y-99060000D03*
X256930000Y-100330000D03*
X258200000Y-100330000D03*
X256930000Y-101600000D03*
X258200000Y-101600000D03*
X256930000Y-102870000D03*
X258200000Y-102870000D03*
X256930000Y-104140000D03*
X258200000Y-104140000D03*
D18*
X233680000Y-66040000D03*
D19*
X233680000Y-63500000D03*
X233680000Y-60960000D03*
X233680000Y-58420000D03*
D35*
X243920000Y-71620000D03*
D36*
X251540000Y-64000000D03*
X246460000Y-71620000D03*
X249000000Y-64000000D03*
X249000000Y-71620000D03*
X246460000Y-64000000D03*
X251540000Y-71620000D03*
X243920000Y-64000000D03*
D15*
X265000000Y-60500000D03*
M02*
